<?xml version="1.0" encoding="UTF-8"?>
<svg width="151px" height="151px" viewBox="0 0 151 151" version="1.1" xmlns="http://www.w3.org/2000/svg" xmlns:xlink="http://www.w3.org/1999/xlink">
    <title>Group 2</title>
    <defs>
        <path d="M4.86164019,22.4849604 L145.05678,22.4849604 C145.671848,22.4849604 146.170459,22.9835718 146.170459,23.5986401 L146.170459,143.164816 C146.170459,143.779885 145.671848,144.278496 145.05678,144.278496 L4.86164019,144.278496 C4.24657188,144.278496 3.7479605,143.779885 3.7479605,143.164816 L3.7479605,23.5986401 C3.7479605,22.9835718 4.24657188,22.4849604 4.86164019,22.4849604 Z" id="path-1"></path>
        <linearGradient x1="-7.38904937%" y1="48.5374145%" x2="114.193803%" y2="51.4625855%" id="linearGradient-3">
            <stop stop-color="#53BBBC" offset="0%"></stop>
            <stop stop-color="#2A909A" offset="100%"></stop>
        </linearGradient>
    </defs>
    <g id="Publisher-Control-Tower" stroke="none" stroke-width="1" fill="none" fill-rule="evenodd">
        <g id="Products-screen" transform="translate(-2024, -428)">
            <g id="Cards-/-List-1-up-/-Filled-/-Overline-/-Resting-Copy-3" transform="translate(1551.3615, 332.9916)">
                <g id="Group-2" transform="translate(473.4938, 95.2934)">
                    <g id="Group">
                        <g id="lightbox_icon">
                            <path d="M139.209961,0.535422928 C142.019168,0.535422928 144.562426,1.67407873 146.403384,3.51503608 C148.244341,5.35599344 149.382997,7.89925234 149.382997,10.7084586 L149.382997,139.191278 C149.382997,142.000484 148.244341,144.543743 146.403384,146.3847 C144.562426,148.225657 142.019168,149.364313 139.209961,149.364313 L10.7084586,149.364313 C7.89925234,149.364313 5.35599344,148.225657 3.51503608,146.3847 C1.67407873,144.543743 0.535422928,142.000484 0.535422928,139.191278 L0.535422928,10.7084586 C0.535422928,7.89925234 1.67407873,5.35599344 3.51503608,3.51503608 C5.35599344,1.67407873 7.89925234,0.535422928 10.7084586,0.535422928 Z" id="Rectangle-2" stroke="#D3D9E3" stroke-width="1.07084586" fill="#F0F0F0"></path>
                            <g id="Group-4" opacity="0.699999988" transform="translate(7.4959, 5.6212)">
                                <ellipse id="Oval-2" fill="#FB764D" cx="4.38511378" cy="4.38456728" rx="4.38511378" ry="4.38456728"></ellipse>
                                <ellipse id="Oval-2" fill="#FFD393" cx="17.0532203" cy="4.38456728" rx="4.38511378" ry="4.38456728"></ellipse>
                                <ellipse id="Oval-2" fill="#7FF27F" cx="30.6957965" cy="4.38456728" rx="4.38511378" ry="4.38456728"></ellipse>
                            </g>
                            <mask id="mask-2" fill="white">
                                <use xlink:href="#path-1"></use>
                            </mask>
                            <use id="Rectangle-2-Copy" fill="#E2F3F3" xlink:href="#path-1"></use>
                            <rect id="Rectangle-Copy-136" fill="#D2D7DC" mask="url(#mask-2)" x="3.7479605" y="22.4849604" width="142.422499" height="18.737467"></rect>
                            <rect id="Rectangle-6" fill="url(#linearGradient-3)" opacity="0.695800781" mask="url(#mask-2)" x="3.7479605" y="41.2224274" width="142.422499" height="24.3587071"></rect>
                            <g id="Group-3-Copy-2" mask="url(#mask-2)">
                                <g transform="translate(20.6138, 84.3186)"></g>
                            </g>
                            <rect id="Rectangle" fill="#71BDC0" opacity="0.400000006" mask="url(#mask-2)" x="9.36990125" y="69.328628" width="36.5426149" height="29.9799472"></rect>
                            <rect id="Rectangle-Copy-2" fill="#71BDC0" opacity="0.400000006" mask="url(#mask-2)" x="9.36990125" y="103.992942" width="36.5426149" height="29.9799472"></rect>
                            <rect id="Rectangle-Copy-8" fill="#71BDC0" opacity="0.400000006" mask="url(#mask-2)" x="9.36990125" y="140.531003" width="36.5426149" height="29.9799472"></rect>
                            <rect id="Rectangle-Copy" fill="#71BDC0" opacity="0.400000006" mask="url(#mask-2)" x="49.8478746" y="69.328628" width="91.8250322" height="3.7474934"></rect>
                            <rect id="Rectangle-Copy-5" fill="#71BDC0" opacity="0.400000006" mask="url(#mask-2)" x="49.8478746" y="103.992942" width="91.8250322" height="3.7474934"></rect>
                            <rect id="Rectangle-Copy-9" fill="#71BDC0" opacity="0.400000006" mask="url(#mask-2)" x="49.8478746" y="140.531003" width="91.8250322" height="3.7474934"></rect>
                            <rect id="Rectangle-Copy-3" fill="#71BDC0" opacity="0.400000006" mask="url(#mask-2)" x="49.8478746" y="78.6973615" width="91.8250322" height="3.7474934"></rect>
                            <rect id="Rectangle-Copy-6" fill="#71BDC0" opacity="0.400000006" mask="url(#mask-2)" x="49.8478746" y="113.361675" width="91.8250322" height="3.7474934"></rect>
                            <rect id="Rectangle-Copy-4" fill="#71BDC0" opacity="0.400000006" mask="url(#mask-2)" x="49.8478746" y="88.066095" width="91.8250322" height="3.7474934"></rect>
                            <rect id="Rectangle-Copy-7" fill="#71BDC0" opacity="0.400000006" mask="url(#mask-2)" x="49.8478746" y="122.730409" width="91.8250322" height="3.7474934"></rect>
                        </g>
                        <g id="CURSOR-TYPE" transform="translate(18.519, 39.1285)">
                            <polygon id="Fill-2" fill="#F7B33E" points="7.97401619 34.5500609 17.2767219 25.2473552 33.2247542 41.1953876 41.1968911 33.2232508 25.2451 17.2752184 34.5515644 7.97251272 0.00187933448 0.000375866894"></polygon>
                            <polygon id="Stroke-3" stroke="#FFFFFF" stroke-width="3.75866896" points="0 0 7.97213686 34.549685 17.2748425 25.2469794 33.2228749 41.1950118 41.1950118 33.2228749 25.2469794 17.2748425 34.549685 7.97213686"></polygon>
                        </g>
                    </g>
                    <ellipse id="Oval" fill-opacity="0.626665449" fill="#FFFFFF" cx="14.0548519" cy="31.8536939" rx="8.43291112" ry="8.43186016"></ellipse>
                    <path d="M45.7416884,31.3901398 C45.8387099,31.3901398 45.9173736,31.3114859 45.9173736,31.2144765 L45.9173736,28.2818795 C45.9173736,28.1848701 45.8387099,28.1062162 45.7416884,28.1062162 L45.0475687,28.1062162 C44.9472446,28.1062162 44.8672798,28.1900737 44.8720694,28.2902853 L44.930145,29.5018591 C44.2642196,28.7196369 43.2724445,28.2233251 42.1645467,28.2233251 C40.3903232,28.2233251 38.9133834,29.4957692 38.5966124,31.1777513 C38.576296,31.2856253 38.6596778,31.3852651 38.7694668,31.3852651 L39.4880777,31.3852651 C39.5696295,31.3852651 39.6400151,31.3290265 39.6590305,31.2497293 C39.930522,30.1176814 40.9483754,29.2773051 42.1645467,29.2773051 C43.0560405,29.2773051 43.8410481,29.7290006 44.3035658,30.4162004 L42.8171327,30.3449802 C42.7169086,30.3401912 42.6330406,30.4201317 42.6330406,30.5204434 L42.6330406,31.2144765 C42.6330406,31.3114859 42.7117044,31.3901398 42.8087258,31.3901398 L45.7416884,31.3901398 Z M39.286014,35.6011851 C39.3864954,35.6011851 39.4665031,35.5170846 39.4614847,35.4167586 L39.4010357,34.2079724 C40.0669325,34.9887937 41.0578069,35.4840762 42.1645467,35.4840762 C43.9387702,35.4840762 45.4157099,34.2116321 45.7324809,32.5296499 C45.7527974,32.421776 45.6694155,32.3221362 45.5596266,32.3221362 L44.8410156,32.3221362 C44.7594638,32.3221362 44.6890782,32.3783748 44.6700628,32.457672 C44.3985714,33.5897198 43.3807179,34.4300962 42.1645467,34.4300962 C41.2730242,34.4300962 40.4879737,33.9783721 40.0254417,33.2911436 L41.5168361,33.3624497 C41.6170458,33.3672244 41.7009138,33.2872838 41.7009138,33.1869865 L41.7009138,32.492939 C41.7009138,32.3959297 41.6222501,32.3172757 41.5252286,32.3172757 L38.5922803,32.3172757 C38.4952589,32.3172757 38.4165951,32.3959297 38.4165951,32.492939 L38.4165951,35.4255218 C38.4165951,35.5225312 38.4952589,35.6011851 38.5922803,35.6011851 L39.286014,35.6011851 Z" id="sync" fill="#8F929F" fill-rule="nonzero"></path>
                    <path d="M29.8460492,34.9468363 L32.6921557,32.1010989 C32.8297815,31.9649484 32.8297815,31.7424529 32.6921557,31.6048442 L29.8460492,28.7605649 C29.709896,28.6229563 29.4873586,28.6229563 29.349747,28.7605649 L29.0247265,29.085545 C28.884184,29.2246118 28.8871007,29.4515103 29.0305884,29.5876465 L30.7947609,31.2681562 L26.5870939,31.2681562 C26.392379,31.2681562 26.2357235,31.4247922 26.2357235,31.6194829 L26.2357235,32.0879184 C26.2357235,32.2826091 26.392379,32.4392451 26.5870939,32.4392451 L30.7947609,32.4392451 L29.0305884,34.1197548 C28.8885733,34.255891 28.8856424,34.4827895 29.0247265,34.6218563 L29.349747,34.9468363 C29.4859002,35.084445 29.7084377,35.084445 29.8460492,34.9468363 Z" id="arrow-right" fill="#8F929F" fill-rule="nonzero"></path>
                    <path d="M14.7301297,35.9543403 L15.1364054,35.5481152 C15.3120835,35.3742817 15.3084377,35.0906586 15.129078,34.9204883 L12.9238624,32.8198512 L18.1834461,32.8198512 C18.4268398,32.8198512 18.6226592,32.6240562 18.6226592,32.3806929 L18.6226592,31.7951484 C18.6226592,31.5517851 18.4268398,31.3559901 18.1834461,31.3559901 L12.9238624,31.3559901 L15.129078,29.255353 C15.3065969,29.0851827 15.3102606,28.8015596 15.1364054,28.6277261 L14.7301297,28.221501 C14.5599382,28.0494902 14.2817664,28.0494902 14.109752,28.221501 L10.5521189,31.7786728 C10.3800867,31.948861 10.3800867,32.2269803 10.5521189,32.3989911 L14.109752,35.9543403 C14.2799435,36.1263511 14.5581153,36.1263511 14.7301297,35.9543403 Z" id="arrow-left" fill="#8F929F" fill-rule="nonzero"></path>
                    <rect id="Rectangle" fill="#FFFFFF" x="51.5344568" y="25.2955805" width="89.951052" height="13.1162269" rx="6.55811346"></rect>
                </g>
            </g>
        </g>
    </g>
</svg>