<?xml version="1.0" encoding="UTF-8"?>
<svg width="63px" height="45px" viewBox="0 0 63 45" version="1.1" xmlns="http://www.w3.org/2000/svg" xmlns:xlink="http://www.w3.org/1999/xlink">
    <title>bezier-curve</title>
    <g id="Page-1" stroke="none" stroke-width="1" fill="none" fill-rule="evenodd">
        <g id="bezier-curve" transform="translate(-0, 0.375)" fill="#333333" fill-rule="nonzero">
            <path d="M53.1250015,28.125 L54.6875015,28.125 C57.2753921,28.125 59.3750015,30.2246094 59.3750015,32.8125 L59.3750015,39.0625 C59.3750015,41.6503906 57.2753921,43.75 54.6875015,43.75 L48.4375015,43.75 C45.8496109,43.75 43.7500015,41.6503906 43.7500015,39.0625 L43.7500015,32.8125 C43.7500015,30.2246094 45.8496109,28.125 48.4375015,28.125 L50,28.125 C50,20.5566406 45.5175802,14.0332043 38.9746115,11.0742182 C38.9843777,13.6035144 36.914064,15.625 34.3750015,15.625 L28.1250015,15.625 C25.498049,15.625 23.5156268,13.6035144 23.4375015,11.0742182 C16.9824228,14.0332043 12.5,20.5566406 12.5,28.125 L14.0625015,28.125 C16.6503921,28.125 18.7500015,30.2246094 18.7500015,32.8125 L18.7500015,39.0625 C18.7500015,41.6503906 16.6503921,43.75 14.0625015,43.75 L7.81250149,43.75 C5.22363484,43.75 3.12500149,41.6503906 3.12500149,39.0625 L3.12500149,32.8125 C3.12500149,30.2246094 5.22363484,28.125 7.81250149,28.125 L9.37500149,28.125 C9.37500149,20.1660156 13.6230484,13.2031262 19.9804708,9.375 L12.2167975,9.375 C11.611329,12.0703131 9.16211009,14.0625 6.25,14.0625 C2.79785097,14.0625 0,11.2597644 0,7.8125 C0,4.36035097 2.79785097,1.5625 6.25,1.5625 C9.16211009,1.5625 11.611329,3.5546869 12.2167975,6.25 L23.4375015,6.25 L23.4375015,4.6875 C23.4375015,2.09863186 25.5371109,0 28.1250015,0 L34.3750015,0 C36.9628921,0 39.0625015,2.09863186 39.0625015,4.6875 L39.0625015,6.25 L50.195314,6.25 C50.888671,3.5546869 53.3398464,1.5625 56.2500015,1.5625 C59.6972659,1.5625 62.5,4.36035097 62.5,7.8125 C62.5,11.2597644 59.6972659,14.0625 56.2500015,14.0625 C53.3398464,14.0625 50.888671,12.0703131 50.195314,9.375 L42.5195321,9.375 C48.8769546,13.2031262 53.1250015,20.1660156 53.1250015,28.125 Z M34.3750015,3.125 L28.1250015,3.125 C27.2656277,3.125 26.5625015,3.82421911 26.5625015,4.6875 L26.5625015,10.9375 C26.5625015,11.7968738 27.2656277,12.5 28.1250015,12.5 L34.3750015,12.5 C35.2343753,12.5 35.9375015,11.7968738 35.9375015,10.9375 L35.9375015,4.6875 C35.9375015,3.82421911 35.2343753,3.125 34.3750015,3.125 Z M48.4375015,31.25 C47.5781277,31.25 46.8750015,31.9531262 46.8750015,32.8125 L46.8750015,39.0625 C46.8750015,39.9218738 47.5781277,40.625 48.4375015,40.625 L54.6875015,40.625 C55.5468753,40.625 56.2500015,39.9218738 56.2500015,39.0625 L56.2500015,32.8125 C56.2500015,31.9531262 55.5468753,31.25 54.6875015,31.25 L48.4375015,31.25 Z M7.81250149,31.25 C6.9492206,31.25 6.25000149,31.9531262 6.25000149,32.8125 L6.25000149,39.0625 C6.25000149,39.9218738 6.9492206,40.625 7.81250149,40.625 L14.0625015,40.625 C14.9218768,40.625 15.6250015,39.9218738 15.6250015,39.0625 L15.6250015,32.8125 C15.6250015,31.9531262 14.9218768,31.25 14.0625015,31.25 L7.81250149,31.25 Z M6.25000149,4.6875 C4.52441573,4.6875 3.12500149,6.08691573 3.12500149,7.8125 C3.12500149,9.54101682 4.52441573,10.9375 6.25000149,10.9375 C7.97558725,10.9375 9.37500149,9.54101682 9.37500149,7.8125 C9.37500149,6.08691573 7.97558725,4.6875 6.25000149,4.6875 Z M56.2500015,4.6875 C54.5214847,4.6875 53.1250015,6.08691573 53.1250015,7.8125 C53.1250015,9.54101682 54.5214847,10.9375 56.2500015,10.9375 C57.9785183,10.9375 59.3750015,9.54101682 59.3750015,7.8125 C59.3750015,6.08691573 57.9785183,4.6875 56.2500015,4.6875 Z" id="Shape"></path>
        </g>
    </g>
</svg>