<?xml version="1.0" encoding="UTF-8"?>
<svg width="44px" height="51px" viewBox="0 0 44 51" version="1.1" xmlns="http://www.w3.org/2000/svg" xmlns:xlink="http://www.w3.org/1999/xlink">
    <title>Book</title>
    <g id="Page-1" stroke="none" stroke-width="1" fill="none" fill-rule="evenodd">
        <g id="Book" transform="translate(-0, 0.25)" fill="#333333" fill-rule="nonzero">
            <path d="M43.7500015,35.9375 L43.7500015,4.6875 C43.7500015,2.09863186 41.6503921,0 39.0625015,0 L7.81250149,0 C3.49804759,0 0,3.49804759 0,7.8125 L0,43.75 C0,47.202149 2.79785097,50 6.25,50 L42.1875,50 C43.0511713,50 43.7500015,49.3011713 43.7500015,48.4375 C43.7500015,47.5738287 43.0468738,46.875 42.1875,46.875 L40.625,46.875 L40.625,40.3369129 C42.4414068,39.6874994 43.7500015,37.9687488 43.7500015,35.9375 L43.7500015,35.9375 Z M3.125,7.8125 C3.125,5.22363186 5.22363335,3.125 7.8125,3.125 L9.375,3.125 L9.375,37.5 L6.25,37.5 C5.10644466,37.5 4.04785126,37.8309578 3.125,38.36914 L3.125,7.8125 Z M37.5,46.875 L6.25,46.875 C4.52734381,46.875 3.125,45.4726577 3.125,43.75 C3.125,42.0273423 4.52734381,40.625 6.25,40.625 L37.5,40.625 L37.5,46.875 Z M39.0625,37.5 L12.5,37.5 L12.5,3.125 L39.0625,3.125 C39.9218738,3.125 40.625,3.82519364 40.625,4.6875 L40.625,35.9375 C40.625,36.7968738 39.9218738,37.5 39.0625,37.5 Z M34.375,12.5 L18.75,12.5 C17.8906247,12.5 17.1875,13.2031262 17.1875,14.0625 C17.1875,14.9218738 17.8906247,15.625 18.75,15.625 L34.375,15.625 C35.2386713,15.625 35.9375,14.9261713 35.9375,14.0625 C35.9375,13.1988287 35.2343738,12.5 34.375,12.5 Z M34.375,21.875 L18.75,21.875 C17.8906247,21.875 17.1875,22.5781247 17.1875,23.4375 C17.1875,24.2968753 17.8906247,25 18.75,25 L34.375,25 C35.2386713,25 35.9375,24.3011713 35.9375,23.4375 C35.9375,22.5738287 35.2343738,21.875 34.375,21.875 Z" id="Shape"></path>
        </g>
    </g>
</svg>