<?xml version="1.0" encoding="UTF-8"?>
<svg width="50px" height="45px" viewBox="0 0 50 45" version="1.1" xmlns="http://www.w3.org/2000/svg" xmlns:xlink="http://www.w3.org/1999/xlink">
    <title>browser</title>
    <g id="Page-1" stroke="none" stroke-width="1" fill="none" fill-rule="evenodd">
        <g id="browser" transform="translate(0, 0.375)" fill="#333333" fill-rule="nonzero">
            <path d="M0,6.25 C0,2.79785097 2.79785097,0 6.25,0 L43.75,0 C47.1972644,0 50,2.79785097 50,6.25 L50,37.5 C50,40.9472644 47.1972644,43.75 43.75,43.75 L6.25,43.75 C2.79785097,43.75 0,40.9472644 0,37.5 L0,6.25 Z M15.625,9.375 L46.875,9.375 L46.875,6.25 C46.875,4.52441573 45.4785168,3.125 43.75,3.125 L15.625,3.125 L15.625,9.375 Z M12.5,3.125 L6.25,3.125 C4.52441424,3.125 3.125,4.52441573 3.125,6.25 L3.125,9.375 L12.5,9.375 L12.5,3.125 Z M3.125,12.5 L3.125,37.5 C3.125,39.2285168 4.52441424,40.625 6.25,40.625 L43.75,40.625 C45.4785168,40.625 46.875,39.2285168 46.875,37.5 L46.875,12.5 L3.125,12.5 Z" id="Shape"></path>
        </g>
    </g>
</svg>