<?xml version="1.0" encoding="UTF-8"?>
<svg width="38px" height="51px" viewBox="0 0 38 51" version="1.1" xmlns="http://www.w3.org/2000/svg" xmlns:xlink="http://www.w3.org/1999/xlink">
    <title>clipboard</title>
    <g id="Page-1" stroke="none" stroke-width="1" fill="none" fill-rule="evenodd">
        <g id="clipboard" transform="translate(0, 0.25)" fill="#333333" fill-rule="nonzero">
            <path d="M10.9374985,12.5 L26.5624985,12.5 C27.4218723,12.5 28.1249985,11.7968738 28.1249985,10.9375 C28.1249985,10.0781262 27.4218723,9.375 26.5624985,9.375 L24.1328105,9.375 C24.6679679,8.45214725 24.9999985,7.39453137 24.9999985,6.25 C24.9999985,2.79785097 22.2021475,0 18.7499985,0 C15.2978495,0 12.4999985,2.79785097 12.4999985,6.25 C12.4999985,7.39453137 12.8299788,8.45214725 13.3668929,9.375 L10.9374985,9.375 C10.0781232,9.375 9.37499851,10.0781262 9.37499851,10.9375 C9.37499851,11.7968738 10.0781232,12.5 10.9374985,12.5 Z M18.7499985,3.125 C20.4726547,3.125 21.8749985,4.52734232 21.8749985,6.25 C21.8749985,7.97265768 20.4726547,9.375 18.7499985,9.375 C17.0273423,9.375 15.6249985,7.97265768 15.6249985,6.25 C15.6249985,4.52734232 17.0312479,3.125 18.7499985,3.125 Z M31.2499985,6.25 C30.3863272,6.25 29.6874985,6.9488287 29.6874985,7.8125 C29.6874985,8.6761713 30.3906247,9.375 31.2499985,9.375 C32.9726562,9.375 34.3749985,10.7753903 34.3749985,12.5 L34.3749985,43.75 C34.3749985,45.4746097 32.9726562,46.875 31.2499985,46.875 L6.24999851,46.875 C4.52734232,46.875 3.12499851,45.4746097 3.12499851,43.75 L3.12499851,12.5 C3.12499851,10.7753903 4.52734232,9.375 6.24999851,9.375 C7.1136713,9.375 7.8125,8.6761713 7.8125,7.8125 C7.8125,6.9488287 7.11328089,6.25 6.25,6.25 C2.80273408,6.25 0,9.05468762 0,12.5 L0,43.75 C0,47.1953124 2.80273408,50 6.25,50 L31.25,50 C34.6972644,50 37.5,47.1953124 37.5,43.75 L37.5,12.5 C37.5,9.05468762 34.6972644,6.25 31.25,6.25 L31.2499985,6.25 Z" id="Shape"></path>
        </g>
    </g>
</svg>