<?xml version="1.0" encoding="UTF-8"?>
<svg width="9px" height="9px" viewBox="0 0 9 9" version="1.1" xmlns="http://www.w3.org/2000/svg" xmlns:xlink="http://www.w3.org/1999/xlink">
    <!-- Generator: Sketch 58 (84663) - https://sketch.com -->
    <title>t</title>
    <desc>Created with Sketch.</desc>
    <g id="Page-1" stroke="none" stroke-width="1" fill="none" fill-rule="evenodd">
        <g id="Artboard" transform="translate(-160.000000, -43.000000)" fill="#FFFFFF" fill-rule="nonzero">
            <path d="M165.824648,47.1250116 L168.965713,50.2660774 C169.04491,50.3452989 169.04491,50.474037 168.965713,50.5532337 L168.391103,51.127844 C168.311906,51.2070408 168.183168,51.2070408 168.103947,51.127844 L164.962881,47.9867783 L161.821567,51.127844 C161.742346,51.2070408 161.613608,51.2070408 161.534386,51.127844 L160.959801,50.5532337 C160.880579,50.474037 160.880579,50.3452989 160.959801,50.2660774 L164.101114,47.1250116 L160.959801,43.9836979 C160.880579,43.9044764 160.880579,43.7757383 160.959801,43.6965168 L161.534659,43.1219313 C161.613856,43.0427097 161.742594,43.0427097 161.821815,43.1219313 L164.962881,46.263245 L168.103947,43.1221792 C168.183168,43.0429825 168.311906,43.0429825 168.391103,43.1221792 L168.965713,43.6967895 C169.04491,43.7759863 169.04491,43.9047243 168.965713,43.9839459 L165.824648,47.1250116 Z" id="t"></path>
        </g>
    </g>
</svg>