<?xml version="1.0" encoding="UTF-8"?>
<svg width="50px" height="41px" viewBox="0 0 50 41" version="1.1" xmlns="http://www.w3.org/2000/svg" xmlns:xlink="http://www.w3.org/1999/xlink">
    <title>code</title>
    <g id="Publisher-Control-Tower" stroke="none" stroke-width="1" fill="none" fill-rule="evenodd">
        <g id="products" transform="translate(-40, -706)" fill="#6E7779" fill-rule="nonzero">
            <g id="LIST-ITEMS" transform="translate(-13, 463)">
                <g id="code" transform="translate(53, 243)">
                    <path d="M30.4205629,0.0847724086 C29.4523575,-0.221798785 28.4307863,0.328457204 28.1334634,1.32677878 L17.1553858,37.8008901 C16.8580629,38.7992117 17.3917194,39.8525588 18.3599249,40.15913 C19.3281304,40.4657012 20.3497015,39.9154452 20.6470244,38.9171237 L31.625102,2.44301236 C31.9224249,1.44469078 31.3887684,0.391343603 30.4205629,0.0847724086 Z" id="Path"></path>
                    <path d="M37.0817294,9.14908381 C36.3881821,9.92951472 36.4262891,11.152458 37.1655648,11.8765692 L45.4957534,20.1233907 L37.1655648,28.3702122 C36.4262891,29.102369 36.3881821,30.3253123 37.0817294,31.0976975 C37.7752767,31.8700827 38.9337293,31.9183568 39.6653835,31.1862 L49.4207737,21.5313846 C49.7866008,21.169329 50,20.6544055 50,20.1233907 C50,19.5923758 49.7942222,19.0774523 49.4207737,18.7153967 L39.6653835,9.06058133 C38.9261079,8.3284245 37.7676553,8.36865289 37.0817294,9.14908381 Z" id="Path"></path>
                    <path d="M12.9182706,9.14900772 C12.2247233,8.36867376 11.0662707,8.32845036 10.3346165,9.06051624 L0.579226292,18.7141322 C0.205777762,19.0761428 0,19.5910023 0,20.1219512 C0,20.6529001 0.205777762,21.1677596 0.579226292,21.5297702 L10.3346165,31.1833862 C11.0738921,31.9154521 12.2323447,31.8752287 12.9182706,31.0948947 C13.6041965,30.3145608 13.5737109,29.0917694 12.8344352,28.3677482 L4.50424656,20.1219512 L12.8344352,11.8761542 C13.5737109,11.1440884 13.6118179,9.92129699 12.9182706,9.14900772 Z" id="Path"></path>
                </g>
            </g>
        </g>
    </g>
</svg>