<?xml version="1.0" encoding="UTF-8"?>
<!-- Generated by Pixelmator Pro 3.6.17 -->
<svg width="690" height="56" viewBox="0 0 690 56" xmlns="http://www.w3.org/2000/svg">
    <g id="Page-1">
        <g id="Group-14">
            <g id="Rectangle">
                <g id="Group">
                    <path id="Path" fill="#ffffff" fill-rule="evenodd" stroke="none" d="M 10 0 L 680 0 C 685.522827 0 690 4.477154 690 10 L 690 45 C 690 50.522846 685.522827 55 680 55 L 10 55 C 4.477152 55 0 50.522846 0 45 L 0 10 C -0 4.477154 4.477152 0 10 0 Z"/>
                </g>
            </g>
            <g id="CORE-FILTERS">
                <path id="path1" fill="#333333" stroke="none" d="M 20.468731 24.822237 C 20.121075 24.822237 19.813457 24.88962 19.545879 25.024385 C 19.278301 25.159151 19.053692 25.353487 18.872051 25.607393 C 18.690411 25.8613 18.552715 26.16794 18.458965 26.527315 C 18.365215 26.88669 18.31834 27.290987 18.31834 27.740206 C 18.31834 28.345675 18.393536 28.862276 18.543926 29.29001 C 18.694317 29.717745 18.927715 30.043917 19.244122 30.268526 C 19.560528 30.493135 19.968731 30.60544 20.468731 30.60544 C 20.816387 30.60544 21.16502 30.566378 21.514629 30.488253 C 21.864239 30.410128 22.244122 30.2988 22.654278 30.154268 L 22.654278 31.677706 C 22.275372 31.833956 21.902325 31.94626 21.535137 32.014618 C 21.16795 32.082977 20.75584 32.117157 20.298809 32.117157 C 19.415997 32.117157 18.690411 31.934542 18.122051 31.569307 C 17.553692 31.204073 17.132793 30.692354 16.859356 30.034151 C 16.585918 29.375948 16.4492 28.607393 16.4492 27.728487 C 16.4492 27.08005 16.53709 26.4863 16.712872 25.947237 C 16.888653 25.408175 17.146465 24.941378 17.486309 24.546846 C 17.826153 24.152315 18.246075 23.84763 18.746075 23.632786 C 19.246075 23.417942 19.820293 23.31052 20.468731 23.31052 C 20.894512 23.31052 21.32127 23.364231 21.749004 23.471653 C 22.176739 23.579075 22.585918 23.726536 22.976543 23.914036 L 22.390606 25.390596 C 22.070293 25.238253 21.748028 25.10544 21.423809 24.992159 C 21.09959 24.878878 20.781231 24.822237 20.468731 24.822237 Z"/>
                <path id="Shape" fill="#333333" stroke="none" d="M 33.251934 27.70505 C 33.251934 28.365206 33.169903 28.965792 33.00584 29.506807 C 32.841778 30.047823 32.592754 30.513643 32.25877 30.904268 C 31.924786 31.294893 31.501934 31.594698 30.990215 31.803682 C 30.478497 32.012665 29.873028 32.117157 29.173809 32.117157 C 28.47459 32.117157 27.869122 32.012665 27.357403 31.803682 C 26.845684 31.594698 26.422832 31.294893 26.088848 30.904268 C 25.754864 30.513643 25.50584 30.046846 25.341778 29.503878 C 25.177715 28.960909 25.095684 28.357393 25.095684 27.693331 C 25.095684 26.806612 25.241192 26.034151 25.532207 25.375948 C 25.823223 24.717745 26.271465 24.207003 26.876934 23.843723 C 27.482403 23.480442 28.251934 23.298801 29.185528 23.298801 C 30.115215 23.298801 30.879864 23.480442 31.479473 23.843723 C 32.079082 24.207003 32.524395 24.718721 32.815411 25.378878 C 33.106426 26.039034 33.251934 26.814425 33.251934 27.70505 Z M 26.999981 27.70505 C 26.999981 28.302706 27.075176 28.817354 27.225567 29.248995 C 27.375957 29.680635 27.611309 30.012667 27.931622 30.245089 C 28.251934 30.47751 28.665997 30.593721 29.173809 30.593721 C 29.689434 30.593721 30.107403 30.47751 30.427715 30.245089 C 30.748028 30.012667 30.981426 29.680635 31.127911 29.248995 C 31.274395 28.817354 31.347637 28.302706 31.347637 27.70505 C 31.347637 26.806612 31.179668 26.099581 30.843731 25.583956 C 30.507793 25.068331 29.955059 24.810518 29.185528 24.810518 C 28.673809 24.810518 28.256817 24.926729 27.934551 25.159151 C 27.612286 25.391573 27.375957 25.723604 27.225567 26.155245 C 27.075176 26.586885 26.999981 27.103487 26.999981 27.70505 Z"/>
                <path id="path2" fill="#333333" stroke="none" d="M 38.523418 23.433567 C 39.300762 23.433567 39.942364 23.527317 40.448223 23.714817 C 40.954082 23.902317 41.330059 24.185518 41.576153 24.564425 C 41.822247 24.943331 41.945293 25.421846 41.945293 25.999971 C 41.945293 26.390596 41.871075 26.732393 41.722637 27.025362 C 41.5742 27.318331 41.378887 27.566378 41.1367 27.769503 C 40.894512 27.972628 40.632793 28.138643 40.351543 28.26755 L 42.871075 31.999971 L 40.85545 31.999971 L 38.810528 28.712862 L 37.843731 28.712862 L 37.843731 31.999971 L 36.027325 31.999971 L 36.027325 23.433567 L 38.523418 23.433567 Z M 38.394512 24.921846 L 37.843731 24.921846 L 37.843731 27.2363 L 38.429668 27.2363 C 39.031231 27.2363 39.461895 27.135714 39.721661 26.934542 C 39.981426 26.73337 40.111309 26.437471 40.111309 26.046846 C 40.111309 25.640596 39.971661 25.351534 39.692364 25.179659 C 39.413067 25.007784 38.98045 24.921846 38.394512 24.921846 Z"/>
                <path id="path3" fill="#333333" stroke="none" d="M 49.882793 31.999971 L 44.9492 31.999971 L 44.9492 23.433567 L 49.882793 23.433567 L 49.882793 24.921846 L 46.765606 24.921846 L 46.765606 26.802706 L 49.665997 26.802706 L 49.665997 28.290987 L 46.765606 28.290987 L 46.765606 30.499971 L 49.882793 30.499971 Z"/>
                <path id="path4" fill="#333333" stroke="none" d="M 58.5742 31.999971 L 56.78709 31.999971 L 56.78709 23.433567 L 61.697247 23.433567 L 61.697247 24.921846 L 58.5742 24.921846 L 58.5742 27.130831 L 61.48045 27.130831 L 61.48045 28.613253 L 58.5742 28.613253 Z"/>
                <path id="path5" fill="#333333" stroke="none" d="M 64.373032 31.999971 L 64.373032 23.433567 L 66.189438 23.433567 L 66.189438 31.999971 Z"/>
                <path id="path6" fill="#333333" stroke="none" d="M 69.345688 31.999971 L 69.345688 23.433567 L 71.162094 23.433567 L 71.162094 30.499971 L 74.636703 30.499971 L 74.636703 31.999971 Z"/>
                <path id="path7" fill="#333333" stroke="none" d="M 80.429672 31.999971 L 78.613266 31.999971 L 78.613266 24.945284 L 76.287094 24.945284 L 76.287094 23.433567 L 82.755844 23.433567 L 82.755844 24.945284 L 80.429672 24.945284 Z"/>
                <path id="path8" fill="#333333" stroke="none" d="M 90.007797 31.999971 L 85.074203 31.999971 L 85.074203 23.433567 L 90.007797 23.433567 L 90.007797 24.921846 L 86.89061 24.921846 L 86.89061 26.802706 L 89.791 26.802706 L 89.791 28.290987 L 86.89061 28.290987 L 86.89061 30.499971 L 90.007797 30.499971 Z"/>
                <path id="path9" fill="#333333" stroke="none" d="M 95.291 23.433567 C 96.068344 23.433567 96.709946 23.527317 97.215805 23.714817 C 97.721664 23.902317 98.097641 24.185518 98.343735 24.564425 C 98.589828 24.943331 98.712875 25.421846 98.712875 25.999971 C 98.712875 26.390596 98.638657 26.732393 98.490219 27.025362 C 98.341782 27.318331 98.146469 27.566378 97.904282 27.769503 C 97.662094 27.972628 97.400375 28.138643 97.119125 28.26755 L 99.638657 31.999971 L 97.623032 31.999971 L 95.57811 28.712862 L 94.611313 28.712862 L 94.611313 31.999971 L 92.794907 31.999971 L 92.794907 23.433567 L 95.291 23.433567 Z M 95.162094 24.921846 L 94.611313 24.921846 L 94.611313 27.2363 L 95.19725 27.2363 C 95.798813 27.2363 96.229477 27.135714 96.489243 26.934542 C 96.749008 26.73337 96.878891 26.437471 96.878891 26.046846 C 96.878891 25.640596 96.739243 25.351534 96.459946 25.179659 C 96.180649 25.007784 95.748032 24.921846 95.162094 24.921846 Z"/>
                <path id="path10" fill="#333333" stroke="none" d="M 106.773422 29.621065 C 106.773422 30.128878 106.650375 30.570284 106.404282 30.945284 C 106.158188 31.320284 105.799789 31.609346 105.329086 31.812471 C 104.858383 32.015594 104.287094 32.117157 103.615219 32.117157 C 103.318344 32.117157 103.028305 32.097626 102.745102 32.058563 C 102.461899 32.019501 102.190414 31.961885 101.930649 31.885714 C 101.670883 31.809542 101.423813 31.714815 101.189438 31.601534 L 101.189438 29.914034 C 101.595688 30.093721 102.017563 30.255831 102.455063 30.400362 C 102.892563 30.544893 103.326157 30.617159 103.755844 30.617159 C 104.052719 30.617159 104.291977 30.578096 104.473618 30.499971 C 104.655258 30.421846 104.787094 30.314425 104.869125 30.177706 C 104.951157 30.040987 104.992172 29.884737 104.992172 29.708956 C 104.992172 29.494112 104.919907 29.310518 104.775375 29.158175 C 104.630844 29.005831 104.432602 28.863253 104.180649 28.73044 C 103.928696 28.597628 103.644516 28.45505 103.32811 28.302706 C 103.128891 28.208956 102.912094 28.094698 102.677719 27.959932 C 102.443344 27.825167 102.220688 27.660128 102.00975 27.464815 C 101.798813 27.269503 101.625961 27.032198 101.491196 26.752901 C 101.35643 26.473604 101.289047 26.138643 101.289047 25.748018 C 101.289047 25.2363 101.406235 24.7988 101.64061 24.435518 C 101.874985 24.072237 102.209946 23.793919 102.645493 23.600559 C 103.081039 23.4072 103.595688 23.31052 104.189438 23.31052 C 104.63475 23.31052 105.059555 23.362278 105.463852 23.465794 C 105.868149 23.569309 106.291 23.718723 106.732407 23.914036 L 106.146469 25.326143 C 105.751938 25.165987 105.398422 25.041964 105.085922 24.954073 C 104.773422 24.866182 104.455063 24.822237 104.130844 24.822237 C 103.904282 24.822237 103.710922 24.85837 103.550766 24.930635 C 103.39061 25.002901 103.269516 25.104464 103.187485 25.235323 C 103.105453 25.366182 103.064438 25.51755 103.064438 25.689425 C 103.064438 25.89255 103.124008 26.063448 103.243149 26.20212 C 103.362289 26.340792 103.541977 26.474581 103.782211 26.603487 C 104.022446 26.732393 104.32225 26.882784 104.681625 27.054659 C 105.119125 27.26169 105.493149 27.47751 105.803696 27.70212 C 106.114243 27.926729 106.3535 28.190401 106.521469 28.493135 C 106.689438 28.79587 106.773422 29.171846 106.773422 29.621065 Z"/>
            </g>
            <g id="CHEVRON-DOWN">
                <path id="path11" fill="#333333" stroke="none" d="M 669 30.25 C 668.808105 30.25 668.616089 30.176758 668.469849 30.030273 L 663.969849 25.530273 C 663.67688 25.237305 663.67688 24.762695 663.969849 24.469727 C 664.262817 24.176758 664.737427 24.176758 665.030396 24.469727 L 669 28.440624 L 672.970276 24.470312 C 673.263245 24.177343 673.737854 24.177343 674.030823 24.470312 C 674.323792 24.763281 674.323792 25.23789 674.030823 25.530859 L 669.530823 30.030859 C 669.384338 30.177343 669.1922 30.25 669 30.25 Z"/>
            </g>
        </g>
    </g>
</svg>
