<?xml version="1.0" encoding="UTF-8"?>
<svg width="690px" height="56px" viewBox="0 0 690 56" version="1.1" xmlns="http://www.w3.org/2000/svg" xmlns:xlink="http://www.w3.org/1999/xlink">
    <title>Core filters</title>
    <defs>
        <rect id="path-1" x="0" y="0" width="690" height="55" rx="10"></rect>
        <filter x="-0.1%" y="-0.9%" width="100.1%" height="103.6%" filterUnits="objectBoundingBox" id="filter-2">
            <feOffset dx="0" dy="1" in="SourceAlpha" result="shadowOffsetOuter1"></feOffset>
            <feColorMatrix values="0 0 0 0 0   0 0 0 0 0   0 0 0 0 0  0 0 0 0.5 0" type="matrix" in="shadowOffsetOuter1"></feColorMatrix>
        </filter>
    </defs>
    <g id="Page-1" stroke="none" stroke-width="1" fill="none" fill-rule="evenodd">
        <g id="Group-14">
            <g id="Rectangle">
                <use fill="black" fill-opacity="1" filter="url(#filter-2)" xlink:href="#path-1"></use>
                <use fill="#FFFFFF" fill-rule="evenodd" xlink:href="#path-1"></use>
            </g>
            <g id="CORE-FILTERS" transform="translate(16.4492, 23.2988)" fill="#333333" fill-rule="nonzero">
                <path d="M4.01953125,1.5234375 C3.671875,1.5234375 3.36425781,1.59082031 3.09667969,1.72558594 C2.82910156,1.86035156 2.60449219,2.0546875 2.42285156,2.30859375 C2.24121094,2.5625 2.10351562,2.86914062 2.00976562,3.22851562 C1.91601562,3.58789062 1.86914063,3.9921875 1.86914063,4.44140625 C1.86914063,5.046875 1.94433594,5.56347656 2.09472656,5.99121094 C2.24511719,6.41894531 2.47851562,6.74511719 2.79492188,6.96972656 C3.11132812,7.19433594 3.51953125,7.30664062 4.01953125,7.30664062 C4.3671875,7.30664062 4.71582031,7.26757812 5.06542969,7.18945312 C5.41503906,7.11132812 5.79492188,7 6.20507812,6.85546875 L6.20507812,8.37890625 C5.82617188,8.53515625 5.453125,8.64746094 5.0859375,8.71582031 C4.71875,8.78417969 4.30664062,8.81835938 3.84960938,8.81835938 C2.96679688,8.81835938 2.24121094,8.63574219 1.67285156,8.27050781 C1.10449219,7.90527344 0.68359375,7.39355469 0.41015625,6.73535156 C0.13671875,6.07714844 0,5.30859375 0,4.4296875 C0,3.78125 0.087890625,3.1875 0.263671875,2.6484375 C0.439453125,2.109375 0.697265625,1.64257812 1.03710938,1.24804688 C1.37695312,0.853515625 1.796875,0.548828125 2.296875,0.333984375 C2.796875,0.119140625 3.37109375,0.01171875 4.01953125,0.01171875 C4.4453125,0.01171875 4.87207031,0.0654296875 5.29980469,0.172851562 C5.72753906,0.280273438 6.13671875,0.427734375 6.52734375,0.615234375 L5.94140625,2.09179688 C5.62109375,1.93945312 5.29882812,1.80664062 4.97460938,1.69335938 C4.65039062,1.58007812 4.33203125,1.5234375 4.01953125,1.5234375 Z" id="Path"></path>
                <path d="M16.8027344,4.40625 C16.8027344,5.06640625 16.7207031,5.66699219 16.5566406,6.20800781 C16.3925781,6.74902344 16.1435547,7.21484375 15.8095703,7.60546875 C15.4755859,7.99609375 15.0527344,8.29589844 14.5410156,8.50488281 C14.0292969,8.71386719 13.4238281,8.81835938 12.7246094,8.81835938 C12.0253906,8.81835938 11.4199219,8.71386719 10.9082031,8.50488281 C10.3964844,8.29589844 9.97363281,7.99609375 9.63964844,7.60546875 C9.30566406,7.21484375 9.05664062,6.74804688 8.89257812,6.20507812 C8.72851562,5.66210938 8.64648438,5.05859375 8.64648438,4.39453125 C8.64648438,3.5078125 8.79199219,2.73535156 9.08300781,2.07714844 C9.37402344,1.41894531 9.82226562,0.908203125 10.4277344,0.544921875 C11.0332031,0.181640625 11.8027344,0 12.7363281,0 C13.6660156,0 14.4306641,0.181640625 15.0302734,0.544921875 C15.6298828,0.908203125 16.0751953,1.41992188 16.3662109,2.08007812 C16.6572266,2.74023438 16.8027344,3.515625 16.8027344,4.40625 Z M10.5507812,4.40625 C10.5507812,5.00390625 10.6259766,5.51855469 10.7763672,5.95019531 C10.9267578,6.38183594 11.1621094,6.71386719 11.4824219,6.94628906 C11.8027344,7.17871094 12.2167969,7.29492188 12.7246094,7.29492188 C13.2402344,7.29492188 13.6582031,7.17871094 13.9785156,6.94628906 C14.2988281,6.71386719 14.5322266,6.38183594 14.6787109,5.95019531 C14.8251953,5.51855469 14.8984375,5.00390625 14.8984375,4.40625 C14.8984375,3.5078125 14.7304688,2.80078125 14.3945312,2.28515625 C14.0585938,1.76953125 13.5058594,1.51171875 12.7363281,1.51171875 C12.2246094,1.51171875 11.8076172,1.62792969 11.4853516,1.86035156 C11.1630859,2.09277344 10.9267578,2.42480469 10.7763672,2.85644531 C10.6259766,3.28808594 10.5507812,3.8046875 10.5507812,4.40625 Z" id="Shape"></path>
                <path d="M22.0742188,0.134765625 C22.8515625,0.134765625 23.4931641,0.228515625 23.9990234,0.416015625 C24.5048828,0.603515625 24.8808594,0.88671875 25.1269531,1.265625 C25.3730469,1.64453125 25.4960938,2.12304688 25.4960938,2.70117188 C25.4960938,3.09179688 25.421875,3.43359375 25.2734375,3.7265625 C25.125,4.01953125 24.9296875,4.26757812 24.6875,4.47070312 C24.4453125,4.67382812 24.1835938,4.83984375 23.9023438,4.96875 L26.421875,8.70117188 L24.40625,8.70117188 L22.3613281,5.4140625 L21.3945312,5.4140625 L21.3945312,8.70117188 L19.578125,8.70117188 L19.578125,0.134765625 L22.0742188,0.134765625 Z M21.9453125,1.62304688 L21.3945312,1.62304688 L21.3945312,3.9375 L21.9804688,3.9375 C22.5820312,3.9375 23.0126953,3.83691406 23.2724609,3.63574219 C23.5322266,3.43457031 23.6621094,3.13867188 23.6621094,2.74804688 C23.6621094,2.34179688 23.5224609,2.05273438 23.2431641,1.88085938 C22.9638672,1.70898438 22.53125,1.62304688 21.9453125,1.62304688 Z" id="Shape"></path>
                <polygon id="Path" points="33.4335938 8.70117188 28.5 8.70117188 28.5 0.134765625 33.4335938 0.134765625 33.4335938 1.62304688 30.3164062 1.62304688 30.3164062 3.50390625 33.2167969 3.50390625 33.2167969 4.9921875 30.3164062 4.9921875 30.3164062 7.20117188 33.4335938 7.20117188"></polygon>
                <polygon id="Path" points="42.125 8.70117188 40.3378906 8.70117188 40.3378906 0.134765625 45.2480469 0.134765625 45.2480469 1.62304688 42.125 1.62304688 42.125 3.83203125 45.03125 3.83203125 45.03125 5.31445312 42.125 5.31445312"></polygon>
                <polygon id="Path" points="47.9238281 8.70117188 47.9238281 0.134765625 49.7402344 0.134765625 49.7402344 8.70117188"></polygon>
                <polygon id="Path" points="52.8964844 8.70117188 52.8964844 0.134765625 54.7128906 0.134765625 54.7128906 7.20117188 58.1875 7.20117188 58.1875 8.70117188"></polygon>
                <polygon id="Path" points="63.9804688 8.70117188 62.1640625 8.70117188 62.1640625 1.64648438 59.8378906 1.64648438 59.8378906 0.134765625 66.3066406 0.134765625 66.3066406 1.64648438 63.9804688 1.64648438"></polygon>
                <polygon id="Path" points="73.5585938 8.70117188 68.625 8.70117188 68.625 0.134765625 73.5585938 0.134765625 73.5585938 1.62304688 70.4414062 1.62304688 70.4414062 3.50390625 73.3417969 3.50390625 73.3417969 4.9921875 70.4414062 4.9921875 70.4414062 7.20117188 73.5585938 7.20117188"></polygon>
                <path d="M78.8417969,0.134765625 C79.6191406,0.134765625 80.2607422,0.228515625 80.7666016,0.416015625 C81.2724609,0.603515625 81.6484375,0.88671875 81.8945312,1.265625 C82.140625,1.64453125 82.2636719,2.12304688 82.2636719,2.70117188 C82.2636719,3.09179688 82.1894531,3.43359375 82.0410156,3.7265625 C81.8925781,4.01953125 81.6972656,4.26757812 81.4550781,4.47070312 C81.2128906,4.67382812 80.9511719,4.83984375 80.6699219,4.96875 L83.1894531,8.70117188 L81.1738281,8.70117188 L79.1289062,5.4140625 L78.1621094,5.4140625 L78.1621094,8.70117188 L76.3457031,8.70117188 L76.3457031,0.134765625 L78.8417969,0.134765625 Z M78.7128906,1.62304688 L78.1621094,1.62304688 L78.1621094,3.9375 L78.7480469,3.9375 C79.3496094,3.9375 79.7802734,3.83691406 80.0400391,3.63574219 C80.2998047,3.43457031 80.4296875,3.13867188 80.4296875,2.74804688 C80.4296875,2.34179688 80.2900391,2.05273438 80.0107422,1.88085938 C79.7314453,1.70898438 79.2988281,1.62304688 78.7128906,1.62304688 Z" id="Shape"></path>
                <path d="M90.3242188,6.32226562 C90.3242188,6.83007812 90.2011719,7.27148438 89.9550781,7.64648438 C89.7089844,8.02148438 89.3505859,8.31054688 88.8798828,8.51367188 C88.4091797,8.71679688 87.8378906,8.81835938 87.1660156,8.81835938 C86.8691406,8.81835938 86.5791016,8.79882812 86.2958984,8.75976562 C86.0126953,8.72070312 85.7412109,8.66308594 85.4814453,8.58691406 C85.2216797,8.51074219 84.9746094,8.41601562 84.7402344,8.30273438 L84.7402344,6.61523438 C85.1464844,6.79492188 85.5683594,6.95703125 86.0058594,7.1015625 C86.4433594,7.24609375 86.8769531,7.31835938 87.3066406,7.31835938 C87.6035156,7.31835938 87.8427734,7.27929688 88.0244141,7.20117188 C88.2060547,7.12304688 88.3378906,7.015625 88.4199219,6.87890625 C88.5019531,6.7421875 88.5429688,6.5859375 88.5429688,6.41015625 C88.5429688,6.1953125 88.4707031,6.01171875 88.3261719,5.859375 C88.1816406,5.70703125 87.9833984,5.56445312 87.7314453,5.43164063 C87.4794922,5.29882812 87.1953125,5.15625 86.8789062,5.00390625 C86.6796875,4.91015625 86.4628906,4.79589844 86.2285156,4.66113281 C85.9941406,4.52636719 85.7714844,4.36132812 85.5605469,4.16601562 C85.3496094,3.97070312 85.1767578,3.73339844 85.0419922,3.45410156 C84.9072266,3.17480469 84.8398438,2.83984375 84.8398438,2.44921875 C84.8398438,1.9375 84.9570312,1.5 85.1914062,1.13671875 C85.4257812,0.7734375 85.7607422,0.495117188 86.1962891,0.301757812 C86.6318359,0.108398438 87.1464844,0.01171875 87.7402344,0.01171875 C88.1855469,0.01171875 88.6103516,0.0634765625 89.0146484,0.166992188 C89.4189453,0.270507812 89.8417969,0.419921875 90.2832031,0.615234375 L89.6972656,2.02734375 C89.3027344,1.8671875 88.9492188,1.74316406 88.6367188,1.65527344 C88.3242188,1.56738281 88.0058594,1.5234375 87.6816406,1.5234375 C87.4550781,1.5234375 87.2617188,1.55957031 87.1015625,1.63183594 C86.9414062,1.70410156 86.8203125,1.80566406 86.7382812,1.93652344 C86.65625,2.06738281 86.6152344,2.21875 86.6152344,2.390625 C86.6152344,2.59375 86.6748047,2.76464844 86.7939453,2.90332031 C86.9130859,3.04199219 87.0927734,3.17578125 87.3330078,3.3046875 C87.5732422,3.43359375 87.8730469,3.58398438 88.2324219,3.75585938 C88.6699219,3.96289062 89.0439453,4.17871094 89.3544922,4.40332031 C89.6650391,4.62792969 89.9042969,4.89160156 90.0722656,5.19433594 C90.2402344,5.49707031 90.3242188,5.87304688 90.3242188,6.32226562 Z" id="Path"></path>
            </g>
            <g id="CHEVRON-DOWN" transform="translate(663.7501, 24.25)" fill="#333333" fill-rule="nonzero">
                <path d="M5.2498827,6 C5.05797637,6 4.86597633,5.92675781 4.71972656,5.78027344 L0.219726562,1.28027344 C-0.0732421875,0.987304688 -0.0732421875,0.512695312 0.219726562,0.219726562 C0.512695312,-0.0732421875 0.987304688,-0.0732421875 1.28027344,0.219726562 L5.2498827,4.19062471 L9.22019506,0.220312357 C9.51316381,-0.0726563931 9.98777318,-0.0726563931 10.2807419,0.220312357 C10.5737107,0.513281107 10.5737107,0.987890482 10.2807419,1.28085923 L5.78074193,5.78085923 C5.63425756,5.92734361 5.44207013,6 5.2498827,6 Z" id="Path"></path>
            </g>
        </g>
    </g>
</svg>