<?xml version="1.0" encoding="UTF-8"?>
<!-- Generated by Pixelmator Pro 3.6.17 -->
<svg width="512" height="448" viewBox="0 0 512 448" xmlns="http://www.w3.org/2000/svg">
    <path id="exit" fill="#ffffff" stroke="none" d="M 352 64 L 416 64 C 433.700012 64 448 78.299988 448 96 L 448 352 C 448 369.700012 433.700012 384 416 384 L 352 384 C 334.299988 384 320 398.299988 320 416 C 320 433.700012 334.299988 448 352 448 L 416 448 C 469 448 512 405 512 352 L 512 96 C 512 43 469 0 416 0 L 352 0 C 334.299988 0 320 14.299988 320 32 C 320 49.700012 334.299988 64 352 64 Z M 342.600006 246.600006 C 355.100006 234.100006 355.100006 213.799988 342.600006 201.299988 L 214.600006 73.299988 C 202.100006 60.799988 181.800003 60.799988 169.300003 73.299988 C 156.800003 85.799988 156.800003 106.100006 169.300003 118.600006 L 242.699997 192 L 32 192 C 14.3 192 0 206.299988 0 224 C 0 241.700012 14.3 256 32 256 L 242.699997 256 L 169.300003 329.399994 C 156.800003 341.899994 156.800003 362.200012 169.300003 374.700012 C 181.800003 387.200012 202.100006 387.200012 214.600006 374.700012 L 342.600006 246.700012 Z"/>
</svg>
