<?xml version="1.0" encoding="UTF-8"?>
<svg width="50px" height="44px" viewBox="0 0 50 44" version="1.1" xmlns="http://www.w3.org/2000/svg" xmlns:xlink="http://www.w3.org/1999/xlink">
    <title>Gaphic</title>
    <g id="Publisher-Control-Tower" stroke="none" stroke-width="1" fill="none" fill-rule="evenodd">
        <g id="products" transform="translate(-40, -471)" fill="#6E7779" fill-rule="nonzero">
            <g id="LIST-ITEMS" transform="translate(-13, 463)">
                <path d="M57.6875,10.3313492 C57.6875,9.03939319 56.6425781,8 55.34375,8 C54.0449219,8 53,9.03939319 53,10.3313492 L53,44.5244709 C53,48.390625 56.1445312,51.5185185 60.03125,51.5185185 L100.65625,51.5185185 C101.955078,51.5185185 103,50.4791253 103,49.1871693 C103,47.8952133 101.955078,46.8558201 100.65625,46.8558201 L60.03125,46.8558201 C58.7324219,46.8558201 57.6875,45.8164269 57.6875,44.5244709 L57.6875,10.3313492 Z M84.25,19.656746 C84.25,20.9487021 85.2949219,21.9880952 86.59375,21.9880952 L91.8769531,21.9880952 L82.6875,31.1289269 L74.9726562,23.4549024 C74.0546875,22.5417907 72.5703125,22.5417907 71.6621094,23.4549024 L63.8496094,31.2260665 C62.9316406,32.1391782 62.9316406,33.6156994 63.8496094,34.5190972 C64.7675781,35.422495 66.2519531,35.432209 67.1601562,34.5190972 L73.3125,28.3993056 L81.0273438,36.07333 C81.9453125,36.9864418 83.4296875,36.9864418 84.3378906,36.07333 L95.1777344,25.2908399 L95.1777344,30.5363757 C95.1777344,31.8283317 96.2226562,32.8677249 97.5214844,32.8677249 C98.8203125,32.8677249 99.8652344,31.8283317 99.8652344,30.5363757 L99.8652344,19.656746 C99.8652344,18.36479 98.8203125,17.3253968 97.5214844,17.3253968 L86.59375,17.3253968 C85.2949219,17.3253968 84.25,18.36479 84.25,19.656746 Z" id="Gaphic"></path>
            </g>
        </g>
    </g>
</svg>