<?xml version="1.0" encoding="UTF-8"?>
<svg width="32px" height="33px" viewBox="0 0 32 33" version="1.1" xmlns="http://www.w3.org/2000/svg" xmlns:xlink="http://www.w3.org/1999/xlink">
    <title>gear</title>
    <g id="Publisher-Control-Tower" stroke="none" stroke-width="1" fill="none" fill-rule="evenodd">
        <g id="Products-screen" transform="translate(-114, -737)" fill="#6E7779" fill-rule="nonzero">
            <g id="Cards-/-List-1-up-/-Filled-/-Overline-/-Resting" transform="translate(73, 339)">
                <g id="ACTIONS" transform="translate(-0.1825, 338.8108)">
                    <g id="gear" transform="translate(41.763, 59.9101)">
                        <path d="M15.5276801,0 C16.6044456,0 17.6558755,0.106652993 18.6819698,0.301137863 C19.1823491,0.395243445 20.0627633,0.683833897 20.5441408,1.56215266 C20.6708191,1.79427977 20.7721617,2.03895428 20.8355009,2.30244991 L21.424555,4.71782652 C21.5132298,5.08170143 22.1339535,5.43930265 22.4949866,5.33264965 L24.9018743,4.62999464 C25.1552309,4.55471017 25.4149215,4.51706794 25.674612,4.51079424 C26.6943723,4.47942571 27.384769,5.10052255 27.7204665,5.47694488 C29.1202617,7.05164495 30.1970273,8.90238807 30.8810901,10.8911527 C31.0457719,11.3679543 31.2357894,12.2588205 30.7100744,13.1120444 C30.5707283,13.3378978 30.3997126,13.5512038 30.2033612,13.739415 L28.3855276,15.4521366 C28.1195032,15.7030848 28.1195032,16.4245609 28.3855276,16.6755092 L30.2033612,18.3882307 C30.3997126,18.5764419 30.5707283,18.7897479 30.7100744,19.0156013 C31.2294555,19.8688252 31.039438,20.7596914 30.8810901,21.236493 C30.1970273,23.2252577 29.1202617,25.0697271 27.7204665,26.6507009 C27.384769,27.0271232 26.6880384,27.64822 25.674612,27.6168515 C25.4149215,27.6105778 25.1552309,27.5666619 24.9018743,27.4976511 L22.4949866,26.7887224 C22.1339535,26.6820694 21.5132298,27.0396706 21.424555,27.4035455 L20.8355009,29.8189221 C20.7721617,30.0824178 20.6708191,30.333366 20.5441408,30.5592194 C20.0564293,31.4375381 19.1760152,31.7198549 18.6819698,31.8202342 C17.6558755,32.014719 16.6044456,32.121372 15.5276801,32.121372 C14.4509145,32.121372 13.3994846,32.014719 12.3733904,31.8202342 C11.8730111,31.7261286 10.9925969,31.4375381 10.5112194,30.5592194 C10.3845411,30.3270923 10.2831984,30.0824178 10.2198593,29.8189221 L9.6308052,27.4035455 C9.54213039,27.0396706 8.92140672,26.6820694 8.56037356,26.7887224 L6.15348585,27.4913774 C5.90012925,27.5666619 5.64043873,27.6043041 5.38074821,27.6105778 C4.36098789,27.6419463 3.67059116,27.0208495 3.33489366,26.6444272 C1.94143235,25.0697271 0.858332883,23.218984 0.17427006,21.2302193 C0.00958826886,20.7534177 -0.180429182,19.8625515 0.345285765,19.0093276 C0.484631896,18.7834742 0.655647602,18.5701682 0.851998968,18.381957 L2.66983258,16.6692354 C2.93585701,16.4182872 2.93585701,15.6968111 2.66983258,15.4458629 L0.845665053,13.7331413 C0.649313687,13.5449301 0.478297981,13.3316241 0.33895185,13.1057707 C-0.180429182,12.2525468 0.00958826886,11.3616806 0.17427006,10.8911527 C0.858332883,8.90238807 1.93509844,7.05791866 3.33489366,5.47694488 C3.67059116,5.10052255 4.36732181,4.47942571 5.38074821,4.51079424 C5.64043873,4.51706794 5.90012925,4.56098388 6.15348585,4.62999464 L8.56037356,5.33264965 C8.92140672,5.43930265 9.54213039,5.08170143 9.6308052,4.71782652 L10.2198593,2.30244991 C10.2831984,2.03895428 10.3845411,1.78800606 10.5112194,1.56215266 C10.9989308,0.683833897 11.879345,0.40151715 12.3733904,0.301137863 C13.3994846,0.106652993 14.4509145,0 15.5276801,0 Z M13.1271263,3.22468461 L12.5887435,5.42675524 C12.0946981,7.4531621 9.71948001,8.80828249 7.69896112,8.22482788 L5.51376043,7.58490992 C4.46866445,8.79573508 3.6452555,10.2010451 3.10687272,11.7067344 L4.76635846,13.2688871 C6.28649806,14.6992919 6.28649806,17.4220801 4.76635846,18.852485 L3.10687272,20.4146376 C3.6452555,21.9203269 4.46866445,23.325637 5.51376043,24.5364621 L7.70529503,23.8965442 C9.71948001,23.3068158 12.1010321,24.6682099 12.5950774,26.6946168 L13.1334602,28.8966874 C14.6916033,29.1790042 16.3827586,29.1790042 17.9409017,28.8966874 L18.4792845,26.6946168 C18.9733299,24.6682099 21.348548,23.3130895 23.3690669,23.8965442 L25.5606015,24.5364621 C26.6056975,23.325637 27.4291064,21.9203269 27.9674892,20.4146376 L26.3080035,18.852485 C24.7878639,17.4220801 24.7878639,14.6992919 26.3080035,13.2688871 L27.9674892,11.7067344 C27.4291064,10.2010451 26.6056975,8.79573508 25.5606015,7.58490992 L23.3690669,8.22482788 C21.3548819,8.81455619 18.9733299,7.4531621 18.4792845,5.42675524 L17.9409017,3.22468461 C16.3827586,2.94236787 14.6916033,2.94236787 13.1334602,3.22468461 L13.1271263,3.22468461 Z M12.4874009,16.060686 C12.4874009,17.7238245 13.8485802,19.0720646 15.5276801,19.0720646 C17.2067799,19.0720646 18.5679593,17.7238245 18.5679593,16.060686 C18.5679593,14.3975475 17.2067799,13.0493074 15.5276801,13.0493074 C13.8485802,13.0493074 12.4874009,14.3975475 12.4874009,16.060686 Z M15.5276801,22.0834433 C12.1694804,22.0834433 9.44712166,19.386963 9.44712166,16.060686 C9.44712166,12.734409 12.1694804,10.0379288 15.5276801,10.0379288 C18.8858798,10.0379288 21.6082385,12.734409 21.6082385,16.060686 C21.6082385,19.386963 18.8858798,22.0834433 15.5276801,22.0834433 Z" id="Shape"></path>
                    </g>
                </g>
            </g>
        </g>
    </g>
</svg>