<?xml version="1.0" encoding="UTF-8"?>
<svg width="41px" height="41px" viewBox="0 0 41 41" version="1.1" xmlns="http://www.w3.org/2000/svg" xmlns:xlink="http://www.w3.org/1999/xlink">
    <title>Help</title>
    <g id="Page-1" stroke="none" stroke-width="1" fill="none" fill-rule="evenodd">
        <g id="Admin-Publisher-Favicons-" transform="translate(-118, -676)" fill="#3A494A" fill-rule="nonzero">
            <path d="M156.4375,696.5 C156.4375,686.593392 148.406608,678.5625 138.5,678.5625 C128.593392,678.5625 120.5625,686.593392 120.5625,696.5 C120.5625,706.406608 128.593392,714.4375 138.5,714.4375 C148.406608,714.4375 156.4375,706.406608 156.4375,696.5 Z M118,696.5 C118,685.178163 127.178163,676 138.5,676 C149.821837,676 159,685.178163 159,696.5 C159,707.821837 149.821837,717 138.5,717 C127.178163,717 118,707.821837 118,696.5 Z M131.50918,689.597266 C132.029687,687.627344 133.807422,686.25 135.849414,686.25 L140.421875,686.25 C143.264648,686.25 145.546875,688.572266 145.546875,691.399023 C145.546875,693.320898 144.473828,695.098633 142.752148,695.979492 L139.78125,697.484961 L139.78125,699.0625 C139.78125,699.767187 139.204688,700.34375 138.5,700.34375 C137.795312,700.34375 137.21875,699.767187 137.21875,699.0625 L137.21875,696.700195 C137.21875,696.219727 137.491016,695.779297 137.91543,695.555078 L141.583008,693.68125 C142.439844,693.248828 142.984375,692.351953 142.984375,691.383008 C142.984375,689.957617 141.83125,688.796484 140.421875,688.796484 L135.849414,688.796484 C134.976562,688.796484 134.207812,689.389063 133.991602,690.229883 L133.975586,690.285938 C133.799414,690.966602 133.094727,691.383008 132.414062,691.198828 C131.733398,691.014648 131.316992,690.317969 131.501172,689.637305 L131.517188,689.58125 L131.50918,689.597266 Z M136.578125,704.1875 C136.578125,703.126078 137.438578,702.265625 138.5,702.265625 C139.561422,702.265625 140.421875,703.126078 140.421875,704.1875 C140.421875,705.248922 139.561422,706.109375 138.5,706.109375 C137.438578,706.109375 136.578125,705.248922 136.578125,704.1875 Z" id="Help"></path>
        </g>
    </g>
</svg>