<?xml version="1.0" encoding="UTF-8"?>
<svg width="91px" height="23px" viewBox="0 0 91 23" version="1.1" xmlns="http://www.w3.org/2000/svg" xmlns:xlink="http://www.w3.org/1999/xlink">
    <title>Impressions</title>
    <g id="Page-1" stroke="none" stroke-width="1" fill="none" fill-rule="evenodd">
        <g id="Impressions">
            <circle id="Oval-Copy-2" fill="#1E55AB" cx="11" cy="11" r="11"></circle>
            <g id="bullseye-pointer" transform="translate(5, 4.5)" fill="#FFFFFF" fill-rule="nonzero">
                <path d="M6,10.875 C8.69296861,10.875 10.875,8.69296861 10.875,6 C10.875,3.30703139 8.69296861,1.125 6,1.125 C3.30703139,1.125 1.125,3.30703139 1.125,6 C1.125,6.12890625 1.12992203,6.25546861 1.13976574,6.38203096 L0.0411093235,6.70546889 C0.0139639378,6.47343779 0,6.23906279 0,6 C0,2.68593764 2.68593764,0 6,0 C9.31406236,0 12,2.68593764 12,6 C12,9.31406236 9.31406236,12 6,12 C5.76093757,12 5.52656257,11.9859374 5.29453111,11.9578128 L5.61796868,10.8609374 C5.74453139,10.8703122 5.87109375,10.875 6,10.875 Z M6.27890611,8.61093736 C7.59843779,8.47031236 8.625,7.35468721 8.625,6 C8.625,4.54921889 7.45078111,3.375 6,3.375 C4.64531243,3.375 3.52968764,4.40156221 3.38906264,5.72109389 L2.25046849,6.05624986 C2.25023425,6.03750014 2.24999964,6.01874971 2.24999964,6 C2.24999964,3.92812514 3.92812479,2.25 5.99999964,2.25 C8.0718745,2.25 9.74999964,3.92812514 9.74999964,6 C9.74999964,8.07187486 8.0718745,9.75 5.99999964,9.75 C5.98124957,9.75 5.9624995,9.72890639 5.94374979,9.72890639 L6.27890575,8.61093736 L6.27890611,8.61093736 Z M0.914296389,7.23046875 L5.71640575,5.81953132 C6.00000599,5.73515618 6.26484311,5.97890639 6.18046868,6.28359389 L4.76953089,11.0648439 C4.673437,11.4117186 4.22578096,11.4515626 4.07343721,11.1468751 L3.40312457,9.80390596 C3.38671839,9.75234389 3.36562479,9.74296904 3.34218729,9.71718764 L1.28039038,11.7796876 C0.987421632,12.0726557 0.512578011,12.0726557 0.219679713,11.7796876 C-0.0732185841,11.4867189 -0.0732185841,11.0132811 0.219679713,10.7203124 L2.28187501,8.65781236 C2.25609362,8.63437486 2.22703099,8.61328125 2.19562483,8.59687471 L0.852421761,7.92656279 C0.547968507,7.77421904 0.587577939,7.32656264 0.914296746,7.23046875 L0.914296389,7.23046875 Z" id="Shape"></path>
            </g>
            <g id="IMPRESSIONS" transform="translate(32.3438, 0.4741)" fill="#333333" fill-rule="nonzero">
                <polygon id="Path" points="0 6.52587891 0 0.101074219 1.0546875 0.101074219 1.0546875 6.52587891"></polygon>
                <path d="M5.51953125,6.52587891 L3.66943359,1.16015625 L3.62988281,1.16015625 C3.63867188,1.28027344 3.64892578,1.44433594 3.66064453,1.65234375 C3.67236328,1.86035156 3.68261719,2.08300781 3.69140625,2.3203125 C3.70019531,2.55761719 3.70458984,2.78466797 3.70458984,3.00146484 L3.70458984,6.52587891 L2.74658203,6.52587891 L2.74658203,0.101074219 L4.22753906,0.101074219 L6.00732422,5.22949219 L6.03369141,5.22949219 L7.875,0.101074219 L9.3515625,0.101074219 L9.3515625,6.52587891 L8.34521484,6.52587891 L8.34521484,2.94873047 C8.34521484,2.75244141 8.34887695,2.54003906 8.35620117,2.31152344 C8.36352539,2.08300781 8.37231445,1.86621094 8.38256836,1.66113281 C8.39282227,1.45605469 8.40087891,1.29199219 8.40673828,1.16894531 L8.37158203,1.16894531 L6.45117188,6.52587891 L5.51953125,6.52587891 Z" id="Path"></path>
                <path d="M12.9067383,0.101074219 C13.7358398,0.101074219 14.3408203,0.270996094 14.7216797,0.610839844 C15.1025391,0.950683594 15.2929688,1.42675781 15.2929688,2.0390625 C15.2929688,2.31738281 15.2497559,2.58178711 15.1633301,2.83227539 C15.0769043,3.08276367 14.9355469,3.30395508 14.7392578,3.49584961 C14.5429688,3.68774414 14.2844238,3.83935547 13.963623,3.95068359 C13.6428223,4.06201172 13.2480469,4.11767578 12.7792969,4.11767578 L12.09375,4.11767578 L12.09375,6.52587891 L11.0390625,6.52587891 L11.0390625,0.101074219 L12.9067383,0.101074219 Z M12.8364258,0.975585938 L12.09375,0.975585938 L12.09375,3.23876953 L12.6694336,3.23876953 C13.0004883,3.23876953 13.2817383,3.19995117 13.5131836,3.12231445 C13.7446289,3.04467773 13.9204102,2.92089844 14.0405273,2.75097656 C14.1606445,2.58105469 14.2207031,2.35693359 14.2207031,2.07861328 C14.2207031,1.70654297 14.1086426,1.4296875 13.8845215,1.24804688 C13.6604004,1.06640625 13.3110352,0.975585938 12.8364258,0.975585938 Z" id="Shape"></path>
                <path d="M18.3779297,0.101074219 C18.9316406,0.101074219 19.3894043,0.168457031 19.7512207,0.303222656 C20.1130371,0.437988281 20.3825684,0.643066406 20.5598145,0.918457031 C20.7370605,1.19384766 20.8256836,1.54394531 20.8256836,1.96875 C20.8256836,2.28515625 20.7670898,2.5546875 20.6499023,2.77734375 C20.5327148,3 20.3789062,3.18457031 20.1884766,3.33105469 C19.9980469,3.47753906 19.7944336,3.59472656 19.5776367,3.68261719 L21.4013672,6.52587891 L20.2104492,6.52587891 L18.6591797,3.95068359 L17.6264648,3.95068359 L17.6264648,6.52587891 L16.5717773,6.52587891 L16.5717773,0.101074219 L18.3779297,0.101074219 Z M18.3076172,0.979980469 L17.6264648,0.979980469 L17.6264648,3.08056641 L18.355957,3.08056641 C18.8452148,3.08056641 19.2004395,2.98974609 19.4216309,2.80810547 C19.6428223,2.62646484 19.753418,2.35839844 19.753418,2.00390625 C19.753418,1.63183594 19.635498,1.36816406 19.3996582,1.21289062 C19.1638184,1.05761719 18.7998047,0.979980469 18.3076172,0.979980469 Z" id="Shape"></path>
                <polygon id="Path" points="25.9584961 6.52587891 22.3198242 6.52587891 22.3198242 0.101074219 25.9584961 0.101074219 25.9584961 0.988769531 23.3745117 0.988769531 23.3745117 2.73339844 25.7958984 2.73339844 25.7958984 3.61669922 23.3745117 3.61669922 23.3745117 5.63378906 25.9584961 5.63378906"></polygon>
                <path d="M31.0517578,4.77685547 C31.0517578,5.15771484 30.9587402,5.48583984 30.7727051,5.76123047 C30.5866699,6.03662109 30.3200684,6.24755859 29.9729004,6.39404297 C29.6257324,6.54052734 29.2119141,6.61376953 28.7314453,6.61376953 C28.4970703,6.61376953 28.2729492,6.60058594 28.059082,6.57421875 C27.8452148,6.54785156 27.6437988,6.5090332 27.454834,6.45776367 C27.2658691,6.40649414 27.09375,6.34423828 26.9384766,6.27099609 L26.9384766,5.27783203 C27.1992188,5.39208984 27.4907227,5.49536133 27.8129883,5.58764648 C28.1352539,5.67993164 28.4633789,5.72607422 28.7973633,5.72607422 C29.0698242,5.72607422 29.2961426,5.69018555 29.4763184,5.6184082 C29.6564941,5.54663086 29.7905273,5.4440918 29.878418,5.31079102 C29.9663086,5.17749023 30.0102539,5.02148438 30.0102539,4.84277344 C30.0102539,4.65234375 29.9589844,4.49121094 29.8564453,4.359375 C29.7539062,4.22753906 29.5993652,4.10668945 29.3928223,3.99682617 C29.1862793,3.88696289 28.9277344,3.76904297 28.6171875,3.64306641 C28.40625,3.55810547 28.204834,3.46142578 28.0129395,3.35302734 C27.8210449,3.24462891 27.6503906,3.1171875 27.5009766,2.97070312 C27.3515625,2.82421875 27.2336426,2.65063477 27.1472168,2.44995117 C27.060791,2.24926758 27.0175781,2.01269531 27.0175781,1.74023438 C27.0175781,1.37695312 27.1047363,1.06640625 27.2790527,0.80859375 C27.4533691,0.55078125 27.6994629,0.353027344 28.017334,0.215332031 C28.3352051,0.0776367188 28.706543,0.0087890625 29.1313477,0.0087890625 C29.4682617,0.0087890625 29.7854004,0.0439453125 30.0827637,0.114257812 C30.380127,0.184570312 30.6723633,0.284179688 30.9594727,0.413085938 L30.6254883,1.26123047 C30.3618164,1.15283203 30.1062012,1.06640625 29.8586426,1.00195312 C29.611084,0.9375 29.3583984,0.905273438 29.1005859,0.905273438 C28.8779297,0.905273438 28.6889648,0.938964844 28.5336914,1.00634766 C28.378418,1.07373047 28.260498,1.16821289 28.1799316,1.28979492 C28.0993652,1.41137695 28.059082,1.55566406 28.059082,1.72265625 C28.059082,1.91015625 28.1052246,2.06762695 28.1975098,2.19506836 C28.2897949,2.32250977 28.4333496,2.43896484 28.6281738,2.54443359 C28.822998,2.64990234 29.0742188,2.76708984 29.3818359,2.89599609 C29.7363281,3.04248047 30.0373535,3.19628906 30.2849121,3.35742187 C30.5324707,3.51855469 30.722168,3.71118164 30.8540039,3.93530273 C30.9858398,4.15942383 31.0517578,4.43994141 31.0517578,4.77685547 Z" id="Path"></path>
                <path d="M36,4.77685547 C36,5.15771484 35.9069824,5.48583984 35.7209473,5.76123047 C35.5349121,6.03662109 35.2683105,6.24755859 34.9211426,6.39404297 C34.5739746,6.54052734 34.1601562,6.61376953 33.6796875,6.61376953 C33.4453125,6.61376953 33.2211914,6.60058594 33.0073242,6.57421875 C32.793457,6.54785156 32.592041,6.5090332 32.4030762,6.45776367 C32.2141113,6.40649414 32.0419922,6.34423828 31.8867188,6.27099609 L31.8867188,5.27783203 C32.1474609,5.39208984 32.4389648,5.49536133 32.7612305,5.58764648 C33.0834961,5.67993164 33.4116211,5.72607422 33.7456055,5.72607422 C34.0180664,5.72607422 34.2443848,5.69018555 34.4245605,5.6184082 C34.6047363,5.54663086 34.7387695,5.4440918 34.8266602,5.31079102 C34.9145508,5.17749023 34.9584961,5.02148438 34.9584961,4.84277344 C34.9584961,4.65234375 34.9072266,4.49121094 34.8046875,4.359375 C34.7021484,4.22753906 34.5476074,4.10668945 34.3410645,3.99682617 C34.1345215,3.88696289 33.8759766,3.76904297 33.5654297,3.64306641 C33.3544922,3.55810547 33.1530762,3.46142578 32.9611816,3.35302734 C32.7692871,3.24462891 32.5986328,3.1171875 32.4492188,2.97070312 C32.2998047,2.82421875 32.1818848,2.65063477 32.095459,2.44995117 C32.0090332,2.24926758 31.9658203,2.01269531 31.9658203,1.74023438 C31.9658203,1.37695312 32.0529785,1.06640625 32.2272949,0.80859375 C32.4016113,0.55078125 32.6477051,0.353027344 32.9655762,0.215332031 C33.2834473,0.0776367188 33.6547852,0.0087890625 34.0795898,0.0087890625 C34.4165039,0.0087890625 34.7336426,0.0439453125 35.0310059,0.114257812 C35.3283691,0.184570312 35.6206055,0.284179688 35.9077148,0.413085938 L35.5737305,1.26123047 C35.3100586,1.15283203 35.0544434,1.06640625 34.8068848,1.00195312 C34.5593262,0.9375 34.3066406,0.905273438 34.0488281,0.905273438 C33.8261719,0.905273438 33.637207,0.938964844 33.4819336,1.00634766 C33.3266602,1.07373047 33.2087402,1.16821289 33.1281738,1.28979492 C33.0476074,1.41137695 33.0073242,1.55566406 33.0073242,1.72265625 C33.0073242,1.91015625 33.0534668,2.06762695 33.145752,2.19506836 C33.2380371,2.32250977 33.3815918,2.43896484 33.576416,2.54443359 C33.7712402,2.64990234 34.0224609,2.76708984 34.3300781,2.89599609 C34.6845703,3.04248047 34.9855957,3.19628906 35.2331543,3.35742187 C35.4807129,3.51855469 35.6704102,3.71118164 35.8022461,3.93530273 C35.934082,4.15942383 36,4.43994141 36,4.77685547 Z" id="Path"></path>
                <polygon id="Path" points="37.2392578 6.52587891 37.2392578 0.101074219 38.2939453 0.101074219 38.2939453 6.52587891"></polygon>
                <path d="M45.6899414,3.3046875 C45.6899414,3.79980469 45.6276855,4.25024414 45.5031738,4.65600586 C45.3786621,5.06176758 45.1918945,5.41040039 44.9428711,5.7019043 C44.6938477,5.9934082 44.3818359,6.21826172 44.0068359,6.37646484 C43.6318359,6.53466797 43.1923828,6.61376953 42.6884766,6.61376953 C42.1757812,6.61376953 41.7312012,6.53466797 41.3547363,6.37646484 C40.9782715,6.21826172 40.6662598,5.99267578 40.4187012,5.69970703 C40.1711426,5.40673828 39.9858398,5.05664062 39.862793,4.64941406 C39.7397461,4.2421875 39.6782227,3.79101562 39.6782227,3.29589844 C39.6782227,2.63378906 39.7873535,2.0559082 40.0056152,1.56225586 C40.223877,1.06860352 40.5563965,0.684814453 41.0031738,0.410888672 C41.4499512,0.136962891 42.0146484,0 42.6972656,0 C43.3652344,0 43.9204102,0.136230469 44.362793,0.408691406 C44.8051758,0.681152344 45.1369629,1.06420898 45.3581543,1.55786133 C45.5793457,2.05151367 45.6899414,2.63378906 45.6899414,3.3046875 Z M40.7856445,3.3046875 C40.7856445,3.79980469 40.8530273,4.22827148 40.987793,4.59008789 C41.1225586,4.9519043 41.329834,5.23022461 41.6096191,5.42504883 C41.8894043,5.61987305 42.2490234,5.71728516 42.6884766,5.71728516 C43.1308594,5.71728516 43.4912109,5.61987305 43.7695312,5.42504883 C44.0478516,5.23022461 44.2529297,4.9519043 44.3847656,4.59008789 C44.5166016,4.22827148 44.5825195,3.79980469 44.5825195,3.3046875 C44.5825195,2.55175781 44.432373,1.9621582 44.1320801,1.53588867 C43.8317871,1.10961914 43.3535156,0.896484375 42.6972656,0.896484375 C42.2578125,0.896484375 41.8967285,0.993164062 41.6140137,1.18652344 C41.3312988,1.37988281 41.1225586,1.65600586 40.987793,2.01489258 C40.8530273,2.3737793 40.7856445,2.80371094 40.7856445,3.3046875 Z" id="Shape"></path>
                <path d="M52.4311523,6.52587891 L51.1347656,6.52587891 L47.9882812,1.39746094 L47.9487305,1.39746094 C47.9604492,1.5703125 47.9714355,1.75341797 47.9816895,1.94677734 C47.9919434,2.14013672 48.0007324,2.33935547 48.0080566,2.54443359 C48.0153809,2.74951172 48.0219727,2.95751953 48.027832,3.16845703 L48.027832,6.52587891 L47.0698242,6.52587891 L47.0698242,0.101074219 L48.3574219,0.101074219 L51.4995117,5.19433594 L51.5302734,5.19433594 C51.5244141,5.04492188 51.5170898,4.87353516 51.5083008,4.68017578 C51.4995117,4.48681641 51.4914551,4.28686523 51.4841309,4.08032227 C51.4768066,3.8737793 51.4716797,3.67382813 51.46875,3.48046875 L51.46875,0.101074219 L52.4311523,0.101074219 L52.4311523,6.52587891 Z" id="Path"></path>
                <path d="M57.8276367,4.77685547 C57.8276367,5.15771484 57.7346191,5.48583984 57.548584,5.76123047 C57.3625488,6.03662109 57.0959473,6.24755859 56.7487793,6.39404297 C56.4016113,6.54052734 55.987793,6.61376953 55.5073242,6.61376953 C55.2729492,6.61376953 55.0488281,6.60058594 54.8349609,6.57421875 C54.6210938,6.54785156 54.4196777,6.5090332 54.2307129,6.45776367 C54.041748,6.40649414 53.8696289,6.34423828 53.7143555,6.27099609 L53.7143555,5.27783203 C53.9750977,5.39208984 54.2666016,5.49536133 54.5888672,5.58764648 C54.9111328,5.67993164 55.2392578,5.72607422 55.5732422,5.72607422 C55.8457031,5.72607422 56.0720215,5.69018555 56.2521973,5.6184082 C56.432373,5.54663086 56.5664062,5.4440918 56.6542969,5.31079102 C56.7421875,5.17749023 56.7861328,5.02148438 56.7861328,4.84277344 C56.7861328,4.65234375 56.7348633,4.49121094 56.6323242,4.359375 C56.5297852,4.22753906 56.3752441,4.10668945 56.1687012,3.99682617 C55.9621582,3.88696289 55.7036133,3.76904297 55.3930664,3.64306641 C55.1821289,3.55810547 54.9807129,3.46142578 54.7888184,3.35302734 C54.5969238,3.24462891 54.4262695,3.1171875 54.2768555,2.97070312 C54.1274414,2.82421875 54.0095215,2.65063477 53.9230957,2.44995117 C53.8366699,2.24926758 53.793457,2.01269531 53.793457,1.74023438 C53.793457,1.37695312 53.8806152,1.06640625 54.0549316,0.80859375 C54.229248,0.55078125 54.4753418,0.353027344 54.7932129,0.215332031 C55.111084,0.0776367188 55.4824219,0.0087890625 55.9072266,0.0087890625 C56.2441406,0.0087890625 56.5612793,0.0439453125 56.8586426,0.114257812 C57.1560059,0.184570312 57.4482422,0.284179688 57.7353516,0.413085938 L57.4013672,1.26123047 C57.1376953,1.15283203 56.8820801,1.06640625 56.6345215,1.00195312 C56.3869629,0.9375 56.1342773,0.905273438 55.8764648,0.905273438 C55.6538086,0.905273438 55.4648438,0.938964844 55.3095703,1.00634766 C55.1542969,1.07373047 55.036377,1.16821289 54.9558105,1.28979492 C54.8752441,1.41137695 54.8349609,1.55566406 54.8349609,1.72265625 C54.8349609,1.91015625 54.8811035,2.06762695 54.9733887,2.19506836 C55.0656738,2.32250977 55.2092285,2.43896484 55.4040527,2.54443359 C55.598877,2.64990234 55.8500977,2.76708984 56.1577148,2.89599609 C56.512207,3.04248047 56.8132324,3.19628906 57.060791,3.35742187 C57.3083496,3.51855469 57.4980469,3.71118164 57.6298828,3.93530273 C57.7617188,4.15942383 57.8276367,4.43994141 57.8276367,4.77685547 Z" id="Path"></path>
            </g>
            <g id="$120,890" transform="translate(32.314, 13.4121)" fill="#333333" fill-rule="nonzero">
                <path d="M1.90917969,8.16894531 L1.90917969,7.14355469 C1.53483073,7.13704427 1.17757161,7.10449219 0.837402344,7.04589844 C0.497233073,6.98730469 0.219726562,6.91080729 0.0048828125,6.81640625 L0.0048828125,6.02539062 C0.229492188,6.12955729 0.517578125,6.22070312 0.869140625,6.29882812 C1.22070312,6.37695312 1.56738281,6.41927083 1.90917969,6.42578125 L1.90917969,4.27734375 C1.47949219,4.15690104 1.12386068,4.01936849 0.842285156,3.86474609 C0.560709635,3.7101237 0.349934896,3.52050781 0.209960938,3.29589844 C0.0699869792,3.07128906 0,2.79947917 0,2.48046875 C0,2.1484375 0.0789388021,1.86442057 0.236816406,1.62841797 C0.39469401,1.39241536 0.616861979,1.20768229 0.903320312,1.07421875 C1.18977865,0.940755208 1.5250651,0.864257812 1.90917969,0.844726562 L1.90917969,0 L2.50488281,0 L2.50488281,0.834960938 C2.8531901,0.844726562 3.17057292,0.88297526 3.45703125,0.949707031 C3.74348958,1.0164388 4.00878906,1.10188802 4.25292969,1.20605469 L3.99902344,1.88476562 C3.77766927,1.796875 3.53841146,1.72200521 3.28125,1.66015625 C3.02408854,1.59830729 2.76529948,1.55598958 2.50488281,1.53320312 L2.50488281,3.66699219 C2.94108073,3.79394531 3.30647786,3.92903646 3.60107422,4.07226562 C3.89567057,4.21549479 4.11783854,4.39290365 4.26757812,4.60449219 C4.41731771,4.81608073 4.4921875,5.08951823 4.4921875,5.42480469 C4.4921875,5.9000651 4.31803385,6.28336589 3.96972656,6.57470703 C3.62141927,6.86604818 3.13313802,7.04264323 2.50488281,7.10449219 L2.50488281,8.16894531 L1.90917969,8.16894531 Z M2.50488281,6.38183594 C2.90527344,6.34277344 3.2039388,6.24593099 3.40087891,6.09130859 C3.59781901,5.9366862 3.69628906,5.73242188 3.69628906,5.47851562 C3.69628906,5.29622396 3.65804036,5.14648438 3.58154297,5.02929688 C3.50504557,4.91210938 3.38053385,4.81038411 3.20800781,4.72412109 C3.03548177,4.63785807 2.80110677,4.55566406 2.50488281,4.47753906 L2.50488281,6.38183594 Z M1.90917969,3.46191406 L1.90917969,1.55273438 C1.66503906,1.56901042 1.45996094,1.61458333 1.29394531,1.68945312 C1.12792969,1.76432292 1.00341797,1.86197917 0.920410156,1.98242188 C0.837402344,2.10286458 0.795898438,2.24609375 0.795898438,2.41210938 C0.795898438,2.60416667 0.832519531,2.76448568 0.905761719,2.89306641 C0.979003906,3.02164714 1.09781901,3.13069661 1.26220703,3.22021484 C1.42659505,3.30973307 1.6422526,3.39029948 1.90917969,3.46191406 Z" id="Shape"></path>
                <path d="M8.60839844,7.58789062 L7.81738281,7.58789062 L7.81738281,2.52929688 C7.81738281,2.33723958 7.81819661,2.17203776 7.81982422,2.03369141 C7.82145182,1.89534505 7.82470703,1.76839193 7.82958984,1.65283203 C7.83447266,1.53727214 7.84179688,1.41927083 7.8515625,1.29882812 C7.75065104,1.40299479 7.65625,1.49169922 7.56835938,1.56494141 C7.48046875,1.63818359 7.37141927,1.72851562 7.24121094,1.8359375 L6.42578125,2.49023438 L6.00097656,1.93847656 L7.93457031,0.44921875 L8.60839844,0.44921875 L8.60839844,7.58789062 Z" id="Path"></path>
                <path d="M15.9863281,7.58789062 L11.3085938,7.58789062 L11.3085938,6.90917969 L13.2177734,4.97070312 C13.5725911,4.61263021 13.8712565,4.29361979 14.1137695,4.01367188 C14.3562826,3.73372396 14.5410156,3.45784505 14.6679688,3.18603516 C14.7949219,2.91422526 14.8583984,2.6155599 14.8583984,2.29003906 C14.8583984,1.88639323 14.7387695,1.57796224 14.4995117,1.36474609 C14.2602539,1.15152995 13.9453125,1.04492188 13.5546875,1.04492188 C13.2128906,1.04492188 12.9101562,1.10351562 12.6464844,1.22070312 C12.3828125,1.33789062 12.1126302,1.50390625 11.8359375,1.71875 L11.4013672,1.171875 C11.5901693,1.01236979 11.7960612,0.870768229 12.019043,0.747070312 C12.2420247,0.623372396 12.4812826,0.525716146 12.7368164,0.454101562 C12.9923503,0.382486979 13.264974,0.346679688 13.5546875,0.346679688 C13.9941406,0.346679688 14.3733724,0.423177083 14.6923828,0.576171875 C15.0113932,0.729166667 15.2579753,0.947265625 15.4321289,1.23046875 C15.6062826,1.51367188 15.6933594,1.85058594 15.6933594,2.24121094 C15.6933594,2.6188151 15.6184896,2.9695638 15.46875,3.29345703 C15.3190104,3.61735026 15.1090495,3.93798828 14.8388672,4.25537109 C14.5686849,4.57275391 14.2529297,4.90885417 13.8916016,5.26367188 L12.3388672,6.81152344 L12.3388672,6.84570312 L15.9863281,6.84570312 L15.9863281,7.58789062 Z" id="Path"></path>
                <path d="M21.7431641,4.00878906 C21.7431641,4.58821615 21.6992188,5.10579427 21.6113281,5.56152344 C21.5234375,6.0172526 21.3850911,6.40299479 21.1962891,6.71875 C21.007487,7.03450521 20.7633464,7.27457682 20.4638672,7.43896484 C20.164388,7.60335286 19.8046875,7.68554688 19.3847656,7.68554688 C18.8541667,7.68554688 18.4155273,7.5406901 18.0688477,7.25097656 C17.722168,6.96126302 17.4633789,6.54215495 17.2924805,5.99365234 C17.121582,5.44514974 17.0361328,4.78352865 17.0361328,4.00878906 C17.0361328,3.24707031 17.113444,2.59195964 17.2680664,2.04345703 C17.4226888,1.49495443 17.672526,1.07340495 18.0175781,0.778808594 C18.3626302,0.48421224 18.8183594,0.336914062 19.3847656,0.336914062 C19.921875,0.336914062 20.3645833,0.482584635 20.7128906,0.773925781 C21.0611979,1.06526693 21.319987,1.4851888 21.4892578,2.03369141 C21.6585286,2.58219401 21.7431641,3.2405599 21.7431641,4.00878906 Z M17.8515625,4.00878906 C17.8515625,4.67285156 17.9020182,5.22623698 18.0029297,5.66894531 C18.1038411,6.11165365 18.2674154,6.44287109 18.4936523,6.66259766 C18.7198893,6.88232422 19.0169271,6.9921875 19.3847656,6.9921875 C19.7526042,6.9921875 20.0496419,6.88313802 20.2758789,6.66503906 C20.5021159,6.4469401 20.6665039,6.11653646 20.769043,5.67382812 C20.871582,5.23111979 20.9228516,4.67610677 20.9228516,4.00878906 C20.9228516,3.35449219 20.8723958,2.80680339 20.7714844,2.36572266 C20.6705729,1.92464193 20.5078125,1.59261068 20.2832031,1.36962891 C20.0585938,1.14664714 19.7591146,1.03515625 19.3847656,1.03515625 C19.0104167,1.03515625 18.7109375,1.14664714 18.4863281,1.36962891 C18.2617188,1.59261068 18.0997721,1.92464193 18.0004883,2.36572266 C17.9012044,2.80680339 17.8515625,3.35449219 17.8515625,4.00878906 Z" id="Shape"></path>
                <path d="M24.0332031,6.42578125 L24.0966797,6.53808594 C24.0380859,6.77571615 23.9640299,7.0296224 23.8745117,7.29980469 C23.7849935,7.56998698 23.6873372,7.84098307 23.581543,8.11279297 C23.4757487,8.38460286 23.3691406,8.63932292 23.2617188,8.87695312 L22.65625,8.87695312 C22.7246094,8.61653646 22.7913411,8.34228516 22.8564453,8.05419922 C22.9215495,7.76611328 22.980957,7.48128255 23.034668,7.19970703 C23.0883789,6.91813151 23.1315104,6.66015625 23.1640625,6.42578125 L24.0332031,6.42578125 Z" id="Path"></path>
                <path d="M27.6904297,0.346679688 C28.1038411,0.346679688 28.4700521,0.411783854 28.7890625,0.541992188 C29.1080729,0.672200521 29.3579102,0.86344401 29.5385742,1.11572266 C29.7192383,1.3680013 29.8095703,1.6780599 29.8095703,2.04589844 C29.8095703,2.33561198 29.7469076,2.58870443 29.621582,2.80517578 C29.4962565,3.02164714 29.3277995,3.21044922 29.1162109,3.37158203 C28.9046224,3.53271484 28.6702474,3.67675781 28.4130859,3.80371094 C28.7190755,3.9436849 28.9949544,4.1015625 29.2407227,4.27734375 C29.4864909,4.453125 29.6809896,4.65983073 29.8242188,4.89746094 C29.9674479,5.13509115 30.0390625,5.41666667 30.0390625,5.7421875 C30.0390625,6.14257812 29.9422201,6.48844401 29.7485352,6.77978516 C29.5548503,7.0711263 29.2838542,7.29492188 28.9355469,7.45117188 C28.5872396,7.60742188 28.1787109,7.68554688 27.7099609,7.68554688 C27.2054036,7.68554688 26.7765299,7.60986328 26.4233398,7.45849609 C26.0701497,7.30712891 25.8015951,7.08902995 25.6176758,6.80419922 C25.4337565,6.51936849 25.3417969,6.17675781 25.3417969,5.77636719 C25.3417969,5.44759115 25.4117839,5.16194661 25.5517578,4.91943359 C25.6917318,4.67692057 25.8772786,4.46777344 26.1083984,4.29199219 C26.3395182,4.11621094 26.5917969,3.96809896 26.8652344,3.84765625 C26.6276042,3.71744792 26.410319,3.56933594 26.2133789,3.40332031 C26.0164388,3.23730469 25.8601888,3.04280599 25.7446289,2.81982422 C25.629069,2.59684245 25.5712891,2.33723958 25.5712891,2.04101562 C25.5712891,1.6796875 25.6632487,1.37288411 25.847168,1.12060547 C26.0310872,0.868326823 26.2833659,0.676269531 26.6040039,0.544433594 C26.9246419,0.412597656 27.2867839,0.346679688 27.6904297,0.346679688 Z M26.1376953,5.78125 C26.1376953,6.14583333 26.266276,6.4461263 26.5234375,6.68212891 C26.780599,6.91813151 27.1695964,7.03613281 27.6904297,7.03613281 C28.1852214,7.03613281 28.5677083,6.91813151 28.8378906,6.68212891 C29.1080729,6.4461263 29.2431641,6.13606771 29.2431641,5.75195312 C29.2431641,5.51432292 29.1813151,5.30517578 29.0576172,5.12451172 C28.9339193,4.94384766 28.758138,4.78190104 28.5302734,4.63867188 C28.3024089,4.49544271 28.0338542,4.36523438 27.7246094,4.24804688 L27.5488281,4.18457031 C27.249349,4.30826823 26.9946289,4.44580078 26.784668,4.59716797 C26.574707,4.74853516 26.414388,4.9202474 26.3037109,5.11230469 C26.1930339,5.30436198 26.1376953,5.52734375 26.1376953,5.78125 Z M27.6806641,1.01074219 C27.2965495,1.01074219 26.9824219,1.10270182 26.7382812,1.28662109 C26.4941406,1.47054036 26.3720703,1.73502604 26.3720703,2.08007812 C26.3720703,2.32747396 26.4314779,2.53662109 26.550293,2.70751953 C26.6691081,2.87841797 26.8310547,3.02490234 27.0361328,3.14697266 C27.2412109,3.26904297 27.4707031,3.38216146 27.7246094,3.48632812 C27.9720052,3.38216146 28.1917318,3.26741536 28.3837891,3.14208984 C28.5758464,3.01676432 28.7272135,2.86783854 28.8378906,2.6953125 C28.9485677,2.52278646 29.0039062,2.31608073 29.0039062,2.07519531 C29.0039062,1.73014323 28.8826497,1.46647135 28.6401367,1.28417969 C28.3976237,1.10188802 28.0777995,1.01074219 27.6806641,1.01074219 Z" id="Shape"></path>
                <path d="M35.7373047,3.49121094 C35.7373047,3.92415365 35.707194,4.34570312 35.6469727,4.75585938 C35.5867513,5.16601562 35.4842122,5.5485026 35.3393555,5.90332031 C35.1944987,6.25813802 34.9983724,6.56901042 34.7509766,6.8359375 C34.5035807,7.10286458 34.1935221,7.31201172 33.8208008,7.46337891 C33.4480794,7.61474609 33.0029297,7.69042969 32.4853516,7.69042969 C32.3453776,7.69042969 32.1858724,7.68147786 32.0068359,7.66357422 C31.8277995,7.64567057 31.6813151,7.62044271 31.5673828,7.58789062 L31.5673828,6.88476562 C31.6878255,6.92708333 31.8294271,6.96044922 31.9921875,6.98486328 C32.1549479,7.00927734 32.3144531,7.02148438 32.4707031,7.02148438 C33.0794271,7.02148438 33.5579427,6.89046224 33.90625,6.62841797 C34.2545573,6.3663737 34.5052083,6.00992839 34.6582031,5.55908203 C34.8111979,5.10823568 34.8974609,4.60123698 34.9169922,4.03808594 L34.8583984,4.03808594 C34.7607422,4.19433594 34.6329753,4.33837891 34.4750977,4.47021484 C34.3172201,4.60205078 34.1259766,4.70784505 33.9013672,4.78759766 C33.6767578,4.86735026 33.4147135,4.90722656 33.1152344,4.90722656 C32.7018229,4.90722656 32.3413086,4.82259115 32.0336914,4.65332031 C31.7260742,4.48404948 31.4868164,4.23828125 31.315918,3.91601562 C31.1450195,3.59375 31.0595703,3.2047526 31.0595703,2.74902344 C31.0595703,2.25748698 31.1531576,1.83186849 31.340332,1.47216797 C31.5275065,1.11246745 31.7903646,0.834960938 32.1289062,0.639648438 C32.4674479,0.444335938 32.8662109,0.346679688 33.3251953,0.346679688 C33.6767578,0.346679688 33.9990234,0.413411458 34.2919922,0.546875 C34.5849609,0.680338542 34.839681,0.879720052 35.0561523,1.14501953 C35.2726237,1.41031901 35.4402669,1.73828125 35.559082,2.12890625 C35.6778971,2.51953125 35.7373047,2.97363281 35.7373047,3.49121094 Z M33.3251953,1.03515625 C32.8922526,1.03515625 32.5415039,1.17675781 32.2729492,1.45996094 C32.0043945,1.74316406 31.8701172,2.16959635 31.8701172,2.73925781 C31.8701172,3.21126302 31.9856771,3.58398438 32.2167969,3.85742188 C32.4479167,4.13085938 32.804362,4.26757812 33.2861328,4.26757812 C33.6181641,4.26757812 33.9054362,4.20084635 34.1479492,4.06738281 C34.3904622,3.93391927 34.5776367,3.76464844 34.7094727,3.55957031 C34.8413086,3.35449219 34.9072266,3.14453125 34.9072266,2.9296875 C34.9072266,2.71484375 34.8754883,2.49674479 34.8120117,2.27539062 C34.7485352,2.05403646 34.6516927,1.84977214 34.5214844,1.66259766 C34.391276,1.47542318 34.226888,1.32405599 34.0283203,1.20849609 C33.8297526,1.0929362 33.5953776,1.03515625 33.3251953,1.03515625 Z" id="Shape"></path>
                <path d="M41.484375,4.00878906 C41.484375,4.58821615 41.4404297,5.10579427 41.3525391,5.56152344 C41.2646484,6.0172526 41.1263021,6.40299479 40.9375,6.71875 C40.7486979,7.03450521 40.5045573,7.27457682 40.2050781,7.43896484 C39.905599,7.60335286 39.5458984,7.68554688 39.1259766,7.68554688 C38.5953776,7.68554688 38.1567383,7.5406901 37.8100586,7.25097656 C37.4633789,6.96126302 37.2045898,6.54215495 37.0336914,5.99365234 C36.862793,5.44514974 36.7773438,4.78352865 36.7773438,4.00878906 C36.7773438,3.24707031 36.8546549,2.59195964 37.0092773,2.04345703 C37.1638997,1.49495443 37.413737,1.07340495 37.7587891,0.778808594 C38.1038411,0.48421224 38.5595703,0.336914062 39.1259766,0.336914062 C39.6630859,0.336914062 40.1057943,0.482584635 40.4541016,0.773925781 C40.8024089,1.06526693 41.0611979,1.4851888 41.2304688,2.03369141 C41.3997396,2.58219401 41.484375,3.2405599 41.484375,4.00878906 Z M37.5927734,4.00878906 C37.5927734,4.67285156 37.6432292,5.22623698 37.7441406,5.66894531 C37.8450521,6.11165365 38.0086263,6.44287109 38.2348633,6.66259766 C38.4611003,6.88232422 38.758138,6.9921875 39.1259766,6.9921875 C39.4938151,6.9921875 39.7908529,6.88313802 40.0170898,6.66503906 C40.2433268,6.4469401 40.4077148,6.11653646 40.5102539,5.67382812 C40.612793,5.23111979 40.6640625,4.67610677 40.6640625,4.00878906 C40.6640625,3.35449219 40.6136068,2.80680339 40.5126953,2.36572266 C40.4117839,1.92464193 40.2490234,1.59261068 40.0244141,1.36962891 C39.7998047,1.14664714 39.5003255,1.03515625 39.1259766,1.03515625 C38.7516276,1.03515625 38.4521484,1.14664714 38.2275391,1.36962891 C38.0029297,1.59261068 37.8409831,1.92464193 37.7416992,2.36572266 C37.6424154,2.80680339 37.5927734,3.35449219 37.5927734,4.00878906 Z" id="Shape"></path>
            </g>
        </g>
    </g>
</svg>