<?xml version="1.0" encoding="UTF-8"?>
<svg width="50px" height="51px" viewBox="0 0 50 51" version="1.1" xmlns="http://www.w3.org/2000/svg" xmlns:xlink="http://www.w3.org/1999/xlink">
    <title>layer-group</title>
    <g id="Page-1" stroke="none" stroke-width="1" fill="none" fill-rule="evenodd">
        <g id="layer-group" transform="translate(-0, 0.25)" fill="#333333" fill-rule="nonzero">
            <path d="M22.8710949,0.456249714 C23.5351577,0.155469775 24.2675796,0 25.0000015,0 C25.7324234,0 26.3769552,0.155469775 27.1289065,0.456249714 L48.3593777,9.97070372 C49.3554696,10.4199231 50.0000015,11.4062488 50.0000015,12.5 C50.0000015,13.5937512 49.3554696,14.5800769 48.3593777,15.0292963 L27.1289065,24.5410159 C26.3769552,24.8437494 25.7324234,25 25.0000015,25 C24.2675796,25 23.5351577,24.8437494 22.8710949,24.5410159 L1.6367197,15.0292963 C0.640723109,14.5800769 2.98023224e-05,13.5937512 2.98023224e-05,12.5 C2.98023224e-05,11.4062488 0.640723109,10.4199231 1.6367197,9.97070372 L22.8710949,0.456249714 Z M25.0000015,3.125 C24.6191427,3.125 24.326174,3.18750143 24.1406262,3.30761671 L3.63965034,12.5 L24.1406262,21.6894537 C24.326174,21.8164057 24.6191427,21.875 25.0000015,21.875 C25.2929702,21.875 25.585939,21.8164057 25.8593753,21.6894537 L46.3574246,12.5 L25.8593753,3.30761671 C25.585939,3.18750143 25.2929702,3.125 25.0000015,3.125 Z M7.67578334,21.4746088 C8.02929997,22.265625 7.67676085,23.1933594 6.88965172,23.5449225 L3.63965183,25 L24.1406277,34.1894537 C24.3261755,34.3164057 24.6191442,34.375 25.0000015,34.375 C25.2929717,34.375 25.5859405,34.3164057 25.8593768,34.1894537 L46.357426,25 L43.1152374,23.5449225 C42.3242211,23.1933594 41.972658,22.265625 42.3242211,21.4746088 C42.6757842,20.6933588 43.6035186,20.3417972 44.3847686,20.6933588 L48.3593792,22.4707037 C49.3554711,22.9199216 50.0000015,23.9062503 50.0000015,25 C50.0000015,26.0937512 49.3554711,27.0800769 48.3593792,27.5292963 L27.128908,37.0410144 C26.3769567,37.3437494 25.7324249,37.5 25.0000015,37.5 C24.2675811,37.5 23.5351592,37.3437494 22.8710964,37.0410144 L1.63672119,27.5292963 C0.640724599,27.0800769 1.49011612e-06,26.0937512 1.49011612e-06,25 C1.49011612e-06,23.9062503 0.640724599,22.9199216 1.63672119,22.4707037 L5.61133027,20.6933588 C6.39843941,20.3417972 7.32324421,20.6933588 7.67578334,21.4746088 Z M3.63965034,37.5 L24.1406262,46.6894537 C24.326174,46.8164057 24.6191427,46.875 25,46.875 C25.2929702,46.875 25.585939,46.8164057 25.8593753,46.6894537 L46.3574246,37.5 L43.1152359,36.0449225 C42.3242196,35.6933594 41.9726565,34.765625 42.3242196,33.9746088 C42.6757827,33.1933588 43.6035171,32.8417957 44.3847671,33.1933588 L48.3593777,34.9707037 C49.3554696,35.4199231 50,36.4062488 50,37.5 C50,38.5937512 49.3554696,39.5800769 48.3593777,40.0292963 L27.1289065,49.5410144 C26.3769552,49.8437494 25.7324234,50 25,50 C24.2675796,50 23.5351577,49.8437494 22.8710949,49.5410144 L1.6367197,40.0292963 C0.640723109,39.5800769 0,38.5937512 0,37.5 C0,36.4062488 0.640723109,35.4199231 1.6367197,34.9707037 L5.61132878,33.1933588 C6.39843792,32.8417957 7.32324272,33.1933588 7.67578185,33.9746088 C8.02832097,34.765625 7.67675787,35.6933594 6.88867122,36.0449225 L3.63964736,37.5 L3.63965034,37.5 Z" id="Shape"></path>
        </g>
    </g>
</svg>