<?xml version="1.0" encoding="UTF-8"?>
<svg width="63px" height="51px" viewBox="0 0 63 51" version="1.1" xmlns="http://www.w3.org/2000/svg" xmlns:xlink="http://www.w3.org/1999/xlink">
    <title>object-ungroup</title>
    <g id="Page-1" stroke="none" stroke-width="1" fill="none" fill-rule="evenodd">
        <g id="object-ungroup" transform="translate(0, 0.25)" fill="#333333" fill-rule="nonzero">
            <path d="M6.25,0 C9.16211009,0 11.611329,1.9921869 12.2167975,4.6875 L31.4453125,4.6875 C32.1386725,1.9921869 34.5898449,0 37.5,0 C40.9472644,0 43.75,2.79785097 43.75,6.25 C43.75,9.16211009 41.7578131,11.6113275 39.0625,12.2167975 L39.0625,22.0703125 C41.7578131,22.7636725 43.75,25.2148449 43.75,28.125 C43.75,31.5722644 40.9472644,34.375 37.5,34.375 C34.5898449,34.375 32.1386725,32.3828131 31.4453125,29.6875 L12.2167975,29.6875 C11.611329,32.3828131 9.16211009,34.375 6.25,34.375 C2.79785097,34.375 0,31.5722644 0,28.125 C0,25.2148449 1.9921869,22.7636725 4.6875,22.0703125 L4.6875,12.2167975 C1.9921869,11.6113275 0,9.16211009 0,6.25 C0,2.79785097 2.79785097,0 6.25,0 Z M31.4453125,7.8125 L12.2167975,7.8125 C11.738281,10.0097656 10.0097656,11.7382824 7.8125,12.2167975 L7.8125,22.0703125 C10.0097656,22.636719 11.738281,24.3652344 12.2167975,26.5625 L31.4453125,26.5625 C32.0117176,24.3652344 33.7402344,22.636719 35.9375,22.0703125 L35.9375,12.2167975 C33.7402344,11.7382824 32.0117176,10.0097656 31.4453125,7.8125 Z M40.625,28.125 C40.625,26.3964832 39.2285168,25 37.5,25 C35.7714832,25 34.375,26.3964832 34.375,28.125 C34.375,29.8535168 35.7714832,31.25 37.5,31.25 C39.2285168,31.25 40.625,29.8535168 40.625,28.125 Z M3.125,28.125 C3.125,29.8535168 4.52441424,31.25 6.25,31.25 C7.97558576,31.25 9.375,29.8535168 9.375,28.125 C9.375,26.3964832 7.97558576,25 6.25,25 C4.52441424,25 3.125,26.3964832 3.125,28.125 Z M40.625,6.25 C40.625,4.52441573 39.2285168,3.125 37.5,3.125 C35.7714832,3.125 34.375,4.52441573 34.375,6.25 C34.375,7.97558427 35.7714832,9.375 37.5,9.375 C39.2285168,9.375 40.625,7.97558427 40.625,6.25 Z M3.125,6.25 C3.125,7.97558427 4.52441424,9.375 6.25,9.375 C7.97558576,9.375 9.375,7.97558427 9.375,6.25 C9.375,4.52441573 7.97558576,3.125 6.25,3.125 C4.52441424,3.125 3.125,4.52441573 3.125,6.25 Z M50.1953125,20.3125 C50.8886695,17.6171869 53.3398449,15.625 56.25,15.625 C59.6972644,15.625 62.5,18.4277356 62.5,21.875 C62.5,24.7851565 60.5078101,27.2363275 57.8125,27.8417975 L57.8125,37.6953125 C60.5078101,38.3886725 62.5,40.8398449 62.5,43.75 C62.5,47.1972644 59.6972644,50 56.25,50 C53.3398449,50 50.8886695,48.0078131 50.1953125,45.3125 L30.9667975,45.3125 C30.3613275,48.0078131 27.9101551,50 25,50 C21.5527341,50 18.75,47.1972644 18.75,43.75 C18.75,40.8398449 20.7421869,38.3886725 23.4375,37.6953125 L23.4375,34.375 C23.4375,33.5156262 24.1406247,32.8125 25,32.8125 C25.8593738,32.8125 26.5625,33.5156262 26.5625,34.375 L26.5625,37.6953125 C28.7597656,38.2617176 30.4882824,39.9902344 30.9667975,42.1875 L50.1953125,42.1875 C50.7617176,39.9902344 52.4902344,38.2617176 54.6875,37.6953125 L54.6875,27.8417975 C52.4902344,27.3632824 50.7617176,25.6347656 50.1953125,23.4375 L46.875,23.4375 C46.0156262,23.4375 45.3125,22.7343753 45.3125,21.875 C45.3125,21.0156247 46.0156262,20.3125 46.875,20.3125 L50.1953125,20.3125 Z M53.125,21.875 C53.125,23.6035153 54.5214832,25 56.25,25 C57.9785168,25 59.375,23.6035153 59.375,21.875 C59.375,20.1464847 57.9785168,18.75 56.25,18.75 C54.5214832,18.75 53.125,20.1464847 53.125,21.875 Z M56.25,40.625 C54.5214832,40.625 53.125,42.0214832 53.125,43.75 C53.125,45.4785168 54.5214832,46.875 56.25,46.875 C57.9785168,46.875 59.375,45.4785168 59.375,43.75 C59.375,42.0214832 57.9785168,40.625 56.25,40.625 Z M21.875,43.75 C21.875,45.4785168 23.2714847,46.875 25,46.875 C26.7285168,46.875 28.125,45.4785168 28.125,43.75 C28.125,42.0214832 26.7285168,40.625 25,40.625 C23.2714847,40.625 21.875,42.0214832 21.875,43.75 Z" id="Shape"></path>
        </g>
    </g>
</svg>