<?xml version="1.0" encoding="UTF-8"?>
<svg width="82px" height="24px" viewBox="0 0 82 24" version="1.1" xmlns="http://www.w3.org/2000/svg" xmlns:xlink="http://www.w3.org/1999/xlink">
    <title>Pageviews</title>
    <g id="Page-1" stroke="none" stroke-width="1" fill="none" fill-rule="evenodd">
        <g id="Pageviews">
            <circle id="Oval" fill="#9AAA1E" cx="11" cy="11" r="11"></circle>
            <g id="window-flip" transform="translate(5, 5.25)" fill="#FFFFFF" fill-rule="nonzero">
                <path d="M12,9 C12,9.82734346 11.3273435,10.5 10.5,10.5 L1.5,10.5 C0.671484232,10.5 0,9.82734346 0,9 L0,1.5 C0,0.671484232 0.671484232,0 1.5,0 L10.5,0 C11.3273435,0 12,0.671484232 12,1.5 L12,9 Z M1.125,9 C1.125,9.20624971 1.29281259,9.375 1.5,9.375 L10.5,9.375 C10.7062497,9.375 10.875,9.20624971 10.875,9 L10.875,4.5 L1.125,4.5 L1.125,9 Z M10.5,2.25 C10.5,1.83515596 10.164844,1.5 9.75,1.5 C9.33515596,1.5 9,1.83515596 9,2.25 C9,2.66484404 9.33515596,3 9.75,3 C10.164844,3 10.5,2.66484404 10.5,2.25 Z M6.75,2.25 C6.75,2.66484404 7.08515596,3 7.5,3 C7.91484404,3 8.25,2.66484404 8.25,2.25 C8.25,1.83515596 7.91484404,1.5 7.5,1.5 C7.08515596,1.5 6.75,1.83515596 6.75,2.25 Z M6,2.25 C6,1.83515596 5.66484368,1.5 5.25,1.5 C4.83515632,1.5 4.5,1.83515596 4.5,2.25 C4.5,2.66484404 4.83515632,3 5.25,3 C5.66484368,3 6,2.66484404 6,2.25 Z" id="Shape"></path>
            </g>
            <g id="PAGEVIEWS" transform="translate(33.3438, 0.4829)" fill="#333333" fill-rule="nonzero">
                <path d="M1.86767578,0.0922851562 C2.69677734,0.0922851562 3.30175781,0.262207031 3.68261719,0.602050781 C4.06347656,0.941894531 4.25390625,1.41796875 4.25390625,2.03027344 C4.25390625,2.30859375 4.21069336,2.57299805 4.12426758,2.82348633 C4.0378418,3.07397461 3.89648438,3.29516602 3.70019531,3.48706055 C3.50390625,3.67895508 3.24536133,3.83056641 2.92456055,3.94189453 C2.60375977,4.05322266 2.20898438,4.10888672 1.74023438,4.10888672 L1.0546875,4.10888672 L1.0546875,6.51708984 L0,6.51708984 L0,0.0922851562 L1.86767578,0.0922851562 Z M1.79736328,0.966796875 L1.0546875,0.966796875 L1.0546875,3.22998047 L1.63037109,3.22998047 C1.96142578,3.22998047 2.24267578,3.19116211 2.47412109,3.11352539 C2.70556641,3.03588867 2.88134766,2.91210938 3.00146484,2.7421875 C3.12158203,2.57226562 3.18164062,2.34814453 3.18164062,2.06982422 C3.18164062,1.69775391 3.06958008,1.42089844 2.84545898,1.23925781 C2.62133789,1.05761719 2.27197266,0.966796875 1.79736328,0.966796875 Z" id="Shape"></path>
                <path d="M9.51416016,6.51708984 L8.88574219,4.73291016 L6.42919922,4.73291016 L5.80078125,6.51708984 L4.68896484,6.51708984 L7.07958984,0.0659179688 L8.24853516,0.0659179688 L10.6347656,6.51708984 L9.51416016,6.51708984 Z M8.61328125,3.82763672 L8.00244141,2.06982422 C7.97900391,1.99365234 7.9453125,1.88598633 7.90136719,1.74682617 C7.85742188,1.60766602 7.81347656,1.46557617 7.76953125,1.32055664 C7.72558594,1.17553711 7.68896484,1.05322266 7.65966797,0.953613281 C7.63037109,1.07373047 7.59448242,1.20776367 7.55200195,1.35571289 C7.50952148,1.50366211 7.46850586,1.64208984 7.42895508,1.77099609 C7.3894043,1.89990234 7.359375,1.99951172 7.33886719,2.06982422 L6.72363281,3.82763672 L8.61328125,3.82763672 Z" id="Shape"></path>
                <path d="M14.0756836,3.02783203 L16.4750977,3.02783203 L16.4750977,6.25341797 C16.1381836,6.36474609 15.7895508,6.45117188 15.4291992,6.51269531 C15.0688477,6.57421875 14.6645508,6.60498047 14.2163086,6.60498047 C13.5629883,6.60498047 13.0100098,6.4753418 12.557373,6.21606445 C12.1047363,5.95678711 11.7612305,5.58032227 11.5268555,5.08666992 C11.2924805,4.59301758 11.175293,3.99755859 11.175293,3.30029297 C11.175293,2.62939453 11.3056641,2.04711914 11.5664062,1.5534668 C11.8271484,1.05981445 12.206543,0.677490234 12.7045898,0.406494141 C13.2026367,0.135498047 13.8061523,0 14.5151367,0 C14.8637695,0 15.201416,0.0344238281 15.5280762,0.103271484 C15.8547363,0.172119141 16.1542969,0.266601562 16.4267578,0.38671875 L16.0576172,1.25683594 C15.8408203,1.15429688 15.5976562,1.06787109 15.328125,0.997558594 C15.0585938,0.927246094 14.7788086,0.892089844 14.4887695,0.892089844 C14.0288086,0.892089844 13.6325684,0.991699219 13.3000488,1.19091797 C12.9675293,1.39013672 12.7119141,1.6706543 12.5332031,2.0324707 C12.3544922,2.39428711 12.2651367,2.82128906 12.2651367,3.31347656 C12.2651367,3.79101562 12.3369141,4.20996094 12.4804688,4.5703125 C12.6240234,4.93066406 12.848877,5.21118164 13.1550293,5.41186523 C13.4611816,5.61254883 13.8574219,5.71289062 14.34375,5.71289062 C14.5869141,5.71289062 14.793457,5.69970703 14.9633789,5.67333984 C15.1333008,5.64697266 15.2900391,5.61767578 15.4335938,5.58544922 L15.4335938,3.92871094 L14.0756836,3.92871094 L14.0756836,3.02783203 Z" id="Path"></path>
                <polygon id="Path" points="21.6518555 6.51708984 18.0131836 6.51708984 18.0131836 0.0922851562 21.6518555 0.0922851562 21.6518555 0.979980469 19.0678711 0.979980469 19.0678711 2.72460938 21.4892578 2.72460938 21.4892578 3.60791016 19.0678711 3.60791016 19.0678711 5.625 21.6518555 5.625"></polygon>
                <path d="M27.7998047,0.0922851562 L25.5541992,6.51708984 L24.4379883,6.51708984 L22.1923828,0.0922851562 L23.2734375,0.0922851562 L24.6269531,4.11767578 C24.6679688,4.23486328 24.7126465,4.37695312 24.7609863,4.54394531 C24.8093262,4.7109375 24.8547363,4.87939453 24.8972168,5.04931641 C24.9396973,5.21923828 24.9726562,5.37011719 24.9960938,5.50195312 C25.0195312,5.37011719 25.0524902,5.21923828 25.0949707,5.04931641 C25.1374512,4.87939453 25.1821289,4.7109375 25.2290039,4.54394531 C25.2758789,4.37695312 25.3198242,4.23339844 25.3608398,4.11328125 L26.71875,0.0922851562 L27.7998047,0.0922851562 Z" id="Path"></path>
                <polygon id="Path" points="28.6435547 6.51708984 28.6435547 0.0922851562 29.6982422 0.0922851562 29.6982422 6.51708984"></polygon>
                <polygon id="Path" points="35.0288086 6.51708984 31.3901367 6.51708984 31.3901367 0.0922851562 35.0288086 0.0922851562 35.0288086 0.979980469 32.4448242 0.979980469 32.4448242 2.72460938 34.8662109 2.72460938 34.8662109 3.60791016 32.4448242 3.60791016 32.4448242 5.625 35.0288086 5.625"></polygon>
                <path d="M44.0112305,0.0922851562 L42.3325195,6.51708984 L41.1811523,6.51708984 L40.1088867,2.66748047 C40.0825195,2.57373047 40.0532227,2.46240234 40.0209961,2.33349609 C39.9887695,2.20458984 39.9572754,2.07275391 39.9265137,1.93798828 C39.895752,1.80322266 39.8693848,1.67944336 39.8474121,1.56665039 C39.8254395,1.45385742 39.8100586,1.36669922 39.8012695,1.30517578 C39.7954102,1.36669922 39.7822266,1.453125 39.7617188,1.56445312 C39.7412109,1.67578125 39.717041,1.7980957 39.689209,1.93139648 C39.661377,2.06469727 39.6313477,2.1965332 39.5991211,2.3269043 C39.5668945,2.45727539 39.5375977,2.57226562 39.5112305,2.671875 L38.456543,6.51708984 L37.3095703,6.51708984 L35.6352539,0.0922851562 L36.6943359,0.0922851562 L37.621582,3.85839844 C37.6508789,3.97851562 37.6809082,4.1081543 37.7116699,4.24731445 C37.7424316,4.38647461 37.7717285,4.52636719 37.7995605,4.66699219 C37.8273926,4.80761719 37.8530273,4.94458008 37.8764648,5.07788086 C37.8999023,5.21118164 37.9189453,5.33203125 37.9335938,5.44042969 C37.9482422,5.32910156 37.9672852,5.20532227 37.9907227,5.0690918 C38.0141602,4.93286133 38.0397949,4.79370117 38.067627,4.65161133 C38.095459,4.50952148 38.1247559,4.37255859 38.1555176,4.24072266 C38.1862793,4.10888672 38.2177734,3.99023438 38.25,3.88476562 L39.2958984,0.0922851562 L40.3242188,0.0922851562 L41.3920898,3.89794922 C41.4243164,4.00634766 41.4558105,4.12792969 41.4865723,4.26269531 C41.517334,4.39746094 41.5473633,4.53515625 41.5766602,4.67578125 C41.605957,4.81640625 41.6323242,4.95263672 41.6557617,5.08447266 C41.6791992,5.21630859 41.6982422,5.33496094 41.7128906,5.44042969 C41.7333984,5.296875 41.7597656,5.1328125 41.7919922,4.94824219 C41.8242188,4.76367188 41.8608398,4.57617188 41.9018555,4.38574219 C41.9428711,4.1953125 41.9838867,4.01953125 42.0249023,3.85839844 L42.9477539,0.0922851562 L44.0112305,0.0922851562 Z" id="Path"></path>
                <path d="M48.6298828,4.76806641 C48.6298828,5.14892578 48.5368652,5.47705078 48.3508301,5.75244141 C48.1647949,6.02783203 47.8981934,6.23876953 47.5510254,6.38525391 C47.2038574,6.53173828 46.7900391,6.60498047 46.3095703,6.60498047 C46.0751953,6.60498047 45.8510742,6.59179688 45.637207,6.56542969 C45.4233398,6.5390625 45.2219238,6.50024414 45.032959,6.44897461 C44.8439941,6.39770508 44.671875,6.33544922 44.5166016,6.26220703 L44.5166016,5.26904297 C44.7773438,5.38330078 45.0688477,5.48657227 45.3911133,5.57885742 C45.7133789,5.67114258 46.0415039,5.71728516 46.3754883,5.71728516 C46.6479492,5.71728516 46.8742676,5.68139648 47.0544434,5.60961914 C47.2346191,5.5378418 47.3686523,5.43530273 47.456543,5.30200195 C47.5444336,5.16870117 47.5883789,5.01269531 47.5883789,4.83398438 C47.5883789,4.64355469 47.5371094,4.48242188 47.4345703,4.35058594 C47.3320312,4.21875 47.1774902,4.09790039 46.9709473,3.98803711 C46.7644043,3.87817383 46.5058594,3.76025391 46.1953125,3.63427734 C45.984375,3.54931641 45.782959,3.45263672 45.5910645,3.34423828 C45.3991699,3.23583984 45.2285156,3.10839844 45.0791016,2.96191406 C44.9296875,2.81542969 44.8117676,2.6418457 44.7253418,2.44116211 C44.638916,2.24047852 44.5957031,2.00390625 44.5957031,1.73144531 C44.5957031,1.36816406 44.6828613,1.05761719 44.8571777,0.799804688 C45.0314941,0.541992188 45.2775879,0.344238281 45.595459,0.206542969 C45.9133301,0.0688476562 46.284668,0 46.7094727,0 C47.0463867,0 47.3635254,0.03515625 47.6608887,0.10546875 C47.958252,0.17578125 48.2504883,0.275390625 48.5375977,0.404296875 L48.2036133,1.25244141 C47.9399414,1.14404297 47.6843262,1.05761719 47.4367676,0.993164062 C47.189209,0.928710938 46.9365234,0.896484375 46.6787109,0.896484375 C46.4560547,0.896484375 46.2670898,0.930175781 46.1118164,0.997558594 C45.956543,1.06494141 45.838623,1.15942383 45.7580566,1.28100586 C45.6774902,1.40258789 45.637207,1.546875 45.637207,1.71386719 C45.637207,1.90136719 45.6833496,2.05883789 45.7756348,2.1862793 C45.8679199,2.3137207 46.0114746,2.43017578 46.2062988,2.53564453 C46.401123,2.64111328 46.6523438,2.75830078 46.9599609,2.88720703 C47.3144531,3.03369141 47.6154785,3.1875 47.8630371,3.34863281 C48.1105957,3.50976562 48.300293,3.70239258 48.4321289,3.92651367 C48.5639648,4.15063477 48.6298828,4.43115234 48.6298828,4.76806641 Z" id="Path"></path>
            </g>
            <g id="$78,293" transform="translate(33.1729, 14.4121)" fill="#333333" fill-rule="nonzero">
                <path d="M1.90917969,8.16894531 L1.90917969,7.14355469 C1.53483073,7.13704427 1.17757161,7.10449219 0.837402344,7.04589844 C0.497233073,6.98730469 0.219726562,6.91080729 0.0048828125,6.81640625 L0.0048828125,6.02539062 C0.229492188,6.12955729 0.517578125,6.22070312 0.869140625,6.29882812 C1.22070312,6.37695312 1.56738281,6.41927083 1.90917969,6.42578125 L1.90917969,4.27734375 C1.47949219,4.15690104 1.12386068,4.01936849 0.842285156,3.86474609 C0.560709635,3.7101237 0.349934896,3.52050781 0.209960938,3.29589844 C0.0699869792,3.07128906 0,2.79947917 0,2.48046875 C0,2.1484375 0.0789388021,1.86442057 0.236816406,1.62841797 C0.39469401,1.39241536 0.616861979,1.20768229 0.903320312,1.07421875 C1.18977865,0.940755208 1.5250651,0.864257812 1.90917969,0.844726562 L1.90917969,0 L2.50488281,0 L2.50488281,0.834960938 C2.8531901,0.844726562 3.17057292,0.88297526 3.45703125,0.949707031 C3.74348958,1.0164388 4.00878906,1.10188802 4.25292969,1.20605469 L3.99902344,1.88476562 C3.77766927,1.796875 3.53841146,1.72200521 3.28125,1.66015625 C3.02408854,1.59830729 2.76529948,1.55598958 2.50488281,1.53320312 L2.50488281,3.66699219 C2.94108073,3.79394531 3.30647786,3.92903646 3.60107422,4.07226562 C3.89567057,4.21549479 4.11783854,4.39290365 4.26757812,4.60449219 C4.41731771,4.81608073 4.4921875,5.08951823 4.4921875,5.42480469 C4.4921875,5.9000651 4.31803385,6.28336589 3.96972656,6.57470703 C3.62141927,6.86604818 3.13313802,7.04264323 2.50488281,7.10449219 L2.50488281,8.16894531 L1.90917969,8.16894531 Z M2.50488281,6.38183594 C2.90527344,6.34277344 3.2039388,6.24593099 3.40087891,6.09130859 C3.59781901,5.9366862 3.69628906,5.73242188 3.69628906,5.47851562 C3.69628906,5.29622396 3.65804036,5.14648438 3.58154297,5.02929688 C3.50504557,4.91210938 3.38053385,4.81038411 3.20800781,4.72412109 C3.03548177,4.63785807 2.80110677,4.55566406 2.50488281,4.47753906 L2.50488281,6.38183594 Z M1.90917969,3.46191406 L1.90917969,1.55273438 C1.66503906,1.56901042 1.45996094,1.61458333 1.29394531,1.68945312 C1.12792969,1.76432292 1.00341797,1.86197917 0.920410156,1.98242188 C0.837402344,2.10286458 0.795898438,2.24609375 0.795898438,2.41210938 C0.795898438,2.60416667 0.832519531,2.76448568 0.905761719,2.89306641 C0.979003906,3.02164714 1.09781901,3.13069661 1.26220703,3.22021484 C1.42659505,3.30973307 1.6422526,3.39029948 1.90917969,3.46191406 Z" id="Shape"></path>
                <polygon id="Path" points="6.51367188 7.58789062 9.44335938 1.19140625 5.55175781 1.19140625 5.55175781 0.44921875 10.3125 0.44921875 10.3125 1.07421875 7.40234375 7.58789062"></polygon>
                <path d="M13.6669922,0.346679688 C14.0804036,0.346679688 14.4466146,0.411783854 14.765625,0.541992188 C15.0846354,0.672200521 15.3344727,0.86344401 15.5151367,1.11572266 C15.6958008,1.3680013 15.7861328,1.6780599 15.7861328,2.04589844 C15.7861328,2.33561198 15.7234701,2.58870443 15.5981445,2.80517578 C15.472819,3.02164714 15.304362,3.21044922 15.0927734,3.37158203 C14.8811849,3.53271484 14.6468099,3.67675781 14.3896484,3.80371094 C14.695638,3.9436849 14.9715169,4.1015625 15.2172852,4.27734375 C15.4630534,4.453125 15.6575521,4.65983073 15.8007812,4.89746094 C15.9440104,5.13509115 16.015625,5.41666667 16.015625,5.7421875 C16.015625,6.14257812 15.9187826,6.48844401 15.7250977,6.77978516 C15.5314128,7.0711263 15.2604167,7.29492188 14.9121094,7.45117188 C14.5638021,7.60742188 14.1552734,7.68554688 13.6865234,7.68554688 C13.1819661,7.68554688 12.7530924,7.60986328 12.3999023,7.45849609 C12.0467122,7.30712891 11.7781576,7.08902995 11.5942383,6.80419922 C11.410319,6.51936849 11.3183594,6.17675781 11.3183594,5.77636719 C11.3183594,5.44759115 11.3883464,5.16194661 11.5283203,4.91943359 C11.6682943,4.67692057 11.8538411,4.46777344 12.0849609,4.29199219 C12.3160807,4.11621094 12.5683594,3.96809896 12.8417969,3.84765625 C12.6041667,3.71744792 12.3868815,3.56933594 12.1899414,3.40332031 C11.9930013,3.23730469 11.8367513,3.04280599 11.7211914,2.81982422 C11.6056315,2.59684245 11.5478516,2.33723958 11.5478516,2.04101562 C11.5478516,1.6796875 11.6398112,1.37288411 11.8237305,1.12060547 C12.0076497,0.868326823 12.2599284,0.676269531 12.5805664,0.544433594 C12.9012044,0.412597656 13.2633464,0.346679688 13.6669922,0.346679688 Z M12.1142578,5.78125 C12.1142578,6.14583333 12.2428385,6.4461263 12.5,6.68212891 C12.7571615,6.91813151 13.1461589,7.03613281 13.6669922,7.03613281 C14.1617839,7.03613281 14.5442708,6.91813151 14.8144531,6.68212891 C15.0846354,6.4461263 15.2197266,6.13606771 15.2197266,5.75195312 C15.2197266,5.51432292 15.1578776,5.30517578 15.0341797,5.12451172 C14.9104818,4.94384766 14.7347005,4.78190104 14.5068359,4.63867188 C14.2789714,4.49544271 14.0104167,4.36523438 13.7011719,4.24804688 L13.5253906,4.18457031 C13.2259115,4.30826823 12.9711914,4.44580078 12.7612305,4.59716797 C12.5512695,4.74853516 12.3909505,4.9202474 12.2802734,5.11230469 C12.1695964,5.30436198 12.1142578,5.52734375 12.1142578,5.78125 Z M13.6572266,1.01074219 C13.273112,1.01074219 12.9589844,1.10270182 12.7148438,1.28662109 C12.4707031,1.47054036 12.3486328,1.73502604 12.3486328,2.08007812 C12.3486328,2.32747396 12.4080404,2.53662109 12.5268555,2.70751953 C12.6456706,2.87841797 12.8076172,3.02490234 13.0126953,3.14697266 C13.2177734,3.26904297 13.4472656,3.38216146 13.7011719,3.48632812 C13.9485677,3.38216146 14.1682943,3.26741536 14.3603516,3.14208984 C14.5524089,3.01676432 14.703776,2.86783854 14.8144531,2.6953125 C14.9251302,2.52278646 14.9804688,2.31608073 14.9804688,2.07519531 C14.9804688,1.73014323 14.8592122,1.46647135 14.6166992,1.28417969 C14.3741862,1.10188802 14.054362,1.01074219 13.6572266,1.01074219 Z" id="Shape"></path>
                <path d="M18.3154297,6.42578125 L18.3789062,6.53808594 C18.3203125,6.77571615 18.2462565,7.0296224 18.1567383,7.29980469 C18.0672201,7.56998698 17.9695638,7.84098307 17.8637695,8.11279297 C17.7579753,8.38460286 17.6513672,8.63932292 17.5439453,8.87695312 L16.9384766,8.87695312 C17.0068359,8.61653646 17.0735677,8.34228516 17.1386719,8.05419922 C17.203776,7.76611328 17.2631836,7.48128255 17.3168945,7.19970703 C17.3706055,6.91813151 17.413737,6.66015625 17.4462891,6.42578125 L18.3154297,6.42578125 Z" id="Path"></path>
                <path d="M24.2919922,7.58789062 L19.6142578,7.58789062 L19.6142578,6.90917969 L21.5234375,4.97070312 C21.8782552,4.61263021 22.1769206,4.29361979 22.4194336,4.01367188 C22.6619466,3.73372396 22.8466797,3.45784505 22.9736328,3.18603516 C23.1005859,2.91422526 23.1640625,2.6155599 23.1640625,2.29003906 C23.1640625,1.88639323 23.0444336,1.57796224 22.8051758,1.36474609 C22.565918,1.15152995 22.2509766,1.04492188 21.8603516,1.04492188 C21.5185547,1.04492188 21.2158203,1.10351562 20.9521484,1.22070312 C20.6884766,1.33789062 20.4182943,1.50390625 20.1416016,1.71875 L19.7070312,1.171875 C19.8958333,1.01236979 20.1017253,0.870768229 20.324707,0.747070312 C20.5476888,0.623372396 20.7869466,0.525716146 21.0424805,0.454101562 C21.2980143,0.382486979 21.570638,0.346679688 21.8603516,0.346679688 C22.2998047,0.346679688 22.6790365,0.423177083 22.9980469,0.576171875 C23.3170573,0.729166667 23.5636393,0.947265625 23.737793,1.23046875 C23.9119466,1.51367188 23.9990234,1.85058594 23.9990234,2.24121094 C23.9990234,2.6188151 23.9241536,2.9695638 23.7744141,3.29345703 C23.6246745,3.61735026 23.4147135,3.93798828 23.1445312,4.25537109 C22.874349,4.57275391 22.5585938,4.90885417 22.1972656,5.26367188 L20.6445312,6.81152344 L20.6445312,6.84570312 L24.2919922,6.84570312 L24.2919922,7.58789062 Z" id="Path"></path>
                <path d="M30.0195312,3.49121094 C30.0195312,3.92415365 29.9894206,4.34570312 29.9291992,4.75585938 C29.8689779,5.16601562 29.7664388,5.5485026 29.621582,5.90332031 C29.4767253,6.25813802 29.280599,6.56901042 29.0332031,6.8359375 C28.7858073,7.10286458 28.4757487,7.31201172 28.1030273,7.46337891 C27.730306,7.61474609 27.2851562,7.69042969 26.7675781,7.69042969 C26.6276042,7.69042969 26.468099,7.68147786 26.2890625,7.66357422 C26.110026,7.64567057 25.9635417,7.62044271 25.8496094,7.58789062 L25.8496094,6.88476562 C25.9700521,6.92708333 26.1116536,6.96044922 26.2744141,6.98486328 C26.4371745,7.00927734 26.5966797,7.02148438 26.7529297,7.02148438 C27.3616536,7.02148438 27.8401693,6.89046224 28.1884766,6.62841797 C28.5367839,6.3663737 28.7874349,6.00992839 28.9404297,5.55908203 C29.0934245,5.10823568 29.1796875,4.60123698 29.1992188,4.03808594 L29.140625,4.03808594 C29.0429688,4.19433594 28.9152018,4.33837891 28.7573242,4.47021484 C28.5994466,4.60205078 28.4082031,4.70784505 28.1835938,4.78759766 C27.9589844,4.86735026 27.6969401,4.90722656 27.3974609,4.90722656 C26.9840495,4.90722656 26.6235352,4.82259115 26.315918,4.65332031 C26.0083008,4.48404948 25.769043,4.23828125 25.5981445,3.91601562 C25.4272461,3.59375 25.3417969,3.2047526 25.3417969,2.74902344 C25.3417969,2.25748698 25.4353841,1.83186849 25.6225586,1.47216797 C25.8097331,1.11246745 26.0725911,0.834960938 26.4111328,0.639648438 C26.7496745,0.444335938 27.1484375,0.346679688 27.6074219,0.346679688 C27.9589844,0.346679688 28.28125,0.413411458 28.5742188,0.546875 C28.8671875,0.680338542 29.1219076,0.879720052 29.3383789,1.14501953 C29.5548503,1.41031901 29.7224935,1.73828125 29.8413086,2.12890625 C29.9601237,2.51953125 30.0195312,2.97363281 30.0195312,3.49121094 Z M27.6074219,1.03515625 C27.1744792,1.03515625 26.8237305,1.17675781 26.5551758,1.45996094 C26.2866211,1.74316406 26.1523438,2.16959635 26.1523438,2.73925781 C26.1523438,3.21126302 26.2679036,3.58398438 26.4990234,3.85742188 C26.7301432,4.13085938 27.0865885,4.26757812 27.5683594,4.26757812 C27.9003906,4.26757812 28.1876628,4.20084635 28.4301758,4.06738281 C28.6726888,3.93391927 28.8598633,3.76464844 28.9916992,3.55957031 C29.1235352,3.35449219 29.1894531,3.14453125 29.1894531,2.9296875 C29.1894531,2.71484375 29.1577148,2.49674479 29.0942383,2.27539062 C29.0307617,2.05403646 28.9339193,1.84977214 28.8037109,1.66259766 C28.6735026,1.47542318 28.5091146,1.32405599 28.3105469,1.20849609 C28.1119792,1.0929362 27.8776042,1.03515625 27.6074219,1.03515625 Z" id="Shape"></path>
                <path d="M35.4638672,2.11425781 C35.4638672,2.43326823 35.4020182,2.70996094 35.2783203,2.94433594 C35.1546224,3.17871094 34.9820964,3.36995443 34.7607422,3.51806641 C34.539388,3.66617839 34.2789714,3.76953125 33.9794922,3.828125 L33.9794922,3.8671875 C34.5458984,3.93880208 34.9715169,4.12109375 35.2563477,4.4140625 C35.5411784,4.70703125 35.6835938,5.09114583 35.6835938,5.56640625 C35.6835938,5.97981771 35.5867513,6.34602865 35.3930664,6.66503906 C35.1993815,6.98404948 34.9031576,7.23388672 34.5043945,7.41455078 C34.1056315,7.59521484 33.5953776,7.68554688 32.9736328,7.68554688 C32.5960286,7.68554688 32.2469076,7.6554362 31.9262695,7.59521484 C31.6056315,7.53499349 31.2988281,7.43489583 31.0058594,7.29492188 L31.0058594,6.53320312 C31.3020833,6.6796875 31.624349,6.79443359 31.9726562,6.87744141 C32.3209635,6.96044922 32.6578776,7.00195312 32.9833984,7.00195312 C33.6344401,7.00195312 34.1048177,6.87255859 34.3945312,6.61376953 C34.6842448,6.35498047 34.8291016,6.00097656 34.8291016,5.55175781 C34.8291016,5.24251302 34.7485352,4.99267578 34.5874023,4.80224609 C34.4262695,4.61181641 34.1951497,4.47184245 33.894043,4.38232422 C33.5929362,4.29280599 33.2307943,4.24804688 32.8076172,4.24804688 L32.0947266,4.24804688 L32.0947266,3.5546875 L32.8125,3.5546875 C33.1998698,3.5546875 33.5286458,3.49772135 33.7988281,3.38378906 C34.0690104,3.26985677 34.2749023,3.10953776 34.4165039,2.90283203 C34.5581055,2.6961263 34.6289062,2.45117188 34.6289062,2.16796875 C34.6289062,1.80664062 34.5084635,1.52750651 34.2675781,1.33056641 C34.0266927,1.1336263 33.6995443,1.03515625 33.2861328,1.03515625 C33.0322266,1.03515625 32.8011068,1.06119792 32.5927734,1.11328125 C32.3844401,1.16536458 32.1891276,1.23697917 32.0068359,1.328125 C31.8245443,1.41927083 31.6422526,1.5250651 31.4599609,1.64550781 L31.0498047,1.08886719 C31.3102214,0.887044271 31.6276042,0.712890625 32.0019531,0.56640625 C32.3763021,0.419921875 32.8011068,0.346679688 33.2763672,0.346679688 C34.0055339,0.346679688 34.5524089,0.512695312 34.9169922,0.844726562 C35.2815755,1.17675781 35.4638672,1.5999349 35.4638672,2.11425781 Z" id="Path"></path>
            </g>
        </g>
    </g>
</svg>