<?xml version="1.0" encoding="UTF-8"?>
<svg width="154px" height="151px" viewBox="0 0 154 151" version="1.1" xmlns="http://www.w3.org/2000/svg" xmlns:xlink="http://www.w3.org/1999/xlink">
    <title>Parallax</title>
    <defs>
        <path d="M4.86164019,22.4849604 L145.05678,22.4849604 C145.671848,22.4849604 146.170459,22.9835718 146.170459,23.5986401 L146.170459,145.038563 C146.170459,145.653631 145.671848,146.152243 145.05678,146.152243 L4.86164019,146.152243 C4.24657188,146.152243 3.7479605,145.653631 3.7479605,145.038563 L3.7479605,23.5986401 C3.7479605,22.9835718 4.24657188,22.4849604 4.86164019,22.4849604 Z" id="path-1"></path>
        <linearGradient x1="-7.38904937%" y1="45.4218477%" x2="114.193803%" y2="54.5781523%" id="linearGradient-3">
            <stop stop-color="#53BBBC" offset="0%"></stop>
            <stop stop-color="#2A909A" offset="100%"></stop>
        </linearGradient>
        <rect id="path-4" x="13.1178617" y="37.474934" width="123.682696" height="103.056069" rx="0.556839845"></rect>
        <linearGradient x1="-28.4290471%" y1="62.7015675%" x2="255.317526%" y2="27.6597223%" id="linearGradient-6">
            <stop stop-color="#FF8332" offset="0%"></stop>
            <stop stop-color="#FEC199" offset="100%"></stop>
        </linearGradient>
        <rect id="path-7" x="9.36990125" y="29.0430739" width="131.178617" height="27.1693272" rx="0.556839845"></rect>
        <filter x="-14.5%" y="-51.5%" width="129.0%" height="239.9%" filterUnits="objectBoundingBox" id="filter-8">
            <feOffset dx="0" dy="5" in="SourceAlpha" result="shadowOffsetOuter1"></feOffset>
            <feGaussianBlur stdDeviation="5.5" in="shadowOffsetOuter1" result="shadowBlurOuter1"></feGaussianBlur>
            <feColorMatrix values="0 0 0 0 0.15380388   0 0 0 0 0.20536817   0 0 0 0 0.329320791  0 0 0 0.0952502264 0" type="matrix" in="shadowBlurOuter1"></feColorMatrix>
        </filter>
        <rect id="path-9" x="9.36990125" y="116.172296" width="131.178617" height="24.3587071" rx="0.556839845"></rect>
        <filter x="-13.3%" y="-80.1%" width="126.7%" height="243.7%" filterUnits="objectBoundingBox" id="filter-10">
            <feOffset dx="0" dy="-2" in="SourceAlpha" result="shadowOffsetOuter1"></feOffset>
            <feGaussianBlur stdDeviation="5.5" in="shadowOffsetOuter1" result="shadowBlurOuter1"></feGaussianBlur>
            <feColorMatrix values="0 0 0 0 0.15380388   0 0 0 0 0.20536817   0 0 0 0 0.329320791  0 0 0 0.0952502264 0" type="matrix" in="shadowBlurOuter1"></feColorMatrix>
        </filter>
    </defs>
    <g id="Publisher-Control-Tower" stroke="none" stroke-width="1" fill="none" fill-rule="evenodd">
        <g id="Products-screen" transform="translate(-549, -965)">
            <g id="Cards-/-List-1-up-/-Filled-/-Overline-/-Resting-Copy-2" transform="translate(72, 871)">
                <g id="Parallax" transform="translate(479.2404, 94.7826)">
                    <path d="M139.209961,0.535422928 C142.019168,0.535422928 144.562426,1.67407873 146.403384,3.51503608 C148.244341,5.35599344 149.382997,7.89925234 149.382997,10.7084586 L149.382997,139.191278 C149.382997,142.000484 148.244341,144.543743 146.403384,146.3847 C144.562426,148.225657 142.019168,149.364313 139.209961,149.364313 L10.7084586,149.364313 C7.89925234,149.364313 5.35599344,148.225657 3.51503608,146.3847 C1.67407873,144.543743 0.535422928,142.000484 0.535422928,139.191278 L0.535422928,10.7084586 C0.535422928,7.89925234 1.67407873,5.35599344 3.51503608,3.51503608 C5.35599344,1.67407873 7.89925234,0.535422928 10.7084586,0.535422928 Z" id="Rectangle-2" stroke="#D3D9E3" stroke-width="1.07084586" fill="#F0F0F0"></path>
                    <g id="Group-4" opacity="0.699999988" transform="translate(7.4959, 5.6212)">
                        <ellipse id="Oval-2" fill="#FB764D" cx="4.38511378" cy="4.38456728" rx="4.38511378" ry="4.38456728"></ellipse>
                        <ellipse id="Oval-2" fill="#FFD393" cx="17.0532203" cy="4.38456728" rx="4.38511378" ry="4.38456728"></ellipse>
                        <ellipse id="Oval-2" fill="#7FF27F" cx="30.6957965" cy="4.38456728" rx="4.38511378" ry="4.38456728"></ellipse>
                    </g>
                    <mask id="mask-2" fill="white">
                        <use xlink:href="#path-1"></use>
                    </mask>
                    <use id="Rectangle-2-Copy" fill="#E2F3F3" xlink:href="#path-1"></use>
                    <rect id="Rectangle-6" fill="url(#linearGradient-3)" opacity="0.695800781" mask="url(#mask-2)" x="3.7479605" y="22.4849604" width="142.422499" height="43.0961741"></rect>
                    <rect id="Rectangle" fill="#F4F4F4" mask="url(#mask-2)" x="9.36990125" y="29.0430739" width="131.178617" height="111.487929"></rect>
                    <mask id="mask-5" fill="white">
                        <use xlink:href="#path-4"></use>
                    </mask>
                    <use id="Rectangle-4" fill="#FFFFFF" xlink:href="#path-4"></use>
                    <rect id="Rectangle" fill="#FFCCBC" mask="url(#mask-5)" x="17.8028124" y="84.4591326" width="48.7234865" height="33.4932223"></rect>
                    <rect id="Rectangle-Copy-127" fill="#FFCCBC" mask="url(#mask-5)" x="17.8028124" y="41.2224274" width="48.7234865" height="33.4932223"></rect>
                    <rect id="Rectangle-Copy-40" fill="#FFCCBC" mask="url(#mask-5)" x="74.4438654" y="84.4591326" width="44.975526" height="6.08967678"></rect>
                    <rect id="Rectangle-Copy-128" fill="#FFE0CB" mask="url(#mask-5)" x="74.4438654" y="41.2224274" width="48.7234865" height="6.08967678"></rect>
                    <rect id="Rectangle-Copy-129" fill="#FCDDC9" mask="url(#mask-5)" x="74.4438654" y="52.1838456" width="60.9043581" height="3.04483839"></rect>
                    <rect id="Rectangle-Copy-130" fill="#FFCCBC" mask="url(#mask-5)" x="74.4438654" y="60.1004255" width="56.2194075" height="3.04483839"></rect>
                    <rect id="Rectangle-Copy-131" fill="url(#linearGradient-6)" mask="url(#mask-5)" x="74.4438654" y="67.4080376" width="21.9255689" height="7.30761214" rx="1.39209961"></rect>
                    <rect id="Rectangle-Copy-132" fill="url(#linearGradient-6)" mask="url(#mask-5)" x="74.4438654" y="111.487929" width="21.9255689" height="7.30761214" rx="1.39209961"></rect>
                    <rect id="Rectangle-Copy-38" fill="#E0F2EC" mask="url(#mask-5)" x="17.8028124" y="127.695838" width="48.7234865" height="33.4932223"></rect>
                    <rect id="Rectangle-Copy-44" fill="#FFE0CB" mask="url(#mask-5)" x="74.4438654" y="127.695838" width="48.7234865" height="6.08967678"></rect>
                    <rect id="Rectangle-Copy-41" fill="#FFCCBC" mask="url(#mask-5)" x="74.4438654" y="95.4205508" width="56.2194075" height="3.04483839"></rect>
                    <rect id="Rectangle-Copy-45" fill="#FFE0CB" mask="url(#mask-5)" x="74.4438654" y="138.657256" width="60.9043581" height="3.04483839"></rect>
                    <rect id="Rectangle-Copy-42" fill="#FFCCBC" mask="url(#mask-5)" x="74.4438654" y="103.337131" width="56.2194075" height="3.04483839"></rect>
                    <rect id="Rectangle-Copy-46" fill="#FFE0CB" mask="url(#mask-5)" x="74.4438654" y="146.573836" width="60.9043581" height="3.04483839"></rect>
                    <g id="Rectangle-4">
                        <use fill="black" fill-opacity="1" filter="url(#filter-8)" xlink:href="#path-7"></use>
                        <use fill="#F4F4F4" fill-rule="evenodd" xlink:href="#path-7"></use>
                    </g>
                    <rect id="Rectangle-Copy-136" fill="#D2D7DC" x="9.36990125" y="51.5280343" width="131.178617" height="4.68436675"></rect>
                    <rect id="Rectangle-Copy-138" fill="#D2D7DC" opacity="0.5" x="16.8658222" y="43.0961741" width="117.123766" height="3.7474934"></rect>
                    <rect id="Rectangle-Copy-139" fill="#D2D7DC" opacity="0.5" x="16.8658222" y="35.6011873" width="117.123766" height="3.7474934"></rect>
                    <g id="Rectangle-4-Copy">
                        <use fill="black" fill-opacity="1" filter="url(#filter-10)" xlink:href="#path-9"></use>
                        <use fill="#F4F4F4" fill-rule="evenodd" xlink:href="#path-9"></use>
                    </g>
                    <rect id="Rectangle-Copy-140" fill="#D2D7DC" opacity="0.5" x="16.8658222" y="132.099142" width="117.123766" height="3.7474934"></rect>
                    <rect id="Rectangle-Copy-141" fill="#D2D7DC" opacity="0.5" x="16.8658222" y="124.604156" width="117.123766" height="3.7474934"></rect>
                    <rect id="Rectangle-Copy-137" fill="#D2D7DC" x="9.36990125" y="116.172296" width="131.178617" height="4.68436675"></rect>
                </g>
            </g>
        </g>
    </g>
</svg>