<?xml version="1.0" encoding="UTF-8"?>
<svg width="31px" height="31px" viewBox="0 0 31 31" version="1.1" xmlns="http://www.w3.org/2000/svg" xmlns:xlink="http://www.w3.org/1999/xlink">
    <title>Shape</title>
    <g id="Publisher-Control-Tower" stroke="none" stroke-width="1" fill="none" fill-rule="evenodd">
        <g id="Products-screen" transform="translate(-172, -738)" fill="#6E7779" fill-rule="nonzero">
            <g id="Cards-/-List-1-up-/-Filled-/-Overline-/-Resting" transform="translate(73, 339)">
                <g id="ACTIONS" transform="translate(-0.1825, 338.8108)">
                    <g id="Group-9" transform="translate(41.763, 59.9101)">
                        <g id="arrow-up-right-from-square" transform="translate(57.8257, 1.0707)">
                            <path d="M17.8062902,1.40531003 C17.8062902,2.184086 18.4330247,2.81062005 19.2120499,2.81062005 L25.1923862,2.81062005 L12.1246778,15.8682924 C11.5740886,16.4187055 11.5740886,17.3087352 12.1246778,17.8532928 C12.6752671,18.3978504 13.5655816,18.4037059 14.1103135,17.8532928 L27.1721645,4.79562047 L27.1721645,10.7740435 C27.1721645,11.5528195 27.798899,12.1793536 28.5779242,12.1793536 C29.3569494,12.1793536 29.983684,11.5528195 29.983684,10.7740435 L29.983684,1.40531003 C29.983684,0.626534053 29.3569494,0 28.5779242,0 L19.2120499,0 C18.4330247,0 17.8062902,0.626534053 17.8062902,1.40531003 Z M4.21727925,1.8737467 C1.886061,1.8737467 0,3.75920432 0,6.08967678 L0,25.7640172 C0,28.0944896 1.886061,29.9799472 4.21727925,29.9799472 L23.8979157,29.9799472 C26.229134,29.9799472 28.115195,28.0944896 28.115195,25.7640172 L28.115195,18.2690303 C28.115195,17.4902544 27.4884604,16.8637203 26.7094352,16.8637203 C25.93041,16.8637203 25.3036755,17.4902544 25.3036755,18.2690303 L25.3036755,25.7640172 C25.3036755,26.5427931 24.6769409,27.1693272 23.8979157,27.1693272 L4.21727925,27.1693272 C3.43825405,27.1693272 2.8115195,26.5427931 2.8115195,25.7640172 L2.8115195,6.08967678 C2.8115195,5.31090081 3.43825405,4.68436675 4.21727925,4.68436675 L11.7146646,4.68436675 C12.4936898,4.68436675 13.1204243,4.0578327 13.1204243,3.27905673 C13.1204243,2.50028076 12.4936898,1.8737467 11.7146646,1.8737467 L4.21727925,1.8737467 Z" id="Shape"></path>
                        </g>
                    </g>
                </g>
            </g>
        </g>
    </g>
</svg>