<?xml version="1.0" encoding="UTF-8"?>
<svg width="40px" height="40px" viewBox="0 0 40 40" version="1.1" xmlns="http://www.w3.org/2000/svg" xmlns:xlink="http://www.w3.org/1999/xlink">
    <!-- Generator: Sketch 58 (84663) - https://sketch.com -->
    <title>real_estate_icon</title>
    <desc>Created with Sketch.</desc>
    <g id="Page-1" stroke="none" stroke-width="1" fill="none" fill-rule="evenodd">
        <path d="M39.3749061,5.00007153 L7.49998212,5.00007153 L7.49998212,0.625081956 C7.49998212,0.281302258 7.21876331,8.34465027e-05 6.87498361,8.34465027e-05 L5.62498659,8.34465027e-05 C5.28120689,8.34465027e-05 4.99998808,0.281302258 4.99998808,0.625081956 L4.99998808,5.00007153 L0.62499851,5.00007153 C0.281218812,5.00007153 0,5.28129034 0,5.62507004 L0,6.87506706 C0,7.21884675 0.281218812,7.50006557 0.62499851,7.50006557 L4.99998808,7.50006557 L4.99998808,39.3749896 C4.99998808,39.7187693 5.28120689,39.9999881 5.62498659,39.9999881 L6.87498361,39.9999881 C7.21876331,39.9999881 7.49998212,39.7187693 7.49998212,39.3749896 L7.49998212,7.50006557 L14.9999642,7.50006557 L14.9999642,11.2500566 L13.7499672,11.2500566 C12.3671428,11.2500566 11.2499732,12.3672262 11.2499732,13.7500507 L11.2499732,27.5000179 C11.2499732,28.8828423 12.3671428,30.0000119 13.7499672,30.0000119 L36.2499136,30.0000119 C37.632738,30.0000119 38.7499076,28.8828423 38.7499076,27.5000179 L38.7499076,13.7500507 C38.7499076,12.3672262 37.632738,11.2500566 36.2499136,11.2500566 L34.9999166,11.2500566 L34.9999166,7.50006557 L39.3749061,7.50006557 C39.7186858,7.50006557 39.9999046,7.21884675 39.9999046,6.87506706 L39.9999046,5.62507004 C39.9999046,5.28129034 39.7186858,5.00007153 39.3749061,5.00007153 Z M36.2499136,27.5000179 L13.7499672,27.5000179 L13.7499672,13.7500507 L36.2499136,13.7500507 L36.2499136,27.5000179 Z M32.4999225,11.2500566 L17.4999583,11.2500566 L17.4999583,7.50006557 L32.4999225,7.50006557 L32.4999225,11.2500566 Z" id="real_estate_icon" fill="#B5121B" fill-rule="nonzero"></path>
    </g>
</svg>