<?xml version="1.0" encoding="UTF-8"?>
<!-- Generated by Pixelmator Pro 3.6.17 -->
<svg width="728" height="315" viewBox="0 0 728 315" xmlns="http://www.w3.org/2000/svg">
    <g id="Page-1">
        <g id="Revenue-chart">
            <g id="Rectangle">
                <g id="Group">
                    <path id="Path" fill="#ffffff" fill-rule="evenodd" stroke="none" d="M 10 0 L 718 0 C 723.522827 0 728 4.477142 728 10 L 728 303 C 728 308.522858 723.522827 313 718 313 L 10 313 C 4.477152 313 0 308.522858 0 303 L 0 10 C -0 4.477142 4.477152 0 10 0 Z"/>
                </g>
            </g>
            <g id="Group-11">
                <g id="10m">
                    <path id="Shape" fill="#333333" fill-opacity="0.653232" stroke="none" d="M 15.45558 174.581039 L 15.45558 173.555649 C 15.081231 173.549149 14.723971 173.516586 14.383802 173.457993 C 14.043633 173.399399 13.766127 173.322906 13.551283 173.2285 L 13.551283 172.437485 C 13.775892 172.541656 14.063978 172.632797 14.415541 172.710922 C 14.767103 172.789047 15.113783 172.831375 15.45558 172.837875 L 15.45558 170.689438 C 15.025892 170.569 14.67026 170.431473 14.388685 170.27684 C 14.10711 170.122223 13.896335 169.932602 13.756361 169.707993 C 13.616387 169.483383 13.5464 169.211578 13.5464 168.892563 C 13.5464 168.560532 13.625339 168.27652 13.783216 168.040512 C 13.941094 167.80452 14.163262 167.619781 14.44972 167.486313 C 14.736178 167.352859 15.071465 167.276352 15.45558 167.256821 L 15.45558 166.412094 L 16.051283 166.412094 L 16.051283 167.247055 C 16.39959 167.256821 16.716972 167.295074 17.003431 167.361801 C 17.28989 167.428543 17.555189 167.513992 17.79933 167.618149 L 17.545424 168.29686 C 17.32407 168.208969 17.084812 168.134109 16.82765 168.07225 C 16.570488 168.010406 16.311699 167.968094 16.051283 167.945297 L 16.051283 170.079086 C 16.48748 170.206039 16.852879 170.341141 17.147474 170.48436 C 17.44207 170.627594 17.664238 170.805008 17.813978 171.016586 C 17.963718 171.22818 18.038588 171.501617 18.038588 171.836899 C 18.038588 172.312164 17.864433 172.695465 17.516127 172.986801 C 17.16782 173.278152 16.679539 173.454742 16.051283 173.516586 L 16.051283 174.581039 L 15.45558 174.581039 Z M 16.051283 172.79393 C 16.451674 172.754868 16.75034 172.658035 16.947279 172.503403 C 17.144218 172.348785 17.242689 172.144516 17.242689 171.89061 C 17.242689 171.708328 17.204441 171.558578 17.127943 171.441391 C 17.051445 171.324203 16.926933 171.222488 16.754408 171.136215 C 16.581882 171.049957 16.347507 170.967758 16.051283 170.889633 L 16.051283 172.79393 Z M 15.45558 169.874008 L 15.45558 167.964828 C 15.211439 167.98111 15.006361 168.026688 14.840345 168.101547 C 14.67433 168.176422 14.549818 168.274078 14.46681 168.394516 C 14.383802 168.514969 14.342299 168.658188 14.342299 168.824203 C 14.342299 169.016266 14.37892 169.17659 14.452162 169.305161 C 14.525404 169.433746 14.644219 169.542801 14.808607 169.632309 C 14.972995 169.721832 15.188653 169.802399 15.45558 169.874008 Z"/>
                    <path id="path1" fill="#333333" fill-opacity="0.653232" stroke="none" d="M 22.154799 173.999985 L 21.363783 173.999985 L 21.363783 168.941391 C 21.363783 168.749344 21.364597 168.584137 21.366224 168.445786 C 21.367851 168.307449 21.371107 168.180496 21.37599 168.064926 C 21.380873 167.949371 21.388197 167.831375 21.397963 167.710922 C 21.29705 167.815094 21.20265 167.903793 21.114759 167.977036 C 21.026869 168.050278 20.91782 168.14061 20.787611 168.248032 L 19.972181 168.902328 L 19.547377 168.350571 L 21.48097 166.861313 L 22.154799 166.861313 L 22.154799 173.999985 Z"/>
                    <path id="path2" fill="#333333" fill-opacity="0.653232" stroke="none" d="M 29.571791 170.420883 C 29.571791 171.00032 29.527845 171.517899 29.439955 171.973618 C 29.352064 172.429352 29.213717 172.815094 29.024916 173.130844 C 28.836113 173.446609 28.591972 173.686676 28.292494 173.851059 C 27.993013 174.015457 27.633314 174.097641 27.213392 174.097641 C 26.682793 174.097641 26.244154 173.952789 25.897474 173.663071 C 25.550795 173.373367 25.292006 172.954254 25.121107 172.405746 C 24.950209 171.857254 24.864759 171.195633 24.864759 170.420883 C 24.864759 169.659164 24.94207 169.004059 25.096693 168.455551 C 25.251314 167.907059 25.501152 167.485504 25.846205 167.190903 C 26.191256 166.896317 26.646986 166.749008 27.213392 166.749008 C 27.750502 166.749008 28.193209 166.894684 28.541517 167.18602 C 28.889824 167.477371 29.148613 167.897293 29.317884 168.445786 C 29.487154 168.994293 29.571791 169.652664 29.571791 170.420883 Z M 25.680189 170.420883 C 25.680189 171.084946 25.730644 171.638336 25.831556 172.081039 C 25.932467 172.523758 26.096041 172.854965 26.322279 173.074692 C 26.548515 173.294418 26.845552 173.404282 27.213392 173.404282 C 27.58123 173.404282 27.878267 173.295242 28.104506 173.077133 C 28.330742 172.859039 28.495131 172.528641 28.59767 172.085922 C 28.700209 171.643219 28.751478 171.088211 28.751478 170.420883 C 28.751478 169.766586 28.701021 169.218903 28.600111 168.777817 C 28.499199 168.336746 28.336439 168.004715 28.11183 167.781723 C 27.88722 167.558746 27.58774 167.44725 27.213392 167.44725 C 26.839043 167.44725 26.539564 167.558746 26.314955 167.781723 C 26.090345 168.004715 25.928398 168.336746 25.829115 168.777817 C 25.72983 169.218903 25.680189 169.766586 25.680189 170.420883 Z"/>
                    <path id="path3" fill="#333333" fill-opacity="0.653232" stroke="none" d="M 34.195812 173.999985 L 31.798353 167.681625 L 31.759291 167.681625 C 31.772312 167.815094 31.783705 167.977859 31.79347 168.169907 C 31.803236 168.361969 31.811375 168.571121 31.817884 168.797348 C 31.824394 169.02359 31.82765 169.253891 31.82765 169.488266 L 31.82765 173.999985 L 31.056166 173.999985 L 31.056166 166.861313 L 32.286633 166.861313 L 34.547375 172.798813 L 34.581554 172.798813 L 36.876476 166.861313 L 38.097179 166.861313 L 38.097179 173.999985 L 37.276867 173.999985 L 37.276867 169.429672 C 37.276867 169.218094 37.280125 169.005692 37.286633 168.792465 C 37.293144 168.579254 37.301281 168.377426 37.311047 168.186996 C 37.320812 167.996567 37.330578 167.831375 37.340343 167.691391 L 37.301281 167.691391 L 34.874523 173.999985 L 34.195812 173.999985 Z"/>
                </g>
                <path id="Path-2-Copy" fill="none" stroke="#979797" d="M 51.500011 169.999985 L 712.5 169.999985"/>
            </g>
            <g id="Group-12">
                <g id="20m">
                    <path id="path4" fill="#333333" fill-opacity="0.653232" stroke="none" d="M 15.45558 67.581039 L 15.45558 66.555649 C 15.081231 66.549149 14.723971 66.516586 14.383802 66.457993 C 14.043633 66.399399 13.766127 66.322906 13.551283 66.2285 L 13.551283 65.437485 C 13.775892 65.541656 14.063978 65.632797 14.415541 65.710922 C 14.767103 65.789047 15.113783 65.831375 15.45558 65.837875 L 15.45558 63.689438 C 15.025892 63.569 14.67026 63.431473 14.388685 63.27684 C 14.10711 63.122223 13.896335 62.932602 13.756361 62.707993 C 13.616387 62.483383 13.5464 62.211578 13.5464 61.892563 C 13.5464 61.560532 13.625339 61.27652 13.783216 61.040512 C 13.941094 60.80452 14.163262 60.619781 14.44972 60.486313 C 14.736178 60.352859 15.071465 60.276352 15.45558 60.256821 L 15.45558 59.412094 L 16.051283 59.412094 L 16.051283 60.247055 C 16.39959 60.256821 16.716972 60.295074 17.003431 60.361801 C 17.28989 60.428543 17.555189 60.513992 17.79933 60.618149 L 17.545424 61.29686 C 17.32407 61.208969 17.084812 61.134109 16.82765 61.07225 C 16.570488 61.010406 16.311699 60.968094 16.051283 60.945297 L 16.051283 63.079086 C 16.48748 63.206039 16.852879 63.341141 17.147474 63.48436 C 17.44207 63.627594 17.664238 63.805008 17.813978 64.016586 C 17.963718 64.22818 18.038588 64.501617 18.038588 64.836899 C 18.038588 65.312164 17.864433 65.695465 17.516127 65.986801 C 17.16782 66.278152 16.679539 66.454742 16.051283 66.516586 L 16.051283 67.581039 L 15.45558 67.581039 Z M 16.051283 65.79393 C 16.451674 65.754868 16.75034 65.658035 16.947279 65.503403 C 17.144218 65.348785 17.242689 65.144516 17.242689 64.89061 C 17.242689 64.708328 17.204441 64.558578 17.127943 64.441391 C 17.051445 64.324203 16.926933 64.222488 16.754408 64.136215 C 16.581882 64.049957 16.347507 63.967758 16.051283 63.889633 L 16.051283 65.79393 Z M 15.45558 62.874008 L 15.45558 60.964828 C 15.211439 60.98111 15.006361 61.026688 14.840345 61.101547 C 14.67433 61.176422 14.549818 61.274078 14.46681 61.394516 C 14.383802 61.514969 14.342299 61.658188 14.342299 61.824203 C 14.342299 62.016266 14.37892 62.17659 14.452162 62.305161 C 14.525404 62.433746 14.644219 62.542801 14.808607 62.632309 C 14.972995 62.721832 15.188653 62.802399 15.45558 62.874008 Z"/>
                    <path id="path5" fill="#333333" fill-opacity="0.653232" stroke="none" d="M 23.814955 66.999985 L 19.13722 66.999985 L 19.13722 66.321274 L 21.0464 64.382797 C 21.401218 64.024734 21.699883 63.705719 21.942396 63.425766 C 22.184908 63.145828 22.369642 62.869949 22.496595 62.598129 C 22.623549 62.326324 22.687025 62.027664 22.687025 61.702133 C 22.687025 61.298492 22.567396 60.990067 22.328138 60.77684 C 22.088881 60.563629 21.773939 60.457016 21.383314 60.457016 C 21.041517 60.457016 20.738783 60.51561 20.475111 60.632797 C 20.211439 60.749985 19.941257 60.916 19.664564 61.130844 L 19.229994 60.583969 C 19.418797 60.424469 19.624687 60.282867 19.84767 60.159164 C 20.070652 60.035477 20.30991 59.93782 20.565443 59.866196 C 20.820976 59.794586 21.093601 59.758774 21.383314 59.758774 C 21.822767 59.758774 22.201998 59.835281 22.521009 59.988266 C 22.840019 60.141266 23.086601 60.35936 23.260756 60.642563 C 23.434908 60.925766 23.521986 61.26268 23.521986 61.653305 C 23.521986 62.030914 23.447115 62.381668 23.297377 62.705551 C 23.147636 63.029449 22.937675 63.350082 22.667494 63.667465 C 22.39731 63.984848 22.081556 64.320953 21.720228 64.675766 L 20.167494 66.223618 L 20.167494 66.257797 L 23.814955 66.257797 L 23.814955 66.999985 Z"/>
                    <path id="path6" fill="#333333" fill-opacity="0.653232" stroke="none" d="M 29.571791 63.420883 C 29.571791 64.00032 29.527845 64.517899 29.439955 64.973618 C 29.352064 65.429352 29.213717 65.815094 29.024916 66.130844 C 28.836113 66.446609 28.591972 66.686676 28.292494 66.851059 C 27.993013 67.015457 27.633314 67.097641 27.213392 67.097641 C 26.682793 67.097641 26.244154 66.952789 25.897474 66.663071 C 25.550795 66.373367 25.292006 65.954254 25.121107 65.405746 C 24.950209 64.857254 24.864759 64.195633 24.864759 63.420883 C 24.864759 62.659164 24.94207 62.004059 25.096693 61.455551 C 25.251314 60.907059 25.501152 60.485504 25.846205 60.190903 C 26.191256 59.896317 26.646986 59.749008 27.213392 59.749008 C 27.750502 59.749008 28.193209 59.894684 28.541517 60.18602 C 28.889824 60.477371 29.148613 60.897293 29.317884 61.445786 C 29.487154 61.994293 29.571791 62.652664 29.571791 63.420883 Z M 25.680189 63.420883 C 25.680189 64.084946 25.730644 64.638336 25.831556 65.081039 C 25.932467 65.523758 26.096041 65.854965 26.322279 66.074692 C 26.548515 66.294418 26.845552 66.404282 27.213392 66.404282 C 27.58123 66.404282 27.878267 66.295242 28.104506 66.077133 C 28.330742 65.859039 28.495131 65.528641 28.59767 65.085922 C 28.700209 64.643219 28.751478 64.088211 28.751478 63.420883 C 28.751478 62.766586 28.701021 62.218903 28.600111 61.777817 C 28.499199 61.336746 28.336439 61.004715 28.11183 60.781723 C 27.88722 60.558746 27.58774 60.44725 27.213392 60.44725 C 26.839043 60.44725 26.539564 60.558746 26.314955 60.781723 C 26.090345 61.004715 25.928398 61.336746 25.829115 61.777817 C 25.72983 62.218903 25.680189 62.766586 25.680189 63.420883 Z"/>
                    <path id="path7" fill="#333333" fill-opacity="0.653232" stroke="none" d="M 34.195812 66.999985 L 31.798353 60.681625 L 31.759291 60.681625 C 31.772312 60.815094 31.783705 60.977859 31.79347 61.169907 C 31.803236 61.361969 31.811375 61.571121 31.817884 61.797348 C 31.824394 62.02359 31.82765 62.253891 31.82765 62.488266 L 31.82765 66.999985 L 31.056166 66.999985 L 31.056166 59.861313 L 32.286633 59.861313 L 34.547375 65.798813 L 34.581554 65.798813 L 36.876476 59.861313 L 38.097179 59.861313 L 38.097179 66.999985 L 37.276867 66.999985 L 37.276867 62.429672 C 37.276867 62.218094 37.280125 62.005692 37.286633 61.792465 C 37.293144 61.579254 37.301281 61.377426 37.311047 61.186996 C 37.320812 60.996567 37.330578 60.831375 37.340343 60.691391 L 37.301281 60.691391 L 34.874523 66.999985 L 34.195812 66.999985 Z"/>
                </g>
                <path id="Path-2" fill="none" stroke="#979797" d="M 51.500011 62.999985 L 712.5 62.999985"/>
            </g>
            <g id="Group-10">
                <g id="0m">
                    <path id="path8" fill="#333333" fill-opacity="0.653232" stroke="none" d="M 18.31448 281.581055 L 18.31448 280.555664 C 17.94013 280.549133 17.582872 280.516602 17.242702 280.458008 C 16.902533 280.399414 16.625027 280.322906 16.410183 280.228516 L 16.410183 279.4375 C 16.634792 279.541656 16.922878 279.632813 17.274441 279.710938 C 17.626003 279.789063 17.972683 279.83136 18.31448 279.837891 L 18.31448 277.689453 C 17.884792 277.569 17.529161 277.431458 17.247585 277.276855 C 16.966009 277.122223 16.755236 276.932617 16.615261 276.708008 C 16.475286 276.483398 16.4053 276.211578 16.4053 275.892578 C 16.4053 275.560547 16.48424 275.27652 16.642117 275.040527 C 16.799994 274.804504 17.022161 274.619781 17.30862 274.486328 C 17.595079 274.352844 17.930365 274.276367 18.31448 274.256836 L 18.31448 273.412109 L 18.910183 273.412109 L 18.910183 274.24707 C 19.25849 274.256836 19.575872 274.295074 19.862331 274.361816 C 20.14879 274.428528 20.414089 274.513977 20.65823 274.618164 L 20.404324 275.296875 C 20.18297 275.208984 19.943712 275.134094 19.68655 275.072266 C 19.429388 275.010406 19.170599 274.968079 18.910183 274.945313 L 18.910183 277.079102 C 19.34638 277.206055 19.711779 277.341125 20.006374 277.484375 C 20.30097 277.627594 20.523138 277.804993 20.672878 278.016602 C 20.822618 278.22818 20.897488 278.501617 20.897488 278.836914 C 20.897488 279.312164 20.723333 279.695465 20.375027 279.986816 C 20.02672 280.278137 19.538439 280.454742 18.910183 280.516602 L 18.910183 281.581055 L 18.31448 281.581055 Z M 18.910183 279.793945 C 19.310574 279.754883 19.60924 279.65802 19.806179 279.503418 C 20.003119 279.348785 20.101589 279.144531 20.101589 278.890625 C 20.101589 278.708313 20.063341 278.558594 19.986843 278.441406 C 19.910345 278.324219 19.785833 278.222473 19.613308 278.13623 C 19.440783 278.049957 19.206408 277.967773 18.910183 277.889648 L 18.910183 279.793945 Z M 18.31448 276.874023 L 18.31448 274.964844 C 18.070339 274.98111 17.865261 275.026672 17.699245 275.101563 C 17.53323 275.176422 17.408718 275.274078 17.32571 275.394531 C 17.242702 275.514954 17.201199 275.658203 17.201199 275.824219 C 17.201199 276.016266 17.23782 276.176575 17.311062 276.305176 C 17.384304 276.433746 17.503119 276.542786 17.667507 276.632324 C 17.831896 276.721832 18.047552 276.802399 18.31448 276.874023 Z"/>
                    <path id="path9" fill="#333333" fill-opacity="0.653232" stroke="none" d="M 26.712917 277.420898 C 26.712917 278.000305 26.668972 278.517883 26.581081 278.973633 C 26.493191 279.429352 26.354843 279.815094 26.166042 280.130859 C 25.97724 280.446594 25.733099 280.686676 25.43362 280.851074 C 25.13414 281.015442 24.774441 281.097656 24.354519 281.097656 C 23.823919 281.097656 23.385281 280.952789 23.038601 280.663086 C 22.691921 280.373352 22.433132 279.954254 22.262234 279.405762 C 22.091335 278.857239 22.005886 278.195618 22.005886 277.420898 C 22.005886 276.65918 22.083197 276.004059 22.23782 275.455566 C 22.392443 274.907043 22.642279 274.485504 22.987331 274.190918 C 23.332384 273.896301 23.788113 273.749023 24.354519 273.749023 C 24.891628 273.749023 25.334335 273.894684 25.682644 274.186035 C 26.030951 274.477356 26.28974 274.897278 26.459011 275.445801 C 26.628281 275.994293 26.712917 276.652649 26.712917 277.420898 Z M 22.821316 277.420898 C 22.821316 278.084961 22.871771 278.638336 22.972683 279.081055 C 23.073595 279.523743 23.237169 279.85498 23.463406 280.074707 C 23.689642 280.294434 23.986681 280.404297 24.354519 280.404297 C 24.722357 280.404297 25.019394 280.295227 25.245632 280.077148 C 25.471869 279.859039 25.636257 279.528625 25.738796 279.085938 C 25.841335 278.643219 25.892605 278.088196 25.892605 277.420898 C 25.892605 276.766602 25.842148 276.218903 25.741238 275.777832 C 25.640326 275.336731 25.477566 275.0047 25.252956 274.781738 C 25.028347 274.558746 24.728867 274.447266 24.354519 274.447266 C 23.980169 274.447266 23.680691 274.558746 23.456081 274.781738 C 23.231472 275.0047 23.069525 275.336731 22.970242 275.777832 C 22.870958 276.218903 22.821316 276.766602 22.821316 277.420898 Z"/>
                    <path id="path10" fill="#333333" fill-opacity="0.653232" stroke="none" d="M 31.336941 281 L 28.93948 274.681641 L 28.900417 274.681641 C 28.913437 274.815094 28.924831 274.977844 28.934597 275.169922 C 28.944363 275.361969 28.952499 275.571106 28.959011 275.797363 C 28.965521 276.02359 28.968777 276.253906 28.968777 276.488281 L 28.968777 281 L 28.197292 281 L 28.197292 273.861328 L 29.427761 273.861328 L 31.688503 279.798828 L 31.722683 279.798828 L 34.017605 273.861328 L 35.238308 273.861328 L 35.238308 281 L 34.417995 281 L 34.417995 276.429688 C 34.417995 276.218079 34.421249 276.005676 34.427761 275.79248 C 34.434269 275.579254 34.44241 275.377441 34.452175 275.187012 C 34.461941 274.996582 34.471706 274.83136 34.481472 274.691406 L 34.44241 274.691406 L 32.015652 281 L 31.336941 281 Z"/>
                </g>
                <path id="Path-2-Copy-2" fill="none" stroke="#979797" d="M 51.500027 277 L 712.5 277"/>
            </g>
            <g id="Revenue">
                <path id="path11" fill="#1e9aaa" stroke="none" d="M 15.533203 17.433594 C 16.271484 17.433594 16.881836 17.523438 17.364258 17.703125 C 17.84668 17.882813 18.206055 18.15625 18.442383 18.523438 C 18.678711 18.890625 18.796875 19.357422 18.796875 19.923828 C 18.796875 20.345703 18.71875 20.705078 18.5625 21.001953 C 18.40625 21.298828 18.201172 21.544922 17.947266 21.740234 C 17.693359 21.935547 17.421875 22.091797 17.132813 22.208984 L 19.564453 26 L 17.976563 26 L 15.908203 22.566406 L 14.53125 22.566406 L 14.53125 26 L 13.125 26 L 13.125 17.433594 L 15.533203 17.433594 Z M 15.439453 18.605469 L 14.53125 18.605469 L 14.53125 21.40625 L 15.503906 21.40625 C 16.15625 21.40625 16.629883 21.285156 16.924805 21.042969 C 17.219727 20.800781 17.367188 20.443359 17.367188 19.970703 C 17.367188 19.474609 17.209961 19.123047 16.895508 18.916016 C 16.581055 18.708984 16.095703 18.605469 15.439453 18.605469 Z"/>
                <path id="path12" fill="#1e9aaa" stroke="none" d="M 26.640625 26 L 21.789063 26 L 21.789063 17.433594 L 26.640625 17.433594 L 26.640625 18.617188 L 23.195313 18.617188 L 23.195313 20.943359 L 26.423828 20.943359 L 26.423828 22.121094 L 23.195313 22.121094 L 23.195313 24.810547 L 26.640625 24.810547 Z"/>
                <path id="path13" fill="#1e9aaa" stroke="none" d="M 35.837891 17.433594 L 32.84375 26 L 31.355469 26 L 28.361328 17.433594 L 29.802734 17.433594 L 31.607422 22.800781 C 31.662109 22.957031 31.72168 23.146484 31.786133 23.369141 C 31.850586 23.591797 31.911133 23.816406 31.967773 24.042969 C 32.024414 24.269531 32.068359 24.470703 32.099609 24.646484 C 32.130859 24.470703 32.174805 24.269531 32.231445 24.042969 C 32.288086 23.816406 32.347656 23.591797 32.410156 23.369141 C 32.472656 23.146484 32.53125 22.955078 32.585938 22.794922 L 34.396484 17.433594 L 35.837891 17.433594 Z"/>
                <path id="path14" fill="#1e9aaa" stroke="none" d="M 42.814453 26 L 37.962891 26 L 37.962891 17.433594 L 42.814453 17.433594 L 42.814453 18.617188 L 39.369141 18.617188 L 39.369141 20.943359 L 42.597656 20.943359 L 42.597656 22.121094 L 39.369141 22.121094 L 39.369141 24.810547 L 42.814453 24.810547 Z"/>
                <path id="path15" fill="#1e9aaa" stroke="none" d="M 52.808594 26 L 51.080078 26 L 46.884766 19.162109 L 46.832031 19.162109 C 46.847656 19.392578 46.862305 19.636719 46.875977 19.894531 C 46.889648 20.152344 46.901367 20.417969 46.911133 20.691406 C 46.920898 20.964844 46.929688 21.242188 46.9375 21.523438 L 46.9375 26 L 45.660156 26 L 45.660156 17.433594 L 47.376953 17.433594 L 51.566406 24.224609 L 51.607422 24.224609 C 51.599609 24.025391 51.589844 23.796875 51.578125 23.539063 C 51.566406 23.28125 51.555664 23.014648 51.545898 22.739258 C 51.536133 22.463867 51.529297 22.197266 51.525391 21.939453 L 51.525391 17.433594 L 52.808594 17.433594 L 52.808594 26 Z"/>
                <path id="path16" fill="#1e9aaa" stroke="none" d="M 62.785156 17.433594 L 62.785156 22.976563 C 62.785156 23.574219 62.65918 24.109375 62.407227 24.582031 C 62.155273 25.054688 61.775391 25.428711 61.267578 25.704102 C 60.759766 25.979492 60.121094 26.117188 59.351563 26.117188 C 58.253906 26.117188 57.418945 25.829102 56.84668 25.25293 C 56.274414 24.676758 55.988281 23.910156 55.988281 22.953125 L 55.988281 17.433594 L 57.394531 17.433594 L 57.394531 22.830078 C 57.394531 23.544922 57.5625 24.072266 57.898438 24.412109 C 58.234375 24.751953 58.736328 24.921875 59.404297 24.921875 C 59.865234 24.921875 60.241211 24.84082 60.532227 24.678711 C 60.823242 24.516602 61.038086 24.27832 61.176758 23.963867 C 61.31543 23.649414 61.384766 23.269531 61.384766 22.824219 L 61.384766 17.433594 L 62.785156 17.433594 Z"/>
                <path id="path17" fill="#1e9aaa" stroke="none" d="M 70.822266 26 L 65.970703 26 L 65.970703 17.433594 L 70.822266 17.433594 L 70.822266 18.617188 L 67.376953 18.617188 L 67.376953 20.943359 L 70.605469 20.943359 L 70.605469 22.121094 L 67.376953 22.121094 L 67.376953 24.810547 L 70.822266 24.810547 Z"/>
            </g>
            <g id="Feb-16">
                <path id="path18" fill="#333333" fill-opacity="0.653232" stroke="none" d="M 73.88768 296 L 73.057602 296 L 73.057602 288.861328 L 77.032211 288.861328 L 77.032211 289.59375 L 73.88768 289.59375 L 73.88768 292.210938 L 76.841782 292.210938 L 76.841782 292.938477 L 73.88768 292.938477 Z"/>
                <path id="path19" fill="#333333" fill-opacity="0.653232" stroke="none" d="M 82.193344 296 L 78.218735 296 L 78.218735 288.861328 L 82.193344 288.861328 L 82.193344 289.59375 L 79.048813 289.59375 L 79.048813 291.90332 L 82.01268 291.90332 L 82.01268 292.625977 L 79.048813 292.625977 L 79.048813 295.267578 L 82.193344 295.267578 Z"/>
                <path id="path20" fill="#333333" fill-opacity="0.653232" stroke="none" d="M 83.775375 288.861328 L 85.79686 288.861328 C 86.688782 288.861328 87.35936 288.994812 87.808578 289.261719 C 88.257797 289.528656 88.482407 289.982758 88.482407 290.624023 C 88.482407 290.900726 88.429504 291.148926 88.323715 291.368652 C 88.217918 291.588379 88.06411 291.769867 87.862289 291.913086 C 87.660461 292.056335 87.411438 292.155609 87.115219 292.210938 L 87.115219 292.259766 C 87.427719 292.308594 87.704407 292.398132 87.945297 292.52832 C 88.18618 292.658539 88.374985 292.84082 88.511703 293.075195 C 88.648422 293.30957 88.716782 293.607422 88.716782 293.96875 C 88.716782 294.408203 88.615051 294.779297 88.411606 295.082031 C 88.208153 295.384766 87.920883 295.613464 87.549789 295.768066 C 87.178696 295.922699 86.739243 296 86.23143 296 L 83.775375 296 L 83.775375 288.861328 Z M 84.605453 291.922852 L 85.972641 291.922852 C 86.594383 291.922852 87.024887 291.820313 87.264145 291.615234 C 87.503403 291.410156 87.623032 291.110687 87.623032 290.716797 C 87.623032 290.309906 87.480614 290.016937 87.195786 289.837891 C 86.91095 289.658875 86.457664 289.569336 85.835922 289.569336 L 84.605453 289.569336 L 84.605453 291.922852 Z M 84.605453 292.621094 L 84.605453 295.291992 L 86.089828 295.291992 C 86.724594 295.291992 87.173813 295.16748 87.437485 294.918457 C 87.701157 294.669434 87.832993 294.333344 87.832993 293.910156 C 87.832993 293.639984 87.773582 293.408875 87.65477 293.216797 C 87.53595 293.02475 87.343895 292.877441 87.078598 292.774902 C 86.813293 292.672363 86.45929 292.621094 86.016586 292.621094 L 84.605453 292.621094 Z"/>
                <path id="path21" fill="#333333" fill-opacity="0.653232" stroke="none" d="M 89.991196 295.492188 C 89.991196 295.264343 90.046532 295.102386 90.157211 295.006348 C 90.267883 294.910339 90.402977 294.862305 90.562485 294.862305 C 90.7285 294.862305 90.868469 294.910339 90.982407 295.006348 C 91.096336 295.102386 91.153305 295.264343 91.153305 295.492188 C 91.153305 295.716797 91.096336 295.880371 90.982407 295.98291 C 90.868469 296.085449 90.7285 296.136719 90.562485 296.136719 C 90.402977 296.136719 90.267883 296.085449 90.157211 295.98291 C 90.046532 295.880371 89.991196 295.716797 89.991196 295.492188 Z"/>
                <path id="path22" fill="#333333" fill-opacity="0.653232" stroke="none" d="M 97.994125 296 L 97.20311 296 L 97.20311 290.941406 C 97.20311 290.749359 97.203918 290.584167 97.205551 290.445801 C 97.207176 290.307465 97.210434 290.180511 97.215317 290.064941 C 97.2202 289.949402 97.227524 289.83139 97.237289 289.710938 C 97.136375 289.815125 97.041977 289.903809 96.954086 289.977051 C 96.866196 290.050293 96.757141 290.140625 96.626938 290.248047 L 95.811508 290.902344 L 95.386703 290.350586 L 97.320297 288.861328 L 97.994125 288.861328 L 97.994125 296 Z"/>
                <path id="path23" fill="#333333" fill-opacity="0.653232" stroke="none" d="M 100.767563 292.948242 C 100.767563 292.518555 100.797668 292.098633 100.857895 291.688477 C 100.918114 291.27832 101.019836 290.896667 101.163071 290.543457 C 101.306297 290.190277 101.50161 289.880219 101.749008 289.613281 C 101.996399 289.346375 102.304832 289.137207 102.674301 288.98584 C 103.043762 288.834473 103.487289 288.758789 104.004868 288.758789 C 104.151352 288.758789 104.309227 288.766113 104.4785 288.780762 C 104.647766 288.79541 104.787743 288.819031 104.898422 288.851563 L 104.898422 289.549805 C 104.777977 289.507507 104.640442 289.476563 104.485825 289.457031 C 104.3312 289.4375 104.175766 289.427734 104.019516 289.427734 C 103.414047 289.427734 102.937973 289.55957 102.591293 289.823242 C 102.244614 290.086914 101.994774 290.444183 101.841782 290.89502 C 101.688782 291.345886 101.600891 291.852875 101.57811 292.416016 L 101.631821 292.416016 C 101.732727 292.253265 101.861313 292.105957 102.017563 291.974121 C 102.173813 291.842285 102.363426 291.737305 102.586411 291.65918 C 102.809387 291.581055 103.068993 291.541992 103.365219 291.541992 C 103.781883 291.541992 104.145653 291.626648 104.456528 291.795898 C 104.767395 291.965179 105.008286 292.210938 105.179184 292.533203 C 105.350082 292.855469 105.435532 293.246094 105.435532 293.705078 C 105.435532 294.196625 105.344383 294.621429 105.162094 294.979492 C 104.979797 295.337585 104.7202 295.613464 104.383286 295.807129 C 104.046371 296.000824 103.645164 296.097656 103.179672 296.097656 C 102.83136 296.097656 102.510727 296.030945 102.217758 295.897461 C 101.924789 295.764008 101.670067 295.56543 101.453598 295.301758 C 101.237122 295.038086 101.068665 294.710144 100.948227 294.317871 C 100.827782 293.925629 100.767563 293.469086 100.767563 292.948242 Z M 103.169907 295.414063 C 103.61261 295.414063 103.96743 295.272461 104.23436 294.989258 C 104.501282 294.706055 104.63475 294.278015 104.63475 293.705078 C 104.63475 293.236328 104.51593 292.865234 104.278305 292.591797 C 104.040672 292.318359 103.682602 292.181641 103.204086 292.181641 C 102.878563 292.181641 102.59536 292.249207 102.354477 292.384277 C 102.113586 292.519379 101.926414 292.689453 101.792953 292.894531 C 101.659485 293.099609 101.592758 293.307953 101.592758 293.519531 C 101.592758 293.734375 101.624496 293.952484 101.687973 294.173828 C 101.75145 294.395203 101.848289 294.600281 101.9785 294.789063 C 102.108704 294.977875 102.273094 295.129242 102.471664 295.243164 C 102.670227 295.357117 102.902977 295.414063 103.169907 295.414063 Z"/>
            </g>
            <g id="Feb-17">
                <path id="path24" fill="#333333" fill-opacity="0.653232" stroke="none" d="M 171.721085 295.999969 L 170.891006 295.999969 L 170.891006 288.861298 L 174.865616 288.861298 L 174.865616 289.593719 L 171.721085 289.593719 L 171.721085 292.210907 L 174.675186 292.210907 L 174.675186 292.938446 L 171.721085 292.938446 Z"/>
                <path id="path25" fill="#333333" fill-opacity="0.653232" stroke="none" d="M 180.026749 295.999969 L 176.052139 295.999969 L 176.052139 288.861298 L 180.026749 288.861298 L 180.026749 289.593719 L 176.882217 289.593719 L 176.882217 291.90329 L 179.846085 291.90329 L 179.846085 292.625946 L 176.882217 292.625946 L 176.882217 295.267548 L 180.026749 295.267548 Z"/>
                <path id="path26" fill="#333333" fill-opacity="0.653232" stroke="none" d="M 181.60878 288.861298 L 183.630264 288.861298 C 184.522186 288.861298 185.192764 288.994751 185.641983 289.261688 C 186.091202 289.528625 186.315811 289.982727 186.315811 290.623993 C 186.315811 290.900696 186.262909 291.148895 186.15712 291.368622 C 186.051315 291.588348 185.897507 291.769836 185.695694 291.913055 C 185.493866 292.056274 185.244843 292.155579 184.948624 292.210907 L 184.948624 292.259735 C 185.261124 292.308563 185.537811 292.398071 185.778702 292.52829 C 186.019577 292.658508 186.208389 292.84079 186.345108 293.075165 C 186.481827 293.30954 186.550186 293.607391 186.550186 293.968719 C 186.550186 294.408173 186.448456 294.779266 186.24501 295.082001 C 186.04155 295.384735 185.754288 295.613403 185.383194 295.768036 C 185.0121 295.922668 184.572647 295.999969 184.064835 295.999969 L 181.60878 295.999969 L 181.60878 288.861298 Z M 182.438858 291.922821 L 183.806046 291.922821 C 184.42778 291.922821 184.858292 291.820282 185.097549 291.615204 C 185.336807 291.410126 185.456436 291.110657 185.456436 290.716766 C 185.456436 290.309875 185.314011 290.016907 185.02919 289.83786 C 184.744354 289.658813 184.291061 289.569305 183.669327 289.569305 L 182.438858 289.569305 L 182.438858 291.922821 Z M 182.438858 292.621063 L 182.438858 295.291962 L 183.923233 295.291962 C 184.557999 295.291962 185.007217 295.16745 185.270889 294.918427 C 185.534561 294.669403 185.666397 294.333313 185.666397 293.910126 C 185.666397 293.639954 185.606979 293.408813 185.488174 293.216766 C 185.369354 293.024719 185.177292 292.877411 184.912003 292.774872 C 184.646698 292.672333 184.292694 292.621063 183.849991 292.621063 L 182.438858 292.621063 Z"/>
                <path id="path27" fill="#333333" fill-opacity="0.653232" stroke="none" d="M 187.8246 295.492157 C 187.8246 295.264282 187.879929 295.102356 187.990616 295.006317 C 188.101288 294.910278 188.236374 294.862274 188.395889 294.862274 C 188.561905 294.862274 188.701874 294.910278 188.815811 295.006317 C 188.929733 295.102356 188.98671 295.264282 188.98671 295.492157 C 188.98671 295.716766 188.929733 295.880341 188.815811 295.98288 C 188.701874 296.085419 188.561905 296.136688 188.395889 296.136688 C 188.236374 296.136688 188.101288 296.085419 187.990616 295.98288 C 187.879929 295.880341 187.8246 295.716766 187.8246 295.492157 Z"/>
                <path id="path28" fill="#333333" fill-opacity="0.653232" stroke="none" d="M 195.82753 295.999969 L 195.036514 295.999969 L 195.036514 290.941376 C 195.036514 290.749329 195.037323 290.584106 195.038956 290.44577 C 195.040573 290.307434 195.043839 290.180481 195.048721 290.064911 C 195.053604 289.949341 195.060928 289.83136 195.070694 289.710907 C 194.969772 289.815063 194.875381 289.903778 194.787491 289.97702 C 194.6996 290.050262 194.590546 290.140594 194.460342 290.248016 L 193.644913 290.902313 L 193.220108 290.350555 L 195.153702 288.861298 L 195.82753 288.861298 L 195.82753 295.999969 Z"/>
                <path id="path29" fill="#333333" fill-opacity="0.653232" stroke="none" d="M 199.450577 295.999969 L 202.380264 289.603485 L 198.488663 289.603485 L 198.488663 288.861298 L 203.249405 288.861298 L 203.249405 289.486298 L 200.339249 295.999969 Z"/>
            </g>
            <g id="Feb-18">
                <path id="path30" fill="#333333" fill-opacity="0.653232" stroke="none" d="M 269.554382 296 L 268.724304 296 L 268.724304 288.861328 L 272.698914 288.861328 L 272.698914 289.59375 L 269.554382 289.59375 L 269.554382 292.210938 L 272.508484 292.210938 L 272.508484 292.938477 L 269.554382 292.938477 Z"/>
                <path id="path31" fill="#333333" fill-opacity="0.653232" stroke="none" d="M 277.860046 296 L 273.885437 296 L 273.885437 288.861328 L 277.860046 288.861328 L 277.860046 289.59375 L 274.715515 289.59375 L 274.715515 291.90332 L 277.679382 291.90332 L 277.679382 292.625977 L 274.715515 292.625977 L 274.715515 295.267578 L 277.860046 295.267578 Z"/>
                <path id="path32" fill="#333333" fill-opacity="0.653232" stroke="none" d="M 279.442078 288.861328 L 281.463562 288.861328 C 282.355499 288.861328 283.026062 288.994812 283.475281 289.261719 C 283.9245 289.528656 284.149109 289.982758 284.149109 290.624023 C 284.149109 290.900726 284.096222 291.148926 283.990417 291.368652 C 283.884613 291.588379 283.730804 291.769867 283.528992 291.913086 C 283.327179 292.056335 283.078156 292.155609 282.781921 292.210938 L 282.781921 292.259766 C 283.094421 292.308594 283.371124 292.398132 283.612 292.52832 C 283.852875 292.658539 284.041687 292.84082 284.178406 293.075195 C 284.315125 293.30957 284.383484 293.607422 284.383484 293.96875 C 284.383484 294.408203 284.281769 294.779297 284.078308 295.082031 C 283.874847 295.384766 283.587585 295.613464 283.216492 295.768066 C 282.845398 295.922699 282.405945 296 281.898132 296 L 279.442078 296 L 279.442078 288.861328 Z M 280.272156 291.922852 L 281.639343 291.922852 C 282.261078 291.922852 282.691589 291.820313 282.930847 291.615234 C 283.170105 291.410156 283.289734 291.110687 283.289734 290.716797 C 283.289734 290.309906 283.147308 290.016937 282.862488 289.837891 C 282.577667 289.658875 282.124359 289.569336 281.502625 289.569336 L 280.272156 289.569336 L 280.272156 291.922852 Z M 280.272156 292.621094 L 280.272156 295.291992 L 281.756531 295.291992 C 282.391296 295.291992 282.840515 295.16748 283.104187 294.918457 C 283.367859 294.669434 283.499695 294.333344 283.499695 293.910156 C 283.499695 293.639984 283.440277 293.408875 283.321472 293.216797 C 283.202667 293.02475 283.01059 292.877441 282.7453 292.774902 C 282.480011 292.672363 282.126007 292.621094 281.683289 292.621094 L 280.272156 292.621094 Z"/>
                <path id="path33" fill="#333333" fill-opacity="0.653232" stroke="none" d="M 285.657898 295.492188 C 285.657898 295.264343 285.713226 295.102386 285.823914 295.006348 C 285.934601 294.910339 286.069672 294.862305 286.229187 294.862305 C 286.395203 294.862305 286.535187 294.910339 286.649109 295.006348 C 286.763031 295.102386 286.820007 295.264343 286.820007 295.492188 C 286.820007 295.716797 286.763031 295.880371 286.649109 295.98291 C 286.535187 296.085449 286.395203 296.136719 286.229187 296.136719 C 286.069672 296.136719 285.934601 296.085449 285.823914 295.98291 C 285.713226 295.880371 285.657898 295.716797 285.657898 295.492188 Z"/>
                <path id="path34" fill="#333333" fill-opacity="0.653232" stroke="none" d="M 293.660828 296 L 292.869812 296 L 292.869812 290.941406 C 292.869812 290.749359 292.870636 290.584167 292.872253 290.445801 C 292.873871 290.307465 292.877136 290.180511 292.882019 290.064941 C 292.886902 289.949402 292.894226 289.83139 292.903992 289.710938 C 292.80307 289.815125 292.708679 289.903809 292.620789 289.977051 C 292.532898 290.050293 292.423859 290.140625 292.29364 290.248047 L 291.47821 290.902344 L 291.053406 290.350586 L 292.987 288.861328 L 293.660828 288.861328 L 293.660828 296 Z"/>
                <path id="path35" fill="#333333" fill-opacity="0.653232" stroke="none" d="M 298.719421 288.758789 C 299.132843 288.758789 299.499054 288.823914 299.818054 288.954102 C 300.137054 289.08432 300.386902 289.275574 300.567566 289.527832 C 300.74823 289.780121 300.838562 290.090179 300.838562 290.458008 C 300.838562 290.747742 300.775879 291.000824 300.650574 291.217285 C 300.525238 291.433777 300.356781 291.622559 300.145203 291.783691 C 299.933624 291.944824 299.699249 292.088867 299.442078 292.21582 C 299.748077 292.355804 300.023956 292.513672 300.269714 292.689453 C 300.515472 292.865234 300.709991 293.07196 300.85321 293.30957 C 300.996429 293.547211 301.068054 293.828796 301.068054 294.154297 C 301.068054 294.554688 300.971191 294.900574 300.777527 295.191895 C 300.583832 295.483246 300.312836 295.707031 299.964539 295.863281 C 299.616241 296.019531 299.207703 296.097656 298.738953 296.097656 C 298.234406 296.097656 297.805511 296.021973 297.452332 295.870605 C 297.099152 295.719238 296.830597 295.50116 296.646667 295.216309 C 296.462738 294.931488 296.370789 294.588867 296.370789 294.188477 C 296.370789 293.859711 296.440765 293.574066 296.58075 293.331543 C 296.720734 293.08905 296.906281 292.879883 297.13739 292.704102 C 297.3685 292.52832 297.620789 292.380219 297.894226 292.259766 C 297.656586 292.129578 297.439301 291.981445 297.242371 291.81543 C 297.045441 291.649414 296.889191 291.454926 296.773621 291.231934 C 296.658051 291.008972 296.600281 290.749359 296.600281 290.453125 C 296.600281 290.091797 296.69223 289.785004 296.87616 289.532715 C 297.060089 289.280457 297.312347 289.088379 297.632996 288.956543 C 297.953644 288.824707 298.315765 288.758789 298.719421 288.758789 Z M 297.166687 294.193359 C 297.166687 294.557953 297.295258 294.858246 297.552429 295.094238 C 297.809601 295.330261 298.198578 295.448242 298.719421 295.448242 C 299.214203 295.448242 299.59671 295.330261 299.866882 295.094238 C 300.137054 294.858246 300.272156 294.548187 300.272156 294.164063 C 300.272156 293.926453 300.210297 293.717285 300.086609 293.536621 C 299.962921 293.355957 299.78714 293.194031 299.559265 293.050781 C 299.33139 292.907562 299.062836 292.777344 298.753601 292.660156 L 298.57782 292.59668 C 298.278351 292.720398 298.023621 292.85791 297.81366 293.009277 C 297.603699 293.160645 297.44339 293.332367 297.332703 293.524414 C 297.222015 293.716492 297.166687 293.939453 297.166687 294.193359 Z M 298.709656 289.422852 C 298.325531 289.422852 298.011414 289.514832 297.767273 289.69873 C 297.523132 289.88266 297.401062 290.147156 297.401062 290.492188 C 297.401062 290.739594 297.46048 290.94873 297.579285 291.119629 C 297.69809 291.290527 297.860046 291.437012 298.065125 291.559082 C 298.270203 291.681152 298.499695 291.794281 298.753601 291.898438 C 299.001007 291.794281 299.220734 291.679535 299.412781 291.554199 C 299.604828 291.428894 299.756195 291.279968 299.866882 291.107422 C 299.97757 290.934906 300.032898 290.72821 300.032898 290.487305 C 300.032898 290.142273 299.911652 289.878601 299.669128 289.696289 C 299.426605 289.514008 299.106781 289.422852 298.709656 289.422852 Z"/>
            </g>
            <g id="Feb-19">
                <path id="path36" fill="#333333" fill-opacity="0.653232" stroke="none" d="M 367.387665 296 L 366.557587 296 L 366.557587 288.861328 L 370.532196 288.861328 L 370.532196 289.59375 L 367.387665 289.59375 L 367.387665 292.210938 L 370.341766 292.210938 L 370.341766 292.938477 L 367.387665 292.938477 Z"/>
                <path id="path37" fill="#333333" fill-opacity="0.653232" stroke="none" d="M 375.693329 296 L 371.718719 296 L 371.718719 288.861328 L 375.693329 288.861328 L 375.693329 289.59375 L 372.548798 289.59375 L 372.548798 291.90332 L 375.512665 291.90332 L 375.512665 292.625977 L 372.548798 292.625977 L 372.548798 295.267578 L 375.693329 295.267578 Z"/>
                <path id="path38" fill="#333333" fill-opacity="0.653232" stroke="none" d="M 377.27536 288.861328 L 379.296844 288.861328 C 380.188782 288.861328 380.859344 288.994812 381.308563 289.261719 C 381.757782 289.528656 381.982391 289.982758 381.982391 290.624023 C 381.982391 290.900726 381.929504 291.148926 381.8237 291.368652 C 381.717926 291.588379 381.564117 291.769867 381.362274 291.913086 C 381.160461 292.056335 380.911438 292.155609 380.615204 292.210938 L 380.615204 292.259766 C 380.927704 292.308594 381.204407 292.398132 381.445282 292.52832 C 381.686188 292.658539 381.874969 292.84082 382.011688 293.075195 C 382.148407 293.30957 382.216766 293.607422 382.216766 293.96875 C 382.216766 294.408203 382.115051 294.779297 381.911591 295.082031 C 381.70816 295.384766 381.420868 295.613464 381.049774 295.768066 C 380.67868 295.922699 380.239227 296 379.731415 296 L 377.27536 296 L 377.27536 288.861328 Z M 378.105438 291.922852 L 379.472626 291.922852 C 380.094391 291.922852 380.524872 291.820313 380.76413 291.615234 C 381.003387 291.410156 381.123016 291.110687 381.123016 290.716797 C 381.123016 290.309906 380.980621 290.016937 380.69577 289.837891 C 380.41095 289.658875 379.957672 289.569336 379.335907 289.569336 L 378.105438 289.569336 L 378.105438 291.922852 Z M 378.105438 292.621094 L 378.105438 295.291992 L 379.589813 295.291992 C 380.224579 295.291992 380.673798 295.16748 380.937469 294.918457 C 381.201141 294.669434 381.332977 294.333344 381.332977 293.910156 C 381.332977 293.639984 381.27359 293.408875 381.154755 293.216797 C 381.03595 293.02475 380.843903 292.877441 380.578583 292.774902 C 380.313293 292.672363 379.95929 292.621094 379.516571 292.621094 L 378.105438 292.621094 Z"/>
                <path id="path39" fill="#333333" fill-opacity="0.653232" stroke="none" d="M 383.49118 295.492188 C 383.49118 295.264343 383.546539 295.102386 383.657196 295.006348 C 383.767883 294.910339 383.902985 294.862305 384.062469 294.862305 C 384.228485 294.862305 384.368469 294.910339 384.482391 295.006348 C 384.596344 295.102386 384.65329 295.264343 384.65329 295.492188 C 384.65329 295.716797 384.596344 295.880371 384.482391 295.98291 C 384.368469 296.085449 384.228485 296.136719 384.062469 296.136719 C 383.902985 296.136719 383.767883 296.085449 383.657196 295.98291 C 383.546539 295.880371 383.49118 295.716797 383.49118 295.492188 Z"/>
                <path id="path40" fill="#333333" fill-opacity="0.653232" stroke="none" d="M 391.49411 296 L 390.703094 296 L 390.703094 290.941406 C 390.703094 290.749359 390.703918 290.584167 390.705536 290.445801 C 390.707184 290.307465 390.710419 290.180511 390.715302 290.064941 C 390.720184 289.949402 390.727509 289.83139 390.737274 289.710938 C 390.636383 289.815125 390.541962 289.903809 390.454071 289.977051 C 390.36618 290.050293 390.257141 290.140625 390.126923 290.248047 L 389.311493 290.902344 L 388.886688 290.350586 L 390.820282 288.861328 L 391.49411 288.861328 L 391.49411 296 Z"/>
                <path id="path41" fill="#333333" fill-opacity="0.653232" stroke="none" d="M 398.881805 291.90332 C 398.881805 292.336273 398.851715 292.757813 398.791473 293.167969 C 398.731262 293.578125 398.628723 293.960632 398.483856 294.31543 C 398.33902 294.670258 398.142883 294.98114 397.895477 295.248047 C 397.648102 295.514984 397.338043 295.724121 396.965302 295.875488 C 396.59259 296.026855 396.14743 296.102539 395.629852 296.102539 C 395.489899 296.102539 395.330383 296.093597 395.151337 296.075684 C 394.972321 296.0578 394.825836 296.032562 394.711884 296 L 394.711884 295.296875 C 394.832336 295.339203 394.973938 295.372559 395.136688 295.396973 C 395.299469 295.421387 395.458954 295.433594 395.615204 295.433594 C 396.223938 295.433594 396.702454 295.302582 397.050751 295.040527 C 397.399078 294.778503 397.649719 294.422058 397.802704 293.971191 C 397.955719 293.520355 398.041962 293.013367 398.061493 292.450195 L 398.002899 292.450195 C 397.905243 292.606445 397.777496 292.750488 397.619598 292.882324 C 397.461731 293.01416 397.270477 293.119965 397.045868 293.199707 C 396.821259 293.27948 396.559235 293.319336 396.259735 293.319336 C 395.846344 293.319336 395.485809 293.234711 395.178192 293.06543 C 394.870575 292.896179 394.631317 292.650391 394.460419 292.328125 C 394.28952 292.005859 394.204071 291.616882 394.204071 291.161133 C 394.204071 290.669617 394.297668 290.243988 394.484833 289.884277 C 394.672028 289.524597 394.934875 289.24707 395.273407 289.051758 C 395.611969 288.856445 396.010712 288.758789 396.469696 288.758789 C 396.821259 288.758789 397.143524 288.825531 397.436493 288.958984 C 397.729462 289.092468 397.984192 289.29184 398.200653 289.557129 C 398.417145 289.822449 398.584778 290.150391 398.703583 290.541016 C 398.822418 290.931641 398.881805 291.385742 398.881805 291.90332 Z M 396.469696 289.447266 C 396.036774 289.447266 395.686005 289.588867 395.41745 289.87207 C 395.148895 290.155273 395.014618 290.581726 395.014618 291.151367 C 395.014618 291.623383 395.130188 291.996094 395.361298 292.269531 C 395.592438 292.542969 395.948883 292.679688 396.430634 292.679688 C 396.762665 292.679688 397.049957 292.612976 397.29245 292.479492 C 397.534973 292.346039 397.722137 292.176758 397.853973 291.97168 C 397.985809 291.766602 398.051727 291.556641 398.051727 291.341797 C 398.051727 291.126953 398.019989 290.908875 397.956512 290.6875 C 397.893036 290.466156 397.796204 290.261902 397.665985 290.074707 C 397.535797 289.887543 397.371399 289.736176 397.172821 289.620605 C 396.974274 289.505066 396.739899 289.447266 396.469696 289.447266 Z"/>
            </g>
            <g id="Feb-20">
                <path id="path42" fill="#333333" fill-opacity="0.653232" stroke="none" d="M 465.221069 295.999969 L 464.390991 295.999969 L 464.390991 288.861298 L 468.365601 288.861298 L 468.365601 289.593719 L 465.221069 289.593719 L 465.221069 292.210907 L 468.175171 292.210907 L 468.175171 292.938446 L 465.221069 292.938446 Z"/>
                <path id="path43" fill="#333333" fill-opacity="0.653232" stroke="none" d="M 473.526733 295.999969 L 469.552124 295.999969 L 469.552124 288.861298 L 473.526733 288.861298 L 473.526733 289.593719 L 470.382202 289.593719 L 470.382202 291.90329 L 473.346069 291.90329 L 473.346069 292.625946 L 470.382202 292.625946 L 470.382202 295.267548 L 473.526733 295.267548 Z"/>
                <path id="path44" fill="#333333" fill-opacity="0.653232" stroke="none" d="M 475.108765 288.861298 L 477.130249 288.861298 C 478.022186 288.861298 478.692749 288.994781 479.141968 289.261688 C 479.591187 289.528625 479.815796 289.982727 479.815796 290.623993 C 479.815796 290.900696 479.762909 291.148895 479.657104 291.368622 C 479.551331 291.588348 479.397522 291.769836 479.195679 291.913055 C 478.993866 292.056305 478.744843 292.155579 478.448608 292.210907 L 478.448608 292.259735 C 478.761108 292.308563 479.037811 292.398102 479.278687 292.52829 C 479.519592 292.658508 479.708374 292.84079 479.845093 293.075165 C 479.981812 293.30954 480.050171 293.607391 480.050171 293.968719 C 480.050171 294.408173 479.948456 294.779266 479.744995 295.082001 C 479.541565 295.384735 479.254272 295.613434 478.883179 295.768036 C 478.512085 295.922668 478.072632 295.999969 477.564819 295.999969 L 475.108765 295.999969 L 475.108765 288.861298 Z M 475.938843 291.922821 L 477.30603 291.922821 C 477.927795 291.922821 478.358276 291.820282 478.597534 291.615204 C 478.836792 291.410126 478.956421 291.110657 478.956421 290.716766 C 478.956421 290.309875 478.814026 290.016907 478.529175 289.83786 C 478.244354 289.658844 477.791077 289.569305 477.169312 289.569305 L 475.938843 289.569305 L 475.938843 291.922821 Z M 475.938843 292.621063 L 475.938843 295.291962 L 477.423218 295.291962 C 478.057983 295.291962 478.507202 295.16745 478.770874 294.918427 C 479.034546 294.669403 479.166382 294.333313 479.166382 293.910126 C 479.166382 293.639954 479.106995 293.408844 478.988159 293.216766 C 478.869354 293.024719 478.677307 292.877411 478.411987 292.774872 C 478.146698 292.672333 477.792694 292.621063 477.349976 292.621063 L 475.938843 292.621063 Z"/>
                <path id="path45" fill="#333333" fill-opacity="0.653232" stroke="none" d="M 481.324585 295.492157 C 481.324585 295.264313 481.379944 295.102356 481.490601 295.006317 C 481.601288 294.910309 481.736389 294.862274 481.895874 294.862274 C 482.06189 294.862274 482.201874 294.910309 482.315796 295.006317 C 482.429749 295.102356 482.486694 295.264313 482.486694 295.492157 C 482.486694 295.716766 482.429749 295.880341 482.315796 295.98288 C 482.201874 296.085419 482.06189 296.136688 481.895874 296.136688 C 481.736389 296.136688 481.601288 296.085419 481.490601 295.98288 C 481.379944 295.880341 481.324585 295.716766 481.324585 295.492157 Z"/>
                <path id="path46" fill="#333333" fill-opacity="0.653232" stroke="none" d="M 490.987671 295.999969 L 486.309937 295.999969 L 486.309937 295.321259 L 488.219116 293.382782 C 488.573944 293.024719 488.87262 292.705719 489.115112 292.425751 C 489.357635 292.145813 489.542358 291.869934 489.669312 291.598114 C 489.796265 291.326324 489.859741 291.027649 489.859741 290.702118 C 489.859741 290.298492 489.740112 289.990051 489.500854 289.776825 C 489.261597 289.563629 488.946655 289.457001 488.55603 289.457001 C 488.214233 289.457001 487.911499 289.515594 487.647827 289.632782 C 487.384155 289.749969 487.113983 289.915985 486.83728 290.130829 L 486.40271 289.583954 C 486.591522 289.424469 486.797424 289.282867 487.020386 289.159149 C 487.243378 289.035461 487.482635 288.937805 487.738159 288.86618 C 487.993713 288.794586 488.266327 288.758759 488.55603 288.758759 C 488.995483 288.758759 489.374725 288.835266 489.693726 288.988251 C 490.012756 289.141266 490.259338 289.359344 490.433472 289.642548 C 490.607635 289.925751 490.694702 290.262665 490.694702 290.65329 C 490.694702 291.030914 490.619843 291.381653 490.470093 291.705536 C 490.320374 292.029449 490.110413 292.350067 489.84021 292.66745 C 489.570038 292.984833 489.254272 293.320953 488.892944 293.675751 L 487.34021 295.223602 L 487.34021 295.257782 L 490.987671 295.257782 L 490.987671 295.999969 Z"/>
                <path id="path47" fill="#333333" fill-opacity="0.653232" stroke="none" d="M 496.744507 292.420868 C 496.744507 293.000305 496.700562 293.517883 496.612671 293.973602 C 496.52478 294.429352 496.386444 294.815094 496.197632 295.130829 C 496.00885 295.446594 495.764709 295.686676 495.46521 295.851044 C 495.165741 296.015442 494.80603 296.097626 494.386108 296.097626 C 493.85553 296.097626 493.41687 295.952789 493.07019 295.663055 C 492.723511 295.373352 492.464722 294.954254 492.293823 294.405731 C 492.122925 293.857239 492.037476 293.195618 492.037476 292.420868 C 492.037476 291.659149 492.114807 291.004059 492.269409 290.455536 C 492.424042 289.907043 492.673889 289.485504 493.018921 289.190887 C 493.363983 288.896301 493.819702 288.748993 494.386108 288.748993 C 494.923218 288.748993 495.365936 288.894684 495.714233 289.186005 C 496.062561 289.477356 496.32135 289.897278 496.490601 290.44577 C 496.659882 290.994293 496.744507 291.652649 496.744507 292.420868 Z M 492.852905 292.420868 C 492.852905 293.08493 492.903381 293.638336 493.004272 294.081024 C 493.105194 294.523743 493.268768 294.85495 493.494995 295.074677 C 493.721252 295.294403 494.01828 295.404266 494.386108 295.404266 C 494.753967 295.404266 495.050995 295.295227 495.277222 295.077118 C 495.503479 294.859039 495.667847 294.528625 495.770386 294.085907 C 495.872925 293.643219 495.924194 293.088196 495.924194 292.420868 C 495.924194 291.766571 495.873749 291.218903 495.772827 290.777802 C 495.671936 290.336731 495.509155 290.0047 495.284546 289.781708 C 495.059937 289.558746 494.760468 289.447235 494.386108 289.447235 C 494.01178 289.447235 493.71228 289.558746 493.487671 289.781708 C 493.263062 290.0047 493.101135 290.336731 493.001831 290.777802 C 492.902557 291.218903 492.852905 291.766571 492.852905 292.420868 Z"/>
            </g>
            <g id="Feb-21">
                <path id="path48" fill="#333333" fill-opacity="0.653232" stroke="none" d="M 563.054382 296 L 562.224304 296 L 562.224304 288.861328 L 566.198914 288.861328 L 566.198914 289.59375 L 563.054382 289.59375 L 563.054382 292.210938 L 566.008484 292.210938 L 566.008484 292.938477 L 563.054382 292.938477 Z"/>
                <path id="path49" fill="#333333" fill-opacity="0.653232" stroke="none" d="M 571.360046 296 L 567.385437 296 L 567.385437 288.861328 L 571.360046 288.861328 L 571.360046 289.59375 L 568.215515 289.59375 L 568.215515 291.90332 L 571.179382 291.90332 L 571.179382 292.625977 L 568.215515 292.625977 L 568.215515 295.267578 L 571.360046 295.267578 Z"/>
                <path id="path50" fill="#333333" fill-opacity="0.653232" stroke="none" d="M 572.942078 288.861328 L 574.963562 288.861328 C 575.855469 288.861328 576.526062 288.994812 576.975281 289.261719 C 577.4245 289.528656 577.649109 289.982758 577.649109 290.624023 C 577.649109 290.900726 577.596191 291.148926 577.490417 291.368652 C 577.384644 291.588379 577.230835 291.769867 577.028992 291.913086 C 576.827148 292.056335 576.578125 292.155609 576.281921 292.210938 L 576.281921 292.259766 C 576.594421 292.308594 576.871094 292.398132 577.112 292.52832 C 577.352905 292.658539 577.541687 292.84082 577.678406 293.075195 C 577.815125 293.30957 577.883484 293.607422 577.883484 293.96875 C 577.883484 294.408203 577.781738 294.779297 577.578308 295.082031 C 577.374878 295.384766 577.087585 295.613464 576.716492 295.768066 C 576.345398 295.922699 575.905945 296 575.398132 296 L 572.942078 296 L 572.942078 288.861328 Z M 573.772156 291.922852 L 575.139343 291.922852 C 575.761108 291.922852 576.191589 291.820313 576.430847 291.615234 C 576.670105 291.410156 576.789734 291.110687 576.789734 290.716797 C 576.789734 290.309906 576.647339 290.016937 576.362488 289.837891 C 576.077637 289.658875 575.62439 289.569336 575.002625 289.569336 L 573.772156 289.569336 L 573.772156 291.922852 Z M 573.772156 292.621094 L 573.772156 295.291992 L 575.256531 295.291992 C 575.891296 295.291992 576.340515 295.16748 576.604187 294.918457 C 576.867859 294.669434 576.999695 294.333344 576.999695 293.910156 C 576.999695 293.639984 576.940308 293.408875 576.821472 293.216797 C 576.702637 293.02475 576.51062 292.877441 576.2453 292.774902 C 575.97998 292.672363 575.625977 292.621094 575.183289 292.621094 L 573.772156 292.621094 Z"/>
                <path id="path51" fill="#333333" fill-opacity="0.653232" stroke="none" d="M 579.157898 295.492188 C 579.157898 295.264343 579.213257 295.102386 579.323914 295.006348 C 579.43457 294.910339 579.569702 294.862305 579.729187 294.862305 C 579.895203 294.862305 580.035156 294.910339 580.149109 295.006348 C 580.263062 295.102386 580.320007 295.264343 580.320007 295.492188 C 580.320007 295.716797 580.263062 295.880371 580.149109 295.98291 C 580.035156 296.085449 579.895203 296.136719 579.729187 296.136719 C 579.569702 296.136719 579.43457 296.085449 579.323914 295.98291 C 579.213257 295.880371 579.157898 295.716797 579.157898 295.492188 Z"/>
                <path id="path52" fill="#333333" fill-opacity="0.653232" stroke="none" d="M 588.820984 296 L 584.14325 296 L 584.14325 295.321289 L 586.052429 293.382813 C 586.407227 293.02475 586.705933 292.70575 586.948425 292.425781 C 587.190918 292.145844 587.375671 291.869965 587.502625 291.598145 C 587.629578 291.326355 587.693054 291.027679 587.693054 290.702148 C 587.693054 290.298523 587.573425 289.990082 587.334167 289.776855 C 587.09491 289.56366 586.779968 289.457031 586.389343 289.457031 C 586.047546 289.457031 585.744812 289.515625 585.48114 289.632813 C 585.217468 289.75 584.947266 289.916016 584.670593 290.130859 L 584.236023 289.583984 C 584.424805 289.4245 584.630737 289.282898 584.853699 289.15918 C 585.07666 289.035492 585.315918 288.937836 585.571472 288.866211 C 585.827026 288.794617 586.099609 288.758789 586.389343 288.758789 C 586.828796 288.758789 587.208008 288.835297 587.527039 288.988281 C 587.846069 289.141296 588.092651 289.359375 588.266785 289.642578 C 588.440918 289.925781 588.528015 290.262695 588.528015 290.65332 C 588.528015 291.030945 588.453125 291.381683 588.303406 291.705566 C 588.153687 292.02948 587.943726 292.350098 587.673523 292.66748 C 587.40332 292.984863 587.087585 293.320984 586.726257 293.675781 L 585.173523 295.223633 L 585.173523 295.257813 L 588.820984 295.257813 L 588.820984 296 Z"/>
                <path id="path53" fill="#333333" fill-opacity="0.653232" stroke="none" d="M 592.878601 296 L 592.087585 296 L 592.087585 290.941406 C 592.087585 290.749359 592.088379 290.584167 592.090027 290.445801 C 592.091675 290.307465 592.09491 290.180511 592.099792 290.064941 C 592.104675 289.949402 592.112 289.83139 592.121765 289.710938 C 592.020874 289.815125 591.926453 289.903809 591.838562 289.977051 C 591.750671 290.050293 591.641602 290.140625 591.511414 290.248047 L 590.695984 290.902344 L 590.271179 290.350586 L 592.204773 288.861328 L 592.878601 288.861328 L 592.878601 296 Z"/>
            </g>
            <g id="Feb-22">
                <path id="path54" fill="#333333" fill-opacity="0.653232" stroke="none" d="M 660.887695 296 L 660.057617 296 L 660.057617 288.861328 L 664.032227 288.861328 L 664.032227 289.59375 L 660.887695 289.59375 L 660.887695 292.210938 L 663.841797 292.210938 L 663.841797 292.938477 L 660.887695 292.938477 Z"/>
                <path id="path55" fill="#333333" fill-opacity="0.653232" stroke="none" d="M 669.193359 296 L 665.21875 296 L 665.21875 288.861328 L 669.193359 288.861328 L 669.193359 289.59375 L 666.048828 289.59375 L 666.048828 291.90332 L 669.012695 291.90332 L 669.012695 292.625977 L 666.048828 292.625977 L 666.048828 295.267578 L 669.193359 295.267578 Z"/>
                <path id="path56" fill="#333333" fill-opacity="0.653232" stroke="none" d="M 670.775391 288.861328 L 672.796875 288.861328 C 673.688782 288.861328 674.359375 288.994812 674.808594 289.261719 C 675.257813 289.528656 675.482422 289.982758 675.482422 290.624023 C 675.482422 290.900726 675.429504 291.148926 675.32373 291.368652 C 675.217896 291.588379 675.064087 291.769867 674.862305 291.913086 C 674.660461 292.056335 674.411438 292.155609 674.115234 292.210938 L 674.115234 292.259766 C 674.427734 292.308594 674.704407 292.398132 674.945313 292.52832 C 675.186157 292.658539 675.375 292.84082 675.511719 293.075195 C 675.648438 293.30957 675.716797 293.607422 675.716797 293.96875 C 675.716797 294.408203 675.615051 294.779297 675.411621 295.082031 C 675.20813 295.384766 674.920898 295.613464 674.549805 295.768066 C 674.178711 295.922699 673.739258 296 673.231445 296 L 670.775391 296 L 670.775391 288.861328 Z M 671.605469 291.922852 L 672.972656 291.922852 C 673.59436 291.922852 674.024902 291.820313 674.26416 291.615234 C 674.503418 291.410156 674.623047 291.110687 674.623047 290.716797 C 674.623047 290.309906 674.480591 290.016937 674.195801 289.837891 C 673.91095 289.658875 673.457642 289.569336 672.835938 289.569336 L 671.605469 289.569336 L 671.605469 291.922852 Z M 671.605469 292.621094 L 671.605469 295.291992 L 673.089844 295.291992 C 673.724609 295.291992 674.173828 295.16748 674.4375 294.918457 C 674.701172 294.669434 674.833008 294.333344 674.833008 293.910156 C 674.833008 293.639984 674.77356 293.408875 674.654785 293.216797 C 674.53595 293.02475 674.343872 292.877441 674.078613 292.774902 C 673.813293 292.672363 673.45929 292.621094 673.016602 292.621094 L 671.605469 292.621094 Z"/>
                <path id="path57" fill="#333333" fill-opacity="0.653232" stroke="none" d="M 676.991211 295.492188 C 676.991211 295.264343 677.046509 295.102386 677.157227 295.006348 C 677.267883 294.910339 677.402954 294.862305 677.5625 294.862305 C 677.728516 294.862305 677.868469 294.910339 677.982422 295.006348 C 678.096313 295.102386 678.15332 295.264343 678.15332 295.492188 C 678.15332 295.716797 678.096313 295.880371 677.982422 295.98291 C 677.868469 296.085449 677.728516 296.136719 677.5625 296.136719 C 677.402954 296.136719 677.267883 296.085449 677.157227 295.98291 C 677.046509 295.880371 676.991211 295.716797 676.991211 295.492188 Z"/>
                <path id="path58" fill="#333333" fill-opacity="0.653232" stroke="none" d="M 686.654297 296 L 681.976563 296 L 681.976563 295.321289 L 683.885742 293.382813 C 684.24054 293.02475 684.539185 292.70575 684.781738 292.425781 C 685.024231 292.145844 685.208984 291.869965 685.335938 291.598145 C 685.462891 291.326355 685.526367 291.027679 685.526367 290.702148 C 685.526367 290.298523 685.406738 289.990082 685.16748 289.776855 C 684.928223 289.56366 684.613281 289.457031 684.222656 289.457031 C 683.880859 289.457031 683.578125 289.515625 683.314453 289.632813 C 683.050781 289.75 682.780579 289.916016 682.503906 290.130859 L 682.069336 289.583984 C 682.258118 289.4245 682.463989 289.282898 682.687012 289.15918 C 682.909973 289.035492 683.149231 288.937836 683.404785 288.866211 C 683.660278 288.794617 683.932922 288.758789 684.222656 288.758789 C 684.662109 288.758789 685.041321 288.835297 685.360352 288.988281 C 685.679321 289.141296 685.925903 289.359375 686.100098 289.642578 C 686.274231 289.925781 686.361328 290.262695 686.361328 290.65332 C 686.361328 291.030945 686.286438 291.381683 686.136719 291.705566 C 685.986938 292.02948 685.776978 292.350098 685.506836 292.66748 C 685.236633 292.984863 684.920898 293.320984 684.55957 293.675781 L 683.006836 295.223633 L 683.006836 295.257813 L 686.654297 295.257813 L 686.654297 296 Z"/>
                <path id="path59" fill="#333333" fill-opacity="0.653232" stroke="none" d="M 692.37207 296 L 687.694336 296 L 687.694336 295.321289 L 689.603516 293.382813 C 689.958313 293.02475 690.256958 292.70575 690.499512 292.425781 C 690.742004 292.145844 690.926758 291.869965 691.053711 291.598145 C 691.180664 291.326355 691.244141 291.027679 691.244141 290.702148 C 691.244141 290.298523 691.124512 289.990082 690.885254 289.776855 C 690.645996 289.56366 690.331055 289.457031 689.94043 289.457031 C 689.598633 289.457031 689.295898 289.515625 689.032227 289.632813 C 688.768555 289.75 688.498352 289.916016 688.22168 290.130859 L 687.787109 289.583984 C 687.975891 289.4245 688.181763 289.282898 688.404785 289.15918 C 688.627747 289.035492 688.867004 288.937836 689.122559 288.866211 C 689.378052 288.794617 689.650696 288.758789 689.94043 288.758789 C 690.379883 288.758789 690.759094 288.835297 691.078125 288.988281 C 691.397095 289.141296 691.643677 289.359375 691.817871 289.642578 C 691.992004 289.925781 692.079102 290.262695 692.079102 290.65332 C 692.079102 291.030945 692.004211 291.381683 691.854492 291.705566 C 691.704712 292.02948 691.494751 292.350098 691.224609 292.66748 C 690.954407 292.984863 690.638672 293.320984 690.277344 293.675781 L 688.724609 295.223633 L 688.724609 295.257813 L 692.37207 295.257813 L 692.37207 296 Z"/>
            </g>
            <path id="Rectangle-Copy-3" fill="#1e9aaa" fill-rule="evenodd" stroke="none" d="M 181 263 L 187 263 L 187 277 L 181 277 Z"/>
            <path id="Rectangle-Copy-4" fill="#1e9aaa" fill-rule="evenodd" stroke="none" d="M 279 248 L 285 248 L 285 277 L 279 277 Z"/>
            <path id="Rectangle-Copy-5" fill="#1e9aaa" fill-rule="evenodd" stroke="none" d="M 377 220 L 383 220 L 383 277 L 377 277 Z"/>
            <path id="Rectangle-Copy-6" fill="#1e9aaa" fill-rule="evenodd" stroke="none" d="M 474 241 L 480 241 L 480 277 L 474 277 Z"/>
            <path id="Rectangle-Copy-7" fill="#1e9aaa" fill-rule="evenodd" stroke="none" d="M 572 253 L 578 253 L 578 277 L 572 277 Z"/>
            <path id="Rectangle-Copy-8" fill="#1e9aaa" fill-rule="evenodd" stroke="none" d="M 670 244 L 676 244 L 676 277 L 670 277 Z"/>
        </g>
    </g>
</svg>
