<?xml version="1.0" encoding="UTF-8"?>
<svg width="144px" height="40px" viewBox="0 0 144 40" version="1.1" xmlns="http://www.w3.org/2000/svg" xmlns:xlink="http://www.w3.org/1999/xlink">
    <title>Revenue</title>
    <g id="Page-1" stroke="none" stroke-width="1" fill="none" fill-rule="evenodd">
        <g id="Group-15">
            <rect id="Rectangle" fill="#E5F1F2" x="0" y="0" width="144" height="40" rx="20"></rect>
            <circle id="Oval-Copy-3" fill="#4AB48D" cx="20" cy="20" r="11"></circle>
            <g id="dollar" transform="translate(16.6248, 13.5)" fill="#FFFFFF" fill-rule="nonzero">
                <path d="M3.37518638,0 C3.79003006,0 4.12518638,0.33585906 4.12518638,0.75 L4.12518638,1.58624983 C4.16268653,1.59117222 4.19784278,1.59656239 4.23534256,1.60195327 C4.4837802,1.6389842 5.22440499,1.75828099 5.52909249,1.83539057 C5.90878028,1.93710923 6.17362374,2.34609389 6.07049888,2.74687529 C5.96971792,3.14765596 5.5619052,3.39140654 5.15878028,3.29062486 C4.94081145,3.21328139 4.27753013,3.12421846 4.0150302,3.08671904 C3.26268631,2.97421861 2.61815506,3.03046846 2.17518645,3.19921875 C1.74674862,3.36328125 1.56885809,3.59531236 1.52174848,3.85546875 C1.47627967,4.10625029 1.51073283,4.24921846 1.55198306,4.33828139 C1.59627992,4.43203139 1.68276435,4.53750014 1.85503012,4.65234375 C2.2361241,4.90312493 2.81737417,5.07187486 3.5720616,5.27578139 L3.63768667,5.29453111 C4.30331188,5.47500014 5.1189366,5.69765639 5.72362453,6.09843779 C6.0540927,6.31875014 6.36581188,6.61640596 6.55799895,7.02890611 C6.75253063,7.44609404 6.79471785,7.91484404 6.70565563,8.39296889 C6.54159313,9.3046875 5.90878063,9.89999986 5.1658116,10.2093751 C4.84706181,10.3406253 4.49549931,10.4249997 4.12518674,10.4671876 L4.12518674,11.25 C4.12518674,11.664844 3.79003042,12 3.37518674,12 C2.96034306,12 2.62518674,11.664844 2.62518674,11.25 L2.62518674,10.4320314 C2.61581153,10.4320314 2.60409278,10.4085939 2.59471756,10.4273436 L2.59003013,10.4273436 C2.02049881,10.3382814 1.07995182,10.0921876 0.445498525,9.81093764 C0.0669830427,9.64218736 -0.103407682,9.19921875 0.0648737536,8.81953096 C0.23315519,8.44218779 0.6763584,8.27109361 1.03378028,8.43984389 C1.54471785,8.65781236 2.35096806,8.87109375 2.81737417,8.94375014 C3.56737417,9.05624986 4.18378049,8.99062514 4.60096806,8.82187486 C4.99706167,8.66015625 5.17753035,8.42578125 5.22909313,8.14453125 C5.27362424,7.89374971 5.24081188,7.75078154 5.19862431,7.66171861 C5.15409285,7.56796861 5.06737417,7.46249986 4.89628035,7.34765625 C4.51424938,7.09687471 3.93299931,6.92812514 3.17831188,6.72421861 L3.11268681,6.70546889 C2.4470616,6.52499986 1.63096768,6.30234361 1.02581125,5.90156257 C0.695108114,5.68124986 0.385264336,5.38359368 0.192842303,4.97109389 C-0.00239211461,4.55390632 -0.0448139324,4.08515596 0.0458890782,3.5859375 C0.211826621,2.67421889 0.868545471,2.09273458 1.63987368,1.79835963 C1.94503003,1.68187523 2.27596742,1.60523415 2.62518638,1.56398463 L2.62518638,0.75 C2.62518638,0.33585906 2.9603427,0 3.37518638,0 Z" id="Path"></path>
            </g>
            <g id="Revenue-|-ECPM" transform="translate(39.6748, 9.1709)" fill="#333333" fill-rule="nonzero">
                <path d="M1.80615234,0.404296875 C2.35986328,0.404296875 2.81762695,0.471679688 3.17944336,0.606445312 C3.54125977,0.741210938 3.81079102,0.946289062 3.98803711,1.22167969 C4.1652832,1.49707031 4.25390625,1.84716797 4.25390625,2.27197266 C4.25390625,2.58837891 4.1953125,2.85791016 4.078125,3.08056641 C3.9609375,3.30322266 3.80712891,3.48779297 3.61669922,3.63427734 C3.42626953,3.78076172 3.22265625,3.89794922 3.00585938,3.98583984 L4.82958984,6.82910156 L3.63867188,6.82910156 L2.08740234,4.25390625 L1.0546875,4.25390625 L1.0546875,6.82910156 L0,6.82910156 L0,0.404296875 L1.80615234,0.404296875 Z M1.73583984,1.28320312 L1.0546875,1.28320312 L1.0546875,3.38378906 L1.78417969,3.38378906 C2.2734375,3.38378906 2.62866211,3.29296875 2.84985352,3.11132812 C3.07104492,2.9296875 3.18164062,2.66162109 3.18164062,2.30712891 C3.18164062,1.93505859 3.0637207,1.67138672 2.82788086,1.51611328 C2.59204102,1.36083984 2.22802734,1.28320312 1.73583984,1.28320312 Z" id="Shape"></path>
                <polygon id="Path" points="9.38671875 6.82910156 5.74804688 6.82910156 5.74804688 0.404296875 9.38671875 0.404296875 9.38671875 1.29199219 6.80273438 1.29199219 6.80273438 3.03662109 9.22412109 3.03662109 9.22412109 3.91992188 6.80273438 3.91992188 6.80273438 5.93701172 9.38671875 5.93701172"></polygon>
                <path d="M15.534668,0.404296875 L13.2890625,6.82910156 L12.1728516,6.82910156 L9.92724609,0.404296875 L11.0083008,0.404296875 L12.3618164,4.4296875 C12.402832,4.546875 12.4475098,4.68896484 12.4958496,4.85595703 C12.5441895,5.02294922 12.5895996,5.19140625 12.6320801,5.36132812 C12.6745605,5.53125 12.7075195,5.68212891 12.730957,5.81396484 C12.7543945,5.68212891 12.7873535,5.53125 12.829834,5.36132812 C12.8723145,5.19140625 12.9169922,5.02294922 12.9638672,4.85595703 C13.0107422,4.68896484 13.0546875,4.54541016 13.0957031,4.42529297 L14.4536133,0.404296875 L15.534668,0.404296875 Z" id="Path"></path>
                <polygon id="Path" points="20.0170898 6.82910156 16.378418 6.82910156 16.378418 0.404296875 20.0170898 0.404296875 20.0170898 1.29199219 17.4331055 1.29199219 17.4331055 3.03662109 19.8544922 3.03662109 19.8544922 3.91992188 17.4331055 3.91992188 17.4331055 5.93701172 20.0170898 5.93701172"></polygon>
                <path d="M26.7626953,6.82910156 L25.4663086,6.82910156 L22.3198242,1.70068359 L22.2802734,1.70068359 C22.2919922,1.87353516 22.3029785,2.05664062 22.3132324,2.25 C22.3234863,2.44335938 22.3322754,2.64257812 22.3395996,2.84765625 C22.3469238,3.05273438 22.3535156,3.26074219 22.359375,3.47167969 L22.359375,6.82910156 L21.4013672,6.82910156 L21.4013672,0.404296875 L22.6889648,0.404296875 L25.8310547,5.49755859 L25.8618164,5.49755859 C25.855957,5.34814453 25.8486328,5.17675781 25.8398438,4.98339844 C25.8310547,4.79003906 25.822998,4.59008789 25.8156738,4.38354492 C25.8083496,4.17700195 25.8032227,3.97705078 25.800293,3.78369141 L25.800293,0.404296875 L26.7626953,0.404296875 L26.7626953,6.82910156 Z" id="Path"></path>
                <path d="M33.4951172,0.404296875 L33.4951172,4.56152344 C33.4951172,5.00976562 33.4006348,5.41113281 33.2116699,5.765625 C33.0227051,6.12011719 32.737793,6.40063477 32.3569336,6.60717773 C31.9760742,6.8137207 31.4970703,6.91699219 30.9199219,6.91699219 C30.0966797,6.91699219 29.470459,6.70092773 29.0412598,6.26879883 C28.6120605,5.83666992 28.3974609,5.26171875 28.3974609,4.54394531 L28.3974609,0.404296875 L29.4521484,0.404296875 L29.4521484,4.45166016 C29.4521484,4.98779297 29.578125,5.38330078 29.8300781,5.63818359 C30.0820312,5.89306641 30.4584961,6.02050781 30.9594727,6.02050781 C31.3051758,6.02050781 31.5871582,5.9597168 31.8054199,5.83813477 C32.0236816,5.71655273 32.1848145,5.5378418 32.2888184,5.30200195 C32.3928223,5.06616211 32.4448242,4.78125 32.4448242,4.44726562 L32.4448242,0.404296875 L33.4951172,0.404296875 Z" id="Path"></path>
                <polygon id="Path" points="38.7729492 6.82910156 35.1342773 6.82910156 35.1342773 0.404296875 38.7729492 0.404296875 38.7729492 1.29199219 36.1889648 1.29199219 36.1889648 3.03662109 38.6103516 3.03662109 38.6103516 3.91992188 36.1889648 3.91992188 36.1889648 5.93701172 38.7729492 5.93701172"></polygon>
                <polygon id="Path" points="43.734375 0 44.5209961 0 44.5209961 8.93847656 43.734375 8.93847656"></polygon>
                <polygon id="Path" points="53.4243164 6.82910156 49.7856445 6.82910156 49.7856445 0.404296875 53.4243164 0.404296875 53.4243164 1.29199219 50.840332 1.29199219 50.840332 3.03662109 53.2617188 3.03662109 53.2617188 3.91992188 50.840332 3.91992188 50.840332 5.93701172 53.4243164 5.93701172"></polygon>
                <path d="M57.5463867,1.20849609 C57.2387695,1.20849609 56.9641113,1.26416016 56.7224121,1.37548828 C56.4807129,1.48681641 56.2763672,1.6472168 56.109375,1.85668945 C55.9423828,2.06616211 55.8149414,2.31958008 55.7270508,2.61694336 C55.6391602,2.91430664 55.5952148,3.24902344 55.5952148,3.62109375 C55.5952148,4.11914062 55.6655273,4.54760742 55.8061523,4.90649414 C55.9467773,5.26538086 56.1606445,5.54077148 56.4477539,5.73266602 C56.7348633,5.92456055 57.0981445,6.02050781 57.5375977,6.02050781 C57.8100586,6.02050781 58.0751953,5.99414062 58.3330078,5.94140625 C58.5908203,5.88867188 58.8574219,5.81689453 59.1328125,5.72607422 L59.1328125,6.62255859 C58.8720703,6.72509766 58.6083984,6.79980469 58.3417969,6.84667969 C58.0751953,6.89355469 57.7675781,6.91699219 57.4189453,6.91699219 C56.7626953,6.91699219 56.2185059,6.78076172 55.786377,6.50830078 C55.354248,6.23583984 55.0319824,5.85205078 54.8195801,5.35693359 C54.6071777,4.86181641 54.5009766,4.28173828 54.5009766,3.61669922 C54.5009766,3.13037109 54.5683594,2.68505859 54.703125,2.28076172 C54.8378906,1.87646484 55.0341797,1.52709961 55.2919922,1.23266602 C55.5498047,0.938232422 55.8684082,0.711181641 56.2478027,0.551513672 C56.6271973,0.391845703 57.0615234,0.312011719 57.5507812,0.312011719 C57.8730469,0.312011719 58.1901855,0.347900391 58.5021973,0.419677734 C58.814209,0.491455078 59.1035156,0.593261719 59.3701172,0.725097656 L59.0009766,1.59521484 C58.7783203,1.48974609 58.5454102,1.39892578 58.3022461,1.32275391 C58.059082,1.24658203 57.8071289,1.20849609 57.5463867,1.20849609 Z" id="Path"></path>
                <path d="M62.3803711,0.404296875 C63.2094727,0.404296875 63.8144531,0.57421875 64.1953125,0.9140625 C64.5761719,1.25390625 64.7666016,1.72998047 64.7666016,2.34228516 C64.7666016,2.62060547 64.7233887,2.88500977 64.6369629,3.13549805 C64.5505371,3.38598633 64.4091797,3.60717773 64.2128906,3.79907227 C64.0166016,3.9909668 63.7580566,4.14257812 63.4372559,4.25390625 C63.1164551,4.36523438 62.7216797,4.42089844 62.2529297,4.42089844 L61.5673828,4.42089844 L61.5673828,6.82910156 L60.5126953,6.82910156 L60.5126953,0.404296875 L62.3803711,0.404296875 Z M62.3100586,1.27880859 L61.5673828,1.27880859 L61.5673828,3.54199219 L62.1430664,3.54199219 C62.4741211,3.54199219 62.7553711,3.50317383 62.9868164,3.42553711 C63.2182617,3.34790039 63.394043,3.22412109 63.5141602,3.05419922 C63.6342773,2.88427734 63.6943359,2.66015625 63.6943359,2.38183594 C63.6943359,2.00976562 63.5822754,1.73291016 63.3581543,1.55126953 C63.1340332,1.36962891 62.784668,1.27880859 62.3100586,1.27880859 Z" id="Shape"></path>
                <path d="M68.8183594,6.82910156 L66.9682617,1.46337891 L66.9287109,1.46337891 C66.9375,1.58349609 66.9477539,1.74755859 66.9594727,1.95556641 C66.9711914,2.16357422 66.9814453,2.38623047 66.9902344,2.62353516 C66.9990234,2.86083984 67.003418,3.08789062 67.003418,3.3046875 L67.003418,6.82910156 L66.0454102,6.82910156 L66.0454102,0.404296875 L67.5263672,0.404296875 L69.3061523,5.53271484 L69.3325195,5.53271484 L71.1738281,0.404296875 L72.6503906,0.404296875 L72.6503906,6.82910156 L71.644043,6.82910156 L71.644043,3.25195312 C71.644043,3.05566406 71.6477051,2.84326172 71.6550293,2.61474609 C71.6623535,2.38623047 71.6711426,2.16943359 71.6813965,1.96435547 C71.6916504,1.75927734 71.699707,1.59521484 71.7055664,1.47216797 L71.6704102,1.47216797 L69.75,6.82910156 L68.8183594,6.82910156 Z" id="Path"></path>
            </g>
            <g id="$17,062-|-1m" transform="translate(39.4727, 22.3975)" fill="#333333" fill-rule="nonzero">
                <path d="M1.90917969,8.18359375 L1.90917969,7.15820312 C1.53483073,7.15169271 1.17757161,7.11914062 0.837402344,7.06054688 C0.497233073,7.00195312 0.219726562,6.92545573 0.0048828125,6.83105469 L0.0048828125,6.04003906 C0.229492188,6.14420573 0.517578125,6.23535156 0.869140625,6.31347656 C1.22070312,6.39160156 1.56738281,6.43391927 1.90917969,6.44042969 L1.90917969,4.29199219 C1.47949219,4.17154948 1.12386068,4.03401693 0.842285156,3.87939453 C0.560709635,3.72477214 0.349934896,3.53515625 0.209960938,3.31054688 C0.0699869792,3.0859375 0,2.8141276 0,2.49511719 C0,2.16308594 0.0789388021,1.87906901 0.236816406,1.64306641 C0.39469401,1.4070638 0.616861979,1.22233073 0.903320312,1.08886719 C1.18977865,0.955403646 1.5250651,0.87890625 1.90917969,0.859375 L1.90917969,0.0146484375 L2.50488281,0.0146484375 L2.50488281,0.849609375 C2.8531901,0.859375 3.17057292,0.897623698 3.45703125,0.964355469 C3.74348958,1.03108724 4.00878906,1.11653646 4.25292969,1.22070312 L3.99902344,1.89941406 C3.77766927,1.81152344 3.53841146,1.73665365 3.28125,1.67480469 C3.02408854,1.61295573 2.76529948,1.57063802 2.50488281,1.54785156 L2.50488281,3.68164062 C2.94108073,3.80859375 3.30647786,3.9436849 3.60107422,4.08691406 C3.89567057,4.23014323 4.11783854,4.40755208 4.26757812,4.61914062 C4.41731771,4.83072917 4.4921875,5.10416667 4.4921875,5.43945312 C4.4921875,5.91471354 4.31803385,6.29801432 3.96972656,6.58935547 C3.62141927,6.88069661 3.13313802,7.05729167 2.50488281,7.11914062 L2.50488281,8.18359375 L1.90917969,8.18359375 Z M2.50488281,6.39648438 C2.90527344,6.35742188 3.2039388,6.26057943 3.40087891,6.10595703 C3.59781901,5.95133464 3.69628906,5.74707031 3.69628906,5.49316406 C3.69628906,5.3108724 3.65804036,5.16113281 3.58154297,5.04394531 C3.50504557,4.92675781 3.38053385,4.82503255 3.20800781,4.73876953 C3.03548177,4.65250651 2.80110677,4.5703125 2.50488281,4.4921875 L2.50488281,6.39648438 Z M1.90917969,3.4765625 L1.90917969,1.56738281 C1.66503906,1.58365885 1.45996094,1.62923177 1.29394531,1.70410156 C1.12792969,1.77897135 1.00341797,1.8766276 0.920410156,1.99707031 C0.837402344,2.11751302 0.795898438,2.26074219 0.795898438,2.42675781 C0.795898438,2.6188151 0.832519531,2.77913411 0.905761719,2.90771484 C0.979003906,3.03629557 1.09781901,3.14534505 1.26220703,3.23486328 C1.42659505,3.32438151 1.6422526,3.40494792 1.90917969,3.4765625 Z" id="Shape"></path>
                <path d="M8.60839844,7.60253906 L7.81738281,7.60253906 L7.81738281,2.54394531 C7.81738281,2.35188802 7.81819661,2.1866862 7.81982422,2.04833984 C7.82145182,1.90999349 7.82470703,1.78304036 7.82958984,1.66748047 C7.83447266,1.55192057 7.84179688,1.43391927 7.8515625,1.31347656 C7.75065104,1.41764323 7.65625,1.50634766 7.56835938,1.57958984 C7.48046875,1.65283203 7.37141927,1.74316406 7.24121094,1.85058594 L6.42578125,2.50488281 L6.00097656,1.953125 L7.93457031,0.463867188 L8.60839844,0.463867188 L8.60839844,7.60253906 Z" id="Path"></path>
                <polygon id="Path" points="12.2314453 7.60253906 15.1611328 1.20605469 11.2695312 1.20605469 11.2695312 0.463867188 16.0302734 0.463867188 16.0302734 1.08886719 13.1201172 7.60253906"></polygon>
                <path d="M18.3154297,6.44042969 L18.3789062,6.55273438 C18.3203125,6.79036458 18.2462565,7.04427083 18.1567383,7.31445312 C18.0672201,7.58463542 17.9695638,7.85563151 17.8637695,8.12744141 C17.7579753,8.3992513 17.6513672,8.65397135 17.5439453,8.89160156 L16.9384766,8.89160156 C17.0068359,8.6311849 17.0735677,8.35693359 17.1386719,8.06884766 C17.203776,7.78076172 17.2631836,7.49593099 17.3168945,7.21435547 C17.3706055,6.93277995 17.413737,6.67480469 17.4462891,6.44042969 L18.3154297,6.44042969 Z" id="Path"></path>
                <path d="M24.3310547,4.0234375 C24.3310547,4.60286458 24.2871094,5.12044271 24.1992188,5.57617188 C24.1113281,6.03190104 23.9729818,6.41764323 23.7841797,6.73339844 C23.5953776,7.04915365 23.351237,7.28922526 23.0517578,7.45361328 C22.7522786,7.6180013 22.3925781,7.70019531 21.9726562,7.70019531 C21.4420573,7.70019531 21.003418,7.55533854 20.6567383,7.265625 C20.3100586,6.97591146 20.0512695,6.55680339 19.8803711,6.00830078 C19.7094727,5.45979818 19.6240234,4.79817708 19.6240234,4.0234375 C19.6240234,3.26171875 19.7013346,2.60660807 19.855957,2.05810547 C20.0105794,1.50960286 20.2604167,1.08805339 20.6054688,0.793457031 C20.9505208,0.498860677 21.40625,0.3515625 21.9726562,0.3515625 C22.5097656,0.3515625 22.952474,0.497233073 23.3007812,0.788574219 C23.6490885,1.07991536 23.9078776,1.49983724 24.0771484,2.04833984 C24.2464193,2.59684245 24.3310547,3.25520833 24.3310547,4.0234375 Z M20.4394531,4.0234375 C20.4394531,4.6875 20.4899089,5.24088542 20.5908203,5.68359375 C20.6917318,6.12630208 20.855306,6.45751953 21.081543,6.67724609 C21.3077799,6.89697266 21.6048177,7.00683594 21.9726562,7.00683594 C22.3404948,7.00683594 22.6375326,6.89778646 22.8637695,6.6796875 C23.0900065,6.46158854 23.2543945,6.1311849 23.3569336,5.68847656 C23.4594727,5.24576823 23.5107422,4.69075521 23.5107422,4.0234375 C23.5107422,3.36914062 23.4602865,2.82145182 23.359375,2.38037109 C23.2584635,1.93929036 23.0957031,1.60725911 22.8710938,1.38427734 C22.6464844,1.16129557 22.3470052,1.04980469 21.9726562,1.04980469 C21.5983073,1.04980469 21.2988281,1.16129557 21.0742188,1.38427734 C20.8496094,1.60725911 20.6876628,1.93929036 20.5883789,2.38037109 C20.4890951,2.82145182 20.4394531,3.36914062 20.4394531,4.0234375 Z" id="Shape"></path>
                <path d="M25.4052734,4.55078125 C25.4052734,4.12109375 25.4353841,3.70117188 25.4956055,3.29101562 C25.5558268,2.88085938 25.6575521,2.4991862 25.8007812,2.14599609 C25.9440104,1.79280599 26.1393229,1.4827474 26.3867188,1.21582031 C26.6341146,0.948893229 26.9425456,0.739746094 27.3120117,0.588378906 C27.6814779,0.437011719 28.125,0.361328125 28.6425781,0.361328125 C28.7890625,0.361328125 28.9469401,0.368652344 29.1162109,0.383300781 C29.2854818,0.397949219 29.4254557,0.421549479 29.5361328,0.454101562 L29.5361328,1.15234375 C29.4156901,1.11002604 29.2781576,1.07910156 29.1235352,1.05957031 C28.9689128,1.04003906 28.8134766,1.03027344 28.6572266,1.03027344 C28.0517578,1.03027344 27.5756836,1.16210938 27.2290039,1.42578125 C26.8823242,1.68945312 26.632487,2.04671224 26.4794922,2.49755859 C26.3264974,2.94840495 26.2386068,3.45540365 26.2158203,4.01855469 L26.2695312,4.01855469 C26.3704427,3.85579427 26.4990234,3.70849609 26.6552734,3.57666016 C26.8115234,3.44482422 27.0011393,3.33984375 27.2241211,3.26171875 C27.4471029,3.18359375 27.7067057,3.14453125 28.0029297,3.14453125 C28.4195964,3.14453125 28.7833659,3.22916667 29.0942383,3.3984375 C29.4051107,3.56770833 29.6459961,3.81347656 29.8168945,4.13574219 C29.987793,4.45800781 30.0732422,4.84863281 30.0732422,5.30761719 C30.0732422,5.79915365 29.9820964,6.22395833 29.7998047,6.58203125 C29.617513,6.94010417 29.3579102,7.21598307 29.0209961,7.40966797 C28.684082,7.60335286 28.2828776,7.70019531 27.8173828,7.70019531 C27.4690755,7.70019531 27.1484375,7.63346354 26.8554688,7.5 C26.5625,7.36653646 26.3077799,7.16796875 26.0913086,6.90429688 C25.8748372,6.640625 25.7063802,6.31266276 25.5859375,5.92041016 C25.4654948,5.52815755 25.4052734,5.07161458 25.4052734,4.55078125 Z M27.8076172,7.01660156 C28.2503255,7.01660156 28.6051432,6.875 28.8720703,6.59179688 C29.1389974,6.30859375 29.2724609,5.88053385 29.2724609,5.30761719 C29.2724609,4.83886719 29.1536458,4.46777344 28.9160156,4.19433594 C28.6783854,3.92089844 28.3203125,3.78417969 27.8417969,3.78417969 C27.516276,3.78417969 27.2330729,3.85172526 26.9921875,3.98681641 C26.7513021,4.12190755 26.5641276,4.29199219 26.4306641,4.49707031 C26.2972005,4.70214844 26.2304688,4.91048177 26.2304688,5.12207031 C26.2304688,5.33691406 26.262207,5.55501302 26.3256836,5.77636719 C26.3891602,5.99772135 26.4860026,6.20279948 26.6162109,6.39160156 C26.7464193,6.58040365 26.9108073,6.73177083 27.109375,6.84570312 C27.3079427,6.95963542 27.5406901,7.01660156 27.8076172,7.01660156 Z" id="Shape"></path>
                <path d="M35.7275391,7.60253906 L31.0498047,7.60253906 L31.0498047,6.92382812 L32.9589844,4.98535156 C33.3138021,4.62727865 33.6124674,4.30826823 33.8549805,4.02832031 C34.0974935,3.7483724 34.2822266,3.47249349 34.4091797,3.20068359 C34.5361328,2.9288737 34.5996094,2.63020833 34.5996094,2.3046875 C34.5996094,1.90104167 34.4799805,1.59261068 34.2407227,1.37939453 C34.0014648,1.16617839 33.6865234,1.05957031 33.2958984,1.05957031 C32.9541016,1.05957031 32.6513672,1.11816406 32.3876953,1.23535156 C32.1240234,1.35253906 31.8538411,1.51855469 31.5771484,1.73339844 L31.1425781,1.18652344 C31.3313802,1.02701823 31.5372721,0.885416667 31.7602539,0.76171875 C31.9832357,0.638020833 32.2224935,0.540364583 32.4780273,0.46875 C32.7335612,0.397135417 33.0061849,0.361328125 33.2958984,0.361328125 C33.7353516,0.361328125 34.1145833,0.437825521 34.4335938,0.590820312 C34.7526042,0.743815104 34.9991862,0.961914062 35.1733398,1.24511719 C35.3474935,1.52832031 35.4345703,1.86523438 35.4345703,2.25585938 C35.4345703,2.63346354 35.3597005,2.98421224 35.2099609,3.30810547 C35.0602214,3.6319987 34.8502604,3.95263672 34.5800781,4.27001953 C34.3098958,4.58740234 33.9941406,4.9235026 33.6328125,5.27832031 L32.0800781,6.82617188 L32.0800781,6.86035156 L35.7275391,6.86035156 L35.7275391,7.60253906 Z" id="Path"></path>
                <polygon id="Path" points="41.2744141 0 41.953125 0 41.953125 10.0244141 41.2744141 10.0244141"></polygon>
                <path d="M50.4736328,7.60253906 L49.6826172,7.60253906 L49.6826172,2.54394531 C49.6826172,2.35188802 49.683431,2.1866862 49.6850586,2.04833984 C49.6866862,1.90999349 49.6899414,1.78304036 49.6948242,1.66748047 C49.699707,1.55192057 49.7070312,1.43391927 49.7167969,1.31347656 C49.6158854,1.41764323 49.5214844,1.50634766 49.4335938,1.57958984 C49.3457031,1.65283203 49.2366536,1.74316406 49.1064453,1.85058594 L48.2910156,2.50488281 L47.8662109,1.953125 L49.7998047,0.463867188 L50.4736328,0.463867188 L50.4736328,7.60253906 Z" id="Path"></path>
                <path d="M56.796875,7.60253906 L54.3994141,1.28417969 L54.3603516,1.28417969 C54.3733724,1.41764323 54.3847656,1.58040365 54.3945312,1.77246094 C54.4042969,1.96451823 54.4124349,2.17366536 54.4189453,2.39990234 C54.4254557,2.62613932 54.4287109,2.85644531 54.4287109,3.09082031 L54.4287109,7.60253906 L53.6572266,7.60253906 L53.6572266,0.463867188 L54.8876953,0.463867188 L57.1484375,6.40136719 L57.1826172,6.40136719 L59.4775391,0.463867188 L60.6982422,0.463867188 L60.6982422,7.60253906 L59.8779297,7.60253906 L59.8779297,3.03222656 C59.8779297,2.82063802 59.8811849,2.60823568 59.8876953,2.39501953 C59.8942057,2.18180339 59.9023438,1.97998047 59.9121094,1.78955078 C59.921875,1.59912109 59.9316406,1.43391927 59.9414062,1.29394531 L59.9023438,1.29394531 L57.4755859,7.60253906 L56.796875,7.60253906 Z" id="Path"></path>
            </g>
        </g>
    </g>
</svg>