<?xml version="1.0" encoding="UTF-8"?>
<!-- Generated by Pixelmator Pro 3.6.17 -->
<svg width="108" height="24" viewBox="0 0 108 24" xmlns="http://www.w3.org/2000/svg">
    <g id="Page-1">
        <g id="Unique">
            <path id="Oval-Copy" fill="#2a909a" fill-rule="evenodd" stroke="none" d="M 22 11 C 22 17.075132 17.075132 22 11 22 C 4.924868 22 0 17.075132 0 11 C -0 4.924868 4.924868 0 11 0 C 17.075132 0 22 4.924868 22 11 Z"/>
            <g id="person-walking">
                <path id="Shape" fill="#ffffff" stroke="none" d="M 13.25 5.625 C 13.25 6.246328 12.746094 6.75 12.125 6.75 C 11.503906 6.75 11 6.246328 11 5.625 C 11 5.003672 11.503906 4.5 12.125 4.5 C 12.746094 4.5 13.25 5.003672 13.25 5.625 Z M 10.010938 8.873438 L 9.996876 8.880468 L 9.500937 9.105469 C 9.073907 9.3 8.746719 9.663281 8.598359 10.108594 L 8.533672 10.303125 C 8.435469 10.598438 8.116953 10.736719 7.82211 10.659374 C 7.5275 10.560938 7.368148 10.221094 7.466375 9.946875 L 7.531015 9.752344 C 7.778515 9.011719 8.323438 8.404688 9.035469 8.081249 L 9.532344 7.856251 C 10.048437 7.621876 10.608594 7.5 11.175781 7.5 C 12.321875 7.5 13.332031 8.247656 13.669531 9.342188 L 13.934376 10.2 L 14.564844 10.851563 C 14.803905 11.071875 14.803905 11.428125 14.564844 11.627344 C 14.365625 11.866405 14.009375 11.866405 13.789063 11.627344 L 13.104688 10.964062 C 12.996875 10.856251 12.917188 10.722656 12.872656 10.577343 L 12.642969 9.829687 L 11.95625 12.028126 L 13.130468 12.982031 C 13.292187 13.113281 13.404688 13.296093 13.451563 13.478907 L 13.985937 15.810938 C 14.05625 16.113281 13.866405 16.415625 13.564062 16.485937 C 13.261719 16.556252 12.959375 16.366405 12.889063 16.064062 L 12.371094 13.814062 L 9.921875 11.826563 C 9.499063 11.482031 9.332656 10.910156 9.50539 10.392187 L 10.010938 8.873438 L 10.010938 8.873438 Z M 11.278906 8.629688 L 10.573438 10.748438 C 10.547656 10.823437 10.571094 10.903126 10.632031 10.952343 L 11.016406 11.264063 L 11.775782 8.831249 C 11.782812 8.807812 11.792188 8.784374 11.801562 8.763281 C 11.639844 8.688282 11.464063 8.641407 11.278906 8.629688 Z M 9.020703 13.933594 L 9.586485 12.520313 L 10.500781 13.263281 L 10.050781 14.388281 C 10.003906 14.505468 9.933594 14.613281 9.842188 14.702344 L 8.210234 16.314844 C 7.990625 16.553905 7.634375 16.553905 7.414742 16.314844 C 7.195086 16.115625 7.195086 15.759375 7.414742 15.539063 L 9.020703 13.933594 Z"/>
            </g>
            <g id="UNIQUE-VISITORS">
                <path id="Path" fill="#333333" stroke="none" d="M 37.388657 1.575174 L 37.388657 5.732401 C 37.388657 6.180643 37.294174 6.58201 37.105209 6.936502 C 36.916245 7.290995 36.631332 7.571512 36.250473 7.778055 C 35.869614 7.984598 35.39061 8.08787 34.813461 8.08787 C 33.990219 8.08787 33.363998 7.871805 32.934799 7.439676 C 32.5056 7.007547 32.291 6.432596 32.291 5.714823 L 32.291 1.575174 L 33.345688 1.575174 L 33.345688 5.622538 C 33.345688 6.15867 33.471664 6.554178 33.723618 6.809061 C 33.975571 7.063944 34.352036 7.191385 34.853012 7.191385 C 35.198715 7.191385 35.480698 7.130594 35.698959 7.009012 C 35.917221 6.88743 36.078354 6.708719 36.182358 6.472879 C 36.286362 6.23704 36.338364 5.952127 36.338364 5.618143 L 36.338364 1.575174 L 37.388657 1.575174 Z"/>
                <path id="path1" fill="#333333" stroke="none" d="M 44.389145 7.999979 L 43.092758 7.999979 L 39.946274 2.871561 L 39.906723 2.871561 C 39.918442 3.044413 39.929428 3.227518 39.939682 3.420877 C 39.949936 3.614237 39.958725 3.813456 39.966049 4.018534 C 39.973373 4.223612 39.979965 4.43162 39.985825 4.642557 L 39.985825 7.999979 L 39.027817 7.999979 L 39.027817 1.575174 L 40.315414 1.575174 L 43.457504 6.668436 L 43.488266 6.668436 C 43.482407 6.519022 43.475082 6.347635 43.466293 6.154276 C 43.457504 5.960917 43.449448 5.760965 43.442123 5.554422 C 43.434799 5.347879 43.429672 5.147928 43.426743 4.954569 L 43.426743 1.575174 L 44.389145 1.575174 L 44.389145 7.999979 Z"/>
                <path id="path2" fill="#333333" stroke="none" d="M 46.076645 7.999979 L 46.076645 1.575174 L 47.131332 1.575174 L 47.131332 7.999979 Z"/>
                <path id="path3" fill="#333333" stroke="none" d="M 54.527328 4.778788 C 54.527328 5.279764 54.462875 5.736795 54.333969 6.149881 C 54.205063 6.562967 54.011703 6.915995 53.753891 7.208963 C 53.496078 7.501932 53.170883 7.723124 52.778305 7.872538 L 54.307602 9.529276 L 52.901352 9.529276 L 51.692856 8.083475 C 51.663559 8.083475 51.634995 8.084208 51.607162 8.085672 C 51.57933 8.087137 51.552231 8.08787 51.525864 8.08787 C 51.013168 8.08787 50.568588 8.008768 50.192123 7.850565 C 49.815659 7.692362 49.503647 7.466776 49.256088 7.173807 C 49.00853 6.880838 48.823227 6.530741 48.70018 6.123514 C 48.577133 5.716288 48.51561 5.265116 48.51561 4.769999 C 48.51561 4.107889 48.624741 3.530008 48.843002 3.036356 C 49.061264 2.542704 49.393784 2.158915 49.840561 1.884989 C 50.287338 1.611063 50.852036 1.4741 51.534653 1.4741 C 52.202621 1.4741 52.757797 1.610331 53.20018 1.882792 C 53.642563 2.155252 53.97435 2.538309 54.195541 3.031961 C 54.416733 3.525614 54.527328 4.107889 54.527328 4.778788 Z M 49.623032 4.778788 C 49.623032 5.273905 49.690414 5.702372 49.82518 6.064188 C 49.959946 6.426004 50.167221 6.704325 50.447006 6.899149 C 50.726791 7.093973 51.086411 7.191385 51.525864 7.191385 C 51.968246 7.191385 52.328598 7.093973 52.606918 6.899149 C 52.885239 6.704325 53.090317 6.426004 53.222153 6.064188 C 53.353989 5.702372 53.419907 5.273905 53.419907 4.778788 C 53.419907 4.025858 53.26976 3.436258 52.969467 3.009989 C 52.669174 2.583719 52.190903 2.370584 51.534653 2.370584 C 51.0952 2.370584 50.734116 2.467264 50.451401 2.660624 C 50.168686 2.853983 49.959946 3.130106 49.82518 3.488993 C 49.690414 3.847879 49.623032 4.277811 49.623032 4.778788 Z"/>
                <path id="path4" fill="#333333" stroke="none" d="M 60.952133 1.575174 L 60.952133 5.732401 C 60.952133 6.180643 60.857651 6.58201 60.668686 6.936502 C 60.479721 7.290995 60.194809 7.571512 59.81395 7.778055 C 59.43309 7.984598 58.954086 8.08787 58.376938 8.08787 C 57.553696 8.08787 56.927475 7.871805 56.498276 7.439676 C 56.069077 7.007547 55.854477 6.432596 55.854477 5.714823 L 55.854477 1.575174 L 56.909164 1.575174 L 56.909164 5.622538 C 56.909164 6.15867 57.035141 6.554178 57.287094 6.809061 C 57.539047 7.063944 57.915512 7.191385 58.416489 7.191385 C 58.762192 7.191385 59.044174 7.130594 59.262436 7.009012 C 59.480698 6.88743 59.64183 6.708719 59.745834 6.472879 C 59.849838 6.23704 59.90184 5.952127 59.90184 5.618143 L 59.90184 1.575174 L 60.952133 1.575174 Z"/>
                <path id="path5" fill="#333333" stroke="none" d="M 66.229965 7.999979 L 62.591293 7.999979 L 62.591293 1.575174 L 66.229965 1.575174 L 66.229965 2.46287 L 63.645981 2.46287 L 63.645981 4.207499 L 66.067368 4.207499 L 66.067368 5.090799 L 63.645981 5.090799 L 63.645981 7.107889 L 66.229965 7.107889 Z"/>
                <path id="path6" fill="#333333" stroke="none" d="M 74.715805 1.575174 L 72.4702 7.999979 L 71.353989 7.999979 L 69.108383 1.575174 L 70.189438 1.575174 L 71.542953 5.600565 C 71.583969 5.717752 71.628647 5.859842 71.676987 6.026834 C 71.725327 6.193827 71.770737 6.362284 71.813217 6.532206 C 71.855698 6.702127 71.888657 6.853006 71.912094 6.984842 C 71.935532 6.853006 71.968491 6.702127 72.010971 6.532206 C 72.053452 6.362284 72.098129 6.193827 72.145004 6.026834 C 72.191879 5.859842 72.235825 5.716288 72.27684 5.59617 L 73.63475 1.575174 L 74.715805 1.575174 Z"/>
                <path id="path7" fill="#333333" stroke="none" d="M 75.559555 7.999979 L 75.559555 1.575174 L 76.614243 1.575174 L 76.614243 7.999979 Z"/>
                <path id="path8" fill="#333333" stroke="none" d="M 82.015121 6.250956 C 82.015121 6.631815 81.922104 6.95994 81.736069 7.235331 C 81.550034 7.510721 81.283432 7.721659 80.936264 7.868143 C 80.589096 8.014627 80.175278 8.08787 79.694809 8.08787 C 79.460434 8.08787 79.236313 8.074686 79.022446 8.048319 C 78.808578 8.021952 78.607162 7.983133 78.418198 7.931864 C 78.229233 7.880594 78.057114 7.818338 77.90184 7.745096 L 77.90184 6.751932 C 78.162582 6.86619 78.454086 6.969461 78.776352 7.061747 C 79.098618 7.154032 79.426743 7.200174 79.760727 7.200174 C 80.033188 7.200174 80.259506 7.164286 80.439682 7.092508 C 80.619858 7.020731 80.753891 6.918192 80.841782 6.784891 C 80.929672 6.65159 80.973618 6.495584 80.973618 6.316874 C 80.973618 6.126444 80.922348 5.965311 80.819809 5.833475 C 80.71727 5.701639 80.562729 5.58079 80.356186 5.470926 C 80.149643 5.361063 79.891098 5.243143 79.580551 5.117167 C 79.369614 5.032206 79.168198 4.935526 78.976303 4.827127 C 78.784409 4.718729 78.613754 4.591288 78.46434 4.444803 C 78.314926 4.298319 78.197006 4.124735 78.11058 3.924051 C 78.024155 3.723368 77.980942 3.486795 77.980942 3.214334 C 77.980942 2.851053 78.0681 2.540506 78.242416 2.282694 C 78.416733 2.024881 78.662827 1.827127 78.980698 1.689432 C 79.298569 1.551737 79.669907 1.482889 80.094711 1.482889 C 80.431625 1.482889 80.748764 1.518045 81.046127 1.588358 C 81.343491 1.65867 81.635727 1.75828 81.922836 1.887186 L 81.588852 2.735331 C 81.32518 2.626932 81.069565 2.540506 80.822006 2.476053 C 80.574448 2.4116 80.321762 2.379374 80.06395 2.379374 C 79.841293 2.379374 79.652328 2.413065 79.497055 2.480448 C 79.341782 2.547831 79.223862 2.642313 79.143295 2.763895 C 79.062729 2.885477 79.022446 3.029764 79.022446 3.196756 C 79.022446 3.384256 79.068588 3.541727 79.160873 3.669168 C 79.253159 3.79661 79.396713 3.913065 79.591537 4.018534 C 79.786362 4.124002 80.037582 4.24119 80.3452 4.370096 C 80.699692 4.516581 81.000717 4.670389 81.248276 4.831522 C 81.495834 4.992655 81.685532 5.185282 81.817368 5.409403 C 81.949203 5.633524 82.015121 5.914042 82.015121 6.250956 Z"/>
                <path id="path9" fill="#333333" stroke="none" d="M 83.254379 7.999979 L 83.254379 1.575174 L 84.309067 1.575174 L 84.309067 7.999979 Z"/>
                <path id="path10" fill="#333333" stroke="none" d="M 88.228989 7.999979 L 87.169907 7.999979 L 87.169907 2.471659 L 85.289047 2.471659 L 85.289047 1.575174 L 90.105453 1.575174 L 90.105453 2.471659 L 88.228989 2.471659 Z"/>
                <path id="path11" fill="#333333" stroke="none" d="M 96.789536 4.778788 C 96.789536 5.273905 96.72728 5.724344 96.602768 6.130106 C 96.478256 6.535868 96.291489 6.884501 96.042465 7.176004 C 95.793442 7.467508 95.48143 7.692362 95.10643 7.850565 C 94.73143 8.008768 94.291977 8.08787 93.788071 8.08787 C 93.275375 8.08787 92.830795 8.008768 92.45433 7.850565 C 92.077866 7.692362 91.765854 7.466776 91.518295 7.173807 C 91.270737 6.880838 91.085434 6.530741 90.962387 6.123514 C 90.83934 5.716288 90.777817 5.265116 90.777817 4.769999 C 90.777817 4.107889 90.886948 3.530008 91.105209 3.036356 C 91.323471 2.542704 91.655991 2.158915 92.102768 1.884989 C 92.549545 1.611063 93.114243 1.4741 93.79686 1.4741 C 94.464828 1.4741 95.020004 1.610331 95.462387 1.882792 C 95.90477 2.155252 96.236557 2.538309 96.457748 3.031961 C 96.67894 3.525614 96.789536 4.107889 96.789536 4.778788 Z M 91.885239 4.778788 C 91.885239 5.273905 91.952621 5.702372 92.087387 6.064188 C 92.222153 6.426004 92.429428 6.704325 92.709213 6.899149 C 92.988998 7.093973 93.348618 7.191385 93.788071 7.191385 C 94.230453 7.191385 94.590805 7.093973 94.869125 6.899149 C 95.147446 6.704325 95.352524 6.426004 95.48436 6.064188 C 95.616196 5.702372 95.682114 5.273905 95.682114 4.778788 C 95.682114 4.025858 95.531967 3.436258 95.231674 3.009989 C 94.931381 2.583719 94.45311 2.370584 93.79686 2.370584 C 93.357407 2.370584 92.996323 2.467264 92.713608 2.660624 C 92.430893 2.853983 92.222153 3.130106 92.087387 3.488993 C 91.952621 3.847879 91.885239 4.277811 91.885239 4.778788 Z"/>
                <path id="path12" fill="#333333" stroke="none" d="M 99.975571 1.575174 C 100.529282 1.575174 100.987045 1.642557 101.348862 1.777323 C 101.710678 1.912088 101.980209 2.117167 102.157455 2.392557 C 102.334702 2.667948 102.423325 3.018045 102.423325 3.44285 C 102.423325 3.759256 102.364731 4.028788 102.247543 4.251444 C 102.130356 4.4741 101.976547 4.65867 101.786118 4.805155 C 101.595688 4.951639 101.392075 5.068827 101.175278 5.156717 L 102.999008 7.999979 L 101.80809 7.999979 L 100.256821 5.424784 L 99.224106 5.424784 L 99.224106 7.999979 L 98.169418 7.999979 L 98.169418 1.575174 L 99.975571 1.575174 Z M 99.905258 2.454081 L 99.224106 2.454081 L 99.224106 4.554667 L 99.953598 4.554667 C 100.442856 4.554667 100.79808 4.463846 101.019272 4.282206 C 101.240463 4.100565 101.351059 3.832499 101.351059 3.478006 C 101.351059 3.105936 101.233139 2.842264 100.997299 2.686991 C 100.761459 2.531717 100.397446 2.454081 99.905258 2.454081 Z"/>
                <path id="path13" fill="#333333" stroke="none" d="M 107.62645 6.250956 C 107.62645 6.631815 107.533432 6.95994 107.347397 7.235331 C 107.161362 7.510721 106.89476 7.721659 106.547592 7.868143 C 106.200424 8.014627 105.786606 8.08787 105.306137 8.08787 C 105.071762 8.08787 104.847641 8.074686 104.633774 8.048319 C 104.419907 8.021952 104.218491 7.983133 104.029526 7.931864 C 103.840561 7.880594 103.668442 7.818338 103.513168 7.745096 L 103.513168 6.751932 C 103.773911 6.86619 104.065414 6.969461 104.38768 7.061747 C 104.709946 7.154032 105.038071 7.200174 105.372055 7.200174 C 105.644516 7.200174 105.870834 7.164286 106.05101 7.092508 C 106.231186 7.020731 106.365219 6.918192 106.45311 6.784891 C 106.541 6.65159 106.584946 6.495584 106.584946 6.316874 C 106.584946 6.126444 106.533676 5.965311 106.431137 5.833475 C 106.328598 5.701639 106.174057 5.58079 105.967514 5.470926 C 105.760971 5.361063 105.502426 5.243143 105.191879 5.117167 C 104.980942 5.032206 104.779526 4.935526 104.587631 4.827127 C 104.395737 4.718729 104.225082 4.591288 104.075668 4.444803 C 103.926254 4.298319 103.808334 4.124735 103.721909 3.924051 C 103.635483 3.723368 103.59227 3.486795 103.59227 3.214334 C 103.59227 2.851053 103.679428 2.540506 103.853745 2.282694 C 104.028061 2.024881 104.274155 1.827127 104.592026 1.689432 C 104.909897 1.551737 105.281235 1.482889 105.706039 1.482889 C 106.042953 1.482889 106.360092 1.518045 106.657455 1.588358 C 106.954819 1.65867 107.247055 1.75828 107.534164 1.887186 L 107.20018 2.735331 C 106.936508 2.626932 106.680893 2.540506 106.433334 2.476053 C 106.185776 2.4116 105.93309 2.379374 105.675278 2.379374 C 105.452621 2.379374 105.263657 2.413065 105.108383 2.480448 C 104.95311 2.547831 104.83519 2.642313 104.754623 2.763895 C 104.674057 2.885477 104.633774 3.029764 104.633774 3.196756 C 104.633774 3.384256 104.679916 3.541727 104.772202 3.669168 C 104.864487 3.79661 105.008041 3.913065 105.202866 4.018534 C 105.39769 4.124002 105.648911 4.24119 105.956528 4.370096 C 106.31102 4.516581 106.612045 4.670389 106.859604 4.831522 C 107.107162 4.992655 107.29686 5.185282 107.428696 5.409403 C 107.560532 5.633524 107.62645 5.914042 107.62645 6.250956 Z"/>
            </g>
            <g id="50480">
                <path id="path14" fill="#333333" stroke="none" d="M 35.082081 22.581045 L 35.082081 21.555655 C 34.707729 21.549145 34.350471 21.516592 34.010303 21.457998 C 33.670132 21.399405 33.392628 21.322906 33.177784 21.228506 L 33.177784 20.43749 C 33.402393 20.541656 33.690479 20.632803 34.042042 20.710928 C 34.393604 20.789053 34.740284 20.831371 35.082081 20.837881 L 35.082081 18.689444 C 34.652393 18.569 34.296761 18.431469 34.015186 18.276846 C 33.733608 18.122223 33.522835 17.932608 33.382862 17.707998 C 33.242886 17.483389 33.172901 17.211578 33.172901 16.892569 C 33.172901 16.560537 33.251839 16.27652 33.409718 16.040518 C 33.567593 15.804516 33.789761 15.619782 34.076221 15.486319 C 34.362679 15.352855 34.697964 15.276358 35.082081 15.256826 L 35.082081 14.4121 L 35.677784 14.4121 L 35.677784 15.247061 C 36.026089 15.256826 36.343472 15.295075 36.629932 15.361807 C 36.916389 15.428539 37.18169 15.513988 37.425831 15.618155 L 37.171925 16.296865 C 36.950569 16.208975 36.711311 16.134106 36.454151 16.072256 C 36.196987 16.010406 35.938198 15.96809 35.677784 15.945303 L 35.677784 18.079092 C 36.113979 18.206045 36.479378 18.341137 36.773975 18.484365 C 37.068569 18.627594 37.290737 18.805004 37.440479 19.016592 C 37.590218 19.22818 37.665089 19.501617 37.665089 19.836905 C 37.665089 20.312164 37.490932 20.695465 37.142628 20.986807 C 36.794319 21.278149 36.306038 21.454742 35.677784 21.516592 L 35.677784 22.581045 L 35.082081 22.581045 Z M 35.677784 20.793936 C 36.078175 20.754873 36.376839 20.658031 36.57378 20.503408 C 36.770718 20.348785 36.86919 20.144522 36.86919 19.890615 C 36.86919 19.708324 36.83094 19.558584 36.754444 19.441397 C 36.677944 19.324209 36.553432 19.222485 36.380909 19.136221 C 36.208382 19.049957 35.974007 18.967764 35.677784 18.889639 L 35.677784 20.793936 Z M 35.082081 17.874014 L 35.082081 15.964834 C 34.83794 15.981111 34.632862 16.026684 34.466846 16.101553 C 34.300831 16.176422 34.176319 16.274078 34.093311 16.394522 C 34.010303 16.514965 33.9688 16.658194 33.9688 16.824209 C 33.9688 17.016266 34.005421 17.176586 34.078663 17.305166 C 34.151905 17.433746 34.270718 17.542797 34.435108 17.632315 C 34.599495 17.721832 34.815151 17.802399 35.082081 17.874014 Z"/>
                <path id="path15" fill="#333333" stroke="none" d="M 41.019581 17.634756 C 41.504604 17.634756 41.926155 17.716949 42.284229 17.881338 C 42.6423 18.045727 42.919807 18.28417 43.116749 18.59667 C 43.313686 18.90917 43.412159 19.288403 43.412159 19.734365 C 43.412159 20.222647 43.306362 20.643383 43.094776 20.996572 C 42.883186 21.349762 42.578823 21.621572 42.18169 21.812002 C 41.784554 22.002432 41.309292 22.097647 40.755909 22.097647 C 40.384815 22.097647 40.039761 22.065094 39.720753 21.99999 C 39.401741 21.934887 39.133186 21.837231 38.915089 21.707022 L 38.915089 20.935537 C 39.152718 21.078766 39.440804 21.192699 39.779346 21.277334 C 40.117886 21.361969 40.446663 21.404287 40.765675 21.404287 C 41.127003 21.404287 41.443569 21.346508 41.715382 21.230947 C 41.98719 21.115387 42.19878 20.939606 42.350147 20.703604 C 42.501514 20.467602 42.577198 20.170563 42.577198 19.81249 C 42.577198 19.337231 42.431526 18.970205 42.140186 18.711416 C 41.848843 18.452627 41.389046 18.323233 40.760792 18.323233 C 40.558968 18.323233 40.337612 18.339508 40.096729 18.372061 C 39.855843 18.404613 39.657276 18.44042 39.501026 18.479483 L 39.09087 18.210928 L 39.364307 14.861319 L 42.914112 14.861319 L 42.914112 15.603506 L 40.057667 15.603506 L 39.877003 17.756826 C 40.000698 17.730785 40.160206 17.70393 40.355518 17.67626 C 40.550831 17.64859 40.772182 17.634756 41.019581 17.634756 Z"/>
                <path id="path16" fill="#333333" stroke="none" d="M 49.198292 18.420889 C 49.198292 19.000317 49.154346 19.517895 49.066456 19.973623 C 48.978565 20.429352 48.840218 20.815094 48.651417 21.13085 C 48.462612 21.446606 48.218472 21.686676 47.918995 21.851065 C 47.619514 22.015453 47.259815 22.097647 46.839893 22.097647 C 46.309292 22.097647 45.870655 21.952789 45.523975 21.663076 C 45.177296 21.373363 44.918507 20.954254 44.747608 20.405752 C 44.57671 19.85725 44.491261 19.195629 44.491261 18.420889 C 44.491261 17.65917 44.568569 17.004059 44.723194 16.455557 C 44.877815 15.907055 45.127651 15.485505 45.472706 15.190908 C 45.817757 14.896313 46.273487 14.749014 46.839893 14.749014 C 47.377003 14.749014 47.81971 14.894685 48.168018 15.186026 C 48.516323 15.477367 48.775112 15.897289 48.944386 16.445791 C 49.113655 16.994293 49.198292 17.65266 49.198292 18.420889 Z M 45.30669 18.420889 C 45.30669 19.084951 45.357143 19.638336 45.458057 20.081045 C 45.558968 20.523754 45.722542 20.854971 45.94878 21.074697 C 46.175014 21.294424 46.472054 21.404287 46.839893 21.404287 C 47.207729 21.404287 47.504768 21.295238 47.731007 21.077139 C 47.957241 20.859039 48.121632 20.528637 48.224171 20.085928 C 48.32671 19.643219 48.377979 19.088207 48.377979 18.420889 C 48.377979 17.766592 48.327522 17.218903 48.226612 16.777822 C 48.125698 16.336742 47.96294 16.004711 47.738331 15.781729 C 47.513721 15.558747 47.214241 15.447256 46.839893 15.447256 C 46.465542 15.447256 46.166065 15.558747 45.941456 15.781729 C 45.716846 16.004711 45.554897 16.336742 45.455616 16.777822 C 45.356331 17.218903 45.30669 17.766592 45.30669 18.420889 Z"/>
                <path id="path17" fill="#333333" stroke="none" d="M 51.488331 20.837881 L 51.551807 20.950186 C 51.493214 21.187817 51.419155 21.441723 51.329639 21.711905 C 51.24012 21.982086 51.142464 22.253082 51.036671 22.524893 C 50.930874 22.796703 50.824268 23.051424 50.716846 23.289053 L 50.111378 23.289053 C 50.179737 23.028637 50.246468 22.754385 50.311573 22.466299 C 50.376675 22.178213 50.436085 21.893383 50.489796 21.611807 C 50.543507 21.330231 50.586636 21.072256 50.61919 20.837881 L 51.488331 20.837881 Z"/>
                <path id="path18" fill="#333333" stroke="none" d="M 57.821339 20.344717 L 56.752003 20.344717 L 56.752003 21.99999 L 55.960987 21.99999 L 55.960987 20.344717 L 52.508839 20.344717 L 52.508839 19.661123 L 55.907276 14.822256 L 56.752003 14.822256 L 56.752003 19.612295 L 57.821339 19.612295 L 57.821339 20.344717 Z M 55.960987 19.612295 L 55.960987 17.278311 C 55.960987 17.099274 55.962612 16.937328 55.96587 16.792471 C 55.969124 16.647614 55.974007 16.512524 55.980518 16.387197 C 55.987026 16.261871 55.992725 16.142242 55.997608 16.028311 C 56.002491 15.914379 56.006557 15.802074 56.009815 15.691397 L 55.970753 15.691397 C 55.908901 15.821606 55.8381 15.959138 55.75835 16.103994 C 55.678596 16.248852 55.59803 16.378246 55.516651 16.492178 L 53.314503 19.612295 L 55.960987 19.612295 Z"/>
                <path id="path19" fill="#333333" stroke="none" d="M 60.863331 14.75878 C 61.276741 14.75878 61.642952 14.823884 61.961964 14.954092 C 62.280972 15.0843 62.530811 15.275544 62.711475 15.527822 C 62.892139 15.780102 62.982471 16.09016 62.982471 16.457998 C 62.982471 16.747711 62.919807 17.000805 62.794483 17.217276 C 62.669155 17.433746 62.500698 17.622549 62.289112 17.783682 C 62.077522 17.944815 61.843147 18.088858 61.585987 18.215811 C 61.891975 18.355785 62.167854 18.513662 62.413624 18.689444 C 62.659389 18.865225 62.853889 19.07193 62.99712 19.309561 C 63.140347 19.547192 63.211964 19.828766 63.211964 20.154287 C 63.211964 20.554678 63.11512 20.900543 62.921436 21.191885 C 62.727749 21.483227 62.456753 21.707022 62.108448 21.863272 C 61.760139 22.019522 61.351612 22.097647 60.882862 22.097647 C 60.378304 22.097647 59.949429 22.021963 59.596241 21.870596 C 59.24305 21.719229 58.974495 21.501129 58.790577 21.216299 C 58.606655 20.931469 58.514698 20.588858 58.514698 20.188467 C 58.514698 19.859692 58.584682 19.574047 58.724659 19.331533 C 58.864632 19.08902 59.050179 18.879873 59.2813 18.704092 C 59.512417 18.528311 59.764698 18.380199 60.038136 18.259756 C 59.800503 18.129547 59.583218 17.981436 59.38628 17.81542 C 59.189339 17.649405 59.033089 17.454906 58.91753 17.231924 C 58.801968 17.008942 58.74419 16.74934 58.74419 16.453115 C 58.74419 16.091787 58.836147 15.784985 59.020069 15.532705 C 59.203987 15.280427 59.456264 15.088369 59.776905 14.956533 C 60.097542 14.824697 60.459682 14.75878 60.863331 14.75878 Z M 59.310596 20.19335 C 59.310596 20.557934 59.439175 20.858227 59.696339 21.094229 C 59.953499 21.330231 60.342495 21.448233 60.863331 21.448233 C 61.35812 21.448233 61.740608 21.330231 62.010792 21.094229 C 62.280972 20.858227 62.416065 20.548168 62.416065 20.164053 C 62.416065 19.926422 62.354214 19.717276 62.230518 19.536612 C 62.106819 19.355947 61.931038 19.194 61.703175 19.050772 C 61.475307 18.907543 61.206753 18.777334 60.897511 18.660147 L 60.721729 18.59667 C 60.422249 18.720367 60.16753 18.857901 59.957569 19.009268 C 59.747608 19.160635 59.587288 19.332348 59.476612 19.524405 C 59.365932 19.716461 59.310596 19.939444 59.310596 20.19335 Z M 60.853565 15.422842 C 60.469448 15.422842 60.155323 15.514802 59.911182 15.698721 C 59.667042 15.882641 59.544971 16.147125 59.544971 16.492178 C 59.544971 16.739574 59.604378 16.948721 59.723194 17.119619 C 59.842007 17.290518 60.003956 17.437002 60.209034 17.559072 C 60.414112 17.681143 60.643604 17.794262 60.897511 17.898428 C 61.144905 17.794262 61.364632 17.679516 61.55669 17.55419 C 61.748745 17.428864 61.900112 17.279938 62.010792 17.107412 C 62.121468 16.934887 62.176807 16.72818 62.176807 16.487295 C 62.176807 16.142242 62.05555 15.878572 61.813038 15.69628 C 61.570522 15.513988 61.250698 15.422842 60.853565 15.422842 Z"/>
                <path id="path20" fill="#333333" stroke="none" d="M 68.939499 18.420889 C 68.939499 19.000317 68.895554 19.517895 68.807663 19.973623 C 68.719772 20.429352 68.581429 20.815094 68.392624 21.13085 C 68.203827 21.446606 67.959686 21.686676 67.660202 21.851065 C 67.360725 22.015453 67.001022 22.097647 66.5811 22.097647 C 66.050507 22.097647 65.611862 21.952789 65.265182 21.663076 C 64.918503 21.373363 64.659714 20.954254 64.488815 20.405752 C 64.317917 19.85725 64.232468 19.195629 64.232468 18.420889 C 64.232468 17.65917 64.309784 17.004059 64.464401 16.455557 C 64.619026 15.907055 64.868866 15.485505 65.213913 15.190908 C 65.558968 14.896313 66.014694 14.749014 66.5811 14.749014 C 67.11821 14.749014 67.560921 14.894685 67.909225 15.186026 C 68.257538 15.477367 68.516327 15.897289 68.685593 16.445791 C 68.854866 16.994293 68.939499 17.65266 68.939499 18.420889 Z M 65.047897 18.420889 C 65.047897 19.084951 65.098358 19.638336 65.199265 20.081045 C 65.300179 20.523754 65.463753 20.854971 65.689987 21.074697 C 65.916229 21.294424 66.213264 21.404287 66.5811 21.404287 C 66.948944 21.404287 67.245979 21.295238 67.472214 21.077139 C 67.698456 20.859039 67.862839 20.528637 67.965378 20.085928 C 68.067917 19.643219 68.119186 19.088207 68.119186 18.420889 C 68.119186 17.766592 68.068733 17.218903 67.967819 16.777822 C 67.866913 16.336742 67.704147 16.004711 67.479538 15.781729 C 67.254929 15.558747 66.955452 15.447256 66.5811 15.447256 C 66.206757 15.447256 65.907272 15.558747 65.682663 15.781729 C 65.458054 16.004711 65.296112 16.336742 65.196823 16.777822 C 65.097542 17.218903 65.047897 17.766592 65.047897 18.420889 Z"/>
            </g>
        </g>
    </g>
</svg>
