<?xml version="1.0" encoding="UTF-8"?>
<svg width="108px" height="24px" viewBox="0 0 108 24" version="1.1" xmlns="http://www.w3.org/2000/svg" xmlns:xlink="http://www.w3.org/1999/xlink">
    <title>Unique</title>
    <g id="Page-1" stroke="none" stroke-width="1" fill="none" fill-rule="evenodd">
        <g id="Unique">
            <circle id="Oval-Copy" fill="#AB1E9B" cx="11" cy="11" r="11"></circle>
            <g id="person-walking" transform="translate(7.25, 4.5)" fill="#FFFFFF" fill-rule="nonzero">
                <path d="M6.00000045,1.125 C6.00000045,1.74632835 5.4960942,2.25 4.87500045,2.25 C4.2539067,2.25 3.75000045,1.74632835 3.75000045,1.125 C3.75000045,0.503671646 4.2539067,0 4.87500045,0 C5.4960942,0 6.00000045,0.503671646 6.00000045,1.125 Z M2.76093802,4.37343764 L2.74687538,4.38046861 L2.25093779,4.60546875 C1.82390651,4.80000007 1.49671885,5.16328132 1.34835944,5.60859382 L1.28367206,5.80312514 C1.18546888,6.09843779 0.866953343,6.23671889 0.57210955,6.15937471 C0.277500004,6.06093764 0.118148535,5.72109389 0.216374964,5.44687486 L0.281015486,5.25234389 C0.528515428,4.51171875 1.0734373,3.90468764 1.78546867,3.58124971 L2.2823436,3.35625029 C2.79843745,3.12187529 3.35859391,3 3.92578134,3 C5.07187495,3 6.08203134,3.74765611 6.4195312,4.84218764 L6.68437538,5.69999993 L7.31484398,6.3515625 C7.55390605,6.57187486 7.55390605,6.92812514 7.31484398,7.12734389 C7.11562523,7.36640596 6.75937495,7.36640596 6.53906259,7.12734389 L5.85468766,6.46406221 C5.74687502,6.35625029 5.66718766,6.22265625 5.6226562,6.07734346 L5.39296898,5.32968736 L4.70625016,7.52812529 L5.8804687,8.48203111 C6.0421873,8.61328125 6.15468773,8.79609346 6.20156273,8.97890639 L6.73593745,11.3109376 C6.80624995,11.6132812 6.61640605,11.9156249 6.31406245,11.9859374 C6.01171884,12.0562506 5.70937523,11.866406 5.63906273,11.5640624 L5.12109384,9.31406236 L2.67187509,7.32656264 C2.24906239,6.98203111 2.082656,6.41015625 2.25539061,5.89218736 L2.76093766,4.37343764 L2.76093802,4.37343764 Z M4.0289062,4.12968779 L3.32343766,6.24843764 C3.29765627,6.32343721 3.32109377,6.40312529 3.38203141,6.45234346 L3.76640627,6.76406264 L4.52578148,4.33124971 C4.53281245,4.30781221 4.54218766,4.28437471 4.55156252,4.26328111 C4.38984391,4.18828154 4.21406266,4.14140654 4.0289062,4.12968779 Z M1.77070329,9.43359375 L2.33648452,8.02031279 L3.25078127,8.76328111 L2.80078134,9.88828111 C2.75390634,10.0054686 2.68359384,10.1132812 2.59218737,10.2023435 L0.960234135,11.8148439 C0.740624875,12.053906 0.384374946,12.053906 0.164742082,11.8148439 C-0.0549140275,11.6156251 -0.0549140275,11.2593749 0.164742082,11.0390625 L1.77070329,9.43359375 Z" id="Shape"></path>
            </g>
            <g id="UNIQUE-VISITORS" transform="translate(32.291, 1.4741)" fill="#333333" fill-rule="nonzero">
                <path d="M5.09765625,0.101074219 L5.09765625,4.25830078 C5.09765625,4.70654297 5.00317383,5.10791016 4.81420898,5.46240234 C4.62524414,5.81689453 4.34033203,6.09741211 3.95947266,6.30395508 C3.57861328,6.51049805 3.09960938,6.61376953 2.52246094,6.61376953 C1.69921875,6.61376953 1.07299805,6.39770508 0.643798828,5.96557617 C0.214599609,5.53344727 0,4.95849609 0,4.24072266 L0,0.101074219 L1.0546875,0.101074219 L1.0546875,4.1484375 C1.0546875,4.68457031 1.18066406,5.08007812 1.43261719,5.33496094 C1.68457031,5.58984375 2.06103516,5.71728516 2.56201172,5.71728516 C2.90771484,5.71728516 3.18969727,5.65649414 3.40795898,5.53491211 C3.6262207,5.41333008 3.78735352,5.23461914 3.89135742,4.9987793 C3.99536133,4.76293945 4.04736328,4.47802734 4.04736328,4.14404297 L4.04736328,0.101074219 L5.09765625,0.101074219 Z" id="Path"></path>
                <path d="M12.0981445,6.52587891 L10.8017578,6.52587891 L7.65527344,1.39746094 L7.61572266,1.39746094 C7.62744141,1.5703125 7.63842773,1.75341797 7.64868164,1.94677734 C7.65893555,2.14013672 7.66772461,2.33935547 7.67504883,2.54443359 C7.68237305,2.74951172 7.68896484,2.95751953 7.69482422,3.16845703 L7.69482422,6.52587891 L6.73681641,6.52587891 L6.73681641,0.101074219 L8.02441406,0.101074219 L11.1665039,5.19433594 L11.1972656,5.19433594 C11.1914062,5.04492188 11.184082,4.87353516 11.175293,4.68017578 C11.1665039,4.48681641 11.1584473,4.28686523 11.151123,4.08032227 C11.1437988,3.8737793 11.1386719,3.67382813 11.1357422,3.48046875 L11.1357422,0.101074219 L12.0981445,0.101074219 L12.0981445,6.52587891 Z" id="Path"></path>
                <polygon id="Path" points="13.7856445 6.52587891 13.7856445 0.101074219 14.840332 0.101074219 14.840332 6.52587891"></polygon>
                <path d="M22.2363281,3.3046875 C22.2363281,3.80566406 22.171875,4.26269531 22.0429688,4.67578125 C21.9140625,5.08886719 21.7207031,5.44189453 21.4628906,5.73486328 C21.2050781,6.02783203 20.8798828,6.24902344 20.4873047,6.3984375 L22.0166016,8.05517578 L20.6103516,8.05517578 L19.4018555,6.609375 C19.3725586,6.609375 19.3439941,6.61010742 19.3161621,6.61157227 C19.2883301,6.61303711 19.2612305,6.61376953 19.2348633,6.61376953 C18.722168,6.61376953 18.2775879,6.53466797 17.901123,6.37646484 C17.5246582,6.21826172 17.2126465,5.99267578 16.9650879,5.69970703 C16.7175293,5.40673828 16.5322266,5.05664062 16.4091797,4.64941406 C16.2861328,4.2421875 16.2246094,3.79101562 16.2246094,3.29589844 C16.2246094,2.63378906 16.3337402,2.0559082 16.552002,1.56225586 C16.7702637,1.06860352 17.1027832,0.684814453 17.5495605,0.410888672 C17.9963379,0.136962891 18.5610352,0 19.2436523,0 C19.9116211,0 20.4667969,0.136230469 20.9091797,0.408691406 C21.3515625,0.681152344 21.6833496,1.06420898 21.904541,1.55786133 C22.1257324,2.05151367 22.2363281,2.63378906 22.2363281,3.3046875 Z M17.3320312,3.3046875 C17.3320312,3.79980469 17.3994141,4.22827148 17.5341797,4.59008789 C17.6689453,4.9519043 17.8762207,5.23022461 18.1560059,5.42504883 C18.435791,5.61987305 18.7954102,5.71728516 19.2348633,5.71728516 C19.6772461,5.71728516 20.0375977,5.61987305 20.315918,5.42504883 C20.5942383,5.23022461 20.7993164,4.9519043 20.9311523,4.59008789 C21.0629883,4.22827148 21.1289062,3.79980469 21.1289062,3.3046875 C21.1289062,2.55175781 20.9787598,1.9621582 20.6784668,1.53588867 C20.3781738,1.10961914 19.8999023,0.896484375 19.2436523,0.896484375 C18.8041992,0.896484375 18.4431152,0.993164062 18.1604004,1.18652344 C17.8776855,1.37988281 17.6689453,1.65600586 17.5341797,2.01489258 C17.3994141,2.3737793 17.3320312,2.80371094 17.3320312,3.3046875 Z" id="Shape"></path>
                <path d="M28.6611328,0.101074219 L28.6611328,4.25830078 C28.6611328,4.70654297 28.5666504,5.10791016 28.3776855,5.46240234 C28.1887207,5.81689453 27.9038086,6.09741211 27.5229492,6.30395508 C27.1420898,6.51049805 26.6630859,6.61376953 26.0859375,6.61376953 C25.2626953,6.61376953 24.6364746,6.39770508 24.2072754,5.96557617 C23.7780762,5.53344727 23.5634766,4.95849609 23.5634766,4.24072266 L23.5634766,0.101074219 L24.6181641,0.101074219 L24.6181641,4.1484375 C24.6181641,4.68457031 24.7441406,5.08007812 24.9960938,5.33496094 C25.2480469,5.58984375 25.6245117,5.71728516 26.1254883,5.71728516 C26.4711914,5.71728516 26.7531738,5.65649414 26.9714355,5.53491211 C27.1896973,5.41333008 27.3508301,5.23461914 27.454834,4.9987793 C27.5588379,4.76293945 27.6108398,4.47802734 27.6108398,4.14404297 L27.6108398,0.101074219 L28.6611328,0.101074219 Z" id="Path"></path>
                <polygon id="Path" points="33.9389648 6.52587891 30.300293 6.52587891 30.300293 0.101074219 33.9389648 0.101074219 33.9389648 0.988769531 31.3549805 0.988769531 31.3549805 2.73339844 33.7763672 2.73339844 33.7763672 3.61669922 31.3549805 3.61669922 31.3549805 5.63378906 33.9389648 5.63378906"></polygon>
                <path d="M42.4248047,0.101074219 L40.1791992,6.52587891 L39.0629883,6.52587891 L36.8173828,0.101074219 L37.8984375,0.101074219 L39.2519531,4.12646484 C39.2929688,4.24365234 39.3376465,4.38574219 39.3859863,4.55273438 C39.4343262,4.71972656 39.4797363,4.88818359 39.5222168,5.05810547 C39.5646973,5.22802734 39.5976562,5.37890625 39.6210938,5.51074219 C39.6445312,5.37890625 39.6774902,5.22802734 39.7199707,5.05810547 C39.7624512,4.88818359 39.8071289,4.71972656 39.8540039,4.55273438 C39.9008789,4.38574219 39.9448242,4.2421875 39.9858398,4.12207031 L41.34375,0.101074219 L42.4248047,0.101074219 Z" id="Path"></path>
                <polygon id="Path" points="43.2685547 6.52587891 43.2685547 0.101074219 44.3232422 0.101074219 44.3232422 6.52587891"></polygon>
                <path d="M49.7241211,4.77685547 C49.7241211,5.15771484 49.6311035,5.48583984 49.4450684,5.76123047 C49.2590332,6.03662109 48.9924316,6.24755859 48.6452637,6.39404297 C48.2980957,6.54052734 47.8842773,6.61376953 47.4038086,6.61376953 C47.1694336,6.61376953 46.9453125,6.60058594 46.7314453,6.57421875 C46.5175781,6.54785156 46.3161621,6.5090332 46.1271973,6.45776367 C45.9382324,6.40649414 45.7661133,6.34423828 45.6108398,6.27099609 L45.6108398,5.27783203 C45.871582,5.39208984 46.1630859,5.49536133 46.4853516,5.58764648 C46.8076172,5.67993164 47.1357422,5.72607422 47.4697266,5.72607422 C47.7421875,5.72607422 47.9685059,5.69018555 48.1486816,5.6184082 C48.3288574,5.54663086 48.4628906,5.4440918 48.5507812,5.31079102 C48.6386719,5.17749023 48.6826172,5.02148438 48.6826172,4.84277344 C48.6826172,4.65234375 48.6313477,4.49121094 48.5288086,4.359375 C48.4262695,4.22753906 48.2717285,4.10668945 48.0651855,3.99682617 C47.8586426,3.88696289 47.6000977,3.76904297 47.2895508,3.64306641 C47.0786133,3.55810547 46.8771973,3.46142578 46.6853027,3.35302734 C46.4934082,3.24462891 46.3227539,3.1171875 46.1733398,2.97070312 C46.0239258,2.82421875 45.9060059,2.65063477 45.8195801,2.44995117 C45.7331543,2.24926758 45.6899414,2.01269531 45.6899414,1.74023438 C45.6899414,1.37695312 45.7770996,1.06640625 45.951416,0.80859375 C46.1257324,0.55078125 46.3718262,0.353027344 46.6896973,0.215332031 C47.0075684,0.0776367188 47.3789062,0.0087890625 47.8037109,0.0087890625 C48.140625,0.0087890625 48.4577637,0.0439453125 48.755127,0.114257812 C49.0524902,0.184570312 49.3447266,0.284179688 49.6318359,0.413085938 L49.2978516,1.26123047 C49.0341797,1.15283203 48.7785645,1.06640625 48.5310059,1.00195312 C48.2834473,0.9375 48.0307617,0.905273438 47.7729492,0.905273438 C47.550293,0.905273438 47.3613281,0.938964844 47.2060547,1.00634766 C47.0507812,1.07373047 46.9328613,1.16821289 46.8522949,1.28979492 C46.7717285,1.41137695 46.7314453,1.55566406 46.7314453,1.72265625 C46.7314453,1.91015625 46.7775879,2.06762695 46.869873,2.19506836 C46.9621582,2.32250977 47.1057129,2.43896484 47.3005371,2.54443359 C47.4953613,2.64990234 47.746582,2.76708984 48.0541992,2.89599609 C48.4086914,3.04248047 48.7097168,3.19628906 48.9572754,3.35742187 C49.204834,3.51855469 49.3945312,3.71118164 49.5263672,3.93530273 C49.6582031,4.15942383 49.7241211,4.43994141 49.7241211,4.77685547 Z" id="Path"></path>
                <polygon id="Path" points="50.9633789 6.52587891 50.9633789 0.101074219 52.0180664 0.101074219 52.0180664 6.52587891"></polygon>
                <polygon id="Path" points="55.9379883 6.52587891 54.8789062 6.52587891 54.8789062 0.997558594 52.9980469 0.997558594 52.9980469 0.101074219 57.8144531 0.101074219 57.8144531 0.997558594 55.9379883 0.997558594"></polygon>
                <path d="M64.4985352,3.3046875 C64.4985352,3.79980469 64.4362793,4.25024414 64.3117676,4.65600586 C64.1872559,5.06176758 64.0004883,5.41040039 63.7514648,5.7019043 C63.5024414,5.9934082 63.1904297,6.21826172 62.8154297,6.37646484 C62.4404297,6.53466797 62.0009766,6.61376953 61.4970703,6.61376953 C60.984375,6.61376953 60.5397949,6.53466797 60.1633301,6.37646484 C59.7868652,6.21826172 59.4748535,5.99267578 59.2272949,5.69970703 C58.9797363,5.40673828 58.7944336,5.05664062 58.6713867,4.64941406 C58.5483398,4.2421875 58.4868164,3.79101562 58.4868164,3.29589844 C58.4868164,2.63378906 58.5959473,2.0559082 58.814209,1.56225586 C59.0324707,1.06860352 59.3649902,0.684814453 59.8117676,0.410888672 C60.2585449,0.136962891 60.8232422,0 61.5058594,0 C62.1738281,0 62.7290039,0.136230469 63.1713867,0.408691406 C63.6137695,0.681152344 63.9455566,1.06420898 64.166748,1.55786133 C64.3879395,2.05151367 64.4985352,2.63378906 64.4985352,3.3046875 Z M59.5942383,3.3046875 C59.5942383,3.79980469 59.6616211,4.22827148 59.7963867,4.59008789 C59.9311523,4.9519043 60.1384277,5.23022461 60.4182129,5.42504883 C60.697998,5.61987305 61.0576172,5.71728516 61.4970703,5.71728516 C61.9394531,5.71728516 62.2998047,5.61987305 62.578125,5.42504883 C62.8564453,5.23022461 63.0615234,4.9519043 63.1933594,4.59008789 C63.3251953,4.22827148 63.3911133,3.79980469 63.3911133,3.3046875 C63.3911133,2.55175781 63.2409668,1.9621582 62.9406738,1.53588867 C62.6403809,1.10961914 62.1621094,0.896484375 61.5058594,0.896484375 C61.0664062,0.896484375 60.7053223,0.993164062 60.4226074,1.18652344 C60.1398926,1.37988281 59.9311523,1.65600586 59.7963867,2.01489258 C59.6616211,2.3737793 59.5942383,2.80371094 59.5942383,3.3046875 Z" id="Shape"></path>
                <path d="M67.6845703,0.101074219 C68.2382812,0.101074219 68.6960449,0.168457031 69.0578613,0.303222656 C69.4196777,0.437988281 69.689209,0.643066406 69.8664551,0.918457031 C70.0437012,1.19384766 70.1323242,1.54394531 70.1323242,1.96875 C70.1323242,2.28515625 70.0737305,2.5546875 69.956543,2.77734375 C69.8393555,3 69.6855469,3.18457031 69.4951172,3.33105469 C69.3046875,3.47753906 69.1010742,3.59472656 68.8842773,3.68261719 L70.7080078,6.52587891 L69.5170898,6.52587891 L67.9658203,3.95068359 L66.9331055,3.95068359 L66.9331055,6.52587891 L65.878418,6.52587891 L65.878418,0.101074219 L67.6845703,0.101074219 Z M67.6142578,0.979980469 L66.9331055,0.979980469 L66.9331055,3.08056641 L67.6625977,3.08056641 C68.1518555,3.08056641 68.5070801,2.98974609 68.7282715,2.80810547 C68.9494629,2.62646484 69.0600586,2.35839844 69.0600586,2.00390625 C69.0600586,1.63183594 68.9421387,1.36816406 68.7062988,1.21289062 C68.470459,1.05761719 68.1064453,0.979980469 67.6142578,0.979980469 Z" id="Shape"></path>
                <path d="M75.3354492,4.77685547 C75.3354492,5.15771484 75.2424316,5.48583984 75.0563965,5.76123047 C74.8703613,6.03662109 74.6037598,6.24755859 74.2565918,6.39404297 C73.9094238,6.54052734 73.4956055,6.61376953 73.0151367,6.61376953 C72.7807617,6.61376953 72.5566406,6.60058594 72.3427734,6.57421875 C72.1289062,6.54785156 71.9274902,6.5090332 71.7385254,6.45776367 C71.5495605,6.40649414 71.3774414,6.34423828 71.222168,6.27099609 L71.222168,5.27783203 C71.4829102,5.39208984 71.7744141,5.49536133 72.0966797,5.58764648 C72.4189453,5.67993164 72.7470703,5.72607422 73.0810547,5.72607422 C73.3535156,5.72607422 73.579834,5.69018555 73.7600098,5.6184082 C73.9401855,5.54663086 74.0742188,5.4440918 74.1621094,5.31079102 C74.25,5.17749023 74.2939453,5.02148438 74.2939453,4.84277344 C74.2939453,4.65234375 74.2426758,4.49121094 74.1401367,4.359375 C74.0375977,4.22753906 73.8830566,4.10668945 73.6765137,3.99682617 C73.4699707,3.88696289 73.2114258,3.76904297 72.9008789,3.64306641 C72.6899414,3.55810547 72.4885254,3.46142578 72.2966309,3.35302734 C72.1047363,3.24462891 71.934082,3.1171875 71.784668,2.97070312 C71.6352539,2.82421875 71.517334,2.65063477 71.4309082,2.44995117 C71.3444824,2.24926758 71.3012695,2.01269531 71.3012695,1.74023438 C71.3012695,1.37695312 71.3884277,1.06640625 71.5627441,0.80859375 C71.7370605,0.55078125 71.9831543,0.353027344 72.3010254,0.215332031 C72.6188965,0.0776367188 72.9902344,0.0087890625 73.4150391,0.0087890625 C73.7519531,0.0087890625 74.0690918,0.0439453125 74.3664551,0.114257812 C74.6638184,0.184570312 74.9560547,0.284179688 75.2431641,0.413085938 L74.9091797,1.26123047 C74.6455078,1.15283203 74.3898926,1.06640625 74.142334,1.00195312 C73.8947754,0.9375 73.6420898,0.905273438 73.3842773,0.905273438 C73.1616211,0.905273438 72.9726562,0.938964844 72.8173828,1.00634766 C72.6621094,1.07373047 72.5441895,1.16821289 72.463623,1.28979492 C72.3830566,1.41137695 72.3427734,1.55566406 72.3427734,1.72265625 C72.3427734,1.91015625 72.388916,2.06762695 72.4812012,2.19506836 C72.5734863,2.32250977 72.717041,2.43896484 72.9118652,2.54443359 C73.1066895,2.64990234 73.3579102,2.76708984 73.6655273,2.89599609 C74.0200195,3.04248047 74.3210449,3.19628906 74.5686035,3.35742187 C74.8161621,3.51855469 75.0058594,3.71118164 75.1376953,3.93530273 C75.2695312,4.15942383 75.3354492,4.43994141 75.3354492,4.77685547 Z" id="Path"></path>
            </g>
            <g id="$50,480" transform="translate(33.1729, 14.4121)" fill="#333333" fill-rule="nonzero">
                <path d="M1.90917969,8.16894531 L1.90917969,7.14355469 C1.53483073,7.13704427 1.17757161,7.10449219 0.837402344,7.04589844 C0.497233073,6.98730469 0.219726562,6.91080729 0.0048828125,6.81640625 L0.0048828125,6.02539062 C0.229492188,6.12955729 0.517578125,6.22070312 0.869140625,6.29882812 C1.22070312,6.37695312 1.56738281,6.41927083 1.90917969,6.42578125 L1.90917969,4.27734375 C1.47949219,4.15690104 1.12386068,4.01936849 0.842285156,3.86474609 C0.560709635,3.7101237 0.349934896,3.52050781 0.209960938,3.29589844 C0.0699869792,3.07128906 0,2.79947917 0,2.48046875 C0,2.1484375 0.0789388021,1.86442057 0.236816406,1.62841797 C0.39469401,1.39241536 0.616861979,1.20768229 0.903320312,1.07421875 C1.18977865,0.940755208 1.5250651,0.864257812 1.90917969,0.844726562 L1.90917969,0 L2.50488281,0 L2.50488281,0.834960938 C2.8531901,0.844726562 3.17057292,0.88297526 3.45703125,0.949707031 C3.74348958,1.0164388 4.00878906,1.10188802 4.25292969,1.20605469 L3.99902344,1.88476562 C3.77766927,1.796875 3.53841146,1.72200521 3.28125,1.66015625 C3.02408854,1.59830729 2.76529948,1.55598958 2.50488281,1.53320312 L2.50488281,3.66699219 C2.94108073,3.79394531 3.30647786,3.92903646 3.60107422,4.07226562 C3.89567057,4.21549479 4.11783854,4.39290365 4.26757812,4.60449219 C4.41731771,4.81608073 4.4921875,5.08951823 4.4921875,5.42480469 C4.4921875,5.9000651 4.31803385,6.28336589 3.96972656,6.57470703 C3.62141927,6.86604818 3.13313802,7.04264323 2.50488281,7.10449219 L2.50488281,8.16894531 L1.90917969,8.16894531 Z M2.50488281,6.38183594 C2.90527344,6.34277344 3.2039388,6.24593099 3.40087891,6.09130859 C3.59781901,5.9366862 3.69628906,5.73242188 3.69628906,5.47851562 C3.69628906,5.29622396 3.65804036,5.14648438 3.58154297,5.02929688 C3.50504557,4.91210938 3.38053385,4.81038411 3.20800781,4.72412109 C3.03548177,4.63785807 2.80110677,4.55566406 2.50488281,4.47753906 L2.50488281,6.38183594 Z M1.90917969,3.46191406 L1.90917969,1.55273438 C1.66503906,1.56901042 1.45996094,1.61458333 1.29394531,1.68945312 C1.12792969,1.76432292 1.00341797,1.86197917 0.920410156,1.98242188 C0.837402344,2.10286458 0.795898438,2.24609375 0.795898438,2.41210938 C0.795898438,2.60416667 0.832519531,2.76448568 0.905761719,2.89306641 C0.979003906,3.02164714 1.09781901,3.13069661 1.26220703,3.22021484 C1.42659505,3.30973307 1.6422526,3.39029948 1.90917969,3.46191406 Z" id="Shape"></path>
                <path d="M7.84667969,3.22265625 C8.33170573,3.22265625 8.75325521,3.30485026 9.11132812,3.46923828 C9.46940104,3.6336263 9.74690755,3.87207031 9.94384766,4.18457031 C10.1407878,4.49707031 10.2392578,4.87630208 10.2392578,5.32226562 C10.2392578,5.81054688 10.1334635,6.23128255 9.921875,6.58447266 C9.71028646,6.93766276 9.40592448,7.20947266 9.00878906,7.39990234 C8.61165365,7.59033203 8.13639323,7.68554688 7.58300781,7.68554688 C7.21191406,7.68554688 6.86686198,7.65299479 6.54785156,7.58789062 C6.22884115,7.52278646 5.96028646,7.42513021 5.7421875,7.29492188 L5.7421875,6.5234375 C5.97981771,6.66666667 6.26790365,6.78059896 6.60644531,6.86523438 C6.94498698,6.94986979 7.27376302,6.9921875 7.59277344,6.9921875 C7.95410156,6.9921875 8.27067057,6.93440755 8.54248047,6.81884766 C8.81429036,6.70328776 9.02587891,6.52750651 9.17724609,6.29150391 C9.32861328,6.0555013 9.40429688,5.75846354 9.40429688,5.40039062 C9.40429688,4.92513021 9.2586263,4.55810547 8.96728516,4.29931641 C8.67594401,4.04052734 8.21614583,3.91113281 7.58789062,3.91113281 C7.38606771,3.91113281 7.16471354,3.92740885 6.92382812,3.95996094 C6.68294271,3.99251302 6.484375,4.02832031 6.328125,4.06738281 L5.91796875,3.79882812 L6.19140625,0.44921875 L9.74121094,0.44921875 L9.74121094,1.19140625 L6.88476562,1.19140625 L6.70410156,3.34472656 C6.82779948,3.3186849 6.98730469,3.29182943 7.18261719,3.26416016 C7.37792969,3.23649089 7.59928385,3.22265625 7.84667969,3.22265625 Z" id="Path"></path>
                <path d="M16.0253906,4.00878906 C16.0253906,4.58821615 15.9814453,5.10579427 15.8935547,5.56152344 C15.8056641,6.0172526 15.6673177,6.40299479 15.4785156,6.71875 C15.2897135,7.03450521 15.0455729,7.27457682 14.7460938,7.43896484 C14.4466146,7.60335286 14.0869141,7.68554688 13.6669922,7.68554688 C13.1363932,7.68554688 12.6977539,7.5406901 12.3510742,7.25097656 C12.0043945,6.96126302 11.7456055,6.54215495 11.574707,5.99365234 C11.4038086,5.44514974 11.3183594,4.78352865 11.3183594,4.00878906 C11.3183594,3.24707031 11.3956706,2.59195964 11.550293,2.04345703 C11.7049154,1.49495443 11.9547526,1.07340495 12.2998047,0.778808594 C12.6448568,0.48421224 13.1005859,0.336914062 13.6669922,0.336914062 C14.2041016,0.336914062 14.6468099,0.482584635 14.9951172,0.773925781 C15.3434245,1.06526693 15.6022135,1.4851888 15.7714844,2.03369141 C15.9407552,2.58219401 16.0253906,3.2405599 16.0253906,4.00878906 Z M12.1337891,4.00878906 C12.1337891,4.67285156 12.1842448,5.22623698 12.2851562,5.66894531 C12.3860677,6.11165365 12.5496419,6.44287109 12.7758789,6.66259766 C13.0021159,6.88232422 13.2991536,6.9921875 13.6669922,6.9921875 C14.0348307,6.9921875 14.3318685,6.88313802 14.5581055,6.66503906 C14.7843424,6.4469401 14.9487305,6.11653646 15.0512695,5.67382812 C15.1538086,5.23111979 15.2050781,4.67610677 15.2050781,4.00878906 C15.2050781,3.35449219 15.1546224,2.80680339 15.0537109,2.36572266 C14.9527995,1.92464193 14.7900391,1.59261068 14.5654297,1.36962891 C14.3408203,1.14664714 14.0413411,1.03515625 13.6669922,1.03515625 C13.2926432,1.03515625 12.9931641,1.14664714 12.7685547,1.36962891 C12.5439453,1.59261068 12.3819987,1.92464193 12.2827148,2.36572266 C12.183431,2.80680339 12.1337891,3.35449219 12.1337891,4.00878906 Z" id="Shape"></path>
                <path d="M18.3154297,6.42578125 L18.3789062,6.53808594 C18.3203125,6.77571615 18.2462565,7.0296224 18.1567383,7.29980469 C18.0672201,7.56998698 17.9695638,7.84098307 17.8637695,8.11279297 C17.7579753,8.38460286 17.6513672,8.63932292 17.5439453,8.87695312 L16.9384766,8.87695312 C17.0068359,8.61653646 17.0735677,8.34228516 17.1386719,8.05419922 C17.203776,7.76611328 17.2631836,7.48128255 17.3168945,7.19970703 C17.3706055,6.91813151 17.413737,6.66015625 17.4462891,6.42578125 L18.3154297,6.42578125 Z" id="Path"></path>
                <path d="M24.6484375,5.93261719 L23.5791016,5.93261719 L23.5791016,7.58789062 L22.7880859,7.58789062 L22.7880859,5.93261719 L19.3359375,5.93261719 L19.3359375,5.24902344 L22.734375,0.41015625 L23.5791016,0.41015625 L23.5791016,5.20019531 L24.6484375,5.20019531 L24.6484375,5.93261719 Z M22.7880859,5.20019531 L22.7880859,2.86621094 C22.7880859,2.68717448 22.7897135,2.52522786 22.7929688,2.38037109 C22.796224,2.23551432 22.8011068,2.10042318 22.8076172,1.97509766 C22.8141276,1.84977214 22.8198242,1.73014323 22.824707,1.61621094 C22.8295898,1.50227865 22.8336589,1.38997396 22.8369141,1.27929688 L22.7978516,1.27929688 C22.7360026,1.40950521 22.6652018,1.54703776 22.5854492,1.69189453 C22.5056966,1.8367513 22.4251302,1.96614583 22.34375,2.08007812 L20.1416016,5.20019531 L22.7880859,5.20019531 Z" id="Shape"></path>
                <path d="M27.6904297,0.346679688 C28.1038411,0.346679688 28.4700521,0.411783854 28.7890625,0.541992188 C29.1080729,0.672200521 29.3579102,0.86344401 29.5385742,1.11572266 C29.7192383,1.3680013 29.8095703,1.6780599 29.8095703,2.04589844 C29.8095703,2.33561198 29.7469076,2.58870443 29.621582,2.80517578 C29.4962565,3.02164714 29.3277995,3.21044922 29.1162109,3.37158203 C28.9046224,3.53271484 28.6702474,3.67675781 28.4130859,3.80371094 C28.7190755,3.9436849 28.9949544,4.1015625 29.2407227,4.27734375 C29.4864909,4.453125 29.6809896,4.65983073 29.8242188,4.89746094 C29.9674479,5.13509115 30.0390625,5.41666667 30.0390625,5.7421875 C30.0390625,6.14257812 29.9422201,6.48844401 29.7485352,6.77978516 C29.5548503,7.0711263 29.2838542,7.29492188 28.9355469,7.45117188 C28.5872396,7.60742188 28.1787109,7.68554688 27.7099609,7.68554688 C27.2054036,7.68554688 26.7765299,7.60986328 26.4233398,7.45849609 C26.0701497,7.30712891 25.8015951,7.08902995 25.6176758,6.80419922 C25.4337565,6.51936849 25.3417969,6.17675781 25.3417969,5.77636719 C25.3417969,5.44759115 25.4117839,5.16194661 25.5517578,4.91943359 C25.6917318,4.67692057 25.8772786,4.46777344 26.1083984,4.29199219 C26.3395182,4.11621094 26.5917969,3.96809896 26.8652344,3.84765625 C26.6276042,3.71744792 26.410319,3.56933594 26.2133789,3.40332031 C26.0164388,3.23730469 25.8601888,3.04280599 25.7446289,2.81982422 C25.629069,2.59684245 25.5712891,2.33723958 25.5712891,2.04101562 C25.5712891,1.6796875 25.6632487,1.37288411 25.847168,1.12060547 C26.0310872,0.868326823 26.2833659,0.676269531 26.6040039,0.544433594 C26.9246419,0.412597656 27.2867839,0.346679688 27.6904297,0.346679688 Z M26.1376953,5.78125 C26.1376953,6.14583333 26.266276,6.4461263 26.5234375,6.68212891 C26.780599,6.91813151 27.1695964,7.03613281 27.6904297,7.03613281 C28.1852214,7.03613281 28.5677083,6.91813151 28.8378906,6.68212891 C29.1080729,6.4461263 29.2431641,6.13606771 29.2431641,5.75195312 C29.2431641,5.51432292 29.1813151,5.30517578 29.0576172,5.12451172 C28.9339193,4.94384766 28.758138,4.78190104 28.5302734,4.63867188 C28.3024089,4.49544271 28.0338542,4.36523438 27.7246094,4.24804688 L27.5488281,4.18457031 C27.249349,4.30826823 26.9946289,4.44580078 26.784668,4.59716797 C26.574707,4.74853516 26.414388,4.9202474 26.3037109,5.11230469 C26.1930339,5.30436198 26.1376953,5.52734375 26.1376953,5.78125 Z M27.6806641,1.01074219 C27.2965495,1.01074219 26.9824219,1.10270182 26.7382812,1.28662109 C26.4941406,1.47054036 26.3720703,1.73502604 26.3720703,2.08007812 C26.3720703,2.32747396 26.4314779,2.53662109 26.550293,2.70751953 C26.6691081,2.87841797 26.8310547,3.02490234 27.0361328,3.14697266 C27.2412109,3.26904297 27.4707031,3.38216146 27.7246094,3.48632812 C27.9720052,3.38216146 28.1917318,3.26741536 28.3837891,3.14208984 C28.5758464,3.01676432 28.7272135,2.86783854 28.8378906,2.6953125 C28.9485677,2.52278646 29.0039062,2.31608073 29.0039062,2.07519531 C29.0039062,1.73014323 28.8826497,1.46647135 28.6401367,1.28417969 C28.3976237,1.10188802 28.0777995,1.01074219 27.6806641,1.01074219 Z" id="Shape"></path>
                <path d="M35.7666016,4.00878906 C35.7666016,4.58821615 35.7226562,5.10579427 35.6347656,5.56152344 C35.546875,6.0172526 35.4085286,6.40299479 35.2197266,6.71875 C35.0309245,7.03450521 34.7867839,7.27457682 34.4873047,7.43896484 C34.1878255,7.60335286 33.828125,7.68554688 33.4082031,7.68554688 C32.8776042,7.68554688 32.4389648,7.5406901 32.0922852,7.25097656 C31.7456055,6.96126302 31.4868164,6.54215495 31.315918,5.99365234 C31.1450195,5.44514974 31.0595703,4.78352865 31.0595703,4.00878906 C31.0595703,3.24707031 31.1368815,2.59195964 31.2915039,2.04345703 C31.4461263,1.49495443 31.6959635,1.07340495 32.0410156,0.778808594 C32.3860677,0.48421224 32.8417969,0.336914062 33.4082031,0.336914062 C33.9453125,0.336914062 34.3880208,0.482584635 34.7363281,0.773925781 C35.0846354,1.06526693 35.3434245,1.4851888 35.5126953,2.03369141 C35.6819661,2.58219401 35.7666016,3.2405599 35.7666016,4.00878906 Z M31.875,4.00878906 C31.875,4.67285156 31.9254557,5.22623698 32.0263672,5.66894531 C32.1272786,6.11165365 32.2908529,6.44287109 32.5170898,6.66259766 C32.7433268,6.88232422 33.0403646,6.9921875 33.4082031,6.9921875 C33.7760417,6.9921875 34.0730794,6.88313802 34.2993164,6.66503906 C34.5255534,6.4469401 34.6899414,6.11653646 34.7924805,5.67382812 C34.8950195,5.23111979 34.9462891,4.67610677 34.9462891,4.00878906 C34.9462891,3.35449219 34.8958333,2.80680339 34.7949219,2.36572266 C34.6940104,1.92464193 34.53125,1.59261068 34.3066406,1.36962891 C34.0820312,1.14664714 33.7825521,1.03515625 33.4082031,1.03515625 C33.0338542,1.03515625 32.734375,1.14664714 32.5097656,1.36962891 C32.2851562,1.59261068 32.1232096,1.92464193 32.0239258,2.36572266 C31.9246419,2.80680339 31.875,3.35449219 31.875,4.00878906 Z" id="Shape"></path>
            </g>
        </g>
    </g>
</svg>