<?xml version="1.0" encoding="UTF-8"?>
<svg width="50px" height="45px" viewBox="0 0 50 45" version="1.1" xmlns="http://www.w3.org/2000/svg" xmlns:xlink="http://www.w3.org/1999/xlink">
    <title>vials</title>
    <g id="Page-1" stroke="none" stroke-width="1" fill="none" fill-rule="evenodd">
        <g id="vials" transform="translate(0, 0.375)" fill="#333333" fill-rule="nonzero">
            <path d="M15.6249985,7.8125 L15.6249985,21.875 L6.24999851,21.875 L6.24999851,7.8125 C6.24999851,6.95312619 5.5507794,6.25 4.68749851,6.25 C3.82421762,6.25 3.12499851,6.95312619 3.12499851,7.8125 L3.12499851,35.9375 C3.12499851,40.2441412 6.62890524,43.75 10.9375,43.75 C15.2460933,43.75 18.75,40.2441412 18.75,35.9375 L18.75,7.8125 C18.75,6.95312619 18.0468753,6.25 17.1875,6.25 C16.3281232,6.25 15.6249985,6.95312619 15.6249985,7.8125 Z M15.625,35.9375 C15.625,38.5253906 13.5253906,40.625 10.9375,40.625 C8.34960938,40.625 6.25,38.5253906 6.25,35.9375 L6.25,25 L15.625,25 L15.625,35.9375 Z M45.3125,6.25 C44.4531262,6.25 43.75,6.95312619 43.75,7.8125 L43.75,14.875 L34.375,14.875 L34.375,7.8125 C34.375,6.95312619 33.6718738,6.25 32.8125,6.25 C31.9531262,6.25 31.25,6.95312619 31.25,7.8125 L31.25,35.9375 C31.25,40.2470708 34.7539067,43.75 39.0625,43.75 C43.3710933,43.75 46.875,40.2460933 46.875,35.9375 L46.875,7.8125 C46.875,6.95312619 46.1718738,6.25 45.3125,6.25 Z M20.3125,0 L1.5625,0 C0.698828697,0 0,0.699219108 0,1.5625 C0,2.42578089 0.698828697,3.125 1.5625,3.125 L20.3125,3.125 C21.1718753,3.125 21.875,2.42578089 21.875,1.5625 C21.875,0.699219108 21.1718753,0 20.3125,0 Z M48.4375,0 L29.6875,0 C28.8281262,0 28.125,0.699219108 28.125,1.5625 C28.125,2.42578089 28.8281262,3.125 29.6875,3.125 L48.4375,3.125 C49.2968738,3.125 50,2.42578089 50,1.5625 C50,0.699219108 49.2968738,0 48.4375,0 Z" id="Shape"></path>
        </g>
    </g>
</svg>