<?xml version="1.0" encoding="UTF-8"?>
<svg width="40px" height="37px" viewBox="0 0 40 37" version="1.1" xmlns="http://www.w3.org/2000/svg" xmlns:xlink="http://www.w3.org/1999/xlink">
    <title>Ai Avatar</title>
    <g id="Page-1" stroke="none" stroke-width="1" fill="none" fill-rule="evenodd">
        <g id="Group-2" transform="translate(-16, -44)">
            <g id="Group" transform="translate(16, 44)">
                <polygon id="Shape" fill="#F7931E" points="28.9709662 18.7527812 20.2638462 23.1046934 28.9709662 18.7527812 20.2638462 23.1046934 15.9102847 31.8085148 15.9102847 31.8085148 15.1978839 33.2327766 15.1978839 33.2327766 14.4854831 31.8085148 14.4854831 31.8085148 10.1319228 23.1046934 10.1319228 23.1046934 1.42480162 18.7527812 1.42480162 18.7527812 0 18.0406503 0 18.0406503 1.42480162 17.3285194 1.42480162 17.3285194 10.1319228 12.9766084 10.1319228 12.9766084 14.4854831 4.27278589 14.4854831 4.27278589 15.1978839 2.84852406 15.1978839 2.84852406 15.9102847 4.27278589 15.9102847 4.27278589 20.2638462 12.9766084 20.2638462 12.9766084 28.9709662 17.3285194 28.9709662 17.3285194 30.3957678 18.0406503 30.3957678 18.0406503"></polygon>
                <polygon id="Path" fill="#FFFFFF" opacity="0.7976667" points="19.155666 22.5508139 19.3139784 22.1551866 19.155666 22.5508139 19.3139784 22.1551866 19.7097556 21.9969342 19.7097556 21.9969342 27.5461648 18.0406513 27.5461648 18.0406513 19.7097556 14.084368 19.7097556 14.084368 19.3139784 13.9261171 19.3139784 13.9261171 19.155666 13.5304883 19.155666 13.5304883 15.1978839 5.69704811 15.1978839 5.69704811 11.2401013 13.5304883 11.2401013 13.5304883 11.0817905 13.9261171 11.0817905 13.9261171 10.6860117 14.084368 10.6860117 14.084368 2.84960304 18.0406513 2.84960304 18.0406513 10.6860117 21.9969342 10.6860117 21.9969342 11.0817905 22.1551866 11.0817905 22.1551866 11.2401013 22.5508139 11.2401013 22.5508139 15.1978839 30.3842546 15.1978839 30.3842546"></polygon>
                <polygon id="Path#1" fill="#F7931E" points="35.792799 8.45089156 35.87218 8.25251373 35.792799 8.45089156 35.87218 8.25251373 36.070634 8.17316272 36.070634 8.17316272 40 6.18938498 40 6.18938498 36.070634 4.20560787 36.070634 4.20560787 35.87218 4.12625674 35.87218 4.12625674 35.792799 3.92787903 35.792799 3.92787903 33.8082685 0 33.8082685 0 31.8237383 3.92787903 31.8237383 3.92787903 31.7443574 4.12625674 31.7443574 4.12625674 31.5459057 4.20560787 31.5459057 4.20560787 27.616537 6.18938498 27.616537 6.18938498 31.5459057 8.17316272 31.5459057 8.17316272 31.7443574 8.25251373 31.7443574 8.25251373 31.8237383 8.45089156 31.8237383 8.45089156 33.8082685 12.37877 33.8082685 12.37877"></polygon>
            </g>
        </g>
    </g>
</svg>