<?xml version="1.0" encoding="UTF-8"?>
<svg width="40px" height="40px" viewBox="0 0 40 40" version="1.1" xmlns="http://www.w3.org/2000/svg" xmlns:xlink="http://www.w3.org/1999/xlink">
    <title>Question submit</title>
    <g id="Page-1" stroke="none" stroke-width="1" fill="none" fill-rule="evenodd">
        <g id="Group-2-Copy" transform="translate(-265, -260)">
            <g id="Question-submit" transform="translate(265, 260)">
                <circle id="Oval" fill="#F7931E" cx="20" cy="20" r="20"></circle>
                <path d="M23.3677845,20.616523 C22.6160936,21.1493558 22.1031008,21.68216 21.8288064,22.2149643 C21.5545376,22.7477967 21.437748,23.3792863 21.4783573,24.1094599 C21.4783573,24.1752491 21.4783573,24.4713198 21.4783573,24.997672 L17.2137885,24.997672 C17.2125265,24.4713198 17.2118955,24.1752491 17.2118955,24.1094599 C17.2728768,23.1622119 17.3947587,22.372843 17.5775952,21.741355 C17.7604051,21.1098653 18.0804024,20.5129067 18.5375338,19.9505039 C18.9946918,19.3880748 19.6600176,18.8207396 20.5336704,18.2484453 L21.2040896,17.8044051 C21.8745344,17.3899895 22.3925664,17.0298633 22.75832,16.7239712 C23.123993,16.4181044 23.4287653,16.028354 23.6725824,15.5547435 C23.9163744,15.0811059 24.0382832,14.5088116 24.0382832,13.8378591 C24.0382832,12.9301016 23.7081264,12.1456658 23.0478134,11.4845793 C22.3875008,10.8234661 21.3970848,10.492936 20.0765136,10.492936 C18.9591216,10.492936 18.0245677,10.7840032 17.2728768,11.3661636 C16.5211856,11.9483242 16.0640006,12.8511753 15.9015091,14.0746642 L15.9015091,14.1042614 C15.9015091,14.1700511 15.8890746,14.4561586 15.8642056,14.9625841 L12,14.9625841 C12.0207625,14.4364272 12.0311438,14.1404539 12.0311438,14.0746642 C12.1531326,12.5946124 12.5797868,11.3217675 13.3111331,10.2561309 C14.0425059,9.19049443 14.9872461,8.38139458 16.1452998,7.82883137 C17.303327,7.27626824 18.5832629,7 19.9850811,7 C21.6103992,7 23.0274688,7.30093269 24.236344,7.90282467 C25.445168,8.50471661 26.374656,9.31381653 27.0247552,10.3301242 C27.6749632,11.346432 28,12.4465986 28,13.6306509 C28,14.8147038 27.8323616,15.7866154 27.4971392,16.5463594 C27.1619434,17.3061311 26.704812,17.9474854 26.1257448,18.470452 C25.546784,18.9933904 24.6274022,19.7087653 23.3677845,20.616523 L23.3677845,20.616523 Z M19.5585812,27.0399643 C20.3712511,27.0399643 21.0569999,27.3162321 21.6156671,27.8687946 C22.1743342,28.4213569 22.453748,29.0923086 22.453748,29.8816756 C22.453748,30.6512847 22.1692681,31.3123706 21.6004416,31.8649328 C21.0315355,32.4174956 20.3408006,32.6937634 19.5281574,32.6937634 C18.7358054,32.6937634 18.0602692,32.4174956 17.5015752,31.8649328 C16.9429079,31.3123706 16.663521,30.6512847 16.663521,29.8816756 C16.663521,29.072577 16.9429079,28.3966659 17.5015752,27.8539959 C18.0602692,27.3112992 18.7459645,27.0399643 19.5585812,27.0399643 L19.5585812,27.0399643 Z" id="Shape" fill="#FFFFFF" fill-rule="nonzero" opacity="0.99"></path>
            </g>
        </g>
    </g>
</svg>