<?xml version="1.0" encoding="UTF-8"?>
<svg width="50px" height="13px" viewBox="0 0 50 13" version="1.1" xmlns="http://www.w3.org/2000/svg" xmlns:xlink="http://www.w3.org/1999/xlink">
    <title>Scroll arrow-down</title>
    <g id="Page-1" stroke="none" stroke-width="1" fill="none" fill-rule="evenodd" opacity="0.99">
        <g id="Frame-Copy-3" transform="translate(-10, -8)" fill="#1F82F8" fill-rule="nonzero">
            <g id="Scroll-arrow-down" transform="translate(10.7178, 8.6253)">
                <path d="M6.2890625,8.71554661 C6.2890625,9.30799452 6.14208984,9.81271458 5.84814453,10.2297068 C5.55419922,10.646699 5.14290365,10.96457 4.61425781,11.18332 C4.08561198,11.40207 3.46354167,11.511445 2.74804688,11.511445 C2.36979167,11.511445 2.01204427,11.4932159 1.67480469,11.4567575 C1.3375651,11.4202992 1.02766927,11.3678904 0.745117188,11.299531 C0.462565104,11.2311716 0.214192708,11.1468617 0,11.0466013 L0,9.93234348 C0.341796875,10.0736195 0.758789062,10.2046417 1.25097656,10.3254099 C1.74316406,10.4461781 2.25813802,10.5065622 2.79589844,10.5065622 C3.29720052,10.5065622 3.72102865,10.4393422 4.06738281,10.3049021 C4.41373698,10.170462 4.67692057,9.97677708 4.85693359,9.72384739 C5.03694661,9.4709177 5.12695312,9.16671848 5.12695312,8.81124973 C5.12695312,8.46945286 5.05175781,8.18348281 4.90136719,7.95333958 C4.75097656,7.72319635 4.50146484,7.51356093 4.15283203,7.32443333 C3.80419922,7.13530572 3.32910156,6.93364557 2.72753906,6.71945286 C2.30371094,6.56906223 1.93001302,6.40386041 1.60644531,6.22384739 C1.2828776,6.04383437 1.01171875,5.83989557 0.79296875,5.61203098 C0.57421875,5.3841664 0.409016927,5.11984348 0.297363281,4.81906223 C0.185709635,4.51828098 0.129882812,4.17420546 0.129882812,3.78683567 C0.129882812,3.25363255 0.26546224,2.79676406 0.536621094,2.4162302 C0.807779948,2.03569635 1.18375651,1.74402968 1.66455078,1.5412302 C2.14534505,1.33843072 2.69791667,1.23703098 3.32226562,1.23703098 C3.85546875,1.23703098 4.34879557,1.28716119 4.80224609,1.38742161 C5.25569661,1.48768202 5.67154948,1.62212213 6.04980469,1.79074192 L5.6875,2.7887888 C5.32747396,2.63839817 4.94580078,2.51307265 4.54248047,2.41281223 C4.13916016,2.31255182 3.72330729,2.26242161 3.29492188,2.26242161 C2.86653646,2.26242161 2.50537109,2.32508437 2.21142578,2.45040989 C1.91748047,2.57573541 1.69303385,2.75233046 1.53808594,2.98019505 C1.38313802,3.20805963 1.30566406,3.47921848 1.30566406,3.79367161 C1.30566406,4.14458307 1.37972005,4.43624973 1.52783203,4.66867161 C1.67594401,4.90109348 1.91292318,5.10731093 2.23876953,5.28732395 C2.56461589,5.46733697 2.99641927,5.65532525 3.53417969,5.8512888 C4.12207031,6.0654815 4.62109375,6.29220676 5.03125,6.53146458 C5.44140625,6.77072239 5.75358073,7.06238906 5.96777344,7.40646458 C6.18196615,7.7505401 6.2890625,8.18690077 6.2890625,8.71554661 Z" id="Path"></path>
                <path d="M11.15625,11.511445 C10.4817708,11.511445 9.88704427,11.3724476 9.37207031,11.0944529 C8.85709635,10.8164581 8.45605469,10.3926299 8.16894531,9.82296848 C7.88183594,9.25330702 7.73828125,8.53553359 7.73828125,7.66964817 C7.73828125,6.76274713 7.8898112,6.02104791 8.19287109,5.44455051 C8.49593099,4.86805312 8.9140625,4.44080702 9.44726562,4.16281223 C9.98046875,3.88481744 10.5865885,3.74582005 11.265625,3.74582005 C11.6393229,3.74582005 12.0004883,3.7834177 12.3491211,3.85861301 C12.6977539,3.93380833 12.983724,4.02837213 13.2070312,4.14230442 L12.8652344,5.09249973 C12.6373698,5.0013539 12.3741862,4.91932265 12.0756836,4.84640598 C11.777181,4.77348932 11.4980469,4.73703098 11.2382812,4.73703098 C10.71875,4.73703098 10.2869466,4.84868463 9.94287109,5.07199192 C9.59879557,5.29529921 9.34130859,5.62342421 9.17041016,6.05636692 C8.99951172,6.48930963 8.9140625,7.02251275 8.9140625,7.6559763 C8.9140625,8.26209609 8.99723307,8.77934869 9.16357422,9.20773411 C9.32991536,9.63611952 9.57828776,9.9631052 9.90869141,10.1886911 C10.2390951,10.4142771 10.6526693,10.52707 11.1494141,10.52707 C11.5458984,10.52707 11.9036458,10.4849151 12.2226562,10.4006052 C12.5416667,10.3162953 12.8310547,10.2171742 13.0908203,10.1032419 L13.0908203,11.1149607 C12.8401693,11.2425648 12.5610352,11.3405466 12.253418,11.408906 C11.9458008,11.4772654 11.5800781,11.511445 11.15625,11.511445 Z" id="Path"></path>
                <path d="M18.265625,3.74582005 C18.4160156,3.74582005 18.5732422,3.75379531 18.7373047,3.76974583 C18.9013672,3.78569635 19.0472005,3.80734348 19.1748047,3.83468723 L19.03125,4.88742161 C18.9082031,4.85552057 18.7714844,4.83045546 18.6210938,4.8122263 C18.4707031,4.79399713 18.3294271,4.78488255 18.1972656,4.78488255 C17.8964844,4.78488255 17.612793,4.84526666 17.3461914,4.96603489 C17.0795898,5.08680312 16.8460286,5.2599802 16.6455078,5.48556614 C16.444987,5.71115208 16.2877604,5.98231093 16.1738281,6.2990427 C16.0598958,6.61577447 16.0029297,6.96782525 16.0029297,7.35519505 L16.0029297,11.3747263 L14.8613281,11.3747263 L14.8613281,3.8825388 L15.8046875,3.8825388 L15.9277344,5.26339817 L15.9755859,5.26339817 C16.1305339,4.98540338 16.3173828,4.73133437 16.5361328,4.50119114 C16.7548828,4.27104791 17.0089518,4.08761692 17.2983398,3.95089817 C17.5877279,3.81417942 17.9101562,3.74582005 18.265625,3.74582005 Z" id="Path"></path>
                <path d="M27.0429688,7.61496067 C27.0429688,8.23019505 26.9632161,8.77934869 26.8037109,9.26242161 C26.6442057,9.74549452 26.4140625,10.1533721 26.1132812,10.4860544 C25.8125,10.8187367 25.449056,11.0728057 25.0229492,11.2482615 C24.5968424,11.4237172 24.1149089,11.511445 23.5771484,11.511445 C23.0758464,11.511445 22.6166992,11.4237172 22.199707,11.2482615 C21.7827148,11.0728057 21.4226888,10.8187367 21.1196289,10.4860544 C20.816569,10.1533721 20.5818685,9.74549452 20.4155273,9.26242161 C20.2491862,8.77934869 20.1660156,8.23019505 20.1660156,7.61496067 C20.1660156,6.79464817 20.305013,6.09624322 20.5830078,5.51974583 C20.8610026,4.94324843 21.2586263,4.50346979 21.7758789,4.20040989 C22.2931315,3.89734999 22.9095052,3.74582005 23.625,3.74582005 C24.3085938,3.74582005 24.9067383,3.89848932 25.4194336,4.20382786 C25.9321289,4.5091664 26.3308919,4.95008437 26.6157227,5.52658176 C26.9005534,6.10307916 27.0429688,6.79920546 27.0429688,7.61496067 Z M21.3417969,7.61496067 C21.3417969,8.21652317 21.4215495,8.73833307 21.5810547,9.18039036 C21.7405599,9.62244765 21.9866536,9.96424452 22.3193359,10.205781 C22.6520182,10.4473174 23.0804036,10.5680857 23.6044922,10.5680857 C24.1240234,10.5680857 24.5512695,10.4473174 24.8862305,10.205781 C25.2211914,9.96424452 25.4684245,9.62244765 25.6279297,9.18039036 C25.7874349,8.73833307 25.8671875,8.21652317 25.8671875,7.61496067 C25.8671875,7.01795546 25.7874349,6.50184218 25.6279297,6.06662083 C25.4684245,5.63139947 25.2223307,5.29529921 24.8896484,5.05832005 C24.5569661,4.82134088 24.1263021,4.7028513 23.5976562,4.7028513 C22.8183594,4.7028513 22.2475586,4.96033827 21.8852539,5.47531223 C21.5229492,5.99028619 21.3417969,6.70350234 21.3417969,7.61496067 Z" id="Shape"></path>
                <polygon id="Path" points="30.1464844 11.3747263 29.0048828 11.3747263 29.0048828 0.738007545 30.1464844 0.738007545"></polygon>
                <polygon id="Path" points="33.6806641 11.3747263 32.5390625 11.3747263 32.5390625 0.738007545 33.6806641 0.738007545"></polygon>
                <path d="M48.833203,7.23488271 L44.239453,12.0473827 C44.113672,12.1758978 43.9441408,12.2497263 43.7636719,12.2497263 C43.583203,12.2497263 43.4125782,12.1762266 43.2884374,12.0463438 L38.6946874,7.2338438 C38.4453125,6.94777334 38.4547186,6.55675721 38.7170544,6.30519521 C38.97682,6.05483568 39.3938122,6.06424218 39.6451013,6.32741201 L43.1074219,9.95558584 L43.1074219,0.65652287 C43.1074219,0.294218183 43.4013672,0 43.7390627,0 C44.0767581,0 44.4199219,0.294218183 44.4199219,0.65652287 L44.4199219,9.95613241 L47.8816408,6.32761645 C48.1320003,6.06443286 48.5491018,6.05502677 48.8096877,6.30539966 C49.0738285,6.55675721 49.0820313,6.94777334 48.833203,7.23488271 Z" id="Path"></path>
            </g>
        </g>
    </g>
</svg>