<?xml version="1.0" encoding="UTF-8"?>
<svg width="27px" height="36px" viewBox="0 0 27 36" version="1.1" xmlns="http://www.w3.org/2000/svg" xmlns:xlink="http://www.w3.org/1999/xlink">
    <title>User Avatar</title>
    <g id="Page-1" stroke="none" stroke-width="1" fill="none" fill-rule="evenodd">
        <g id="Group-2-Copy" transform="translate(-281, -66)">
            <g id="User-Avatar" transform="translate(281, 66)">
                <path d="M16.1720637,27.6188273 C16.4518233,27.6188273 16.5917031,27.6188273 16.5917031,27.6188273 C17.0478335,24.4429725 25.9423501,16.6030868 25.9423501,11.285788 C25.9423501,4.83420681 20.696865,0.397058824 13.1707331,0.397058824 C5.64460097,0.397058824 0.399113083,4.85238415 0.399113083,11.285788 C0.399113083,16.6030868 9.29363501,24.4429725 9.74976416,27.6188273 C9.74976416,27.6188273 9.88964404,27.6188273 10.1694038,27.6188273 L16.1720637,27.6188273 L16.1720637,27.6188273 Z" id="path1" fill="#E2ECEE"></path>
                <g id="Group-4" fill="#076B7C">
                    <path d="M13.1707317,0 C20.919218,0 26.3414634,4.61232173 26.3414634,11.285789 C26.3414634,13.0725879 25.4411227,15.1533101 23.7375623,17.7251833 C23.1365774,18.6324934 22.4576667,19.5715282 21.5764597,20.7325878 C20.868516,21.6653571 20.2736457,22.4488169 19.7731971,23.1110385 C19.7731971,23.1110385 19.1602537,23.9246142 19.1602537,23.9246142 C17.0592664,26.7245821 17.111707,26.8053356 16.9868037,27.6749916 C16.9868037,27.6749916 16.9704825,27.7886231 16.9378402,28.0158861 L9.40362506,28.0158861 C9.3709843,27.7886231 9.35466392,27.6749916 9.35466392,27.6749916 C9.2297606,26.8053356 9.28219961,26.7245779 7.18121107,23.9246125 C7.18121107,23.9246125 6.56826629,23.1110368 6.56826629,23.1110368 C6.06781853,22.4488158 5.47294715,21.6653543 4.76500531,20.7325858 C3.88379801,19.5715282 3.20488788,18.6324934 2.60390239,17.7251833 C0.900342211,15.1533101 0,13.0725879 0,11.285789 C0,4.62417861 5.42974531,0 13.1707317,0 C13.1707317,0 13.1707317,0 13.1707317,0 Z M13.1707314,0.794117647 C5.84544542,0.794117647 0.798226156,5.09252248 0.798226156,11.2857886 C0.798226156,12.876465 1.64615415,14.8360565 3.27042444,17.2882233 C3.8604519,18.1789939 4.53022411,19.1053867 5.40203463,20.2540637 C9.25584312,25.3317563 9.85576289,26.1048041 10.0401429,26.8971878 C10.0401429,26.8971878 10.0612321,26.996651 10.0612321,26.996651 C10.074121,27.0634435 10.084947,27.1316188 10.0953505,27.2036857 C10.0953505,27.2036857 10.09591,27.2095552 10.097029,27.2212941 L16.2433696,27.2212941 C16.2451996,27.2095552 16.2461146,27.2036857 16.2461146,27.2036857 C16.2565184,27.1316188 16.2673443,27.0634435 16.2802353,26.996651 C16.2802353,26.996651 16.3013242,26.8971912 16.3013242,26.8971912 C16.485703,26.104808 17.0856213,25.3317589 20.939429,20.2540669 C21.8112413,19.1053867 22.481013,18.1789939 23.0710394,17.2882233 C24.6953081,14.8360565 25.5432367,12.876465 25.5432367,11.2857886 C25.5432367,5.08090694 20.5036867,0.794117647 13.1707314,0.794117647 C13.1707314,0.794117647 13.1707314,0.794117647 13.1707314,0.794117647 Z" id="path1#1" fill-rule="nonzero"></path>
                    <rect id="Rectangle" x="8.42926829" y="29.6470588" width="9.48292683" height="6.35294118"></rect>
                    <path d="M12.4310636,0.587303492 C12.6193487,0.473284582 12.8648933,0.532704254 12.979503,0.720021088 C13.0941104,0.907337861 13.0343837,1.15161873 12.8460984,1.26563765 C4.91035051,6.07123022 4.56520957,14.6553382 11.9190244,27.1969931 C12.0300902,27.3864101 11.9657782,27.6295387 11.7753805,27.7400308 C11.5849832,27.8505256 11.3405997,27.7865432 11.2295337,27.5971263 C3.68312723,14.7270147 4.04752076,5.66406354 12.4310636,0.587303492 C12.4310636,0.587303492 12.4310636,0.587303492 12.4310636,0.587303492 Z" id="Path-2"></path>
                    <path d="M13.3783291,0.587303491 C13.1900429,0.473284584 12.9444984,0.532704254 12.8298896,0.720021098 C12.7152808,0.907337869 12.7750069,1.15161876 12.9632931,1.26563761 C20.9052204,6.0749724 21.4654623,14.6644245 14.5474526,27.2060397 C14.441409,27.3982868 14.5120961,27.6396542 14.7053361,27.7451528 C14.8985762,27.8506486 15.1411925,27.7803258 15.2472361,27.5880817 C22.3464689,14.7179291 21.7556911,5.66032167 13.3783291,0.587303491 C13.3783291,0.587303491 13.3783291,0.587303491 13.3783291,0.587303491 Z" id="Path-2-Copy"></path>
                </g>
            </g>
        </g>
    </g>
</svg>