<?xml version="1.0" encoding="UTF-8"?>
<svg width="50px" height="40px" viewBox="0 0 50 40" version="1.1" xmlns="http://www.w3.org/2000/svg" xmlns:xlink="http://www.w3.org/1999/xlink">
    <title>code</title>
    <g id="Page-1" stroke="none" stroke-width="1" fill="none" fill-rule="evenodd">
        <g id="Admin-Publisher-Favicons-" transform="translate(-118, -498)" fill="#3A494A" fill-rule="nonzero">
            <g id="code" transform="translate(118, 497.9994)">
                <path d="M32.437501,1.6459295 L19.9374998,39.1490552 C19.7187495,39.7974917 19.0078127,40.0865528 18.351562,39.9381181 C17.7031255,39.7193667 17.34375,39.0084287 17.5625002,38.3521792 L30.062499,0.855304881 C30.2812505,0.200147314 30.9921885,-0.153835134 31.648438,0.0644847588 C32.2968745,0.282804652 32.585938,0.990461989 32.437501,1.6459295 Z M13.3281255,10.9303042 L3.13125014,20.0006172 L13.3281255,29.0631172 C13.8437498,29.5240542 13.8906252,30.3131172 13.367188,30.8287427 C12.976563,31.3443681 12.117188,31.3912412 11.6718745,30.9303042 L0.419609547,20.8678052 C0.152734518,20.6959292 0,20.3599927 0,20.0006172 C0,19.6412417 0.15265584,19.3053052 0.419530869,19.0631172 L11.6718745,9.06311719 C12.117188,8.60999314 12.976563,8.65686624 13.367188,9.17249171 C13.8906252,9.61780517 13.8437498,10.4771802 13.3281255,10.9303042 Z M38.3281255,9.06311719 L49.5781231,19.0631172 C49.84375,19.3053052 50,19.6412417 50,19.9303052 C50,20.3599927 49.84375,20.6959292 49.5781231,20.8678052 L38.3281255,30.9303042 C37.8125,31.3912412 37.023437,31.3443681 36.5625,30.8287427 C36.109376,30.3131172 36.156249,29.5240542 36.6718745,29.0631172 L46.8671894,19.9303052 L36.6718745,10.9303042 C36.156249,10.4771802 36.109376,9.61780517 36.5625,9.17249171 C37.023437,8.65686624 37.8125,8.60999314 38.3281255,9.06311719 Z" id="Shape"></path>
            </g>
        </g>
    </g>
</svg>