<?xml version="1.0" encoding="UTF-8"?>
<svg width="40px" height="40px" viewBox="0 0 40 40" version="1.1" xmlns="http://www.w3.org/2000/svg" xmlns:xlink="http://www.w3.org/1999/xlink">
    <title>icon/action/exit_to_app_24px</title>
    <g id="Publisher-Control-Tower" stroke="none" stroke-width="1" fill="none" fill-rule="evenodd">
        <g id="products" transform="translate(-2771, -148)" fill="#FFFFFF" fill-rule="nonzero">
            <path d="M2788.31111,177.533329 C2789.17778,178.399996 2790.57778,178.399996 2791.44445,177.533329 C2791.44445,177.533329 2799.42223,169.555552 2799.42223,169.555552 C2800.28889,168.688886 2800.28889,167.288886 2799.42223,166.422219 C2799.42223,166.422219 2791.44445,158.444442 2791.44445,158.444442 C2791.02927,158.028331 2790.4656,157.794464 2789.87778,157.794464 C2789.28996,157.794464 2788.72629,158.028331 2788.31111,158.444442 C2787.44445,159.311109 2787.44445,160.711108 2788.31111,161.577775 C2788.31111,161.577775 2789.70371,162.977775 2792.48889,165.777774 C2779.64445,165.777774 2773.22222,165.777774 2773.22222,165.777774 C2772,165.777774 2771,166.777774 2771,167.999996 C2771,169.222218 2772,170.222219 2773.22222,170.222219 C2773.22222,170.222219 2779.64445,170.222219 2792.48889,170.222219 C2789.70371,173.007404 2788.31111,174.399996 2788.31111,174.399996 C2787.44445,175.266664 2787.46667,176.688884 2788.31111,177.533329 C2788.31111,177.533329 2788.31111,177.533329 2788.31111,177.533329 Z M2806.55556,148 C2785.81481,148 2775.44444,148 2775.44444,148 C2772.97778,148 2771,150 2771,152.444444 C2771,152.444444 2771,159.111112 2771,159.111112 C2771,160.333334 2772,161.333334 2773.22222,161.333334 C2774.44444,161.333334 2775.44444,160.333334 2775.44444,159.111112 C2775.44444,159.111112 2775.44444,154.666667 2775.44444,154.666667 C2775.44444,153.444444 2776.44444,152.444444 2777.66667,152.444444 C2777.66667,152.444444 2804.33333,152.444444 2804.33333,152.444444 C2805.55556,152.444444 2806.55556,153.444444 2806.55556,154.666667 C2806.55556,154.666667 2806.55556,181.333332 2806.55556,181.333332 C2806.55556,182.555556 2805.55556,183.555556 2804.33333,183.555556 C2804.33333,183.555556 2777.66667,183.555556 2777.66667,183.555556 C2776.44444,183.555556 2775.44444,182.555556 2775.44444,181.333332 C2775.44444,181.333332 2775.44444,176.888888 2775.44444,176.888888 C2775.44444,175.666666 2774.44444,174.666668 2773.22222,174.666668 C2772,174.666668 2771,175.666666 2771,176.888888 C2771,176.888888 2771,183.555556 2771,183.555556 C2771,186 2773,188 2775.44444,188 C2775.44444,188 2806.55556,188 2806.55556,188 C2809,188 2811,186 2811,183.555556 C2811,183.555556 2811,152.444444 2811,152.444444 C2811,150 2809,148 2806.55556,148 C2806.55556,148 2806.55556,148 2806.55556,148 Z" id="icon/action/exit_to_app_24px"></path>
        </g>
    </g>
</svg>