<?xml version="1.0" encoding="UTF-8"?>
<svg width="50px" height="41px" viewBox="0 0 50 41" version="1.1" xmlns="http://www.w3.org/2000/svg" xmlns:xlink="http://www.w3.org/1999/xlink">
    <title>Products</title>
    <g id="Publisher-Control-Tower" stroke="none" stroke-width="1" fill="none" fill-rule="evenodd">
        <g id="products" transform="translate(-38, -587)" fill="#6E7779" fill-rule="nonzero">
            <g id="LIST-ITEMS" transform="translate(-13, 463)">
                <path d="M61,127.765369 L86,127.765369 C86.6875,127.765369 87.25,128.330174 87.25,129.020492 L87.25,131.530738 L91,131.530738 L91,129.020492 C91,126.251377 88.7578125,124 86,124 L61,124 C58.2421875,124 56,126.251377 56,129.020492 L56,149.102459 L52.25,149.102459 C51.5625,149.102459 51,149.667264 51,150.357582 C51,152.436379 52.6796875,154.122951 54.75,154.122951 L78.5,154.122951 L78.5,149.102459 L59.75,149.102459 L59.75,129.020492 C59.75,128.330174 60.3125,127.765369 61,127.765369 Z M81,137.806352 L81,160.398566 C81,162.477363 82.6796875,164.163934 84.75,164.163934 L97.25,164.163934 C99.3203125,164.163934 101,162.477363 101,160.398566 L101,137.806352 C101,135.727555 99.3203125,134.040984 97.25,134.040984 L84.75,134.040984 C82.6796875,134.040984 81,135.727555 81,137.806352 Z M84.75,137.806352 L97.25,137.806352 L97.25,160.398566 L84.75,160.398566 L84.75,137.806352 Z" id="Products"></path>
            </g>
        </g>
    </g>
</svg>