<?xml version="1.0" encoding="UTF-8"?>
<svg width="50px" height="50px" viewBox="0 0 50 50" version="1.1" xmlns="http://www.w3.org/2000/svg" xmlns:xlink="http://www.w3.org/1999/xlink">
    <title>accout </title>
    <g id="Publisher-Control-Tower" stroke="none" stroke-width="1" fill="none" fill-rule="evenodd">
        <g id="products" transform="translate(-40, -813)" fill="#6E7779" fill-rule="nonzero">
            <path d="M80.2441406,853.683594 C78.8769531,848.263672 73.9746094,844.25 68.125,844.25 L61.875,844.25 C56.0253906,844.25 51.1230469,848.263672 49.7558594,853.683594 C45.6640625,849.708984 43.125,844.152344 43.125,838 C43.125,825.919922 52.9199219,816.125 65,816.125 C77.0800781,816.125 86.875,825.919922 86.875,838 C86.875,844.152344 84.3359375,849.708984 80.2441406,853.683594 Z M77.4609375,855.96875 C73.9355469,858.429688 69.6386719,859.875 65,859.875 C60.3613281,859.875 56.0644531,858.429688 52.5292969,855.978516 C52.9199219,851.164062 56.953125,847.375 61.875,847.375 L68.125,847.375 C73.046875,847.375 77.0703125,851.164062 77.4707031,855.978516 L77.4609375,855.96875 Z M65,863 C78.8071187,863 90,851.807119 90,838 C90,824.192881 78.8071187,813 65,813 C51.1928813,813 40,824.192881 40,838 C40,851.807119 51.1928813,863 65,863 Z M65,838 C62.4111652,838 60.3125,835.901335 60.3125,833.3125 C60.3125,830.723665 62.4111652,828.625 65,828.625 C67.5888348,828.625 69.6875,830.723665 69.6875,833.3125 C69.6875,835.901335 67.5888348,838 65,838 Z M57.1875,833.3125 C57.1875,837.627225 60.6852754,841.125 65,841.125 C69.3147246,841.125 72.8125,837.627225 72.8125,833.3125 C72.8125,828.997775 69.3147246,825.5 65,825.5 C60.6852754,825.5 57.1875,828.997775 57.1875,833.3125 Z" id="accout-"></path>
        </g>
    </g>
</svg>