<?xml version="1.0" encoding="UTF-8"?>
<svg width="50px" height="50px" viewBox="0 0 50 50" version="1.1" xmlns="http://www.w3.org/2000/svg" xmlns:xlink="http://www.w3.org/1999/xlink">
    <title>Help</title>
    <g id="Publisher-Control-Tower" stroke="none" stroke-width="1" fill="none" fill-rule="evenodd">
        <g id="products" transform="translate(-40, -934)" fill="#6E7779" fill-rule="nonzero">
            <g id="LIST-ITEMS" transform="translate(-13, 463)">
                <path d="M99.875,496 C99.875,483.918771 90.0812289,474.125 78,474.125 C65.9187711,474.125 56.125,483.918771 56.125,496 C56.125,508.081229 65.9187711,517.875 78,517.875 C90.0812289,517.875 99.875,508.081229 99.875,496 Z M53,496 C53,482.192881 64.1928813,471 78,471 C91.8071187,471 103,482.192881 103,496 C103,509.807119 91.8071187,521 78,521 C64.1928813,521 53,509.807119 53,496 Z M69.40625,488.96875 C69.40625,485.951172 71.8574219,483.5 74.875,483.5 L80.34375,483.5 C83.8105469,483.5 86.59375,486.332031 86.59375,489.779297 C86.59375,492.123047 85.2851563,494.291016 83.1855469,495.365234 L79.5625,497.201172 L79.5625,497.5625 L79.5625,499.125 L76.4375,499.125 L76.4375,497.5625 L76.4375,496.244141 L76.4375,495.287109 L77.2871094,494.847656 L81.7597656,492.5625 C82.8046875,492.035156 83.46875,490.941406 83.46875,489.759766 C83.46875,488.021484 82.0625,486.605469 80.34375,486.605469 L74.875,486.605469 C73.5761719,486.605469 72.53125,487.650391 72.53125,488.949219 L72.53125,489.730469 L69.40625,489.730469 L69.40625,488.949219 L69.40625,488.96875 Z M75.65625,502.25 L80.34375,502.25 L80.34375,506.9375 L75.65625,506.9375 L75.65625,502.25 Z" id="Help"></path>
            </g>
        </g>
    </g>
</svg>