<?xml version="1.0" encoding="UTF-8"?>
<svg width="160px" height="160px" viewBox="0 0 160 160" version="1.1" xmlns="http://www.w3.org/2000/svg" xmlns:xlink="http://www.w3.org/1999/xlink">
    <title>lightbox_icon</title>
    <defs>
        <path d="M5.04,24 L154.96,24 C155.534376,24 156,24.4656239 156,25.04 L156,152.96 C156,153.534376 155.534376,154 154.96,154 L5.04,154 C4.46562386,154 4,153.534376 4,152.96 L4,25.04 C4,24.4656239 4.46562386,24 5.04,24 Z" id="path-1"></path>
        <linearGradient x1="-7.38904937%" y1="45.4207064%" x2="114.193803%" y2="54.5792936%" id="linearGradient-3">
            <stop stop-color="#53BBBC" offset="0%"></stop>
            <stop stop-color="#2A909A" offset="100%"></stop>
        </linearGradient>
        <rect id="path-4" x="16" y="54" width="128" height="76" rx="0.52"></rect>
        <filter x="-11.7%" y="-19.7%" width="123.4%" height="139.5%" filterUnits="objectBoundingBox" id="filter-5">
            <feOffset dx="0" dy="0" in="SourceAlpha" result="shadowOffsetOuter1"></feOffset>
            <feGaussianBlur stdDeviation="5" in="shadowOffsetOuter1" result="shadowBlurOuter1"></feGaussianBlur>
            <feColorMatrix values="0 0 0 0 0.15380388   0 0 0 0 0.20536817   0 0 0 0 0.329320791  0 0 0 0.0952502264 0" type="matrix" in="shadowBlurOuter1"></feColorMatrix>
        </filter>
        <linearGradient x1="-65.2443788%" y1="69.3013498%" x2="100%" y2="41.0523139%" id="linearGradient-6">
            <stop stop-color="#FF5721" offset="0%"></stop>
            <stop stop-color="#FF8A66" offset="100%"></stop>
        </linearGradient>
        <linearGradient x1="107.618211%" y1="44.8341837%" x2="-4.72558525%" y2="59.1712914%" id="linearGradient-7">
            <stop stop-color="#619BFF" offset="0%"></stop>
            <stop stop-color="#4D82FF" offset="100%"></stop>
        </linearGradient>
        <linearGradient x1="241.408929%" y1="50%" x2="-120.003762%" y2="50%" id="linearGradient-8">
            <stop stop-color="#F281F2" offset="0%"></stop>
            <stop stop-color="#ED4CED" offset="100%"></stop>
        </linearGradient>
        <linearGradient x1="241.408929%" y1="50%" x2="-120.003762%" y2="50%" id="linearGradient-9">
            <stop stop-color="#9ACC9A" offset="0%"></stop>
            <stop stop-color="#408C40" offset="100%"></stop>
        </linearGradient>
        <linearGradient x1="0%" y1="47.637051%" x2="100%" y2="52.362949%" id="linearGradient-10">
            <stop stop-color="#F6C047" offset="0%"></stop>
            <stop stop-color="#F8A233" offset="100%"></stop>
        </linearGradient>
    </defs>
    <g id="lightbox_icon" stroke="none" stroke-width="1" fill="none" fill-rule="evenodd">
        <g>
            <path d="M150,0.5 C152.623353,0.5 154.998353,1.56332372 156.717514,3.28248558 C158.436676,5.00164744 159.5,7.37664744 159.5,10 L159.5,150 C159.5,152.623353 158.436676,154.998353 156.717514,156.717514 C154.998353,158.436676 152.623353,159.5 150,159.5 L10,159.5 C7.37664744,159.5 5.00164744,158.436676 3.28248558,156.717514 C1.56332372,154.998353 0.5,152.623353 0.5,150 L0.5,10 C0.5,7.37664744 1.56332372,5.00164744 3.28248558,3.28248558 C5.00164744,1.56332372 7.37664744,0.5 10,0.5 Z" id="Rectangle-2" stroke="#D3D9E3" fill="#F0F0F0"></path>
            <g id="Group-4" opacity="0.699999988" transform="translate(8, 6)">
                <circle id="Oval-2" fill="#FB764D" cx="4.68" cy="4.68" r="4.68"></circle>
                <circle id="Oval-2" fill="#FFD393" cx="18.2" cy="4.68" r="4.68"></circle>
                <circle id="Oval-2" fill="#7FF27F" cx="32.76" cy="4.68" r="4.68"></circle>
            </g>
            <mask id="mask-2" fill="white">
                <use xlink:href="#path-1"></use>
            </mask>
            <use id="Rectangle-2-Copy" fill="#E2F3F3" xlink:href="#path-1"></use>
            <rect id="Rectangle-6" fill="url(#linearGradient-3)" opacity="0.695800781" mask="url(#mask-2)" x="4" y="24" width="152" height="46"></rect>
            <g id="Group" stroke-linecap="square" stroke-linejoin="round" mask="url(#mask-2)" stroke="#FFFFFF" stroke-width="1.8">
                <g transform="translate(130, 38)" id="Path">
                    <line x1="1.0611" y1="1.215" x2="9.1611" y2="9.315"></line>
                    <line x1="1.0611" y1="1.215" x2="9.1611" y2="9.315" transform="translate(5.1111, 5.265) rotate(90) translate(-5.1111, -5.265)"></line>
                </g>
            </g>
            <g id="Rectangle-4" mask="url(#mask-2)">
                <use fill="black" fill-opacity="1" filter="url(#filter-5)" xlink:href="#path-4"></use>
                <use fill="#FFFFFF" fill-rule="evenodd" xlink:href="#path-4"></use>
            </g>
            <g id="Group-3" mask="url(#mask-2)">
                <g transform="translate(22, 66)" id="Rectangle-5">
                    <rect fill="url(#linearGradient-6)" x="0" y="0" width="56" height="18" rx="2"></rect>
                    <rect fill="url(#linearGradient-7)" x="60" y="0" width="56" height="18" rx="2"></rect>
                </g>
            </g>
            <g id="Group-3-Copy-2" mask="url(#mask-2)" fill-rule="nonzero">
                <g transform="translate(22, 90)" id="Rectangle-5">
                    <rect fill="url(#linearGradient-8)" x="0" y="0" width="56" height="18" rx="2"></rect>
                    <rect fill="url(#linearGradient-9)" x="60" y="0" width="56" height="18" rx="2"></rect>
                </g>
            </g>
            <rect id="Rectangle-5" fill="url(#linearGradient-10)" mask="url(#mask-2)" x="57" y="114" width="46" height="10" rx="2"></rect>
        </g>
    </g>
</svg>