<?xml version="1.0" encoding="UTF-8" standalone="no"?>
<!DOCTYPE svg PUBLIC "-//W3C//DTD SVG 1.1//EN" "http://www.w3.org/Graphics/SVG/1.1/DTD/svg11.dtd">
<svg width="100%" height="100%" viewBox="0 0 3000 3000" version="1.1" xmlns="http://www.w3.org/2000/svg" xmlns:xlink="http://www.w3.org/1999/xlink" xml:space="preserve" xmlns:serif="http://www.serif.com/" style="fill-rule:evenodd;clip-rule:evenodd;stroke-linejoin:round;stroke-miterlimit:2;">
    <g transform="matrix(1,0,0,1,-3584.04,-19.4938)">
        <g id="Clicktripz-logo-mark-10-10" transform="matrix(0.980264,0,0,1.20959,2010.61,30.1563)">
            <rect x="1605.11" y="-8.815" width="3060.4" height="2480.18" style="fill:none;"/>
            <clipPath id="_clip1">
                <rect x="1605.11" y="-8.815" width="3060.4" height="2480.18"/>
            </clipPath>
            <g clip-path="url(#_clip1)">
                <g transform="matrix(1,0,0,1,-28.4251,-13.84)">
                    <g transform="matrix(27.0391,0,0,21.5781,1405.42,-50.8283)">
                        <path d="M80.015,78.491C85.516,78.264 90.678,81.769 92.557,87.203C96.128,97.534 86.072,108.442 76.011,104.162C73.695,103.176 71.691,101.712 69.253,100.961C66.44,100.094 63.429,99.784 60.515,100.134C57.728,100.469 55.005,101.271 52.517,102.632C50.271,103.86 48.347,104.921 45.734,105.027C35.24,105.457 28.699,92.787 34.885,83.902C37.805,79.709 43.005,77.641 47.868,78.764C50.29,79.321 52.255,80.886 54.53,81.838C57.113,82.922 59.875,83.455 62.656,83.525C62.727,83.53 62.799,83.534 62.873,83.532C62.953,83.534 63.03,83.53 63.102,83.523C66.338,83.439 69.52,82.713 72.459,81.284C75.037,80.034 77.054,78.613 80.015,78.491" style="fill:rgb(74,180,141);"/>
                    </g>
                    <g transform="matrix(27.0391,0,0,21.5781,1405.42,-50.8283)">
                        <path d="M80.015,15.031C85.516,14.802 90.678,18.309 92.557,23.743C96.128,34.074 86.072,44.982 76.011,40.7C73.695,39.714 71.691,38.251 69.253,37.499C66.44,36.634 63.429,36.324 60.515,36.675C57.728,37.01 55.005,37.811 52.517,39.172C50.271,40.4 48.347,41.461 45.734,41.567C35.24,41.997 28.699,29.325 34.885,20.442C37.805,16.247 43.005,14.181 47.868,15.302C50.29,15.861 52.255,17.426 54.53,18.378C57.113,19.461 59.875,19.995 62.656,20.065C62.727,20.07 62.799,20.074 62.873,20.072C62.953,20.074 63.03,20.07 63.102,20.063C66.338,19.979 69.52,19.251 72.459,17.825C75.037,16.572 77.054,15.151 80.015,15.031" style="fill:rgb(83,187,188);"/>
                    </g>
                    <g transform="matrix(27.0391,0,0,21.5781,1405.42,-50.8283)">
                        <path d="M40.372,60.119C40.372,67.449 34.667,73.391 27.63,73.391C20.593,73.391 14.889,67.449 14.889,60.119C14.889,52.789 20.593,46.847 27.63,46.847C34.667,46.847 40.372,52.789 40.372,60.119" style="fill:rgb(42,144,154);"/>
                    </g>
                    <g transform="matrix(27.0391,0,0,21.5781,1518.16,-26.7271)">
                        <path d="M97.723,46.766C103.224,46.539 108.386,50.043 110.263,55.478C113.836,65.809 103.78,76.717 93.717,72.435C91.403,71.449 89.397,69.987 86.961,69.236C84.148,68.369 81.137,68.059 78.223,68.409C75.437,68.744 72.714,69.546 70.225,70.907C67.979,72.134 66.056,73.195 63.442,73.302C52.948,73.732 46.407,61.062 52.593,52.177C55.513,47.983 60.714,45.916 65.576,47.039C67.998,47.596 69.963,49.161 72.238,50.113C74.821,51.197 77.583,51.73 80.362,51.799C80.433,51.805 80.507,51.809 80.581,51.807C80.661,51.809 80.738,51.805 80.81,51.798C84.046,51.714 87.228,50.986 90.167,49.559C92.745,48.309 94.762,46.888 97.723,46.766" style="fill:rgb(246,192,71);"/>
                    </g>
                </g>
                <g transform="matrix(1.02013,0,0,0.826728,-26.165,-11.5628)">
                    <rect x="1599.04" y="-13.769" width="3000.09" height="3034.18" style="fill:none;"/>
                </g>
            </g>
        </g>
    </g>
</svg>
