<?xml version="1.0" encoding="UTF-8"?>
<svg width="728px" height="315px" viewBox="0 0 728 315" version="1.1" xmlns="http://www.w3.org/2000/svg" xmlns:xlink="http://www.w3.org/1999/xlink">
    <title>Revenue-chart</title>
    <defs>
        <rect id="path-1" x="0" y="0" width="728" height="313" rx="10"></rect>
        <filter x="-0.1%" y="-0.3%" width="100.3%" height="101.3%" filterUnits="objectBoundingBox" id="filter-2">
            <feOffset dx="0" dy="2" in="SourceAlpha" result="shadowOffsetOuter1"></feOffset>
            <feColorMatrix values="0 0 0 0 0   0 0 0 0 0   0 0 0 0 0  0 0 0 0.297348343 0" type="matrix" in="shadowOffsetOuter1"></feColorMatrix>
        </filter>
    </defs>
    <g id="Page-1" stroke="none" stroke-width="1" fill="none" fill-rule="evenodd">
        <g id="Revenue-chart">
            <g id="Rectangle">
                <use fill="black" fill-opacity="1" filter="url(#filter-2)" xlink:href="#path-1"></use>
                <use fill="#FFFFFF" fill-rule="evenodd" xlink:href="#path-1"></use>
            </g>
            <g id="Group-11" transform="translate(13.5464, 166.4121)">
                <g id="$10m" fill="#333333" fill-opacity="0.653231961" fill-rule="nonzero">
                    <path d="M1.90917969,8.16894531 L1.90917969,7.14355469 C1.53483073,7.13704427 1.17757161,7.10449219 0.837402344,7.04589844 C0.497233073,6.98730469 0.219726562,6.91080729 0.0048828125,6.81640625 L0.0048828125,6.02539062 C0.229492188,6.12955729 0.517578125,6.22070312 0.869140625,6.29882812 C1.22070312,6.37695312 1.56738281,6.41927083 1.90917969,6.42578125 L1.90917969,4.27734375 C1.47949219,4.15690104 1.12386068,4.01936849 0.842285156,3.86474609 C0.560709635,3.7101237 0.349934896,3.52050781 0.209960938,3.29589844 C0.0699869792,3.07128906 0,2.79947917 0,2.48046875 C0,2.1484375 0.0789388021,1.86442057 0.236816406,1.62841797 C0.39469401,1.39241536 0.616861979,1.20768229 0.903320312,1.07421875 C1.18977865,0.940755208 1.5250651,0.864257812 1.90917969,0.844726562 L1.90917969,0 L2.50488281,0 L2.50488281,0.834960938 C2.8531901,0.844726562 3.17057292,0.88297526 3.45703125,0.949707031 C3.74348958,1.0164388 4.00878906,1.10188802 4.25292969,1.20605469 L3.99902344,1.88476562 C3.77766927,1.796875 3.53841146,1.72200521 3.28125,1.66015625 C3.02408854,1.59830729 2.76529948,1.55598958 2.50488281,1.53320312 L2.50488281,3.66699219 C2.94108073,3.79394531 3.30647786,3.92903646 3.60107422,4.07226562 C3.89567057,4.21549479 4.11783854,4.39290365 4.26757812,4.60449219 C4.41731771,4.81608073 4.4921875,5.08951823 4.4921875,5.42480469 C4.4921875,5.9000651 4.31803385,6.28336589 3.96972656,6.57470703 C3.62141927,6.86604818 3.13313802,7.04264323 2.50488281,7.10449219 L2.50488281,8.16894531 L1.90917969,8.16894531 Z M2.50488281,6.38183594 C2.90527344,6.34277344 3.2039388,6.24593099 3.40087891,6.09130859 C3.59781901,5.9366862 3.69628906,5.73242188 3.69628906,5.47851562 C3.69628906,5.29622396 3.65804036,5.14648438 3.58154297,5.02929688 C3.50504557,4.91210938 3.38053385,4.81038411 3.20800781,4.72412109 C3.03548177,4.63785807 2.80110677,4.55566406 2.50488281,4.47753906 L2.50488281,6.38183594 Z M1.90917969,3.46191406 L1.90917969,1.55273438 C1.66503906,1.56901042 1.45996094,1.61458333 1.29394531,1.68945312 C1.12792969,1.76432292 1.00341797,1.86197917 0.920410156,1.98242188 C0.837402344,2.10286458 0.795898438,2.24609375 0.795898438,2.41210938 C0.795898438,2.60416667 0.832519531,2.76448568 0.905761719,2.89306641 C0.979003906,3.02164714 1.09781901,3.13069661 1.26220703,3.22021484 C1.42659505,3.30973307 1.6422526,3.39029948 1.90917969,3.46191406 Z" id="Shape"></path>
                    <path d="M8.60839844,7.58789062 L7.81738281,7.58789062 L7.81738281,2.52929688 C7.81738281,2.33723958 7.81819661,2.17203776 7.81982422,2.03369141 C7.82145182,1.89534505 7.82470703,1.76839193 7.82958984,1.65283203 C7.83447266,1.53727214 7.84179688,1.41927083 7.8515625,1.29882812 C7.75065104,1.40299479 7.65625,1.49169922 7.56835938,1.56494141 C7.48046875,1.63818359 7.37141927,1.72851562 7.24121094,1.8359375 L6.42578125,2.49023438 L6.00097656,1.93847656 L7.93457031,0.44921875 L8.60839844,0.44921875 L8.60839844,7.58789062 Z" id="Path"></path>
                    <path d="M16.0253906,4.00878906 C16.0253906,4.58821615 15.9814453,5.10579427 15.8935547,5.56152344 C15.8056641,6.0172526 15.6673177,6.40299479 15.4785156,6.71875 C15.2897135,7.03450521 15.0455729,7.27457682 14.7460938,7.43896484 C14.4466146,7.60335286 14.0869141,7.68554688 13.6669922,7.68554688 C13.1363932,7.68554688 12.6977539,7.5406901 12.3510742,7.25097656 C12.0043945,6.96126302 11.7456055,6.54215495 11.574707,5.99365234 C11.4038086,5.44514974 11.3183594,4.78352865 11.3183594,4.00878906 C11.3183594,3.24707031 11.3956706,2.59195964 11.550293,2.04345703 C11.7049154,1.49495443 11.9547526,1.07340495 12.2998047,0.778808594 C12.6448568,0.48421224 13.1005859,0.336914062 13.6669922,0.336914062 C14.2041016,0.336914062 14.6468099,0.482584635 14.9951172,0.773925781 C15.3434245,1.06526693 15.6022135,1.4851888 15.7714844,2.03369141 C15.9407552,2.58219401 16.0253906,3.2405599 16.0253906,4.00878906 Z M12.1337891,4.00878906 C12.1337891,4.67285156 12.1842448,5.22623698 12.2851562,5.66894531 C12.3860677,6.11165365 12.5496419,6.44287109 12.7758789,6.66259766 C13.0021159,6.88232422 13.2991536,6.9921875 13.6669922,6.9921875 C14.0348307,6.9921875 14.3318685,6.88313802 14.5581055,6.66503906 C14.7843424,6.4469401 14.9487305,6.11653646 15.0512695,5.67382812 C15.1538086,5.23111979 15.2050781,4.67610677 15.2050781,4.00878906 C15.2050781,3.35449219 15.1546224,2.80680339 15.0537109,2.36572266 C14.9527995,1.92464193 14.7900391,1.59261068 14.5654297,1.36962891 C14.3408203,1.14664714 14.0413411,1.03515625 13.6669922,1.03515625 C13.2926432,1.03515625 12.9931641,1.14664714 12.7685547,1.36962891 C12.5439453,1.59261068 12.3819987,1.92464193 12.2827148,2.36572266 C12.183431,2.80680339 12.1337891,3.35449219 12.1337891,4.00878906 Z" id="Shape"></path>
                    <path d="M20.6494141,7.58789062 L18.2519531,1.26953125 L18.2128906,1.26953125 C18.2259115,1.40299479 18.2373047,1.56575521 18.2470703,1.7578125 C18.2568359,1.94986979 18.264974,2.15901693 18.2714844,2.38525391 C18.2779948,2.61149089 18.28125,2.84179688 18.28125,3.07617188 L18.28125,7.58789062 L17.5097656,7.58789062 L17.5097656,0.44921875 L18.7402344,0.44921875 L21.0009766,6.38671875 L21.0351562,6.38671875 L23.3300781,0.44921875 L24.5507812,0.44921875 L24.5507812,7.58789062 L23.7304688,7.58789062 L23.7304688,3.01757812 C23.7304688,2.80598958 23.733724,2.59358724 23.7402344,2.38037109 C23.7467448,2.16715495 23.7548828,1.96533203 23.7646484,1.77490234 C23.7744141,1.58447266 23.7841797,1.41927083 23.7939453,1.27929688 L23.7548828,1.27929688 L21.328125,7.58789062 L20.6494141,7.58789062 Z" id="Path"></path>
                </g>
                <line x1="37.9536133" y1="3.58789062" x2="698.953613" y2="3.58789062" id="Path-2-Copy" stroke="#979797"></line>
            </g>
            <g id="Group-12" transform="translate(13.5464, 59.4121)">
                <g id="$20m" fill="#333333" fill-opacity="0.653231961" fill-rule="nonzero">
                    <path d="M1.90917969,8.16894531 L1.90917969,7.14355469 C1.53483073,7.13704427 1.17757161,7.10449219 0.837402344,7.04589844 C0.497233073,6.98730469 0.219726562,6.91080729 0.0048828125,6.81640625 L0.0048828125,6.02539062 C0.229492188,6.12955729 0.517578125,6.22070312 0.869140625,6.29882812 C1.22070312,6.37695312 1.56738281,6.41927083 1.90917969,6.42578125 L1.90917969,4.27734375 C1.47949219,4.15690104 1.12386068,4.01936849 0.842285156,3.86474609 C0.560709635,3.7101237 0.349934896,3.52050781 0.209960938,3.29589844 C0.0699869792,3.07128906 0,2.79947917 0,2.48046875 C0,2.1484375 0.0789388021,1.86442057 0.236816406,1.62841797 C0.39469401,1.39241536 0.616861979,1.20768229 0.903320312,1.07421875 C1.18977865,0.940755208 1.5250651,0.864257812 1.90917969,0.844726562 L1.90917969,0 L2.50488281,0 L2.50488281,0.834960938 C2.8531901,0.844726562 3.17057292,0.88297526 3.45703125,0.949707031 C3.74348958,1.0164388 4.00878906,1.10188802 4.25292969,1.20605469 L3.99902344,1.88476562 C3.77766927,1.796875 3.53841146,1.72200521 3.28125,1.66015625 C3.02408854,1.59830729 2.76529948,1.55598958 2.50488281,1.53320312 L2.50488281,3.66699219 C2.94108073,3.79394531 3.30647786,3.92903646 3.60107422,4.07226562 C3.89567057,4.21549479 4.11783854,4.39290365 4.26757812,4.60449219 C4.41731771,4.81608073 4.4921875,5.08951823 4.4921875,5.42480469 C4.4921875,5.9000651 4.31803385,6.28336589 3.96972656,6.57470703 C3.62141927,6.86604818 3.13313802,7.04264323 2.50488281,7.10449219 L2.50488281,8.16894531 L1.90917969,8.16894531 Z M2.50488281,6.38183594 C2.90527344,6.34277344 3.2039388,6.24593099 3.40087891,6.09130859 C3.59781901,5.9366862 3.69628906,5.73242188 3.69628906,5.47851562 C3.69628906,5.29622396 3.65804036,5.14648438 3.58154297,5.02929688 C3.50504557,4.91210938 3.38053385,4.81038411 3.20800781,4.72412109 C3.03548177,4.63785807 2.80110677,4.55566406 2.50488281,4.47753906 L2.50488281,6.38183594 Z M1.90917969,3.46191406 L1.90917969,1.55273438 C1.66503906,1.56901042 1.45996094,1.61458333 1.29394531,1.68945312 C1.12792969,1.76432292 1.00341797,1.86197917 0.920410156,1.98242188 C0.837402344,2.10286458 0.795898438,2.24609375 0.795898438,2.41210938 C0.795898438,2.60416667 0.832519531,2.76448568 0.905761719,2.89306641 C0.979003906,3.02164714 1.09781901,3.13069661 1.26220703,3.22021484 C1.42659505,3.30973307 1.6422526,3.39029948 1.90917969,3.46191406 Z" id="Shape"></path>
                    <path d="M10.2685547,7.58789062 L5.59082031,7.58789062 L5.59082031,6.90917969 L7.5,4.97070312 C7.85481771,4.61263021 8.15348307,4.29361979 8.39599609,4.01367188 C8.63850911,3.73372396 8.82324219,3.45784505 8.95019531,3.18603516 C9.07714844,2.91422526 9.140625,2.6155599 9.140625,2.29003906 C9.140625,1.88639323 9.02099609,1.57796224 8.78173828,1.36474609 C8.54248047,1.15152995 8.22753906,1.04492188 7.83691406,1.04492188 C7.49511719,1.04492188 7.19238281,1.10351562 6.92871094,1.22070312 C6.66503906,1.33789062 6.39485677,1.50390625 6.11816406,1.71875 L5.68359375,1.171875 C5.87239583,1.01236979 6.07828776,0.870768229 6.30126953,0.747070312 C6.5242513,0.623372396 6.76350911,0.525716146 7.01904297,0.454101562 C7.27457682,0.382486979 7.54720052,0.346679688 7.83691406,0.346679688 C8.27636719,0.346679688 8.65559896,0.423177083 8.97460938,0.576171875 C9.29361979,0.729166667 9.54020182,0.947265625 9.71435547,1.23046875 C9.88850911,1.51367188 9.97558594,1.85058594 9.97558594,2.24121094 C9.97558594,2.6188151 9.90071615,2.9695638 9.75097656,3.29345703 C9.60123698,3.61735026 9.39127604,3.93798828 9.12109375,4.25537109 C8.85091146,4.57275391 8.53515625,4.90885417 8.17382812,5.26367188 L6.62109375,6.81152344 L6.62109375,6.84570312 L10.2685547,6.84570312 L10.2685547,7.58789062 Z" id="Path"></path>
                    <path d="M16.0253906,4.00878906 C16.0253906,4.58821615 15.9814453,5.10579427 15.8935547,5.56152344 C15.8056641,6.0172526 15.6673177,6.40299479 15.4785156,6.71875 C15.2897135,7.03450521 15.0455729,7.27457682 14.7460938,7.43896484 C14.4466146,7.60335286 14.0869141,7.68554688 13.6669922,7.68554688 C13.1363932,7.68554688 12.6977539,7.5406901 12.3510742,7.25097656 C12.0043945,6.96126302 11.7456055,6.54215495 11.574707,5.99365234 C11.4038086,5.44514974 11.3183594,4.78352865 11.3183594,4.00878906 C11.3183594,3.24707031 11.3956706,2.59195964 11.550293,2.04345703 C11.7049154,1.49495443 11.9547526,1.07340495 12.2998047,0.778808594 C12.6448568,0.48421224 13.1005859,0.336914062 13.6669922,0.336914062 C14.2041016,0.336914062 14.6468099,0.482584635 14.9951172,0.773925781 C15.3434245,1.06526693 15.6022135,1.4851888 15.7714844,2.03369141 C15.9407552,2.58219401 16.0253906,3.2405599 16.0253906,4.00878906 Z M12.1337891,4.00878906 C12.1337891,4.67285156 12.1842448,5.22623698 12.2851562,5.66894531 C12.3860677,6.11165365 12.5496419,6.44287109 12.7758789,6.66259766 C13.0021159,6.88232422 13.2991536,6.9921875 13.6669922,6.9921875 C14.0348307,6.9921875 14.3318685,6.88313802 14.5581055,6.66503906 C14.7843424,6.4469401 14.9487305,6.11653646 15.0512695,5.67382812 C15.1538086,5.23111979 15.2050781,4.67610677 15.2050781,4.00878906 C15.2050781,3.35449219 15.1546224,2.80680339 15.0537109,2.36572266 C14.9527995,1.92464193 14.7900391,1.59261068 14.5654297,1.36962891 C14.3408203,1.14664714 14.0413411,1.03515625 13.6669922,1.03515625 C13.2926432,1.03515625 12.9931641,1.14664714 12.7685547,1.36962891 C12.5439453,1.59261068 12.3819987,1.92464193 12.2827148,2.36572266 C12.183431,2.80680339 12.1337891,3.35449219 12.1337891,4.00878906 Z" id="Shape"></path>
                    <path d="M20.6494141,7.58789062 L18.2519531,1.26953125 L18.2128906,1.26953125 C18.2259115,1.40299479 18.2373047,1.56575521 18.2470703,1.7578125 C18.2568359,1.94986979 18.264974,2.15901693 18.2714844,2.38525391 C18.2779948,2.61149089 18.28125,2.84179688 18.28125,3.07617188 L18.28125,7.58789062 L17.5097656,7.58789062 L17.5097656,0.44921875 L18.7402344,0.44921875 L21.0009766,6.38671875 L21.0351562,6.38671875 L23.3300781,0.44921875 L24.5507812,0.44921875 L24.5507812,7.58789062 L23.7304688,7.58789062 L23.7304688,3.01757812 C23.7304688,2.80598958 23.733724,2.59358724 23.7402344,2.38037109 C23.7467448,2.16715495 23.7548828,1.96533203 23.7646484,1.77490234 C23.7744141,1.58447266 23.7841797,1.41927083 23.7939453,1.27929688 L23.7548828,1.27929688 L21.328125,7.58789062 L20.6494141,7.58789062 Z" id="Path"></path>
                </g>
                <line x1="37.9536133" y1="3.58789062" x2="698.953613" y2="3.58789062" id="Path-2" stroke="#979797"></line>
            </g>
            <g id="Group-10" transform="translate(16.4053, 273.4121)">
                <g id="$0m" fill="#333333" fill-opacity="0.653231961" fill-rule="nonzero">
                    <path d="M1.90917969,8.16894531 L1.90917969,7.14355469 C1.53483073,7.13704427 1.17757161,7.10449219 0.837402344,7.04589844 C0.497233073,6.98730469 0.219726562,6.91080729 0.0048828125,6.81640625 L0.0048828125,6.02539062 C0.229492188,6.12955729 0.517578125,6.22070312 0.869140625,6.29882812 C1.22070312,6.37695312 1.56738281,6.41927083 1.90917969,6.42578125 L1.90917969,4.27734375 C1.47949219,4.15690104 1.12386068,4.01936849 0.842285156,3.86474609 C0.560709635,3.7101237 0.349934896,3.52050781 0.209960938,3.29589844 C0.0699869792,3.07128906 0,2.79947917 0,2.48046875 C0,2.1484375 0.0789388021,1.86442057 0.236816406,1.62841797 C0.39469401,1.39241536 0.616861979,1.20768229 0.903320312,1.07421875 C1.18977865,0.940755208 1.5250651,0.864257812 1.90917969,0.844726562 L1.90917969,0 L2.50488281,0 L2.50488281,0.834960938 C2.8531901,0.844726562 3.17057292,0.88297526 3.45703125,0.949707031 C3.74348958,1.0164388 4.00878906,1.10188802 4.25292969,1.20605469 L3.99902344,1.88476562 C3.77766927,1.796875 3.53841146,1.72200521 3.28125,1.66015625 C3.02408854,1.59830729 2.76529948,1.55598958 2.50488281,1.53320312 L2.50488281,3.66699219 C2.94108073,3.79394531 3.30647786,3.92903646 3.60107422,4.07226562 C3.89567057,4.21549479 4.11783854,4.39290365 4.26757812,4.60449219 C4.41731771,4.81608073 4.4921875,5.08951823 4.4921875,5.42480469 C4.4921875,5.9000651 4.31803385,6.28336589 3.96972656,6.57470703 C3.62141927,6.86604818 3.13313802,7.04264323 2.50488281,7.10449219 L2.50488281,8.16894531 L1.90917969,8.16894531 Z M2.50488281,6.38183594 C2.90527344,6.34277344 3.2039388,6.24593099 3.40087891,6.09130859 C3.59781901,5.9366862 3.69628906,5.73242188 3.69628906,5.47851562 C3.69628906,5.29622396 3.65804036,5.14648438 3.58154297,5.02929688 C3.50504557,4.91210938 3.38053385,4.81038411 3.20800781,4.72412109 C3.03548177,4.63785807 2.80110677,4.55566406 2.50488281,4.47753906 L2.50488281,6.38183594 Z M1.90917969,3.46191406 L1.90917969,1.55273438 C1.66503906,1.56901042 1.45996094,1.61458333 1.29394531,1.68945312 C1.12792969,1.76432292 1.00341797,1.86197917 0.920410156,1.98242188 C0.837402344,2.10286458 0.795898438,2.24609375 0.795898438,2.41210938 C0.795898438,2.60416667 0.832519531,2.76448568 0.905761719,2.89306641 C0.979003906,3.02164714 1.09781901,3.13069661 1.26220703,3.22021484 C1.42659505,3.30973307 1.6422526,3.39029948 1.90917969,3.46191406 Z" id="Shape"></path>
                    <path d="M10.3076172,4.00878906 C10.3076172,4.58821615 10.2636719,5.10579427 10.1757812,5.56152344 C10.0878906,6.0172526 9.94954427,6.40299479 9.76074219,6.71875 C9.5719401,7.03450521 9.32779948,7.27457682 9.02832031,7.43896484 C8.72884115,7.60335286 8.36914062,7.68554688 7.94921875,7.68554688 C7.41861979,7.68554688 6.97998047,7.5406901 6.63330078,7.25097656 C6.28662109,6.96126302 6.02783203,6.54215495 5.85693359,5.99365234 C5.68603516,5.44514974 5.60058594,4.78352865 5.60058594,4.00878906 C5.60058594,3.24707031 5.67789714,2.59195964 5.83251953,2.04345703 C5.98714193,1.49495443 6.23697917,1.07340495 6.58203125,0.778808594 C6.92708333,0.48421224 7.3828125,0.336914062 7.94921875,0.336914062 C8.48632812,0.336914062 8.92903646,0.482584635 9.27734375,0.773925781 C9.62565104,1.06526693 9.8844401,1.4851888 10.0537109,2.03369141 C10.2229818,2.58219401 10.3076172,3.2405599 10.3076172,4.00878906 Z M6.41601562,4.00878906 C6.41601562,4.67285156 6.46647135,5.22623698 6.56738281,5.66894531 C6.66829427,6.11165365 6.83186849,6.44287109 7.05810547,6.66259766 C7.28434245,6.88232422 7.58138021,6.9921875 7.94921875,6.9921875 C8.31705729,6.9921875 8.61409505,6.88313802 8.84033203,6.66503906 C9.06656901,6.4469401 9.23095703,6.11653646 9.33349609,5.67382812 C9.43603516,5.23111979 9.48730469,4.67610677 9.48730469,4.00878906 C9.48730469,3.35449219 9.43684896,2.80680339 9.3359375,2.36572266 C9.23502604,1.92464193 9.07226562,1.59261068 8.84765625,1.36962891 C8.62304688,1.14664714 8.32356771,1.03515625 7.94921875,1.03515625 C7.57486979,1.03515625 7.27539062,1.14664714 7.05078125,1.36962891 C6.82617188,1.59261068 6.66422526,1.92464193 6.56494141,2.36572266 C6.46565755,2.80680339 6.41601562,3.35449219 6.41601562,4.00878906 Z" id="Shape"></path>
                    <path d="M14.9316406,7.58789062 L12.5341797,1.26953125 L12.4951172,1.26953125 C12.508138,1.40299479 12.5195312,1.56575521 12.5292969,1.7578125 C12.5390625,1.94986979 12.5472005,2.15901693 12.5537109,2.38525391 C12.5602214,2.61149089 12.5634766,2.84179688 12.5634766,3.07617188 L12.5634766,7.58789062 L11.7919922,7.58789062 L11.7919922,0.44921875 L13.0224609,0.44921875 L15.2832031,6.38671875 L15.3173828,6.38671875 L17.6123047,0.44921875 L18.8330078,0.44921875 L18.8330078,7.58789062 L18.0126953,7.58789062 L18.0126953,3.01757812 C18.0126953,2.80598958 18.0159505,2.59358724 18.0224609,2.38037109 C18.0289714,2.16715495 18.0371094,1.96533203 18.046875,1.77490234 C18.0566406,1.58447266 18.0664062,1.41927083 18.0761719,1.27929688 L18.0371094,1.27929688 L15.6103516,7.58789062 L14.9316406,7.58789062 Z" id="Path"></path>
                </g>
                <line x1="35.0947266" y1="3.58789062" x2="696.094727" y2="3.58789062" id="Path-2-Copy-2" stroke="#979797"></line>
            </g>
            <g id="Revenue" transform="translate(13.125, 17.4336)" fill="#1E9AAA" fill-rule="nonzero">
                <path d="M2.40820312,0 C3.14648438,0 3.75683594,0.08984375 4.23925781,0.26953125 C4.72167969,0.44921875 5.08105469,0.72265625 5.31738281,1.08984375 C5.55371094,1.45703125 5.671875,1.92382812 5.671875,2.49023438 C5.671875,2.91210938 5.59375,3.27148438 5.4375,3.56835938 C5.28125,3.86523438 5.07617188,4.11132812 4.82226562,4.30664062 C4.56835938,4.50195312 4.296875,4.65820312 4.0078125,4.77539062 L6.43945312,8.56640625 L4.8515625,8.56640625 L2.78320312,5.1328125 L1.40625,5.1328125 L1.40625,8.56640625 L0,8.56640625 L0,0 L2.40820312,0 Z M2.31445312,1.171875 L1.40625,1.171875 L1.40625,3.97265625 L2.37890625,3.97265625 C3.03125,3.97265625 3.50488281,3.8515625 3.79980469,3.609375 C4.09472656,3.3671875 4.2421875,3.00976562 4.2421875,2.53710938 C4.2421875,2.04101562 4.08496094,1.68945312 3.77050781,1.48242188 C3.45605469,1.27539062 2.97070312,1.171875 2.31445312,1.171875 Z" id="Shape"></path>
                <polygon id="Path" points="13.515625 8.56640625 8.6640625 8.56640625 8.6640625 0 13.515625 0 13.515625 1.18359375 10.0703125 1.18359375 10.0703125 3.50976562 13.2988281 3.50976562 13.2988281 4.6875 10.0703125 4.6875 10.0703125 7.37695312 13.515625 7.37695312"></polygon>
                <path d="M22.7128906,0 L19.71875,8.56640625 L18.2304688,8.56640625 L15.2363281,0 L16.6777344,0 L18.4824219,5.3671875 C18.5371094,5.5234375 18.5966797,5.71289062 18.6611328,5.93554688 C18.7255859,6.15820312 18.7861328,6.3828125 18.8427734,6.609375 C18.8994141,6.8359375 18.9433594,7.03710938 18.9746094,7.21289062 C19.0058594,7.03710938 19.0498047,6.8359375 19.1064453,6.609375 C19.1630859,6.3828125 19.2226562,6.15820312 19.2851562,5.93554688 C19.3476562,5.71289062 19.40625,5.52148438 19.4609375,5.36132813 L21.2714844,0 L22.7128906,0 Z" id="Path"></path>
                <polygon id="Path" points="29.6894531 8.56640625 24.8378906 8.56640625 24.8378906 0 29.6894531 0 29.6894531 1.18359375 26.2441406 1.18359375 26.2441406 3.50976562 29.4726562 3.50976562 29.4726562 4.6875 26.2441406 4.6875 26.2441406 7.37695312 29.6894531 7.37695312"></polygon>
                <path d="M39.6835938,8.56640625 L37.9550781,8.56640625 L33.7597656,1.72851562 L33.7070312,1.72851562 C33.7226562,1.95898438 33.7373047,2.203125 33.7509766,2.4609375 C33.7646484,2.71875 33.7763672,2.984375 33.7861328,3.2578125 C33.7958984,3.53125 33.8046875,3.80859375 33.8125,4.08984375 L33.8125,8.56640625 L32.5351562,8.56640625 L32.5351562,0 L34.2519531,0 L38.4414062,6.79101562 L38.4824219,6.79101562 C38.4746094,6.59179688 38.4648438,6.36328125 38.453125,6.10546875 C38.4414062,5.84765625 38.4306641,5.58105469 38.4208984,5.30566406 C38.4111328,5.03027344 38.4042969,4.76367188 38.4003906,4.50585938 L38.4003906,0 L39.6835938,0 L39.6835938,8.56640625 Z" id="Path"></path>
                <path d="M49.6601562,0 L49.6601562,5.54296875 C49.6601562,6.140625 49.5341797,6.67578125 49.2822266,7.1484375 C49.0302734,7.62109375 48.6503906,7.99511719 48.1425781,8.27050781 C47.6347656,8.54589844 46.9960938,8.68359375 46.2265625,8.68359375 C45.1289062,8.68359375 44.2939453,8.39550781 43.7216797,7.81933594 C43.1494141,7.24316406 42.8632812,6.4765625 42.8632812,5.51953125 L42.8632812,0 L44.2695312,0 L44.2695312,5.39648438 C44.2695312,6.11132812 44.4375,6.63867188 44.7734375,6.97851562 C45.109375,7.31835938 45.6113281,7.48828125 46.2792969,7.48828125 C46.7402344,7.48828125 47.1162109,7.40722656 47.4072266,7.24511719 C47.6982422,7.08300781 47.9130859,6.84472656 48.0517578,6.53027344 C48.1904297,6.21582031 48.2597656,5.8359375 48.2597656,5.390625 L48.2597656,0 L49.6601562,0 Z" id="Path"></path>
                <polygon id="Path" points="57.6972656 8.56640625 52.8457031 8.56640625 52.8457031 0 57.6972656 0 57.6972656 1.18359375 54.2519531 1.18359375 54.2519531 3.50976562 57.4804688 3.50976562 57.4804688 4.6875 54.2519531 4.6875 54.2519531 7.37695312 57.6972656 7.37695312"></polygon>
            </g>
            <g id="Feb.-16" transform="translate(73.0576, 288.7588)" fill="#333333" fill-opacity="0.653231961" fill-rule="nonzero">
                <polygon id="Path" points="0.830078125 7.24121094 0 7.24121094 0 0.102539062 3.97460938 0.102539062 3.97460938 0.834960938 0.830078125 0.834960938 0.830078125 3.45214844 3.78417969 3.45214844 3.78417969 4.1796875 0.830078125 4.1796875"></polygon>
                <polygon id="Path" points="9.13574219 7.24121094 5.16113281 7.24121094 5.16113281 0.102539062 9.13574219 0.102539062 9.13574219 0.834960938 5.99121094 0.834960938 5.99121094 3.14453125 8.95507812 3.14453125 8.95507812 3.8671875 5.99121094 3.8671875 5.99121094 6.50878906 9.13574219 6.50878906"></polygon>
                <path d="M10.7177734,0.102539062 L12.7392578,0.102539062 C13.6311849,0.102539062 14.3017578,0.236002604 14.7509766,0.502929688 C15.2001953,0.769856771 15.4248047,1.22395833 15.4248047,1.86523438 C15.4248047,2.14192708 15.3719076,2.39013672 15.2661133,2.60986328 C15.160319,2.82958984 15.0065104,3.01106771 14.8046875,3.15429688 C14.6028646,3.29752604 14.3538411,3.3968099 14.0576172,3.45214844 L14.0576172,3.50097656 C14.3701172,3.54980469 14.6468099,3.63932292 14.8876953,3.76953125 C15.1285807,3.89973958 15.3173828,4.08203125 15.4541016,4.31640625 C15.5908203,4.55078125 15.6591797,4.84863281 15.6591797,5.20996094 C15.6591797,5.64941406 15.5574544,6.02050781 15.3540039,6.32324219 C15.1505534,6.62597656 14.8632812,6.85465495 14.4921875,7.00927734 C14.1210938,7.16389974 13.6816406,7.24121094 13.1738281,7.24121094 L10.7177734,7.24121094 L10.7177734,0.102539062 Z M11.5478516,3.1640625 L12.9150391,3.1640625 C13.5367839,3.1640625 13.9672852,3.06152344 14.206543,2.85644531 C14.4458008,2.65136719 14.5654297,2.35188802 14.5654297,1.95800781 C14.5654297,1.55110677 14.4230143,1.25813802 14.1381836,1.07910156 C13.8533529,0.900065104 13.4000651,0.810546875 12.7783203,0.810546875 L11.5478516,0.810546875 L11.5478516,3.1640625 Z M11.5478516,3.86230469 L11.5478516,6.53320312 L13.0322266,6.53320312 C13.6669922,6.53320312 14.1162109,6.40869141 14.3798828,6.15966797 C14.6435547,5.91064453 14.7753906,5.57454427 14.7753906,5.15136719 C14.7753906,4.8811849 14.7159831,4.6500651 14.597168,4.45800781 C14.4783529,4.26595052 14.2862956,4.11865234 14.0209961,4.01611328 C13.7556966,3.91357422 13.4016927,3.86230469 12.9589844,3.86230469 L11.5478516,3.86230469 Z" id="Shape"></path>
                <path d="M16.9335938,6.73339844 C16.9335938,6.50553385 16.9889323,6.34358724 17.0996094,6.24755859 C17.2102865,6.15152995 17.3453776,6.10351562 17.5048828,6.10351562 C17.6708984,6.10351562 17.8108724,6.15152995 17.9248047,6.24755859 C18.038737,6.34358724 18.0957031,6.50553385 18.0957031,6.73339844 C18.0957031,6.95800781 18.038737,7.12158203 17.9248047,7.22412109 C17.8108724,7.32666016 17.6708984,7.37792969 17.5048828,7.37792969 C17.3453776,7.37792969 17.2102865,7.32666016 17.0996094,7.22412109 C16.9889323,7.12158203 16.9335938,6.95800781 16.9335938,6.73339844 Z" id="Path"></path>
                <path d="M24.9365234,7.24121094 L24.1455078,7.24121094 L24.1455078,2.18261719 C24.1455078,1.9905599 24.1463216,1.82535807 24.1479492,1.68701172 C24.1495768,1.54866536 24.152832,1.42171224 24.1577148,1.30615234 C24.1625977,1.19059245 24.1699219,1.07259115 24.1796875,0.952148438 C24.078776,1.0563151 23.984375,1.14501953 23.8964844,1.21826172 C23.8085938,1.29150391 23.6995443,1.38183594 23.5693359,1.48925781 L22.7539062,2.14355469 L22.3291016,1.59179688 L24.2626953,0.102539062 L24.9365234,0.102539062 L24.9365234,7.24121094 Z" id="Path"></path>
                <path d="M27.7099609,4.18945312 C27.7099609,3.75976562 27.7400716,3.33984375 27.800293,2.9296875 C27.8605143,2.51953125 27.9622396,2.13785807 28.1054688,1.78466797 C28.2486979,1.43147786 28.4440104,1.12141927 28.6914062,0.854492188 C28.9388021,0.587565104 29.2472331,0.378417969 29.6166992,0.227050781 C29.9861654,0.0756835938 30.4296875,0 30.9472656,0 C31.09375,0 31.2516276,0.00732421875 31.4208984,0.0219726562 C31.5901693,0.0366210938 31.7301432,0.0602213542 31.8408203,0.0927734375 L31.8408203,0.791015625 C31.7203776,0.748697917 31.5828451,0.717773438 31.4282227,0.698242188 C31.2736003,0.678710938 31.1181641,0.668945312 30.9619141,0.668945312 C30.3564453,0.668945312 29.8803711,0.80078125 29.5336914,1.06445312 C29.1870117,1.328125 28.9371745,1.68538411 28.7841797,2.13623047 C28.6311849,2.58707682 28.5432943,3.09407552 28.5205078,3.65722656 L28.5742188,3.65722656 C28.6751302,3.49446615 28.8037109,3.34716797 28.9599609,3.21533203 C29.1162109,3.08349609 29.3058268,2.97851562 29.5288086,2.90039062 C29.7517904,2.82226562 30.0113932,2.78320312 30.3076172,2.78320312 C30.7242839,2.78320312 31.0880534,2.86783854 31.3989258,3.03710938 C31.7097982,3.20638021 31.9506836,3.45214844 32.121582,3.77441406 C32.2924805,4.09667969 32.3779297,4.48730469 32.3779297,4.94628906 C32.3779297,5.43782552 32.2867839,5.86263021 32.1044922,6.22070312 C31.9222005,6.57877604 31.6625977,6.85465495 31.3256836,7.04833984 C30.9887695,7.24202474 30.5875651,7.33886719 30.1220703,7.33886719 C29.773763,7.33886719 29.453125,7.27213542 29.1601562,7.13867188 C28.8671875,7.00520833 28.6124674,6.80664062 28.3959961,6.54296875 C28.1795247,6.27929688 28.0110677,5.95133464 27.890625,5.55908203 C27.7701823,5.16682943 27.7099609,4.71028646 27.7099609,4.18945312 Z M30.1123047,6.65527344 C30.555013,6.65527344 30.9098307,6.51367188 31.1767578,6.23046875 C31.4436849,5.94726562 31.5771484,5.51920573 31.5771484,4.94628906 C31.5771484,4.47753906 31.4583333,4.10644531 31.2207031,3.83300781 C30.9830729,3.55957031 30.625,3.42285156 30.1464844,3.42285156 C29.8209635,3.42285156 29.5377604,3.49039714 29.296875,3.62548828 C29.0559896,3.76057943 28.8688151,3.93066406 28.7353516,4.13574219 C28.601888,4.34082031 28.5351562,4.54915365 28.5351562,4.76074219 C28.5351562,4.97558594 28.5668945,5.1936849 28.6303711,5.41503906 C28.6938477,5.63639323 28.7906901,5.84147135 28.9208984,6.03027344 C29.0511068,6.21907552 29.2154948,6.37044271 29.4140625,6.484375 C29.6126302,6.59830729 29.8453776,6.65527344 30.1123047,6.65527344 Z" id="Shape"></path>
            </g>
            <g id="Feb.-17" transform="translate(170.891, 288.8613)" fill="#333333" fill-opacity="0.653231961" fill-rule="nonzero">
                <polygon id="Path" points="0.830078125 7.13867188 0 7.13867188 0 0 3.97460938 0 3.97460938 0.732421875 0.830078125 0.732421875 0.830078125 3.34960938 3.78417969 3.34960938 3.78417969 4.07714844 0.830078125 4.07714844"></polygon>
                <polygon id="Path" points="9.13574219 7.13867188 5.16113281 7.13867188 5.16113281 0 9.13574219 0 9.13574219 0.732421875 5.99121094 0.732421875 5.99121094 3.04199219 8.95507812 3.04199219 8.95507812 3.76464844 5.99121094 3.76464844 5.99121094 6.40625 9.13574219 6.40625"></polygon>
                <path d="M10.7177734,0 L12.7392578,0 C13.6311849,0 14.3017578,0.133463542 14.7509766,0.400390625 C15.2001953,0.667317708 15.4248047,1.12141927 15.4248047,1.76269531 C15.4248047,2.03938802 15.3719076,2.28759766 15.2661133,2.50732422 C15.160319,2.72705078 15.0065104,2.90852865 14.8046875,3.05175781 C14.6028646,3.19498698 14.3538411,3.29427083 14.0576172,3.34960938 L14.0576172,3.3984375 C14.3701172,3.44726562 14.6468099,3.53678385 14.8876953,3.66699219 C15.1285807,3.79720052 15.3173828,3.97949219 15.4541016,4.21386719 C15.5908203,4.44824219 15.6591797,4.74609375 15.6591797,5.10742188 C15.6591797,5.546875 15.5574544,5.91796875 15.3540039,6.22070312 C15.1505534,6.5234375 14.8632812,6.75211589 14.4921875,6.90673828 C14.1210938,7.06136068 13.6816406,7.13867188 13.1738281,7.13867188 L10.7177734,7.13867188 L10.7177734,0 Z M11.5478516,3.06152344 L12.9150391,3.06152344 C13.5367839,3.06152344 13.9672852,2.95898438 14.206543,2.75390625 C14.4458008,2.54882812 14.5654297,2.24934896 14.5654297,1.85546875 C14.5654297,1.44856771 14.4230143,1.15559896 14.1381836,0.9765625 C13.8533529,0.797526042 13.4000651,0.708007812 12.7783203,0.708007812 L11.5478516,0.708007812 L11.5478516,3.06152344 Z M11.5478516,3.75976562 L11.5478516,6.43066406 L13.0322266,6.43066406 C13.6669922,6.43066406 14.1162109,6.30615234 14.3798828,6.05712891 C14.6435547,5.80810547 14.7753906,5.47200521 14.7753906,5.04882812 C14.7753906,4.77864583 14.7159831,4.54752604 14.597168,4.35546875 C14.4783529,4.16341146 14.2862956,4.01611328 14.0209961,3.91357422 C13.7556966,3.81103516 13.4016927,3.75976562 12.9589844,3.75976562 L11.5478516,3.75976562 Z" id="Shape"></path>
                <path d="M16.9335938,6.63085938 C16.9335938,6.40299479 16.9889323,6.24104818 17.0996094,6.14501953 C17.2102865,6.04899089 17.3453776,6.00097656 17.5048828,6.00097656 C17.6708984,6.00097656 17.8108724,6.04899089 17.9248047,6.14501953 C18.038737,6.24104818 18.0957031,6.40299479 18.0957031,6.63085938 C18.0957031,6.85546875 18.038737,7.01904297 17.9248047,7.12158203 C17.8108724,7.22412109 17.6708984,7.27539062 17.5048828,7.27539062 C17.3453776,7.27539062 17.2102865,7.22412109 17.0996094,7.12158203 C16.9889323,7.01904297 16.9335938,6.85546875 16.9335938,6.63085938 Z" id="Path"></path>
                <path d="M24.9365234,7.13867188 L24.1455078,7.13867188 L24.1455078,2.08007812 C24.1455078,1.88802083 24.1463216,1.72281901 24.1479492,1.58447266 C24.1495768,1.4461263 24.152832,1.31917318 24.1577148,1.20361328 C24.1625977,1.08805339 24.1699219,0.970052083 24.1796875,0.849609375 C24.078776,0.953776042 23.984375,1.04248047 23.8964844,1.11572266 C23.8085938,1.18896484 23.6995443,1.27929688 23.5693359,1.38671875 L22.7539062,2.04101562 L22.3291016,1.48925781 L24.2626953,0 L24.9365234,0 L24.9365234,7.13867188 Z" id="Path"></path>
                <polygon id="Path" points="28.5595703 7.13867188 31.4892578 0.7421875 27.5976562 0.7421875 27.5976562 0 32.3583984 0 32.3583984 0.625 29.4482422 7.13867188"></polygon>
            </g>
            <g id="Feb.-18" transform="translate(268.7243, 288.7588)" fill="#333333" fill-opacity="0.653231961" fill-rule="nonzero">
                <polygon id="Path" points="0.830078125 7.24121094 0 7.24121094 0 0.102539062 3.97460938 0.102539062 3.97460938 0.834960938 0.830078125 0.834960938 0.830078125 3.45214844 3.78417969 3.45214844 3.78417969 4.1796875 0.830078125 4.1796875"></polygon>
                <polygon id="Path" points="9.13574219 7.24121094 5.16113281 7.24121094 5.16113281 0.102539062 9.13574219 0.102539062 9.13574219 0.834960938 5.99121094 0.834960938 5.99121094 3.14453125 8.95507812 3.14453125 8.95507812 3.8671875 5.99121094 3.8671875 5.99121094 6.50878906 9.13574219 6.50878906"></polygon>
                <path d="M10.7177734,0.102539062 L12.7392578,0.102539062 C13.6311849,0.102539062 14.3017578,0.236002604 14.7509766,0.502929688 C15.2001953,0.769856771 15.4248047,1.22395833 15.4248047,1.86523438 C15.4248047,2.14192708 15.3719076,2.39013672 15.2661133,2.60986328 C15.160319,2.82958984 15.0065104,3.01106771 14.8046875,3.15429688 C14.6028646,3.29752604 14.3538411,3.3968099 14.0576172,3.45214844 L14.0576172,3.50097656 C14.3701172,3.54980469 14.6468099,3.63932292 14.8876953,3.76953125 C15.1285807,3.89973958 15.3173828,4.08203125 15.4541016,4.31640625 C15.5908203,4.55078125 15.6591797,4.84863281 15.6591797,5.20996094 C15.6591797,5.64941406 15.5574544,6.02050781 15.3540039,6.32324219 C15.1505534,6.62597656 14.8632812,6.85465495 14.4921875,7.00927734 C14.1210938,7.16389974 13.6816406,7.24121094 13.1738281,7.24121094 L10.7177734,7.24121094 L10.7177734,0.102539062 Z M11.5478516,3.1640625 L12.9150391,3.1640625 C13.5367839,3.1640625 13.9672852,3.06152344 14.206543,2.85644531 C14.4458008,2.65136719 14.5654297,2.35188802 14.5654297,1.95800781 C14.5654297,1.55110677 14.4230143,1.25813802 14.1381836,1.07910156 C13.8533529,0.900065104 13.4000651,0.810546875 12.7783203,0.810546875 L11.5478516,0.810546875 L11.5478516,3.1640625 Z M11.5478516,3.86230469 L11.5478516,6.53320312 L13.0322266,6.53320312 C13.6669922,6.53320312 14.1162109,6.40869141 14.3798828,6.15966797 C14.6435547,5.91064453 14.7753906,5.57454427 14.7753906,5.15136719 C14.7753906,4.8811849 14.7159831,4.6500651 14.597168,4.45800781 C14.4783529,4.26595052 14.2862956,4.11865234 14.0209961,4.01611328 C13.7556966,3.91357422 13.4016927,3.86230469 12.9589844,3.86230469 L11.5478516,3.86230469 Z" id="Shape"></path>
                <path d="M16.9335938,6.73339844 C16.9335938,6.50553385 16.9889323,6.34358724 17.0996094,6.24755859 C17.2102865,6.15152995 17.3453776,6.10351562 17.5048828,6.10351562 C17.6708984,6.10351562 17.8108724,6.15152995 17.9248047,6.24755859 C18.038737,6.34358724 18.0957031,6.50553385 18.0957031,6.73339844 C18.0957031,6.95800781 18.038737,7.12158203 17.9248047,7.22412109 C17.8108724,7.32666016 17.6708984,7.37792969 17.5048828,7.37792969 C17.3453776,7.37792969 17.2102865,7.32666016 17.0996094,7.22412109 C16.9889323,7.12158203 16.9335938,6.95800781 16.9335938,6.73339844 Z" id="Path"></path>
                <path d="M24.9365234,7.24121094 L24.1455078,7.24121094 L24.1455078,2.18261719 C24.1455078,1.9905599 24.1463216,1.82535807 24.1479492,1.68701172 C24.1495768,1.54866536 24.152832,1.42171224 24.1577148,1.30615234 C24.1625977,1.19059245 24.1699219,1.07259115 24.1796875,0.952148438 C24.078776,1.0563151 23.984375,1.14501953 23.8964844,1.21826172 C23.8085938,1.29150391 23.6995443,1.38183594 23.5693359,1.48925781 L22.7539062,2.14355469 L22.3291016,1.59179688 L24.2626953,0.102539062 L24.9365234,0.102539062 L24.9365234,7.24121094 Z" id="Path"></path>
                <path d="M29.9951172,0 C30.4085286,0 30.7747396,0.0651041667 31.09375,0.1953125 C31.4127604,0.325520833 31.6625977,0.516764323 31.8432617,0.769042969 C32.0239258,1.02132161 32.1142578,1.33138021 32.1142578,1.69921875 C32.1142578,1.98893229 32.0515951,2.24202474 31.9262695,2.45849609 C31.800944,2.67496745 31.632487,2.86376953 31.4208984,3.02490234 C31.2093099,3.18603516 30.9749349,3.33007812 30.7177734,3.45703125 C31.023763,3.59700521 31.2996419,3.75488281 31.5454102,3.93066406 C31.7911784,4.10644531 31.9856771,4.31315104 32.1289062,4.55078125 C32.2721354,4.78841146 32.34375,5.06998698 32.34375,5.39550781 C32.34375,5.79589844 32.2469076,6.14176432 32.0532227,6.43310547 C31.8595378,6.72444661 31.5885417,6.94824219 31.2402344,7.10449219 C30.8919271,7.26074219 30.4833984,7.33886719 30.0146484,7.33886719 C29.5100911,7.33886719 29.0812174,7.26318359 28.7280273,7.11181641 C28.3748372,6.96044922 28.1062826,6.74235026 27.9223633,6.45751953 C27.738444,6.1726888 27.6464844,5.83007812 27.6464844,5.4296875 C27.6464844,5.10091146 27.7164714,4.81526693 27.8564453,4.57275391 C27.9964193,4.33024089 28.1819661,4.12109375 28.4130859,3.9453125 C28.6442057,3.76953125 28.8964844,3.62141927 29.1699219,3.50097656 C28.9322917,3.37076823 28.7150065,3.22265625 28.5180664,3.05664062 C28.3211263,2.890625 28.1648763,2.6961263 28.0493164,2.47314453 C27.9337565,2.25016276 27.8759766,1.9905599 27.8759766,1.69433594 C27.8759766,1.33300781 27.9679362,1.02620443 28.1518555,0.773925781 C28.3357747,0.521647135 28.5880534,0.329589844 28.9086914,0.197753906 C29.2293294,0.0659179688 29.5914714,0 29.9951172,0 Z M28.4423828,5.43457031 C28.4423828,5.79915365 28.5709635,6.09944661 28.828125,6.33544922 C29.0852865,6.57145182 29.4742839,6.68945312 29.9951172,6.68945312 C30.4899089,6.68945312 30.8723958,6.57145182 31.1425781,6.33544922 C31.4127604,6.09944661 31.5478516,5.78938802 31.5478516,5.40527344 C31.5478516,5.16764323 31.4860026,4.95849609 31.3623047,4.77783203 C31.2386068,4.59716797 31.0628255,4.43522135 30.8349609,4.29199219 C30.6070964,4.14876302 30.3385417,4.01855469 30.0292969,3.90136719 L29.8535156,3.83789062 C29.5540365,3.96158854 29.2993164,4.09912109 29.0893555,4.25048828 C28.8793945,4.40185547 28.7190755,4.57356771 28.6083984,4.765625 C28.4977214,4.95768229 28.4423828,5.18066406 28.4423828,5.43457031 Z M29.9853516,0.6640625 C29.601237,0.6640625 29.2871094,0.756022135 29.0429688,0.939941406 C28.7988281,1.12386068 28.6767578,1.38834635 28.6767578,1.73339844 C28.6767578,1.98079427 28.7361654,2.18994141 28.8549805,2.36083984 C28.9737956,2.53173828 29.1357422,2.67822266 29.3408203,2.80029297 C29.5458984,2.92236328 29.7753906,3.03548177 30.0292969,3.13964844 C30.2766927,3.03548177 30.4964193,2.92073568 30.6884766,2.79541016 C30.8805339,2.67008464 31.031901,2.52115885 31.1425781,2.34863281 C31.2532552,2.17610677 31.3085938,1.96940104 31.3085938,1.72851562 C31.3085938,1.38346354 31.1873372,1.11979167 30.9448242,0.9375 C30.7023112,0.755208333 30.382487,0.6640625 29.9853516,0.6640625 Z" id="Shape"></path>
            </g>
            <g id="Feb.-19" transform="translate(366.5576, 288.7588)" fill="#333333" fill-opacity="0.653231961" fill-rule="nonzero">
                <polygon id="Path" points="0.830078125 7.24121094 0 7.24121094 0 0.102539062 3.97460938 0.102539062 3.97460938 0.834960938 0.830078125 0.834960938 0.830078125 3.45214844 3.78417969 3.45214844 3.78417969 4.1796875 0.830078125 4.1796875"></polygon>
                <polygon id="Path" points="9.13574219 7.24121094 5.16113281 7.24121094 5.16113281 0.102539062 9.13574219 0.102539062 9.13574219 0.834960938 5.99121094 0.834960938 5.99121094 3.14453125 8.95507812 3.14453125 8.95507812 3.8671875 5.99121094 3.8671875 5.99121094 6.50878906 9.13574219 6.50878906"></polygon>
                <path d="M10.7177734,0.102539062 L12.7392578,0.102539062 C13.6311849,0.102539062 14.3017578,0.236002604 14.7509766,0.502929688 C15.2001953,0.769856771 15.4248047,1.22395833 15.4248047,1.86523438 C15.4248047,2.14192708 15.3719076,2.39013672 15.2661133,2.60986328 C15.160319,2.82958984 15.0065104,3.01106771 14.8046875,3.15429688 C14.6028646,3.29752604 14.3538411,3.3968099 14.0576172,3.45214844 L14.0576172,3.50097656 C14.3701172,3.54980469 14.6468099,3.63932292 14.8876953,3.76953125 C15.1285807,3.89973958 15.3173828,4.08203125 15.4541016,4.31640625 C15.5908203,4.55078125 15.6591797,4.84863281 15.6591797,5.20996094 C15.6591797,5.64941406 15.5574544,6.02050781 15.3540039,6.32324219 C15.1505534,6.62597656 14.8632812,6.85465495 14.4921875,7.00927734 C14.1210938,7.16389974 13.6816406,7.24121094 13.1738281,7.24121094 L10.7177734,7.24121094 L10.7177734,0.102539062 Z M11.5478516,3.1640625 L12.9150391,3.1640625 C13.5367839,3.1640625 13.9672852,3.06152344 14.206543,2.85644531 C14.4458008,2.65136719 14.5654297,2.35188802 14.5654297,1.95800781 C14.5654297,1.55110677 14.4230143,1.25813802 14.1381836,1.07910156 C13.8533529,0.900065104 13.4000651,0.810546875 12.7783203,0.810546875 L11.5478516,0.810546875 L11.5478516,3.1640625 Z M11.5478516,3.86230469 L11.5478516,6.53320312 L13.0322266,6.53320312 C13.6669922,6.53320312 14.1162109,6.40869141 14.3798828,6.15966797 C14.6435547,5.91064453 14.7753906,5.57454427 14.7753906,5.15136719 C14.7753906,4.8811849 14.7159831,4.6500651 14.597168,4.45800781 C14.4783529,4.26595052 14.2862956,4.11865234 14.0209961,4.01611328 C13.7556966,3.91357422 13.4016927,3.86230469 12.9589844,3.86230469 L11.5478516,3.86230469 Z" id="Shape"></path>
                <path d="M16.9335938,6.73339844 C16.9335938,6.50553385 16.9889323,6.34358724 17.0996094,6.24755859 C17.2102865,6.15152995 17.3453776,6.10351562 17.5048828,6.10351562 C17.6708984,6.10351562 17.8108724,6.15152995 17.9248047,6.24755859 C18.038737,6.34358724 18.0957031,6.50553385 18.0957031,6.73339844 C18.0957031,6.95800781 18.038737,7.12158203 17.9248047,7.22412109 C17.8108724,7.32666016 17.6708984,7.37792969 17.5048828,7.37792969 C17.3453776,7.37792969 17.2102865,7.32666016 17.0996094,7.22412109 C16.9889323,7.12158203 16.9335938,6.95800781 16.9335938,6.73339844 Z" id="Path"></path>
                <path d="M24.9365234,7.24121094 L24.1455078,7.24121094 L24.1455078,2.18261719 C24.1455078,1.9905599 24.1463216,1.82535807 24.1479492,1.68701172 C24.1495768,1.54866536 24.152832,1.42171224 24.1577148,1.30615234 C24.1625977,1.19059245 24.1699219,1.07259115 24.1796875,0.952148438 C24.078776,1.0563151 23.984375,1.14501953 23.8964844,1.21826172 C23.8085938,1.29150391 23.6995443,1.38183594 23.5693359,1.48925781 L22.7539062,2.14355469 L22.3291016,1.59179688 L24.2626953,0.102539062 L24.9365234,0.102539062 L24.9365234,7.24121094 Z" id="Path"></path>
                <path d="M32.3242188,3.14453125 C32.3242188,3.57747396 32.2941081,3.99902344 32.2338867,4.40917969 C32.1736654,4.81933594 32.0711263,5.20182292 31.9262695,5.55664062 C31.7814128,5.91145833 31.5852865,6.22233073 31.3378906,6.48925781 C31.0904948,6.7561849 30.7804362,6.96533203 30.4077148,7.11669922 C30.0349935,7.26806641 29.5898438,7.34375 29.0722656,7.34375 C28.9322917,7.34375 28.7727865,7.33479818 28.59375,7.31689453 C28.4147135,7.29899089 28.2682292,7.27376302 28.1542969,7.24121094 L28.1542969,6.53808594 C28.2747396,6.58040365 28.4163411,6.61376953 28.5791016,6.63818359 C28.741862,6.66259766 28.9013672,6.67480469 29.0576172,6.67480469 C29.6663411,6.67480469 30.1448568,6.54378255 30.4931641,6.28173828 C30.8414714,6.01969401 31.0921224,5.6632487 31.2451172,5.21240234 C31.398112,4.76155599 31.484375,4.25455729 31.5039062,3.69140625 L31.4453125,3.69140625 C31.3476562,3.84765625 31.2198893,3.99169922 31.0620117,4.12353516 C30.9041341,4.25537109 30.7128906,4.36116536 30.4882812,4.44091797 C30.2636719,4.52067057 30.0016276,4.56054688 29.7021484,4.56054688 C29.288737,4.56054688 28.9282227,4.47591146 28.6206055,4.30664062 C28.3129883,4.13736979 28.0737305,3.89160156 27.902832,3.56933594 C27.7319336,3.24707031 27.6464844,2.85807292 27.6464844,2.40234375 C27.6464844,1.91080729 27.7400716,1.4851888 27.9272461,1.12548828 C28.1144206,0.76578776 28.3772786,0.48828125 28.7158203,0.29296875 C29.054362,0.09765625 29.453125,0 29.9121094,0 C30.2636719,0 30.5859375,0.0667317708 30.8789062,0.200195312 C31.171875,0.333658854 31.4265951,0.533040365 31.6430664,0.798339844 C31.8595378,1.06363932 32.027181,1.39160156 32.1459961,1.78222656 C32.2648112,2.17285156 32.3242188,2.62695312 32.3242188,3.14453125 Z M29.9121094,0.688476562 C29.4791667,0.688476562 29.128418,0.830078125 28.8598633,1.11328125 C28.5913086,1.39648438 28.4570312,1.82291667 28.4570312,2.39257812 C28.4570312,2.86458333 28.5725911,3.23730469 28.8037109,3.51074219 C29.0348307,3.78417969 29.391276,3.92089844 29.8730469,3.92089844 C30.2050781,3.92089844 30.4923503,3.85416667 30.7348633,3.72070312 C30.9773763,3.58723958 31.1645508,3.41796875 31.2963867,3.21289062 C31.4282227,3.0078125 31.4941406,2.79785156 31.4941406,2.58300781 C31.4941406,2.36816406 31.4624023,2.1500651 31.3989258,1.92871094 C31.3354492,1.70735677 31.2386068,1.50309245 31.1083984,1.31591797 C30.9781901,1.12874349 30.8138021,0.977376302 30.6152344,0.861816406 C30.4166667,0.74625651 30.1822917,0.688476562 29.9121094,0.688476562 Z" id="Shape"></path>
            </g>
            <g id="Feb.-20" transform="translate(464.391, 288.749)" fill="#333333" fill-opacity="0.653231961" fill-rule="nonzero">
                <polygon id="Path" points="0.830078125 7.25097656 0 7.25097656 0 0.112304688 3.97460938 0.112304688 3.97460938 0.844726562 0.830078125 0.844726562 0.830078125 3.46191406 3.78417969 3.46191406 3.78417969 4.18945312 0.830078125 4.18945312"></polygon>
                <polygon id="Path" points="9.13574219 7.25097656 5.16113281 7.25097656 5.16113281 0.112304688 9.13574219 0.112304688 9.13574219 0.844726562 5.99121094 0.844726562 5.99121094 3.15429688 8.95507812 3.15429688 8.95507812 3.87695313 5.99121094 3.87695313 5.99121094 6.51855469 9.13574219 6.51855469"></polygon>
                <path d="M10.7177734,0.112304688 L12.7392578,0.112304688 C13.6311849,0.112304688 14.3017578,0.245768229 14.7509766,0.512695312 C15.2001953,0.779622396 15.4248047,1.23372396 15.4248047,1.875 C15.4248047,2.15169271 15.3719076,2.39990234 15.2661133,2.61962891 C15.160319,2.83935547 15.0065104,3.02083333 14.8046875,3.1640625 C14.6028646,3.30729167 14.3538411,3.40657552 14.0576172,3.46191406 L14.0576172,3.51074219 C14.3701172,3.55957031 14.6468099,3.64908854 14.8876953,3.77929688 C15.1285807,3.90950521 15.3173828,4.09179688 15.4541016,4.32617188 C15.5908203,4.56054688 15.6591797,4.85839844 15.6591797,5.21972656 C15.6591797,5.65917969 15.5574544,6.03027344 15.3540039,6.33300781 C15.1505534,6.63574219 14.8632812,6.86442057 14.4921875,7.01904297 C14.1210938,7.17366536 13.6816406,7.25097656 13.1738281,7.25097656 L10.7177734,7.25097656 L10.7177734,0.112304688 Z M11.5478516,3.17382812 L12.9150391,3.17382812 C13.5367839,3.17382812 13.9672852,3.07128906 14.206543,2.86621094 C14.4458008,2.66113281 14.5654297,2.36165365 14.5654297,1.96777344 C14.5654297,1.5608724 14.4230143,1.26790365 14.1381836,1.08886719 C13.8533529,0.909830729 13.4000651,0.8203125 12.7783203,0.8203125 L11.5478516,0.8203125 L11.5478516,3.17382812 Z M11.5478516,3.87207031 L11.5478516,6.54296875 L13.0322266,6.54296875 C13.6669922,6.54296875 14.1162109,6.41845703 14.3798828,6.16943359 C14.6435547,5.92041016 14.7753906,5.5843099 14.7753906,5.16113281 C14.7753906,4.89095052 14.7159831,4.65983073 14.597168,4.46777344 C14.4783529,4.27571615 14.2862956,4.12841797 14.0209961,4.02587891 C13.7556966,3.92333984 13.4016927,3.87207031 12.9589844,3.87207031 L11.5478516,3.87207031 Z" id="Shape"></path>
                <path d="M16.9335938,6.74316406 C16.9335938,6.51529948 16.9889323,6.35335286 17.0996094,6.25732422 C17.2102865,6.16129557 17.3453776,6.11328125 17.5048828,6.11328125 C17.6708984,6.11328125 17.8108724,6.16129557 17.9248047,6.25732422 C18.038737,6.35335286 18.0957031,6.51529948 18.0957031,6.74316406 C18.0957031,6.96777344 18.038737,7.13134766 17.9248047,7.23388672 C17.8108724,7.33642578 17.6708984,7.38769531 17.5048828,7.38769531 C17.3453776,7.38769531 17.2102865,7.33642578 17.0996094,7.23388672 C16.9889323,7.13134766 16.9335938,6.96777344 16.9335938,6.74316406 Z" id="Path"></path>
                <path d="M26.5966797,7.25097656 L21.9189453,7.25097656 L21.9189453,6.57226562 L23.828125,4.63378906 C24.1829427,4.27571615 24.4816081,3.95670573 24.7241211,3.67675781 C24.9666341,3.3968099 25.1513672,3.12093099 25.2783203,2.84912109 C25.4052734,2.5773112 25.46875,2.27864583 25.46875,1.953125 C25.46875,1.54947917 25.3491211,1.24104818 25.1098633,1.02783203 C24.8706055,0.814615885 24.5556641,0.708007812 24.1650391,0.708007812 C23.8232422,0.708007812 23.5205078,0.766601562 23.2568359,0.883789062 C22.9931641,1.00097656 22.7229818,1.16699219 22.4462891,1.38183594 L22.0117188,0.834960938 C22.2005208,0.675455729 22.4064128,0.533854167 22.6293945,0.41015625 C22.8523763,0.286458333 23.0916341,0.188802083 23.347168,0.1171875 C23.6027018,0.0455729167 23.8753255,0.009765625 24.1650391,0.009765625 C24.6044922,0.009765625 24.983724,0.0862630208 25.3027344,0.239257812 C25.6217448,0.392252604 25.8683268,0.610351562 26.0424805,0.893554688 C26.2166341,1.17675781 26.3037109,1.51367188 26.3037109,1.90429688 C26.3037109,2.28190104 26.2288411,2.63264974 26.0791016,2.95654297 C25.929362,3.2804362 25.719401,3.60107422 25.4492188,3.91845703 C25.1790365,4.23583984 24.8632812,4.5719401 24.5019531,4.92675781 L22.9492188,6.47460938 L22.9492188,6.50878906 L26.5966797,6.50878906 L26.5966797,7.25097656 Z" id="Path"></path>
                <path d="M32.3535156,3.671875 C32.3535156,4.25130208 32.3095703,4.76888021 32.2216797,5.22460938 C32.1337891,5.68033854 31.9954427,6.06608073 31.8066406,6.38183594 C31.6178385,6.69759115 31.3736979,6.93766276 31.0742188,7.10205078 C30.7747396,7.2664388 30.4150391,7.34863281 29.9951172,7.34863281 C29.4645182,7.34863281 29.0258789,7.20377604 28.6791992,6.9140625 C28.3325195,6.62434896 28.0737305,6.20524089 27.902832,5.65673828 C27.7319336,5.10823568 27.6464844,4.44661458 27.6464844,3.671875 C27.6464844,2.91015625 27.7237956,2.25504557 27.878418,1.70654297 C28.0330404,1.15804036 28.2828776,0.736490885 28.6279297,0.441894531 C28.9729818,0.147298177 29.4287109,0 29.9951172,0 C30.5322266,0 30.9749349,0.145670573 31.3232422,0.437011719 C31.6715495,0.728352865 31.9303385,1.14827474 32.0996094,1.69677734 C32.2688802,2.24527995 32.3535156,2.90364583 32.3535156,3.671875 Z M28.4619141,3.671875 C28.4619141,4.3359375 28.5123698,4.88932292 28.6132812,5.33203125 C28.7141927,5.77473958 28.8777669,6.10595703 29.1040039,6.32568359 C29.3302409,6.54541016 29.6272786,6.65527344 29.9951172,6.65527344 C30.3629557,6.65527344 30.6599935,6.54622396 30.8862305,6.328125 C31.1124674,6.11002604 31.2768555,5.7796224 31.3793945,5.33691406 C31.4819336,4.89420573 31.5332031,4.33919271 31.5332031,3.671875 C31.5332031,3.01757812 31.4827474,2.46988932 31.3818359,2.02880859 C31.2809245,1.58772786 31.1181641,1.25569661 30.8935547,1.03271484 C30.6689453,0.809733073 30.3694661,0.698242188 29.9951172,0.698242188 C29.6207682,0.698242188 29.3212891,0.809733073 29.0966797,1.03271484 C28.8720703,1.25569661 28.7101237,1.58772786 28.6108398,2.02880859 C28.511556,2.46988932 28.4619141,3.01757812 28.4619141,3.671875 Z" id="Shape"></path>
            </g>
            <g id="Feb.-21" transform="translate(562.2243, 288.7588)" fill="#333333" fill-opacity="0.653231961" fill-rule="nonzero">
                <polygon id="Path" points="0.830078125 7.24121094 0 7.24121094 0 0.102539062 3.97460938 0.102539062 3.97460938 0.834960938 0.830078125 0.834960938 0.830078125 3.45214844 3.78417969 3.45214844 3.78417969 4.1796875 0.830078125 4.1796875"></polygon>
                <polygon id="Path" points="9.13574219 7.24121094 5.16113281 7.24121094 5.16113281 0.102539062 9.13574219 0.102539062 9.13574219 0.834960938 5.99121094 0.834960938 5.99121094 3.14453125 8.95507812 3.14453125 8.95507812 3.8671875 5.99121094 3.8671875 5.99121094 6.50878906 9.13574219 6.50878906"></polygon>
                <path d="M10.7177734,0.102539062 L12.7392578,0.102539062 C13.6311849,0.102539062 14.3017578,0.236002604 14.7509766,0.502929688 C15.2001953,0.769856771 15.4248047,1.22395833 15.4248047,1.86523438 C15.4248047,2.14192708 15.3719076,2.39013672 15.2661133,2.60986328 C15.160319,2.82958984 15.0065104,3.01106771 14.8046875,3.15429688 C14.6028646,3.29752604 14.3538411,3.3968099 14.0576172,3.45214844 L14.0576172,3.50097656 C14.3701172,3.54980469 14.6468099,3.63932292 14.8876953,3.76953125 C15.1285807,3.89973958 15.3173828,4.08203125 15.4541016,4.31640625 C15.5908203,4.55078125 15.6591797,4.84863281 15.6591797,5.20996094 C15.6591797,5.64941406 15.5574544,6.02050781 15.3540039,6.32324219 C15.1505534,6.62597656 14.8632812,6.85465495 14.4921875,7.00927734 C14.1210938,7.16389974 13.6816406,7.24121094 13.1738281,7.24121094 L10.7177734,7.24121094 L10.7177734,0.102539062 Z M11.5478516,3.1640625 L12.9150391,3.1640625 C13.5367839,3.1640625 13.9672852,3.06152344 14.206543,2.85644531 C14.4458008,2.65136719 14.5654297,2.35188802 14.5654297,1.95800781 C14.5654297,1.55110677 14.4230143,1.25813802 14.1381836,1.07910156 C13.8533529,0.900065104 13.4000651,0.810546875 12.7783203,0.810546875 L11.5478516,0.810546875 L11.5478516,3.1640625 Z M11.5478516,3.86230469 L11.5478516,6.53320312 L13.0322266,6.53320312 C13.6669922,6.53320312 14.1162109,6.40869141 14.3798828,6.15966797 C14.6435547,5.91064453 14.7753906,5.57454427 14.7753906,5.15136719 C14.7753906,4.8811849 14.7159831,4.6500651 14.597168,4.45800781 C14.4783529,4.26595052 14.2862956,4.11865234 14.0209961,4.01611328 C13.7556966,3.91357422 13.4016927,3.86230469 12.9589844,3.86230469 L11.5478516,3.86230469 Z" id="Shape"></path>
                <path d="M16.9335938,6.73339844 C16.9335938,6.50553385 16.9889323,6.34358724 17.0996094,6.24755859 C17.2102865,6.15152995 17.3453776,6.10351562 17.5048828,6.10351562 C17.6708984,6.10351562 17.8108724,6.15152995 17.9248047,6.24755859 C18.038737,6.34358724 18.0957031,6.50553385 18.0957031,6.73339844 C18.0957031,6.95800781 18.038737,7.12158203 17.9248047,7.22412109 C17.8108724,7.32666016 17.6708984,7.37792969 17.5048828,7.37792969 C17.3453776,7.37792969 17.2102865,7.32666016 17.0996094,7.22412109 C16.9889323,7.12158203 16.9335938,6.95800781 16.9335938,6.73339844 Z" id="Path"></path>
                <path d="M26.5966797,7.24121094 L21.9189453,7.24121094 L21.9189453,6.5625 L23.828125,4.62402344 C24.1829427,4.26595052 24.4816081,3.9469401 24.7241211,3.66699219 C24.9666341,3.38704427 25.1513672,3.11116536 25.2783203,2.83935547 C25.4052734,2.56754557 25.46875,2.26888021 25.46875,1.94335938 C25.46875,1.53971354 25.3491211,1.23128255 25.1098633,1.01806641 C24.8706055,0.80485026 24.5556641,0.698242188 24.1650391,0.698242188 C23.8232422,0.698242188 23.5205078,0.756835938 23.2568359,0.874023438 C22.9931641,0.991210938 22.7229818,1.15722656 22.4462891,1.37207031 L22.0117188,0.825195312 C22.2005208,0.665690104 22.4064128,0.524088542 22.6293945,0.400390625 C22.8523763,0.276692708 23.0916341,0.179036458 23.347168,0.107421875 C23.6027018,0.0358072917 23.8753255,0 24.1650391,0 C24.6044922,0 24.983724,0.0764973958 25.3027344,0.229492188 C25.6217448,0.382486979 25.8683268,0.600585938 26.0424805,0.883789062 C26.2166341,1.16699219 26.3037109,1.50390625 26.3037109,1.89453125 C26.3037109,2.27213542 26.2288411,2.62288411 26.0791016,2.94677734 C25.929362,3.27067057 25.719401,3.59130859 25.4492188,3.90869141 C25.1790365,4.22607422 24.8632812,4.56217448 24.5019531,4.91699219 L22.9492188,6.46484375 L22.9492188,6.49902344 L26.5966797,6.49902344 L26.5966797,7.24121094 Z" id="Path"></path>
                <path d="M30.6542969,7.24121094 L29.8632812,7.24121094 L29.8632812,2.18261719 C29.8632812,1.9905599 29.8640951,1.82535807 29.8657227,1.68701172 C29.8673503,1.54866536 29.8706055,1.42171224 29.8754883,1.30615234 C29.8803711,1.19059245 29.8876953,1.07259115 29.8974609,0.952148438 C29.7965495,1.0563151 29.7021484,1.14501953 29.6142578,1.21826172 C29.5263672,1.29150391 29.4173177,1.38183594 29.2871094,1.48925781 L28.4716797,2.14355469 L28.046875,1.59179688 L29.9804688,0.102539062 L30.6542969,0.102539062 L30.6542969,7.24121094 Z" id="Path"></path>
            </g>
            <g id="Feb.-22" transform="translate(660.0576, 288.7588)" fill="#333333" fill-opacity="0.653231961" fill-rule="nonzero">
                <polygon id="Path" points="0.830078125 7.24121094 0 7.24121094 0 0.102539062 3.97460938 0.102539062 3.97460938 0.834960938 0.830078125 0.834960938 0.830078125 3.45214844 3.78417969 3.45214844 3.78417969 4.1796875 0.830078125 4.1796875"></polygon>
                <polygon id="Path" points="9.13574219 7.24121094 5.16113281 7.24121094 5.16113281 0.102539062 9.13574219 0.102539062 9.13574219 0.834960938 5.99121094 0.834960938 5.99121094 3.14453125 8.95507812 3.14453125 8.95507812 3.8671875 5.99121094 3.8671875 5.99121094 6.50878906 9.13574219 6.50878906"></polygon>
                <path d="M10.7177734,0.102539062 L12.7392578,0.102539062 C13.6311849,0.102539062 14.3017578,0.236002604 14.7509766,0.502929688 C15.2001953,0.769856771 15.4248047,1.22395833 15.4248047,1.86523438 C15.4248047,2.14192708 15.3719076,2.39013672 15.2661133,2.60986328 C15.160319,2.82958984 15.0065104,3.01106771 14.8046875,3.15429688 C14.6028646,3.29752604 14.3538411,3.3968099 14.0576172,3.45214844 L14.0576172,3.50097656 C14.3701172,3.54980469 14.6468099,3.63932292 14.8876953,3.76953125 C15.1285807,3.89973958 15.3173828,4.08203125 15.4541016,4.31640625 C15.5908203,4.55078125 15.6591797,4.84863281 15.6591797,5.20996094 C15.6591797,5.64941406 15.5574544,6.02050781 15.3540039,6.32324219 C15.1505534,6.62597656 14.8632812,6.85465495 14.4921875,7.00927734 C14.1210938,7.16389974 13.6816406,7.24121094 13.1738281,7.24121094 L10.7177734,7.24121094 L10.7177734,0.102539062 Z M11.5478516,3.1640625 L12.9150391,3.1640625 C13.5367839,3.1640625 13.9672852,3.06152344 14.206543,2.85644531 C14.4458008,2.65136719 14.5654297,2.35188802 14.5654297,1.95800781 C14.5654297,1.55110677 14.4230143,1.25813802 14.1381836,1.07910156 C13.8533529,0.900065104 13.4000651,0.810546875 12.7783203,0.810546875 L11.5478516,0.810546875 L11.5478516,3.1640625 Z M11.5478516,3.86230469 L11.5478516,6.53320312 L13.0322266,6.53320312 C13.6669922,6.53320312 14.1162109,6.40869141 14.3798828,6.15966797 C14.6435547,5.91064453 14.7753906,5.57454427 14.7753906,5.15136719 C14.7753906,4.8811849 14.7159831,4.6500651 14.597168,4.45800781 C14.4783529,4.26595052 14.2862956,4.11865234 14.0209961,4.01611328 C13.7556966,3.91357422 13.4016927,3.86230469 12.9589844,3.86230469 L11.5478516,3.86230469 Z" id="Shape"></path>
                <path d="M16.9335938,6.73339844 C16.9335938,6.50553385 16.9889323,6.34358724 17.0996094,6.24755859 C17.2102865,6.15152995 17.3453776,6.10351562 17.5048828,6.10351562 C17.6708984,6.10351562 17.8108724,6.15152995 17.9248047,6.24755859 C18.038737,6.34358724 18.0957031,6.50553385 18.0957031,6.73339844 C18.0957031,6.95800781 18.038737,7.12158203 17.9248047,7.22412109 C17.8108724,7.32666016 17.6708984,7.37792969 17.5048828,7.37792969 C17.3453776,7.37792969 17.2102865,7.32666016 17.0996094,7.22412109 C16.9889323,7.12158203 16.9335938,6.95800781 16.9335938,6.73339844 Z" id="Path"></path>
                <path d="M26.5966797,7.24121094 L21.9189453,7.24121094 L21.9189453,6.5625 L23.828125,4.62402344 C24.1829427,4.26595052 24.4816081,3.9469401 24.7241211,3.66699219 C24.9666341,3.38704427 25.1513672,3.11116536 25.2783203,2.83935547 C25.4052734,2.56754557 25.46875,2.26888021 25.46875,1.94335938 C25.46875,1.53971354 25.3491211,1.23128255 25.1098633,1.01806641 C24.8706055,0.80485026 24.5556641,0.698242188 24.1650391,0.698242188 C23.8232422,0.698242188 23.5205078,0.756835938 23.2568359,0.874023438 C22.9931641,0.991210938 22.7229818,1.15722656 22.4462891,1.37207031 L22.0117188,0.825195312 C22.2005208,0.665690104 22.4064128,0.524088542 22.6293945,0.400390625 C22.8523763,0.276692708 23.0916341,0.179036458 23.347168,0.107421875 C23.6027018,0.0358072917 23.8753255,0 24.1650391,0 C24.6044922,0 24.983724,0.0764973958 25.3027344,0.229492188 C25.6217448,0.382486979 25.8683268,0.600585938 26.0424805,0.883789062 C26.2166341,1.16699219 26.3037109,1.50390625 26.3037109,1.89453125 C26.3037109,2.27213542 26.2288411,2.62288411 26.0791016,2.94677734 C25.929362,3.27067057 25.719401,3.59130859 25.4492188,3.90869141 C25.1790365,4.22607422 24.8632812,4.56217448 24.5019531,4.91699219 L22.9492188,6.46484375 L22.9492188,6.49902344 L26.5966797,6.49902344 L26.5966797,7.24121094 Z" id="Path"></path>
                <path d="M32.3144531,7.24121094 L27.6367188,7.24121094 L27.6367188,6.5625 L29.5458984,4.62402344 C29.9007161,4.26595052 30.1993815,3.9469401 30.4418945,3.66699219 C30.6844076,3.38704427 30.8691406,3.11116536 30.9960938,2.83935547 C31.1230469,2.56754557 31.1865234,2.26888021 31.1865234,1.94335938 C31.1865234,1.53971354 31.0668945,1.23128255 30.8276367,1.01806641 C30.5883789,0.80485026 30.2734375,0.698242188 29.8828125,0.698242188 C29.5410156,0.698242188 29.2382812,0.756835938 28.9746094,0.874023438 C28.7109375,0.991210938 28.4407552,1.15722656 28.1640625,1.37207031 L27.7294922,0.825195312 C27.9182943,0.665690104 28.1241862,0.524088542 28.347168,0.400390625 C28.5701497,0.276692708 28.8094076,0.179036458 29.0649414,0.107421875 C29.3204753,0.0358072917 29.593099,0 29.8828125,0 C30.3222656,0 30.7014974,0.0764973958 31.0205078,0.229492188 C31.3395182,0.382486979 31.5861003,0.600585938 31.7602539,0.883789062 C31.9344076,1.16699219 32.0214844,1.50390625 32.0214844,1.89453125 C32.0214844,2.27213542 31.9466146,2.62288411 31.796875,2.94677734 C31.6471354,3.27067057 31.4371745,3.59130859 31.1669922,3.90869141 C30.8968099,4.22607422 30.5810547,4.56217448 30.2197266,4.91699219 L28.6669922,6.46484375 L28.6669922,6.49902344 L32.3144531,6.49902344 L32.3144531,7.24121094 Z" id="Path"></path>
            </g>
            <rect id="Rectangle-Copy-3" fill="#1E9AAA" x="181" y="263" width="6" height="14"></rect>
            <rect id="Rectangle-Copy-4" fill="#1E9AAA" x="279" y="248" width="6" height="29"></rect>
            <rect id="Rectangle-Copy-5" fill="#1E9AAA" x="377" y="220" width="6" height="57"></rect>
            <rect id="Rectangle-Copy-6" fill="#1E9AAA" x="474" y="241" width="6" height="36"></rect>
            <rect id="Rectangle-Copy-7" fill="#1E9AAA" x="572" y="253" width="6" height="24"></rect>
            <rect id="Rectangle-Copy-8" fill="#1E9AAA" x="670" y="244" width="6" height="33"></rect>
        </g>
    </g>
</svg>